<?xml version="1.0" encoding="UTF-8" standalone="no"?>
<!-- Created with Inkscape (http://www.inkscape.org/) -->

<svg
   xmlns:dc="http://purl.org/dc/elements/1.1/"
   xmlns:cc="http://creativecommons.org/ns#"
   xmlns:rdf="http://www.w3.org/1999/02/22-rdf-syntax-ns#"
   xmlns:svg="http://www.w3.org/2000/svg"
   xmlns="http://www.w3.org/2000/svg"
   xmlns:xlink="http://www.w3.org/1999/xlink"
   xmlns:sodipodi="http://sodipodi.sourceforge.net/DTD/sodipodi-0.dtd"
   xmlns:inkscape="http://www.inkscape.org/namespaces/inkscape"
   width="30.705898mm"
   height="31.999998mm"
   viewBox="0 0 108.80043 113.38582"
   id="svg2"
   version="1.1"
   inkscape:version="0.91 r13725"
   sodipodi:docname="Eimer-lineart.svg">
  <title
     id="title4147">bucket - lineart</title>
  <defs
     id="defs4">
    <pattern
       inkscape:collect="always"
       xlink:href="#Strips1_1"
       id="pattern6092"
       patternTransform="scale(1.3630682,10.48972)" />
    <pattern
       inkscape:isstock="true"
       inkscape:stockid="Stripes 1:1"
       id="Strips1_1"
       patternTransform="translate(0,0) scale(10,10)"
       height="1"
       width="2"
       patternUnits="userSpaceOnUse"
       inkscape:collect="always">
      <rect
         id="rect4994"
         height="2"
         width="1"
         y="-0.5"
         x="0"
         style="fill:black;stroke:none" />
    </pattern>
    <pattern
       inkscape:collect="always"
       xlink:href="#Strips1_3"
       id="pattern6064"
       patternTransform="scale(1.1611652,6.211928)" />
    <pattern
       inkscape:stockid="Stripes 1:3"
       id="Strips1_3"
       patternTransform="translate(0,0) scale(10,10)"
       height="1"
       width="4"
       patternUnits="userSpaceOnUse"
       inkscape:collect="always">
      <rect
         id="rect5012"
         height="2"
         width="1"
         y="-0.5"
         x="0"
         style="fill:black;stroke:none" />
    </pattern>
    <pattern
       inkscape:collect="always"
       xlink:href="#Polkadots-large"
       id="pattern5970"
       patternTransform="matrix(1.2116728,0,0,1.6157339,6.823809,-26.957585)" />
    <pattern
       inkscape:collect="always"
       xlink:href="#Polkadots-large"
       id="pattern5863"
       patternTransform="matrix(1.0096423,0,0,1.0348962,-65.086127,-44.547101)" />
    <pattern
       inkscape:stockid="Polka dots, large"
       id="Polkadots-large"
       patternTransform="translate(0,0) scale(10,10)"
       height="10"
       width="10"
       patternUnits="userSpaceOnUse"
       inkscape:collect="always">
      <circle
         id="circle5444"
         r="0.45"
         cy="0.810"
         cx="2.567"
         style="fill:black;stroke:none" />
      <circle
         id="circle5446"
         r="0.45"
         cy="2.33"
         cx="3.048"
         style="fill:black;stroke:none" />
      <circle
         id="circle5448"
         r="0.45"
         cy="2.415"
         cx="4.418"
         style="fill:black;stroke:none" />
      <circle
         id="circle5450"
         r="0.45"
         cy="3.029"
         cx="1.844"
         style="fill:black;stroke:none" />
      <circle
         id="circle5452"
         r="0.45"
         cy="1.363"
         cx="6.08"
         style="fill:black;stroke:none" />
      <circle
         id="circle5454"
         r="0.45"
         cy="4.413"
         cx="5.819"
         style="fill:black;stroke:none" />
      <circle
         id="circle5456"
         r="0.45"
         cy="4.048"
         cx="4.305"
         style="fill:black;stroke:none" />
      <circle
         id="circle5458"
         r="0.45"
         cy="3.045"
         cx="5.541"
         style="fill:black;stroke:none" />
      <circle
         id="circle5460"
         r="0.45"
         cy="5.527"
         cx="4.785"
         style="fill:black;stroke:none" />
      <circle
         id="circle5462"
         r="0.45"
         cy="5.184"
         cx="2.667"
         style="fill:black;stroke:none" />
      <circle
         id="circle5464"
         r="0.45"
         cy="1.448"
         cx="7.965"
         style="fill:black;stroke:none" />
      <circle
         id="circle5466"
         r="0.45"
         cy="5.049"
         cx="7.047"
         style="fill:black;stroke:none" />
      <circle
         id="circle5468"
         r="0.45"
         cy="0.895"
         cx="4.340"
         style="fill:black;stroke:none" />
      <circle
         id="circle5470"
         r="0.45"
         cy="0.340"
         cx="7.125"
         style="fill:black;stroke:none" />
      <circle
         id="circle5472"
         r="0.45"
         cy="1.049"
         cx="9.553"
         style="fill:black;stroke:none" />
      <circle
         id="circle5474"
         r="0.45"
         cy="2.689"
         cx="7.006"
         style="fill:black;stroke:none" />
      <circle
         id="circle5476"
         r="0.45"
         cy="2.689"
         cx="8.909"
         style="fill:black;stroke:none" />
      <circle
         id="circle5478"
         r="0.45"
         cy="4.407"
         cx="9.315"
         style="fill:black;stroke:none" />
      <circle
         id="circle5480"
         r="0.45"
         cy="3.870"
         cx="7.820"
         style="fill:black;stroke:none" />
      <circle
         id="circle5482"
         r="0.45"
         cy="5.948"
         cx="8.270"
         style="fill:black;stroke:none" />
      <circle
         id="circle5484"
         r="0.45"
         cy="7.428"
         cx="7.973"
         style="fill:black;stroke:none" />
      <circle
         id="circle5486"
         r="0.45"
         cy="8.072"
         cx="9.342"
         style="fill:black;stroke:none" />
      <circle
         id="circle5488"
         r="0.45"
         cy="9.315"
         cx="8.206"
         style="fill:black;stroke:none" />
      <circle
         id="circle5490"
         r="0.45"
         cy="9.475"
         cx="9.682"
         style="fill:black;stroke:none" />
      <circle
         id="circle5492"
         r="0.45"
         cy="6.186"
         cx="9.688"
         style="fill:black;stroke:none" />
      <circle
         id="circle5494"
         r="0.45"
         cy="6.296"
         cx="3.379"
         style="fill:black;stroke:none" />
      <circle
         id="circle5496"
         r="0.45"
         cy="8.204"
         cx="2.871"
         style="fill:black;stroke:none" />
      <circle
         id="circle5498"
         r="0.45"
         cy="8.719"
         cx="4.59"
         style="fill:black;stroke:none" />
      <circle
         id="circle5500"
         r="0.45"
         cy="9.671"
         cx="3.181"
         style="fill:black;stroke:none" />
      <circle
         id="circle5502"
         r="0.45"
         cy="7.315"
         cx="5.734"
         style="fill:black;stroke:none" />
      <circle
         id="circle5504"
         r="0.45"
         cy="6.513"
         cx="6.707"
         style="fill:black;stroke:none" />
      <circle
         id="circle5506"
         r="0.45"
         cy="9.670"
         cx="5.730"
         style="fill:black;stroke:none" />
      <circle
         id="circle5508"
         r="0.45"
         cy="8.373"
         cx="6.535"
         style="fill:black;stroke:none" />
      <circle
         id="circle5510"
         r="0.45"
         cy="7.154"
         cx="4.37"
         style="fill:black;stroke:none" />
      <circle
         id="circle5512"
         r="0.45"
         cy="7.25"
         cx="0.622"
         style="fill:black;stroke:none" />
      <circle
         id="circle5514"
         r="0.45"
         cy="5.679"
         cx="0.831"
         style="fill:black;stroke:none" />
      <circle
         id="circle5516"
         r="0.45"
         cy="8.519"
         cx="1.257"
         style="fill:black;stroke:none" />
      <circle
         id="circle5518"
         r="0.45"
         cy="6.877"
         cx="1.989"
         style="fill:black;stroke:none" />
      <circle
         id="circle5520"
         r="0.45"
         cy="3.181"
         cx="0.374"
         style="fill:black;stroke:none" />
      <circle
         id="circle5522"
         r="0.45"
         cy="1.664"
         cx="1.166"
         style="fill:black;stroke:none" />
      <circle
         id="circle5524"
         r="0.45"
         cy="0.093"
         cx="1.151"
         style="fill:black;stroke:none" />
      <circle
         id="circle5526"
         r="0.45"
         cy="10.093"
         cx="1.151"
         style="fill:black;stroke:none" />
      <circle
         id="circle5528"
         r="0.45"
         cy="4.451"
         cx="1.302"
         style="fill:black;stroke:none" />
      <circle
         id="circle5530"
         r="0.45"
         cy="3.763"
         cx="3.047"
         style="fill:black;stroke:none" />
    </pattern>
  </defs>
  <sodipodi:namedview
     id="base"
     pagecolor="#ffffff"
     bordercolor="#666666"
     borderopacity="1.0"
     inkscape:pageopacity="0.0"
     inkscape:pageshadow="2"
     inkscape:zoom="0.70710678"
     inkscape:cx="39.987297"
     inkscape:cy="55.148423"
     inkscape:document-units="mm"
     inkscape:current-layer="layer1"
     showgrid="false"
     inkscape:window-width="1524"
     inkscape:window-height="905"
     inkscape:window-x="342"
     inkscape:window-y="331"
     inkscape:window-maximized="0"
     inkscape:snap-global="false"
     fit-margin-top="1"
     fit-margin-right="1"
     fit-margin-bottom="1"
     fit-margin-left="1" />
  <metadata
     id="metadata7">
    <rdf:RDF>
      <cc:Work
         rdf:about="">
        <dc:format>image/svg+xml</dc:format>
        <dc:type
           rdf:resource="http://purl.org/dc/dcmitype/StillImage" />
        <dc:title>bucket - lineart</dc:title>
        <cc:license
           rdf:resource="http://creativecommons.org/publicdomain/zero/1.0/" />
        <dc:date>2014-02-09</dc:date>
        <dc:creator>
          <cc:Agent>
            <dc:title>Frank Tremmel</dc:title>
          </cc:Agent>
        </dc:creator>
        <dc:subject>
          <rdf:Bag>
            <rdf:li>bucket</rdf:li>
            <rdf:li>container</rdf:li>
            <rdf:li>vessel</rdf:li>
            <rdf:li>eimer</rdf:li>
            <rdf:li>gefäß</rdf:li>
            <rdf:li>behälter</rdf:li>
            <rdf:li>line art</rdf:li>
            <rdf:li>outline</rdf:li>
            <rdf:li></rdf:li>
          </rdf:Bag>
        </dc:subject>
        <dc:description>line art bucket</dc:description>
      </cc:Work>
      <cc:License
         rdf:about="http://creativecommons.org/publicdomain/zero/1.0/">
        <cc:permits
           rdf:resource="http://creativecommons.org/ns#Reproduction" />
        <cc:permits
           rdf:resource="http://creativecommons.org/ns#Distribution" />
        <cc:permits
           rdf:resource="http://creativecommons.org/ns#DerivativeWorks" />
      </cc:License>
    </rdf:RDF>
  </metadata>
  <g
     inkscape:label="Ebene 1"
     inkscape:groupmode="layer"
     id="layer1"
     transform="translate(-34.138257,-2.7404027)">
    <path
       style="fill:#ffffff;fill-opacity:1;fill-rule:evenodd;stroke:#000000;stroke-width:1.77165353;stroke-linecap:butt;stroke-linejoin:miter;stroke-miterlimit:4;stroke-dasharray:none;stroke-opacity:1"
       d="m 52.23888,90.76874 0.10949,9.49415 c 0.0215,1.86336 0.71789,5.34971 3.39426,6.49309 9.48165,4.05072 20.7824,5.0512 32.14847,4.93174 9.81439,-0.10311 19.67748,-0.80502 28.46018,-3.91671 2.17214,-0.76958 4.22621,-2.41366 4.48916,-5.80193 l 0.43797,-9.633411 z"
       id="path4227-7"
       inkscape:connector-curvature="0"
       sodipodi:nodetypes="cssssscc" />
    <path
       style="fill:url(#pattern6064);fill-opacity:1;fill-rule:evenodd;stroke:#000000;stroke-width:1.77165353;stroke-linecap:butt;stroke-linejoin:miter;stroke-miterlimit:4;stroke-dasharray:none;stroke-opacity:1"
       d="m 52.23888,90.768741 0.109497,9.494149 c 0.02148,1.86336 0.717889,5.34971 3.394252,6.49309 9.481658,4.05072 20.782404,5.0512 32.148472,4.93174 9.814388,-0.10311 19.677479,-0.80502 28.460179,-3.91671 2.17214,-0.76958 4.22621,-2.41366 4.48916,-5.80193 l 0.43797,-9.63341 z"
       id="path4227"
       inkscape:connector-curvature="0"
       sodipodi:nodetypes="cssssscc" />
    <path
       style="color:#000000;display:inline;overflow:visible;visibility:visible;opacity:1;fill:#ffffff;fill-opacity:1;fill-rule:evenodd;stroke:#000000;stroke-width:1.77165353;stroke-linecap:round;stroke-linejoin:bevel;stroke-miterlimit:4;stroke-dasharray:none;stroke-dashoffset:0;stroke-opacity:1;marker:none;enable-background:accumulate"
       d="m 131.22899,15.065081 c 0,2.992562 -19.93636,7.276288 -42.981082,7.276288 -23.044717,0 -42.039883,-3.974097 -42.039879,-6.966659 10e-7,-2.992561 19.936358,-8.2051734 42.98107,-8.2051734 23.044711,0 42.039871,4.9029834 42.039891,7.8955444 z"
       id="path4168-19"
       inkscape:connector-curvature="0"
       sodipodi:nodetypes="sssss" />
    <path
       style="fill:#ffffff;fill-opacity:1;fill-rule:evenodd;stroke:#000000;stroke-width:1.77165353;stroke-linecap:butt;stroke-linejoin:miter;stroke-miterlimit:4;stroke-dasharray:none;stroke-opacity:1"
       d="m 47.877986,20.666858 c 0.364973,22.186014 0.830935,44.453446 2.408824,66.339101 0.268534,3.724616 -0.03944,7.556677 4.817649,9.086049 21.63833,6.813362 52.179751,4.442782 65.366721,0.547352 3.88246,-1.146878 3.10813,-2.846148 3.50374,-5.364053 3.39027,-21.577652 6.15075,-50.18935 7.44546,-69.842156 -26.73313,4.943776 -54.193663,6.493673 -83.542394,-0.766293 z"
       id="path4225"
       inkscape:connector-curvature="0"
       sodipodi:nodetypes="csssscc" />
    <path
       style="fill:#ffffff;fill-opacity:1;fill-rule:evenodd;stroke:#000000;stroke-width:1.77165353;stroke-linecap:butt;stroke-linejoin:miter;stroke-miterlimit:4;stroke-dasharray:none;stroke-opacity:1"
       d="m 44.483734,19.900563 c -1.751873,1.860999 -7.041977,12.737628 -5.693584,19.923625 3.355807,17.884115 23.848588,21.891018 26.278079,21.565683 l 0.109498,-4.050408 c 0,0 -15.683127,-0.07223 -21.788908,-16.3111 -2.477965,-6.590368 2.625407,-16.82443 4.379679,-18.82892 z"
       id="path4229"
       inkscape:connector-curvature="0"
       sodipodi:nodetypes="csccscc" />
    <path
       style="fill:#ffffff;fill-opacity:1;fill-rule:evenodd;stroke:#000000;stroke-width:1.77165353;stroke-linecap:butt;stroke-linejoin:miter;stroke-miterlimit:4;stroke-dasharray:none;stroke-opacity:1"
       d="m 131.63688,19.059192 c 1.75187,1.860999 8.02741,12.518687 6.67902,19.704684 -3.35582,17.884115 -25.27199,24.189898 -27.70148,23.864563 l 0.1095,-4.378819 c 0,0 16.99702,-2.371103 23.1028,-18.60998 2.47797,-6.590368 -3.06338,-16.277079 -4.81764,-18.281568 z"
       id="path4229-2"
       inkscape:connector-curvature="0"
       sodipodi:nodetypes="csccscc" />
    <path
       style="fill:#ffffff;fill-opacity:1;fill-rule:evenodd;stroke:#000000;stroke-width:1.77165353;stroke-linecap:butt;stroke-linejoin:miter;stroke-miterlimit:4;stroke-dasharray:none;stroke-opacity:1"
       d="m 87.733074,52.522763 c -4.151506,-0.05596 -12.810565,3.393584 -12.810565,3.393584 0,0 -1.941041,-2.085636 -4.051203,-2.189409 -2.407113,-0.118376 -5.929291,2.151037 -6.131552,5.911405 -0.202262,3.760368 0.995219,7.828198 5.4746,8.538696 2.768842,0.439181 3.83222,-3.174643 3.83222,-3.174643 0,0 7.88909,3.985535 12.920056,4.159877 4.415335,0.153007 13.79599,-2.846231 13.79599,-2.846231 0,0 2.5028,2.271905 4.05121,2.189409 4.3683,-0.232736 6.14128,-4.525396 6.13155,-8.210286 -0.01,-3.733669 -3.51846,-6.360687 -6.24105,-6.349286 -2.72258,0.0114 -4.48917,2.079939 -4.48917,2.079939 0,0 -7.805011,-3.440018 -12.482086,-3.503055 z"
       id="path4252"
       inkscape:connector-curvature="0"
       sodipodi:nodetypes="scszscscsszcs" />
    <path
       style="fill:url(#pattern5970);fill-opacity:1;fill-rule:evenodd;stroke:#000000;stroke-width:1.77165353;stroke-linecap:butt;stroke-linejoin:miter;stroke-miterlimit:4;stroke-dasharray:none;stroke-opacity:1"
       d="m 131.63688,19.059192 c 1.75187,1.860999 8.02741,12.518687 6.67902,19.704684 -3.35582,17.884115 -25.27199,24.189898 -27.70148,23.864563 l 0.1095,-4.378819 c 0,0 16.99702,-2.371103 23.1028,-18.60998 2.47797,-6.590368 -3.06338,-16.277079 -4.81764,-18.281568 z"
       id="path4229-2-7"
       inkscape:connector-curvature="0"
       sodipodi:nodetypes="csccscc" />
    <path
       style="fill:url(#pattern5863);fill-opacity:1;fill-rule:evenodd;stroke:#000000;stroke-width:1.77165353;stroke-linecap:butt;stroke-linejoin:miter;stroke-miterlimit:4;stroke-dasharray:none;stroke-opacity:1"
       d="m 44.483735,19.900563 c -1.75187,1.860999 -7.04198,12.737628 -5.69358,19.923625 3.3558,17.884115 23.84858,21.891018 26.27808,21.565683 l 0.10949,-4.050408 c 0,0 -15.68312,-0.07223 -21.7889,-16.3111 -2.47797,-6.590368 2.6254,-16.82443 4.37967,-18.82892 z"
       id="path4229-5"
       inkscape:connector-curvature="0"
       sodipodi:nodetypes="csccscc" />
    <path
       style="color:#000000;display:inline;overflow:visible;visibility:visible;opacity:1;fill:#ffffff;fill-opacity:1;fill-rule:evenodd;stroke:#000000;stroke-width:1.77165341;stroke-linecap:round;stroke-linejoin:bevel;stroke-miterlimit:4;stroke-dasharray:none;stroke-dashoffset:0;stroke-opacity:1;marker:none;enable-background:accumulate"
       d="m 46.571951,14.337366 c -1.50527,0.885007 -2.381682,1.805233 -2.486153,2.729921 -0.328475,2.90743 1.468798,4.201169 2.565193,4.731861 5.477768,2.651424 23.166732,4.845126 42.108913,5.519705 18.443556,0.656824 35.400646,-3.148321 41.289776,-5.038378 2.61696,-0.839884 1.9609,-4.302004 2.01191,-4.865962 0.0884,-0.978456 -0.27939,-1.901747 -1.05625,-2.765839 0.11184,0.179207 0.19154,0.356828 0.22035,0.531615 0.48676,2.952724 -19.67952,7.277391 -42.427464,7.277391 -22.747942,0 -42.813086,-4.193832 -42.813082,-7.186393 0,-0.291649 0.20579,-0.605937 0.586807,-0.933921 z"
       id="path4168-1"
       inkscape:connector-curvature="0"
       sodipodi:nodetypes="csssscccssc" />
    <path
       style="color:#000000;display:inline;overflow:visible;visibility:visible;opacity:1;fill:url(#pattern6092);fill-opacity:1;fill-rule:evenodd;stroke:#000000;stroke-width:1.77165353;stroke-linecap:round;stroke-linejoin:bevel;stroke-miterlimit:4;stroke-dasharray:none;stroke-dashoffset:0;stroke-opacity:1;marker:none;enable-background:accumulate"
       d="m 131.22899,15.065081 c 0,2.992562 -19.93636,7.276288 -42.981086,7.276288 -23.04472,0 -42.03988,-3.974097 -42.03988,-6.966659 0,-2.992561 19.93636,-8.2051732 42.98107,-8.2051732 23.044716,0 42.039876,4.9029832 42.039896,7.8955442 z"
       id="path4168-19-2"
       inkscape:connector-curvature="0"
       sodipodi:nodetypes="sssss" />
  </g>
</svg>
