<?xml version="1.0" encoding="UTF-8"?>
<!DOCTYPE svg PUBLIC "-//W3C//DTD SVG 1.1//EN" "http://www.w3.org/Graphics/SVG/1.1/DTD/svg11.dtd">
<!-- Creator: CorelDRAW -->
<svg xmlns="http://www.w3.org/2000/svg" xml:space="preserve" width="600px" height="600px" style="shape-rendering:geometricPrecision; text-rendering:geometricPrecision; image-rendering:optimizeQuality; fill-rule:evenodd; clip-rule:evenodd"
viewBox="0 0 600 480"
 xmlns:xlink="http://www.w3.org/1999/xlink">
 <defs>
  <style type="text/css">
   <![CDATA[
    .fil0 {fill:#1F1A17}
    .fil1 {fill:#7B0101}
    .fil2 {fill:#AD0101}
    .fil3 {fill:#FF0101}
   ]]>
  </style>
 </defs>
 <g id="Livello_x0020_1">
  <metadata id="CorelCorpID_0Corel-Layer"/>
  <g id="_76285576">
   <path id="_75493720" class="fil0" d="M454.456 66.0024l29.0616 13.7352c18.6972,1.0188 57.3036,4.7628 61.3032,29.5176l49.2468 23.3076 -45.4308 123.072 -420.779 183.377 -97.2504 -171.781 -24.6744 -125.274 45.4548 -11.0136c13.6584,-20.9256 49.0776,-23.8632 73.8708,-17.7456l45.7308 -11.106c12.8592,-20.1372 48.0348,-19.1388 65.9016,-15.8004l38.6448 -9.276c7.5312,-19.452 42.156,-17.292 58.704,-14.1864l30.9624 -7.4628c9.4848,-23.7228 83.9556,-16.6572 89.2536,10.6368z"/>
   <polygon id="_75377024" class="fil1" points="39.726,263.852 131.951,426.755 118.466,300.048 17.1312,149.132 "/>
   <path id="_76285520" class="fil1" d="M357.937 134.944l-1.9704 13.41 -0.6456 -0.0708 -0.2844 5.0736c4.11,8.4372 4.8504,9.1848 12.9936,13.9668 4.5168,2.652 13.8228,6.4548 20.3112,6.9948 2.3616,-0.954 2.5212,-8.4612 3.018,-10.9524 0.7116,-3.5712 1.7724,-7.7964 2.0616,-11.2728 -11.2272,-0.2508 -34.0296,-10.836 -34.9248,-21.5904l-0.5592 4.4412z"/>
   <path id="_77826296" class="fil1" d="M449.936 118.438c-3.0864,4.9692 7.6464,13.5504 11.0412,15.6288 4.302,2.6328 14.526,5.9388 20.0736,7.2312l5.0796 -21.5892c-7.7004,-1.794 -11.7492,-3.8304 -18.3384,-6.4272 -7.0944,-2.7948 -9.0312,-6.0864 -12.7764,-11.988l-4.7304 18.51 -0.3492 -1.3656zm0.6348 -3.1752l-0.6348 1.2708 0.6348 -1.2708zm1.9044 -7.62l-0.6348 1.2708 0.6348 -1.2708zm0.6348 -3.174l-0.6348 1.2696 0.6348 -1.2696z"/>
   <path id="_137696352" class="fil1" d="M243.562 187.652c0.2688,12.0744 18.1812,23.8848 29.2092,24.1296l1.9056 -23.4948c-4.8396,-0.108 -13.7436,-4.2684 -17.2644,-6.2316 -6.9216,-3.858 -8.5488,-8.6388 -11.946,-10.9128l-0.6348 -3.1752 -1.2696 19.6848z"/>
   <path id="_46662232" class="fil1" d="M374.371 58.7484l-3.1752 19.05c0,10.8204 16.9656,16.284 27.3048,17.1444 2.8872,-1.1652 4.3584,-15.168 4.4448,-19.05 -0.5172,-0.36 -15.2388,-4.2504 -17.7048,-5.1552 -5.3148,-1.95 -10.8696,-5.5104 -10.8696,-11.9892zm-1.9056 7.62l-0.6348 1.9044 0.6348 -1.9044z"/>
   <path id="_78641872" class="fil1" d="M179.426 130.502l0 3.81c0,6.2364 13.5072,11.8956 19.6848,13.3356l1.2696 0 0 -20.9556 -1.2696 -0.6348c-4.0932,-0.9528 -9.0252,-2.364 -12.1752,-4.3344 -4.8024,-3.0036 -5.8788,-6.0708 -8.1444,-7.7304l0.6348 15.8748 0 0.6348z"/>
   <path id="_77331888" class="fil1" d="M281.026 103.832c3.7476,7.0812 7.7088,11.2848 16.5108,13.3356l2.5392 -20.3196c-7.4772,-1.7424 -12.6792,-5.2836 -16.5096,-10.7952l-2.5404 17.7792zm0.636 -7.62l-0.636 4.446 0.636 -4.446zm0.6348 -9.5244l-0.6348 5.0796 0.6348 -5.0796z"/>
   <path id="_137696640" class="fil1" d="M110.212 219.402l1.2696 15.876c1.6524,7.092 7.7688,15.552 14.6052,17.1444l-1.2696 -23.4948c-3.306,-2.214 -6.1668,-3.2688 -9.0504,-6.1908 -4.5432,-4.6032 -3.168,-4.7004 -6.1896,-9.0492l0.6348 5.7144z"/>
   <path id="_78162008" class="fil1" d="M58.776 164.792c2.1744,3.246 1.7304,4.626 4.698,8.6376 2.3628,3.1932 4.6308,3.5484 8.0028,5.3328l0 -6.9852 -2.598 -3.7692 0.6924 -10.836 -0.6348 -0.6348c-6.6672,-3.528 -6.6336,-3.372 -11.43,-8.8896l2.5068 17.8332 -1.2372 -0.6888zm0 -2.5404l-0.6348 -1.9044 0.6348 1.9044zm-1.2696 -8.2548l-0.6348 -2.5392 0.6348 2.5392z"/>
   <polygon id="_76665864" class="fil2" points="118.466,300.048 131.951,426.755 541.048,248.47 582.016,137.488 "/>
   <path id="_78258624" class="fil2" d="M124.817 228.928l1.2696 23.4948c2.5584,3.492 21.1752,7.62 27.9396,7.62l2.5404 0c22.9188,0 47.1276,-9.4512 51.4344,-27.9396l-0.6348 -21.5904c-1.3104,1.8864 -1.4772,4.1688 -2.9916,5.8992 -1.6716,1.9104 -2.442,2.6652 -4.1496,4.7388 -0.594,0.7212 -9.582,6.3564 -10.818,6.9624 -6.5916,3.2352 -19.3788,6.5292 -29.0304,6.5292l-8.2548 0c-13.74,0 -17.7996,-3.5004 -27.3048,-5.7144z"/>
   <path id="_77500776" class="fil2" d="M143.231 141.932l-0.6348 -4.4448 0.6348 4.4448zm-1.2696 -1.9044c-3.7512,5.3976 -1.2876,4.3116 -7.14,9.3696 -2.9388,2.5416 -6.3936,4.2132 -9.9984,5.8764 -6.0792,2.8056 -17.6256,5.0736 -26.676,5.0736l-12.0648 0c-7.7808,0 -11.1156,-3.0552 -16.5108,-3.1752l-0.6348 -0.6348 0.6348 0.6348 -0.6924 10.836 2.598 3.7692 0 6.9852c6.4044,3.3888 18.0996,5.0796 27.9396,5.0796l2.5404 0c5.2044,0 20.7204,-4.3368 24.9732,-6.1404 8.7708,-3.7224 11.4708,-6.966 16.3008,-14.1792l0 -16.5108 0 4.446 -0.48 -0.0084 -0.7896 -11.4216z"/>
   <path id="_78207744" class="fil2" d="M274.676 188.287l-1.9056 23.4948 16.4472 2.994 9.588 -0.4536c7.2756,0 14.9832,-3.354 20.7228,-5.3124 5.3844,-1.836 10.7148,-8.2068 13.5672,-12.468l1.2696 -12.0648 -0.5076 -4.4448 0.5076 -4.4448c-4.098,3.0024 -5.3844,8.2152 -13.596,10.5336 -4.728,1.3344 -13.992,4.7064 -19.4232,4.7064l-5.7156 0 -20.9544 -2.5404z"/>
   <path id="_75510104" class="fil2" d="M199.111 126.058l1.2696 0.6348 0 20.9556 -1.2696 0 17.0892 2.9628 6.4056 -0.4236c6.3576,0 17.0664,-2.4396 21.396,-4.6392 8.3436,-4.2396 8.7204,-5.2524 12.894,-13.14l-1.1016 0.012 1.1016 -19.062c-4.3308,6.8256 -4.1652,6.5724 -11.8308,10.3932 -2.5188,1.2552 -14.0856,4.212 -17.3796,4.212l-13.3344 0 -15.24 -1.9056zm57.7848 3.81l0.6348 -6.9852 -0.6348 6.9852z"/>
   <path id="_75139072" class="fil2" d="M300.076 96.8484l-2.5392 20.3196c4.9464,3.4368 21.396,4.4448 30.48,4.4448 2.7252,0 12.7656,-2.682 15.4788,-3.5712 7.704,-2.5212 6.8244,-4.9344 11.1912,-7.8588l1.9044 -14.6052 -0.6348 -4.4448c-2.3544,1.7244 -2.7384,2.928 -6.3528,5.0772 -1.6032,0.9528 -5.7204,1.9668 -8.028,2.7672 -2.4948,0.864 -16.7784,1.6812 -20.544,1.6812 -5.4096,0 -17.4948,-2.1504 -20.9556,-3.81z"/>
   <path id="_77970704" class="fil2" d="M393.421 152.093c-0.2892,3.4764 -1.35,7.7016 -2.0616,11.2728 -0.4968,2.4912 -0.6564,9.9984 -3.018,10.9524 4.8168,3.0564 22.746,2.0616 29.7996,1.2252 3.2328,-0.384 10.4412,-3.0504 12.87,-4.2756 4.8768,-2.4612 5.3304,-4.5036 7.4952,-9.0156l0.6036 -3.816 1.8636 -8.2596 0.6204 -2.5176 0.7224 -3.186c-7.1916,3.8052 -11.4768,8.8896 -23.4948,8.8896l-10.7952 0 -14.6052 -1.2696z"/>
   <path id="_78794168" class="fil2" d="M486.131 119.708l-5.0796 21.5892c13.2456,3.0864 40.5288,5.5164 47.6244,-5.0796l6.9852 -20.9556c-5.106,2.7024 -10.6644,6.9852 -19.05,6.9852l-6.9852 0 -23.4948 -2.5392zm50.1648 -3.81l-0.6348 0.6348 0.6348 -0.6348zm-0.6348 1.9044l-0.6348 0.6348 0.6348 -0.6348zm-1.2696 3.1752l0.6348 -1.2696 -0.6348 1.2696zm-1.9056 6.9852l-0.6348 0.6348 0.6348 -0.6348zm-0.6348 1.9044l-0.6348 0.6348 0.6348 -0.6348zm-1.2696 3.1752l0.6348 -1.2696 -0.6348 1.2696z"/>
   <path id="_77969560" class="fil2" d="M402.946 75.8928c-0.0864,3.882 -1.5576,17.8848 -4.4448,19.05 4.9788,3.1584 21.372,1.3392 27.5724,0.2664 9.27,-1.6032 15.4416,-5.25 16.2432,-14.8716l1.2696 -10.7952c-6.0528,4.0536 -13.4964,7.5732 -24.1296,6.9852l-16.5108 -0.6348zm40.6404 -2.5404l1.2696 -1.2696 0 -0.6348 -1.2696 1.9044zm-1.2696 5.7156l0.6348 -1.2696 -0.6348 1.2696z"/>
   <path id="_78269496" class="fil3" d="M208.001 232.103c-4.3068,18.4884 -28.5156,27.9396 -51.4344,27.9396l-2.5404 0c-6.7644,0 -25.3812,-4.128 -27.9396,-7.62 -6.8364,-1.5924 -12.9528,-10.0524 -14.6052,-17.1444l-0.6348 -0.636 -0.6348 -3.174 -1.2696 -12.066 -0.636 -6.984 0 -2.5404c0,-19.3944 28.8432,-30.9192 49.53,-30.9192 5.2224,0.2772 10.5768,0.2532 15.7596,0.9204 11.4168,1.47 21.2016,6.1464 27.8916,11.7468 4.8384,4.0512 7.1664,8.2932 7.1496,16.9812 -0.0108,5.0676 1.3308,20.3964 -0.636,23.496zm-98.424 -18.4152c3.0216,4.3488 1.6464,4.446 6.1896,9.0492 2.8836,2.922 5.7444,3.9768 9.0504,6.1908 9.5052,2.214 13.5648,5.7144 27.3048,5.7144l8.2548 0c9.6516,0 22.4388,-3.294 29.0304,-6.5292 1.236,-0.606 10.224,-6.2412 10.818,-6.9624 1.7076,-2.0736 2.478,-2.8284 4.1496,-4.7388 1.5144,-1.7304 1.6812,-4.0128 2.9916,-5.8992 1.8816,-22.6068 -24.3492,-30.48 -47.6244,-30.48 -12.1776,0 -25.2264,3.1656 -35.8224,9.2628 -8.6664,4.9872 -15.3588,12.1836 -14.3424,24.3924zm135.254 -45.72l0.6348 3.1752c3.3972,2.274 5.0244,7.0548 11.946,10.9128 3.5208,1.9632 12.4248,6.1236 17.2644,6.2316l20.9544 2.5404 5.7156 0c5.4312,0 14.6952,-3.372 19.4232,-4.7064 8.2116,-2.3184 9.498,-7.5312 13.596,-10.5336 0,-6.9852 1.2132,-9.822 -2.6916,-14.4528 -2.9472,-3.4944 -6.006,-5.8908 -10.2204,-8.1948 -6.8472,-3.7452 -19.3404,-7.8324 -29.6328,-7.8324l-10.7952 0c-15.96,0 -36.1944,7.05 -36.1944,22.86zm90.1704 12.0648l-0.636 4.4448 -1.2696 12.0648c-2.8524,4.2612 -8.1828,10.632 -13.5672,12.468 -5.7396,1.9584 -13.4472,5.3124 -20.7228,5.3124l-9.588 0.4536 -16.4472 -2.994c-11.028,-0.2448 -28.9404,-12.0552 -29.2092,-24.1296 -2.1648,-3.4104 0.0276,-14.3412 -0.0072,-19.0572 -0.0576,-7.6644 2.7204,-10.6056 6.51,-14.4444 5.28,-5.3508 20.2932,-10.3128 30.9612,-10.3128l8.8908 0c9.3348,0 27.4488,5.0976 32.91,8.9988 4.1016,2.9304 8.7372,5.1636 11.2632,9.6924 3.624,6.4968 1.0752,10.1448 0.912,17.5032zm23.4948 -49.53c0.8952,10.7544 23.6976,21.3396 34.9248,21.5904l14.6052 1.2696 10.7952 0c12.018,0 16.3032,-5.0844 23.4948,-8.8896 4.4184,-18.9672 -18.4032,-24.744 -34.2396,-27.99 -10.4892,-2.1504 -18.1392,-1.1268 -29.2632,-0.588 -9.84,0.4776 -16.0908,5.7564 -20.3172,12.0684l0 2.5392zm84.4548 17.1456l-1.2696 3.81 -1.9056 8.2548 -1.2696 2.5392c-2.1648,4.512 -2.6184,6.5544 -7.4952,9.0156 -2.4288,1.2252 -9.6372,3.8916 -12.87,4.2756 -7.0536,0.8364 -24.9828,1.8312 -29.7996,-1.2252 -6.4884,-0.54 -15.7944,-4.3428 -20.3112,-6.9948 -8.1432,-4.782 -8.8836,-5.5296 -12.9936,-13.9668l0.2844 -5.0736 1.2696 -13.3344 0.6348 -4.446 0.636 -3.81c5.5224,-8.2464 15.5724,-12.6996 29.2092,-12.6996l8.8908 0c12.936,0 24.948,3.9084 33.654,8.2548 4.7292,2.3616 8.7228,4.9236 11.8956,9.06 5.3304,6.9468 2.0604,8.8884 1.44,16.3404zm-264.16 -38.1l0 4.4448c2.2656,1.6596 3.342,4.7268 8.1444,7.7304 3.15,1.9704 8.082,3.3816 12.1752,4.3344l15.24 1.9056 13.3344 0c3.294,0 14.8608,-2.9568 17.3796,-4.212 7.6656,-3.8208 7.5,-3.5676 11.8308,-10.3932 -0.8892,-10.68 -8.502,-13.7244 -14.8608,-15.9396 -5.1528,-1.7952 -21.6672,-4.2672 -36.6228,-2.7108 -12.3924,1.2888 -23.7156,5.3436 -26.6208,14.8404zm78.7392 13.3344l-0.6348 6.9852 0 2.5404c-4.1736,7.8876 -4.5504,8.9004 -12.894,13.14 -4.3296,2.1996 -15.0384,4.6392 -21.396,4.6392l-6.4056 0.4236 -17.0892 -2.9628c-6.1776,-1.44 -19.6848,-7.0992 -19.6848,-13.3356l0 -3.81 -0.9564 -0.3132 -0.3144 -9.846 -0.1356 -9.9888 -49.5864 11.952c5.5872,0.4644 14.0196,8.7624 14.1624,15.1812l0.6348 4.4448 0 5.0796 0 16.5108c-4.83,7.2132 -7.53,10.4568 -16.3008,14.1792 -4.2528,1.8036 -19.7688,6.1404 -24.9732,6.1404l-2.5404 0c-9.84,0 -21.5352,-1.6908 -27.9396,-5.0796 -3.372,-1.7844 -5.64,-2.1396 -8.0028,-5.3328 -2.9676,-4.0116 -2.5236,-5.3916 -4.698,-8.6376l-1.9044 -13.3344 -0.726 -11.7288 -39.0144 9.4032 101.335 150.916 463.549 -162.56 -45.72 -21.5892 -0.6348 1.9044c-1.47,4.704 -2.8716,10.8228 -5.0796,15.24l-1.9056 3.1752c-7.0956,10.596 -34.3788,8.166 -47.6244,5.0796 -5.5476,-1.2924 -15.7716,-4.5984 -20.0736,-7.2312 -3.3948,-2.0784 -14.1276,-10.6596 -11.0412,-15.6288l0.6348 -3.1752c0.6024,-3.0144 1.1496,-8.0136 2.5392,-10.794 0.2628,-11.7828 12.9936,-16.5108 24.8688,-16.7304l-33.1236 -15.6552 -1.2696 1.2696 -0.6348 4.446 -0.6348 1.2696 0 1.2696c-0.8016,9.6216 -6.9732,13.2684 -16.2432,14.8716 -6.2004,1.0728 -22.5936,2.892 -27.5724,-0.2664 -10.3392,-0.8604 -27.3048,-6.324 -27.3048,-17.1444l0.6348 -9.5256 0.4812 -4.746 -35.3256 8.514c6.5232,1.5192 10.866,3.6036 15.7728,6.8604 4.1436,4.428 3.876,6.4092 3.8316,16.6764l-1.9044 14.6052c-4.3668,2.9244 -3.4872,5.3376 -11.1912,7.8588 -2.7132,0.8892 -12.7536,3.5712 -15.4788,3.5712 -9.084,0 -25.5336,-1.008 -30.48,-4.4448 -8.802,-2.0508 -12.7632,-6.2544 -16.5108,-13.3356l0 -3.174 0.636 -8.8908 0.2304 -6.4488 -41.5092 10.0056c6.5016,2.1396 8.3028,2.4108 14.0724,8.1588 5.7612,5.7396 3.0756,10.0524 3.0756,19.3992zm26.7492 -40.7592c-0.2376,1.3104 -0.4764,2.6196 -0.714,3.93 3.8304,5.5116 9.0324,9.0528 16.5096,10.7952 3.4608,1.6596 15.546,3.81 20.9556,3.81 3.7656,0 18.0492,-0.8172 20.544,-1.6812 2.3076,-0.8004 6.4248,-1.8144 8.028,-2.7672 3.6144,-2.1492 3.9984,-3.3528 6.3528,-5.0772 0,-12.5316 -7.8948,-13.9884 -17.5716,-17.3532 -10.0656,-3.5016 -51.192,-7.6836 -54.1044,8.3436zm170.736 19.17c3.7452,5.9016 5.682,9.1932 12.7764,11.988 6.5892,2.5968 10.638,4.6332 18.3384,6.4272l23.4948 2.5392 6.9852 0c8.3856,0 13.944,-4.2828 19.05,-6.9852 0.7776,-7.0728 -3.0348,-12.5136 -9.6432,-16.3092 -13.0632,-7.5048 -35.592,-9.3156 -44.9664,-9.7248 -11.5644,0 -25.1796,1.7784 -26.0352,12.0648zm-396.74 37.1508c-0.8196,1.8216 -1.1628,4.4748 -0.7692,9.204 4.7964,5.5176 4.7628,5.3616 11.43,8.8896l0.6348 0.6348c5.3952,0.12 8.73,3.1752 16.5108,3.1752l12.0648 0c9.0504,0 20.5968,-2.268 26.676,-5.0736 3.6048,-1.6632 7.0596,-3.3348 9.9984,-5.8764 5.8524,-5.058 3.3888,-3.972 7.14,-9.3696 0,-5.5452 -3.2304,-10.566 -8.25,-13.3404 -13.038,-7.2072 -31.836,-7.398 -45.912,-5.088 -13.1244,2.1552 -25.248,7.3344 -29.5236,16.8444z"/>
   <path id="_47303792" class="fil3" d="M379.622 53.3568c-2.6532,1.1988 -4.7856,2.8932 -5.2512,5.3916 0,6.8136 6.042,10.218 10.8696,11.9892 2.466,0.9048 17.1876,4.7952 17.7048,5.1552l16.5108 0.6348c10.6332,0.588 18.0768,-2.9316 24.1296,-6.9852 0.4932,-2.1168 0.294,-3.5208 -0.1944,-4.6236 -7.2804,-16.446 -50.7432,-17.4504 -63.7692,-11.562z"/>
  </g>
 </g>
</svg>
