<?xml version="1.0" encoding="utf-8"?>
<!DOCTYPE svg PUBLIC "-//W3C//DTD SVG 1.1//EN" "http://www.w3.org/Graphics/SVG/1.1/DTD/svg11.dtd">
<svg version="1.1" id="Layer_1" xmlns="http://www.w3.org/2000/svg" xmlns:xlink="http://www.w3.org/1999/xlink" x="0px" y="0px"
	 viewBox="0 0 1928.8167 1935.3396" enable-background="new 0 0 1928.8167 1935.3396" xml:space="preserve">
<g>
	<path d="M1735.5441,1469.4081c21.899,1.0803,49.8478-4.4078,78.0232-6.8615c8.5072-0.741,15.9723,0.2004,23.1707,5.2316
		c8.1899,5.7246,16.7059,10.9866,24.2733,17.5552c36.1821,31.4072,52.5687,71.4224,51.9388,118.9648
		c-0.4921,37.1394-6.8636,73.1589-19.2754,108.1724c-3.4492,9.7303-6.5199,19.5529-12.1509,28.3333
		c-1.1664,1.8186-2.0577,3.7797-3.7563,5.2302c-2.6451,2.2585-4.283,4.3997-1.0988,7.873c2.0074,2.1896-0.3433,4.6661-1.4773,6.7992
		c-2.1156,3.9792-5.5278,7.3726-2.8685,12.7524c1.1608,2.3481-1.314,4.2114-3.9739,4.5355c-1.6925,0.2062-3.4078,0.27-4.2219,2.0811
		c-4.7682,10.6068-14.4083,17.5828-20.3348,27.3597c-2.8468,4.6962-5.0977,9.2683-4.2781,14.9625
		c0.8159,5.6682,2.6425,7.9016,8.3176,7.8333c11.4178-0.1375,22.5322,1.9572,33.6947,3.8368
		c2.4774,0.4171,4.9032,0.9618,7.1423,2.1346c1.7928,0.9392,2.8477,2.3311,2.3297,4.4572c-0.4879,2.0027-2.0404,2.551-3.8418,2.3837
		c-12.3096-1.1445-24.6575,0.4139-36.9651-0.5417c-8.7485-0.6794-11.017,1.7837-9.3245,10.2505
		c0.3583,1.7922,0.8414,3.5881,0.9358,5.3997c0.3778,7.2499-2.7396,11.8822-9.7419,13.5614c-3.926,0.9414-4.6293,2.704-3.8259,6.377
		c1.3121,5.9984,1.4636,12.1813,2.7428,18.2379c1.0757,5.0931-3.2843,6.8865-7.177,8.0266
		c-8.6316,2.5278-17.4359,4.3486-26.3635,5.5316c-11.2284,1.4879-22.4489,3.0532-33.8098,3.0861
		c-2.072,0.006-3.8807,0.5208-5.3602,2.1575c-4.9037,5.4236-16.6597,5.8082-21.9426,0.6831
		c-1.9399-1.8822-4.3051-1.5532-6.5692-1.6516c-25.2994-1.1012-50.5996-2.1871-75.9026-3.2034
		c-35.8014-1.4379-70.762-7.8269-105.0902-17.8629c-7.771-2.2717-7.6727-2.4849-4.6128-9.774
		c0.5712-1.3606,0.9785-2.859,1.1052-4.3246c0.479-5.5332,2.3412-10.3738,4.9344-15.406c3.7572-7.2916,3.6598-15.8855,3.7341-23.975
		c0.3658-39.8218,3.2281-79.5599,3.3838-119.402c0.0981-25.1228,0.751-50.3005,2.5248-75.4043
		c0.4376-6.1947,0.2926-12.4226-2.0179-18.2429c-9.6582-24.3297-16.5156-49.5459-23.9865-74.574
		c-2.847-9.538-5.3225-19.2478-12.0765-27.1577c-2.6127-3.0596-1.4178-4.7318,3.3942-5.5242
		c8.5386-1.4065,17.0846-2.7681,25.6305-4.129c3.2029-0.5101,5.8351-1.0865,6.6375-5.2719
		c0.5594-2.9185,4.0731-4.1908,6.5923-5.7654c10.2295-6.3938,21.1837-11.0754,32.8008-14.4164
		c29.631-8.5212,59.3774-16.3848,90.2327-19.1246C1700.9969,1469.3634,1714.9669,1468.8069,1735.5441,1469.4081z
		 M1875.6744,1635.0424c-0.124-8.4849-0.7081-16.9243-2.1404-25.3256c-2.734-16.0393-9.7823-30.6982-14.5151-46.0967
		c-5.1984-16.9139-16.6387-25.0298-34.4885-25.5804c-9.3602-0.2888-11.0771,1.4318-9.42,10.6622
		c2.0555,11.4518,4.9063,22.7677,6.7551,34.2483c5.7742,35.8535,7.5023,72.1362,11.0157,108.23
		c0.9509,9.7678,1.2981,19.5944,2.2437,29.3628c0.6351,6.5618,3.5845,10.1304,7.9655,10.7002
		c4.4526,0.5792,7.6361-1.7444,10.1779-7.826c2.1785-5.2122,4.0249-10.5624,6.1548-15.7959
		C1868.8995,1684.3361,1875.7559,1660.472,1875.6744,1635.0424z"/>
	<path d="M966.0988,1652.2354c14.8062-6.4417,28.4937-13.2755,42.1171-20.2347c33.5017-17.1133,66.6215-35.0156,101.9418-48.3033
		c28.8-10.8347,58.3743-18.4063,88.9686-21.9923c3.2902-0.3857,4.741,0.339,5.8446,3.4308
		c3.0076,8.4253,4.2734,17.0305,4.2799,25.9677c0.0032,4.3569-1.3903,6.3643-5.6381,7.6912
		c-25.0983,7.839-50.1656,15.7896-75.1149,24.0891c-21.8284,7.2615-43.1174,15.9019-63.014,27.5981
		c-4.1858,2.4607-6.9279,0.9814-9.3975-2.2245c-1.6431-2.1331-2.3176-4.7546-3.089-7.3167c-0.9575-3.1798-1.8839-6.399-3.217-9.4281
		c-1.4778-3.3578-3.5107-4.627-7.4131-2.3077c-11.1586,6.6313-23.0734,11.9105-34.0738,18.8693
		c-9.1523,5.7893-16.4648,12.7961-19.0298,23.8937c-1.5586,6.7434-6.0743,10.6484-12.9906,12.2897
		c-9.0433,2.1461-10.6946,4.4619-11.2316,13.8235c-2.1961,38.2821-1.871,76.6028-1.7328,114.9216
		c0.0342,9.4944-0.0564,18.9934-0.3343,28.4832c-0.238,8.1295-4.2131,14.6104-9.9083,20.0909
		c-9.4772,9.12-21.2045,14.257-33.4257,18.3871c-23.4966,7.9406-47.8526,11.5477-72.4191,13.9048
		c-34.7218,3.3314-69.5123,3.8674-104.3401,2.0402c-31.4615-1.6508-62.2769-6.3196-91.1179-19.9244
		c-3.3021-1.5575-6.4533-3.4642-9.5709-5.3778c-12.992-7.9736-19.827-19.5229-21.1686-34.8051
		c-1.9302-21.9862-0.414-43.9484-0.5137-65.9225c-0.1918-42.2659,1.6812-84.7042-6.6309-126.5033
		c-1.4819-7.452,0.5316-12.4646,5.2108-17.4587c7.696-8.2139,17.2308-13.5287,27.4755-17.7588
		c10.6531-4.3988,21.7296-7.4565,32.9654-9.8646c3.5749-0.7661,5.8389-2.4918,7.847-5.4185
		c8.413-12.2601,13.3867-26.0598,17.6851-40.0581c7.992-26.0272,25.8132-41.1267,51.4823-48.0941
		c11.0255-2.9927,22.2274-4.2701,33.6078-4.0309c21.9541,0.4614,42.548,5.6243,60.7434,18.4034
		c14.1812,9.9595,24.2651,22.892,26.6943,40.5116c1.8757,13.6053,9.6117,22.6324,20.8569,29.4124
		c9.9048,5.9719,20.7185,9.8672,31.4551,13.9424c9.0281,3.4266,17.9446,7.0287,26.4985,11.6101
		c9.2761,4.968,13.1034,12.2976,11.7206,22.5692C967.4831,1641.8862,966.8496,1646.6322,966.0988,1652.2354z M798.0343,1572.5774
		c20.832,0.1864,41.5981,1.2769,62.2284,4.3666c6.5333,0.9786,6.8994,0.5231,5.2722-5.9601
		c-4.5073-17.9583-17.2639-27.9227-33.6573-33.954c-18.2245-6.7048-37.0655-7.5518-56.1283-4.5408
		c-15.6498,2.4717-30.4506,7.2094-43.1249,17.1506c-8.4434,6.6228-14.0203,15.0117-15.4589,25.886
		c-0.4832,3.6531,0.1378,5.1697,4.4376,4.2535C746.788,1574.4128,772.3431,1572.7063,798.0343,1572.5774z"/>
	<path d="M287.963,1636.161c41.484,0.4908,84.4569,4.578,125.9084,18.8999c5.658,1.9548,11.2975,4.0658,16.6967,6.6287
		c3.3245,1.5781,5.6743,1.1384,8.6255-0.8235c39.5452-26.2906,78.3456-53.655,117.148-81.0175
		c35.3986-24.9619,70.8129-49.9,106.9776-73.7511c13.2949-8.7681,26.2924-2.6443,28.593,13.464
		c1.0072,7.0527-0.9899,13.1422-5.4028,18.5994c-5.1943,6.4233-11.4467,11.6937-18.3666,16.0607
		c-51.1794,32.2976-99.2834,69.0389-149.2245,103.1233c-13.4845,9.2032-26.8402,18.6005-40.4755,27.5737
		c-3.6109,2.3762-3.8694,4.3221-1.4753,7.4376c1.5204,1.9783,2.7138,4.2146,4.2909,6.1412
		c7.4644,9.1182,10.5463,19.5922,9.4309,31.2144c-1.5941,16.609-2.0299,33.2512-2.0226,49.9186
		c0.0052,11.7439-4.743,21.5836-12.0534,30.474c-14.3274,17.4244-32.2904,30.1057-51.9952,40.6942
		c-48.1307,25.8633-99.6077,39.915-153.9151,44.2742c-53.1805,4.2687-105.4888,0.2007-156.5212-16.1563
		c-16.5506-5.3047-32.1877-12.5972-47.1963-21.4222c-21.7039-12.7621-35.1566-31.1119-39.7267-55.9303
		c-2.2607-12.277-4.6633-24.5199-6.4651-36.8864c-3.1712-21.7651,3.5603-40.1346,18.531-55.6897
		c17.5474-18.2324,39.1669-30.2817,62.2768-39.8423c35.9635-14.8784,73.676-22.8885,112.0849-28.0486
		C237.6627,1637.8759,261.7567,1636.3662,287.963,1636.161z"/>
	<path d="M1103.8931,1734.6122c0.1068-6.1655,0.5659-15.6454-0.254-25.1438c-1.0323-11.9585-5.4299-22.3219-12.5341-32.0635
		c-8.8613-12.1511-8.3297-11.2653,4.2494-17.7889c21.5441-11.1729,35.0103-5.6362,42.8256,17.3719
		c3.3676,9.9138,5.7687,20.1519,8.8199,30.1783c2.0413,6.708,4.6925,13.1444,9.4681,18.5336
		c3.0482,3.4396,5.7744,4.2473,9.6523,0.9816c4.7688-4.0157,8.7986-8.6016,12.5137-13.5389
		c3.9041-5.1891,7.6923-10.4766,11.818-15.4849c4.0793-4.9519,9.0839-8.9843,15.2676-10.8906
		c3.744-1.1543,4.9427-3.5201,5.2611-6.8794c0.33-3.4819,0.808-6.9722,0.8043-10.4584c-0.0054-5.165,2.1222-7.4542,7.4348-8.4714
		c17.8103-3.41,35.7212-6.4607,53.1257-11.735c2.7065-0.8202,5.406-1.6776,8.064-2.6412c4.6018-1.668,5.5703-4.0688,3.3051-8.3314
		c-0.6925-1.3032-1.5681-2.6672-2.7112-3.5468c-6.085-4.6818-4.0765-9.3545,1.4183-13.98c8.3439-7.024,31.0139-6.439,39.4083,0.4539
		c5.2372,4.3007,5.9537,8.2716,2.6089,14.4623c-4.3052,7.9684-4.0284,9.1731,3.8066,13.7104
		c10.3137,5.9729,21.9321,7.5653,33.3743,9.7438c6.703,1.2761,13.3657,2.7665,20.075,4.0067c3.1315,0.5789,4.9088,2.2959,6,5.2189
		c2.0367,5.4556,4.0106,10.9629,6.5077,16.2124c5.7186,12.022,15.6412,14.4844,24.5431,4.7584
		c16.9406-18.5085,38.5096-21.6365,61.616-21.0717c3.8168,0.0933,6.9285,2.283,9.9602,4.2958
		c13.8368,9.1862,21.0157,22.9449,25.3441,38.3309c6.0447,21.4875,5.8009,43.0986-0.0138,64.6493
		c-5.162,19.1316-16.675,33.8175-31.9366,45.9493c-17.4518,13.8728-37.1663,24.0276-56.5767,34.692
		c-9.3445,5.1342-18.5088,10.5514-27.45,16.3833c-6.2175,4.0558-10.5887,8.7924-10.931,16.6627
		c-0.2004,4.6099-2.776,7.2638-7.6807,8.3231c-49.6475,10.7234-99.3556,12.3601-149.1899,1.4495
		c-6.837-1.4969-13.377-3.9902-19.95-6.3955c-4.8799-1.7855-7.4824-5.0416-7.5616-9.9836
		c-0.1171-7.3043-3.1699-12.0634-9.5526-16.0229c-9.5831-5.9449-16.5372-14.8916-22.9258-24.1176
		c-1.7943-2.5912-3.7704-4.3916-7.0754-4.8947c-2.9336-0.4465-5.7788-1.5448-8.6281-2.4641
		c-32.636-10.5316-48.9497-31.0493-52.1683-65.1945C1103.0203,1759.2192,1103.1187,1748.5907,1103.8931,1734.6122z
		 M1439.7853,1801.9885c0,3.9961,0.0392,7.9926-0.0092,11.988c-0.0718,5.9453-0.0964,5.9514,5.5032,4.4795
		c53.0936-13.9567,66.9434-72.4004,47.8466-111.0029c-2.4077-4.8673-5.8748-8.8436-10.7245-11.5159
		c-15.9092-8.7666-34.7336-1.8104-41.5067,15.4336c-4.7856,12.1838-5.3811,24.9545-5.0914,37.8391
		C1436.2004,1766.8708,1438.9042,1784.3591,1439.7853,1801.9885z"/>
	<path d="M234.266,1288.1353c24.7358,1.8688,51.3085,1.1412,77.5947,4.9607c3.6205,0.5262,7.1985,1.3398,10.8033,1.9802
		c4.35,0.7726,7.7557,2.5731,9.3832,7.1168c1.2478,3.4838,4.042,4.752,7.8234,5.0123c14.8231,1.0211,29.3882,3.6665,43.576,8.1255
		c6.4959,2.0416,8.7884,4.8636,8.7699,11.6776c-0.1058,39.0122,3.8771,77.8597,4.5654,116.8385
		c0.1852,10.4893,0.8428,20.9694,1.1794,31.457c0.1503,4.6829-0.8984,5.4673-5.2259,3.6571
		c-7.5944-3.1769-12.6706-8.673-13.6467-17.0637c-2.4438-21.007-4.7116-42.0347-6.9866-63.0609
		c-2.0242-18.7091-4.0237-37.4213-5.8809-56.1473c-0.312-3.1461-1.7303-4.4874-4.6784-4.5582
		c-11.9868-0.288-23.9683-0.8651-35.9502,0.428c-2.9532,0.3186-3.9136,1.4976-4.1585,4.2926
		c-1.3806,15.7607-2.9555,31.5044-4.369,47.2623c-2.5738,28.6942-5.2372,57.3818-7.5532,86.097
		c-1.2588,15.6073-2.7008,31.1844-4.3258,46.7583c-1.3765,13.1924-8.2639,21.7927-19.7809,27.2164
		c-16.1913,7.6251-33.4623,11.0574-51.1614,12.5046c-27.9782,2.2874-55.929,2.1129-83.7765-1.7722
		c-10.4396-1.4563-20.5063-4.5431-30.1874-8.5984c-14.4089-6.0358-21.6532-17.1205-23.1087-32.761
		c-4.0263-43.2675-8.5057-86.4929-12.7823-129.7372c-1.77-17.8979-3.6229-35.7897-5.1401-53.7094
		c-0.5396-6.3729-2.5478-12.3657-3.6868-18.5709c-0.2727-1.4858-0.7672-3.0443-2.1608-3.8092
		c-4.0612-2.2289-4.3037-6.0361-4.27-9.9402c0.044-5.1016,2.4344-7.5204,7.4526-8.2419
		C128.3518,1288.106,180.4471,1287.6439,234.266,1288.1353z"/>
	<path d="M1780.0608,1190.1066c-27.1533,0.8235-54.3159,0.7069-81.4752,0.7092c-4.6057,0.0004-6.7714,0.9854-5.7112,6.1743
		c1.0391,5.0858-0.1578,9.6385-5.3151,12.2765c-5.0342,2.5752-10.347,2.8529-15.3748,0.6591
		c-5.4844-2.3934-8.0461-15.1078-3.9187-19.4723c2.344-2.4786,2.902-4.8439,3.3494-8.1212
		c1.911-14.0015,4.3856-27.9307,6.8591-41.8499c8.5048-47.8574,17.1155-95.6959,25.6477-143.5484
		c8.9124-49.9845,18.0835-99.926,26.4838-149.9966c2.5245-15.048,10.0861-27.1388,18.1837-39.3008
		c6.0212-9.0434,5.1005-7.7238-3.5953-11.192c-12.9492-5.1646-23.5844-12.7647-26.4333-27.4996
		c-2.7697-14.324,1.1401-26.4741,13.278-35.1934c7.6482-5.4942,15.9237-9.2219,25.6946-9.9627
		c15.8943-1.2051,31.5366-1.4512,47.0266,3.2499c20.4248,6.199,31.9222,24.1821,27.0002,43.6091
		c-3.8097,15.0369-15.2621,22.4219-28.9111,27.1003c-6.7942,2.3289-7.7175,3.114-3.1296,8.5214
		c12.6854,14.9514,16.6005,32.7841,20.3049,51.4221c17.6198,88.6485,36.0752,177.131,54.277,265.6636
		c3.8871,18.906,7.428,37.8822,11.899,56.6747c0.834,3.5057,2.0577,5.3729,4.6896,7.6732
		c4.8633,4.2507,3.6035,10.3864,2.3749,15.9092c-1.1069,4.9758-5.2639,5.9731-9.7134,6.0402
		c-1.9993,0.03-4.0042,0.0881-5.9983-0.019c-6.0287-0.324-9.0734-3.3003-9.6019-9.3064c-0.1021-1.1605-0.1666-2.3293-0.1583-3.4938
		c0.0597-8.4071,0.0625-8.4838-8.2734-7.9977C1833.0497,1190.3792,1806.5458,1189.6393,1780.0608,1190.1066z"/>
	<path d="M1048.7025,863.9187c33.3223,0.0776,61.1539,2.3497,88.4982,9.0886c6.1648,1.5193,12.0735,3.716,17.7301,6.6406
		c6.8199,3.5261,9.975,8.8167,9.2289,16.6412c-1.2328,12.9305-2.7343,25.8369-3.3174,38.8333
		c-0.2068,4.6104,1.3956,6.3565,5.8239,7.2405c11.7504,2.3458,23.3798,5.2895,35.097,7.8104
		c9.6169,2.069,16.901,7.3785,22.7437,15.1275c11.2139,14.873,14.9668,31.4725,13.0709,49.902
		c-3.2811,31.8973-19.2122,56.9667-41.3713,78.8113c-16.7252,16.4879-36.0985,29.4949-56.0623,41.6222
		c-4.6362,2.8163-7.4529,6.1486-8.4558,11.5354c-2.4673,13.2523-5.4745,26.3979-8.347,39.5695
		c-2.2661,10.391-8.3813,15.7704-18.1744,18.0906c-12.382,2.9335-25.021,4.4272-37.6436,4.4613
		c-18.4736,0.0499-36.9521-0.8477-55.0495-5.4551c-11.1764-2.8455-18.2463-9.2307-19.9514-20.8865
		c-3.0161-20.6172-8.4272-40.7445-12.4648-61.1534c-4.1475-20.9646-6.1438-42.177-7.8292-63.4316
		c-2.5547-32.2177-5.1654-64.4321-7.4368-96.6702c-0.9481-13.4562-1.0791-26.9698-1.5954-40.4567
		c-0.3696-9.6561-0.8867-19.3085-1.1107-28.9677c-0.2377-10.2578,3.1667-15.4245,12.7688-19.0947
		c11.1464-4.2605,22.9628-5.5403,34.6959-6.8854C1024.2888,864.6021,1039.0972,863.7272,1048.7025,863.9187z M1157.6449,975.3799
		c-2.0143,26.9463-4.9508,53.2585-8.4735,79.5021c-2.5231,18.796-5.0969,37.5942-9.5693,56.0646
		c-0.5558,2.295-0.9991,4.8942,1.3881,6.3438c2.2133,1.344,4.1439-0.4889,5.894-1.6196
		c14.9996-9.6912,29.3051-20.3005,42.2561-32.6385c16.8263-16.03,29.905-34.4205,35.4752-57.4023
		c7.1603-29.5428-4.963-52.9312-31.9025-61.7101c-9.5577-3.1147-19.6211-3.6324-29.3979-5.6398
		c-3.5079-0.7203-5.6912,1.2953-5.6742,5.1409C1157.6591,967.5834,1157.6449,971.7462,1157.6449,975.3799z"/>
	<path d="M1637.3583,949.9235c-0.7858,18.8102-1.526,37.6226-2.3724,56.4302c-1.7899,39.7739-4.5603,79.5027-5.3229,119.3256
		c-0.1401,7.3209-1.3969,14.5934-3.7494,21.5919c-3.0736,9.1428-3.0404,18.2866-0.3829,27.516
		c1.8087,6.2816,2.623,12.7097,2.317,19.2637c-0.2048,4.3853-1.9613,7.2834-6.3645,9.0653
		c-14.0762,5.6967-28.7793,8.4229-43.7828,9.3185c-24.0272,1.4344-47.9729,1.0725-71.2329-6.3984
		c-7.9138-2.542-9.0956-4.1652-9.2609-12.5763c-0.125-6.3602,0.5562-12.608,2.2205-18.7853
		c2.0831-7.7321,2.6632-15.8885-0.6589-23.0916c-5.7701-12.5109-6.4917-25.7238-7.4427-38.9833
		c-1.8832-26.2505-3.7421-52.4994-6.1705-78.7092c-3.6869-39.7932-7.4039-79.5871-10.5635-119.4239
		c-1.8633-23.492,0.3169-46.8007,3.7769-70.1672c1.7501-11.8204,7.4486-15.9231,17.7957-18.1345
		c12.1213-2.5906,24.2952-4.111,36.6261-4.4946c27.4452-0.8539,54.928-2.5981,82.2021,2.4023
		c2.1194,0.3885,4.1758,1.1122,6.2722,1.6372c5.7938,1.451,8.3566,5.1082,9.9025,11.0164
		C1641.9916,878.0999,1639.6917,911.198,1637.3583,949.9235z"/>
	<path d="M316.9593,115.0151c-1.0349,23.8219-1.2388,47.6474-0.7324,71.4737c0.1409,6.6294-0.9628,12.5774-6.6967,16.8689
		c-1.8139,1.3576-2.3835,3.4921-2.3288,5.8071c1.1594,49.113,2.3013,98.2263,3.4124,147.3404
		c0.0478,2.1121,0.1809,3.7708,2.6061,4.7459c3.3673,1.3539,2.6655,4.7066,2.7054,7.4073
		c0.1923,12.9953,3.7292,24.9253,10.7606,35.8716c3.0084,4.6834,6.5998,8.7235,11.0173,12.1289
		c26.2285,20.2193,36.6827,47.5551,34.7646,79.8412c-1.8084,30.44-13.6971,56.9724-33.221,80.2929
		c-6.0731,7.254-13.0213,10.1102-22.6781,9.5862c-25.9473-1.408-51.9453-2.2953-77.9286-2.4489
		c-12.6487-0.0747-19.3985-5.6741-23.7351-17.022c-20.0977-52.5908-4.2942-108.9394,40.5537-143.0385
		c3.0487-2.318,6.0521-4.7628,9.3525-6.6713c18.2579-10.5575,23.7577-27.7415,24.8242-47.2672
		c0.1899-3.4774-0.927-6.8246,2.971-9.7239c2.1206-1.5773,1.2873-5.9673,1.2228-9.1118
		c-0.2491-12.1595-0.6508-24.3157-0.9407-36.4744c-0.7902-33.14-1.5486-66.2828-1.0306-99.4333
		c0.0818-5.2317-0.7546-9.3159-5.5987-12.2997c-4.2611-2.6247-5.5932-7.296-6.234-12.0305
		c-1.5464-11.4255-0.9078-22.9571-1.5789-34.432c-1.9356-33.0955-3.5666-66.2088-5.3878-99.3112
		c-0.32-5.8154-1.2488-11.5942-0.8541-17.4499c0.8829-13.0998,10.3981-22.3566,22.9636-22.2886
		c12.0579,0.0653,20.9692,9.0993,21.8088,22.1688c0.8132,12.6589-0.1616,25.3188-0.043,37.9802
		C317.0508,90.0208,316.9593,102.5184,316.9593,115.0151z M302.4228,57.6743c-0.0067-5.0424-0.5643-9.9801-3.1567-14.4394
		c-3.0575-5.2593-7.4742-5.485-10.1763-0.1027c-4.838,9.6367-4.8246,19.6363,0.0252,29.2632
		c2.662,5.2842,7.2263,4.9961,10.2104-0.2663C301.8612,67.6572,302.4604,62.7216,302.4228,57.6743z"/>
	<path d="M1340.603,1212.9196c-9.8068,0.1537-19.576,1.5553-29.4296,0.2269c-10.5333-1.42-18.7833-7.3655-27.1705-13.0155
		c-3.2544-2.1923-4.0254-6.0704-3.8124-9.8578c0.2709-4.8145,0.9116-9.6067,1.2742-14.4176
		c0.3911-5.1908-0.4053-10.2634-4.6663-13.6422c-14.5095-11.5055-16.9141-28.1597-18.4155-44.6957
		c-1.5977-17.5958,2.4836-34.8876,6.9401-51.755c4.7212-17.8691,4.6455-35.9154,4.6025-54.0353
		c-0.026-10.9922,2.4031-14.8591,13.2703-17.6576c10.848-2.7936,22.0448-3.282,33.1294-4.3934
		c27.9303-2.8005,55.8447-3.2339,83.6606,1.3681c2.2893,0.3788,4.5691,0.9263,6.7847,1.6163
		c6.3606,1.9807,10.3572,5.3478,10.6954,12.9827c1.3394,30.2277,7.4746,59.693,14.8145,88.9755
		c4.7194,18.8285,1.1307,37.0134-6.1781,54.6263c-1.3588,3.2747-3.4347,6.1539-5.9858,8.5433
		c-5.5385,5.1873-6.8794,11.5529-5.8181,18.7137c0.6368,4.2976,0.8511,8.6101,0.7339,12.9514
		c-0.1443,5.3529-2.6227,8.7949-7.4863,11.3132c-16.8054,8.7025-34.5927,12.6554-53.4513,12.1696
		C1349.6003,1212.8208,1345.1003,1212.9196,1340.603,1212.9196z"/>
	<path d="M16.2641,537.3353c0.9513-37.3525,7.2411-73.8258,17.6951-109.656c3.2661-11.1944,8.9192-20.1098,19.326-26.097
		c19.6516-11.3057,27.9559-29.0827,27.8955-51.2681c-0.0117-4.2944-0.7471-8.8235,4.6672-10.9237
		c1.6561-0.6424,1.2049-2.61,1.1543-4.054c-1.0812-30.8107-0.9757-61.6361-1.2121-92.4574
		c-0.0206-2.6815-0.4303-5.4021-2.5845-7.3414c-6.376-5.7401-8.0357-13.3375-7.9288-21.3342
		c0.3815-28.5228-1.5136-56.9587-3.3832-85.3751c-1.3017-19.7845-2.4526-39.5701-3.3619-59.3727
		c-0.29-6.3166-0.7465-12.636,0.322-18.9476c2.0277-11.9773,10.9848-19.4077,23.9149-19.7136
		c12.2638-0.2901,22.8284,7.9045,25.1998,19.3166c1.2144,5.844,0.1748,11.6144,0.0193,17.424
		c-0.6995,26.1496-1.4479,52.2989-1.9492,78.4526c-0.4342,22.6507-1.9347,45.2796-1.2234,67.9575
		c0.2346,7.4799-1.4335,14.3914-6.945,20.1978c-3.9942,4.2078-3.2458,9.9686-2.9299,15.2782
		c1.545,25.9735,1.0877,51.9631,0.7743,77.9524c-0.0321,2.664-0.2914,5.3259-0.3013,7.9893
		c-0.0049,1.3055-0.1676,3.2523,0.5736,3.8177c6.2184,4.7446,4.1017,11.6746,4.344,17.605
		c0.8192,20.056,10.1638,35.0294,26.7647,45.2669c10.9518,6.7537,17.1477,15.7843,20.4328,28.1199
		c10.2237,38.391,14.9981,77.4142,15.3691,117.0562c0.014,1.4992-0.0138,2.9993-0.0515,4.4984
		c-0.4386,17.4531-5.7676,24.4531-22.7798,29.2361c-33.2028,9.3353-66.6424,10.307-100.2944,2.4943
		c-6.3174-1.4666-12.6992-2.5828-18.9209-4.5341c-9.7366-3.0536-14.1737-9.7528-14.8074-19.6105
		C15.5715,551.9705,16.0847,544.6563,16.2641,537.3353z M147.1233,465.9892c-0.8405-2.0905-2.0487-3.4496-4.8063-2.3575
		c-3.1519,1.2483-5.7935,3.2371-8.3451,5.3783c-30.4578,25.5588-60.92,51.1125-91.3382,76.7183
		c-2.0181,1.6989-3.7971,3.7206-5.4846,5.7599c-1.1683,1.4119-2.15,3.1083-0.4991,4.9126c1.6005,1.7493,3.4269,1.0674,4.9952,0.1384
		c2.42-1.4335,4.8237-2.968,6.977-4.7673c24.3833-20.3752,48.7271-40.7976,73.059-61.2343
		c7.1322-5.9904,14.228-12.0255,21.2636-18.1288C144.8234,470.7792,146.3765,468.795,147.1233,465.9892z M40.9917,529.7767
		c3.4773-0.8235,6.0711-2.6146,8.5104-4.6607c28.5772-23.9709,57.1597-47.9357,85.6983-71.9527
		c1.8919-1.5921,3.5424-3.5096,5.1125-5.4331c1.1803-1.446,2.0233-3.14,0.3827-4.9204c-1.4189-1.5396-3.0732-1.1656-4.5648-0.3435
		c-2.0292,1.1183-4.0801,2.2958-5.8481,3.7749c-28.7365,24.04-57.4319,48.129-86.1282,72.217
		c-2.1744,1.8253-4.2397,3.7834-5.5819,6.3325C37.0169,527.7452,38.6877,529.0046,40.9917,529.7767z M150.1292,489.9602
		c-0.5736-2.6173-2.1192-3.6983-4.7134-2.9273c-2.2685,0.6743-4.1906,2.0243-5.9842,3.5289
		c-26.0293,21.8347-52.0537,43.6751-78.069,65.5265c-1.9178,1.6109-3.68,3.3742-4.8532,5.646
		c-0.6797,1.3162-0.7261,2.5223,0.312,3.6801c0.9896,1.1037,2.1122,1.4378,3.5778,0.979c2.7777-0.8694,5.015-2.5704,7.191-4.3956
		c14.0362-11.773,28.073-23.5452,42.1079-35.3198c11.6105-9.7407,23.2301-19.4707,34.8183-29.2379
		C146.9355,495.401,149.2548,493.2345,150.1292,489.9602z M42.1478,502.8868c2.8896-0.5759,5.0744-2.3674,7.247-4.1915
		c20.1234-16.8959,40.2794-33.7533,60.3411-50.7221c2.6158-2.2126,7.1545-4.8657,4.1903-8.6685
		c-3.3843-4.3417-6.9178-0.0331-9.6284,2.2179c-20.3419,16.8924-40.5599,33.934-60.8198,50.9253
		c-1.7908,1.5019-3.6075,3.0083-4.562,5.202C37.7508,500.3279,39.4155,502.9399,42.1478,502.8868z M152.5743,513.588
		c-0.2171-3.3707-3.7975-4.6231-7.2798-2.0577c-4.8108,3.5443-9.3066,7.5201-13.8935,11.3634
		c-14.6583,12.2821-29.3337,24.5444-43.8993,36.9358c-2.0195,1.7181-4.8456,3.8219-2.5539,7.0828
		c2.3263,3.31,5.2201,1.5848,7.3611-0.1948c19.1821-15.9448,38.2694-32.0039,57.3579-48.061
		C151.2116,517.3571,152.3761,515.7191,152.5743,513.588z M47.219,474.3452c0.5841-0.2589,1.6262-0.4762,2.3483-1.0776
		c11.6259-9.6816,23.2354-19.3833,34.7867-29.1536c2.5764-2.1792,2.063-4.5999,0.0182-6.9664
		c-1.8717-2.1663-4.0758-3.2322-6.4881-1.2331c-11.7764,9.7594-23.4789,19.6085-35.1536,29.4895
		c-1.4635,1.2386-2.2396,2.9822-1.1306,4.9108C42.7743,472.357,44.0855,474.3084,47.219,474.3452z M85.1806,58.8908
		c0.7484,6.2876,1.2016,12.2681,2.2592,18.1398c0.6031,3.3484,1.5927,7.638,5.7422,7.835c4.5286,0.215,5.6415-4.2269,6.4706-7.6775
		c1.275-5.3066,1.7065-10.8121,2.8906-16.1455c0.8028-3.616-0.3077-6.2034-3.0359-8.2903
		c-2.6846-2.0536-5.6509-2.7688-8.8762-1.2644C87.3327,53.0264,85.5886,55.6729,85.1806,58.8908z M152.2254,540.1993
		c-0.1389-1.7408-1.3909-3.105-3.0409-3.9698c-1.9738-1.0344-3.4567,0.2365-4.8583,1.4998
		c-7.7864,7.0181-15.5652,14.045-23.385,21.0257c-2.2237,1.9851-3.6288,3.959-1.1525,6.7261
		c2.4043,2.6866,4.5054,1.8478,6.8042-0.2477c7.7464-7.0615,15.575-14.0328,23.3667-21.0447
		C151.0739,543.186,152.2535,542.2086,152.2254,540.1993z"/>
	<path d="M485.2701,128.2523c0.5742,26.8201,1.1704,53.6398,1.709,80.4606c0.1556,7.7477-1.2321,15.0989-4.5171,22.2891
		c-2.9152,6.3806-3.8531,13.498-3.6502,20.5205c1.5258,52.8041,0.0494,105.665,2.897,158.4382
		c0.8866,16.4314,8.4844,30.2317,22.6408,37.8652c23.5968,12.7242,30.6987,32.8946,30.0118,57.4667
		c-0.6428,22.9962-6.84,44.5913-17.3192,65.1044c-4.325,8.4661-10.5797,13.3152-19.8022,14.9445
		c-15.5381,2.7451-31.0052,3.6152-46.6632,0.5658c-9.5836-1.8663-16.4923-6.7118-20.9723-15.2429
		c-10.0754-19.1866-17.0416-39.3616-19.615-60.9759c-1.3571-11.3982-0.9385-22.5801,2.8415-33.5361
		c2.9604-8.5805,7.5459-16.1131,15.0935-21.2293c17.5297-11.8824,24.5503-28.9101,24.3214-49.2943
		c-0.4883-43.4822-1.2348-86.962-2.0533-130.4395c-0.1974-10.4854,0.2062-20.9997-1.0103-31.4596
		c-0.5037-4.3314-1.1051-8.7159-3.2761-12.4883c-5.2789-9.1724-6.6617-19.2091-6.4329-29.4204
		c1.1688-52.159-1.1152-104.3037-0.4575-156.4579c0.083-6.5797,0.9872-12.9169,4.3362-18.7528
		c4.4143-7.6923,10.7353-11.7082,19.7947-10.4938c8.6496,1.1595,15.4568,5.0045,18.9319,13.478
		c2.0642,5.0332,2.4656,10.3361,2.4684,15.6877c0.0145,27.6571,0.0067,55.3142,0.0067,82.9714
		C484.7924,128.2533,485.0312,128.2528,485.2701,128.2523z M479.0264,537.5339c-0.184-11.6386-0.7647-22.9307-3.3784-34.0104
		c-0.3987-1.6901-0.641-4.1851-2.8499-4.1428c-1.8522,0.0354-1.9571,2.4372-2.3972,3.9435
		c-1.457,4.9862-1.7641,10.1643-2.0258,15.3074c-0.7715,15.1625-0.484,30.2848,2.8208,45.1876
		c0.3935,1.7744,0.5742,4.715,2.9558,4.5874c2.2455-0.1202,2.3043-3.0087,2.6743-4.8412
		C478.579,554.8812,478.5437,546.0324,479.0264,537.5339z M470.4072,51.0595c0.1052-5.4188-0.8428-10.6324-3.5845-15.3378
		c-3.0228-5.1879-8.2182-5.3293-11.6122-0.4792c-5.0447,7.2088-5.0045,22.7194,0.0779,29.9844
		c3.3588,4.8013,7.9476,4.869,11.3075,0.0306C469.5442,61.012,470.4465,56.1396,470.4072,51.0595z M494.0403,548.6424
		c0,3.0554-0.1753,4.7424,0.0441,6.3763c0.2782,2.0727,0.1027,5.1327,2.4202,5.4943c2.3865,0.3724,3.1194-2.6156,3.929-4.5383
		c3.7776-8.9709,5.2307-18.5194,6.7386-28.0454c0.8092-5.1121,1.1863-10.2553,0.658-15.418
		c-0.1657-1.6195-0.2426-3.7981-2.0575-4.2108c-2.2504-0.5117-2.7657,1.9036-3.7136,3.3576
		c-0.4471,0.6859-0.725,1.4993-0.9876,2.2856C497.1568,525.668,494.3708,537.6154,494.0403,548.6424z M438.8106,519.4822
		c0.1129,10.5496,2.0727,20.8199,5.1556,30.8802c0.7761,2.5325,1.8931,4.9695,2.9772,7.3951
		c0.5991,1.3404,1.3344,3.123,3.0453,2.8298c1.9699-0.3376,1.9739-2.3827,2.1737-4.0144c0.101-0.8242,0.131-1.6606,0.1383-2.4921
		c0.1223-13.7928-2.4509-27.1204-6.9583-40.1098c-0.2716-0.7827-0.5578-1.5849-0.9919-2.2816
		c-0.9207-1.4777-1.433-3.9146-3.6444-3.4276c-1.7883,0.3939-1.7797,2.6138-1.8646,4.2376
		C438.7201,514.8213,438.8106,517.1541,438.8106,519.4822z"/>
	<path d="M882.0389,159.2664c-0.8005,27.3134-1.6114,54.6266-2.3873,81.9407c-0.0897,3.1616-0.0923,6.3337,0.051,9.4924
		c0.4152,9.1525-3.8707,16.0301-10.7093,21.4205c-1.7178,1.354-2.2775,2.5298-2.234,4.4472
		c0.117,5.1639,0.1895,10.329,0.2567,15.4939c0.0199,1.529-0.0432,3.2156,1.5728,3.9192c4.1732,1.817,4.5731,5.3063,4.3839,9.1488
		c-0.0327,0.6636,0.0407,1.3319,0.0547,1.9983c0.2206,10.5438,0.2134,10.5758,10.3582,12.7266
		c2.9,0.6148,5.6522,1.4257,6.3846,4.7094c0.5973,2.6774,2.8099,2.5154,4.6172,3.0579
		c24.9993,7.5045,45.5039,21.4139,59.6105,43.547c9.4865,14.8843,16.5109,30.8725,14.8077,49.299
		c-0.1218,1.3165-0.4008,3.087,0.769,3.7629c5.7962,3.3493,4.8865,9.084,5.049,14.2169
		c1.0491,33.1419,0.6896,66.2788-0.7634,99.4055c-0.3198,7.2892,0.1182,14.534-1.8042,21.8071
		c-2.7018,10.2215-8.4831,17.5-17.6702,22.3747c-12.9445,6.8685-26.8782,10.6893-41.1837,13.2636
		c-43.973,7.9131-87.8264,7.552-131.4644-2.4136c-10.1259-2.3124-19.6544-6.2771-28.3599-12.0535
		c-8.4092-5.5798-13.7598-13.1767-14.2202-23.4213c-1.8091-40.2581-5.6884-80.4527-3.8682-120.8283
		c0.18-3.9938-0.1233-8.0674,3.8644-10.7194c1.0397-0.6915,0.9301-2.0813,0.9235-3.2476
		c-0.2756-48.6736,40.1994-86.0305,76.0514-94.9052c2.132-0.5278,3.821-1.1089,4.3697-3.9288
		c0.6539-3.3605,4.0336-3.4437,6.826-3.9248c9.9023-1.7061,9.842-1.711,9.064-11.9015c-0.3547-4.6449-0.8721-9.2202,4.5271-12.0834
		c2.6907-1.4268,1.4799-21.0974-1.1357-23.0585c-7.6215-5.7143-11.1685-13.3214-11.4104-22.7715
		c-1.3212-51.635-5.5394-103.1513-6.3738-154.8089c-0.1479-9.1592-1.0005-18.3098-1.0523-27.4671
		c-0.0978-17.3174,14.0798-30.8939,31.8151-30.8315c16.5704,0.0583,30.1722,13.9141,30.1925,30.8733
		c0.0364,30.4848,0.0103,60.9697,0.0103,91.4545C882.6536,159.263,882.3463,159.2647,882.0389,159.2664z M750.3784,479.5103
		c0,8.9842-0.1138,17.9703,0.0413,26.9518c0.0976,5.6549,0.5477,11.3064,0.9398,16.9524c0.1837,2.6435,0.8508,4.3426,3.8418,1.8649
		c5.4237-4.493,11.6912-7.6682,18.0562-10.5443c39.7736-17.9723,81.2701-20.5941,123.6728-13.0123
		c20.918,3.7402,41.0278,10.0639,58.5117,22.9052c3.6931,2.7125,5.1672,1.8427,5.3058-2.9402
		c0.0961-3.3171-0.389-6.6478-0.3657-9.9707c0.1615-22.9772,0.6539-45.9557-1.0148-68.9087
		c-0.353-4.8551,0.0197-9.7703,2.314-14.1338c1.5865-3.0173,1.9897-6.0689,1.3713-9.161
		c-1.6919-8.4613-2.9969-17.0324-6.9813-24.8865c-13.6232-26.8541-35.3272-44.0866-63.5453-53.6026
		c-1.5026-0.5067-3.2419-1.4567-4.5654,0.3451c-2.0838,2.8369-4.7429,2.4724-7.6368,1.6858
		c-16.4733-4.4778-32.9081-3.9963-49.3168,0.4345c-3.0524,0.8242-6.1495,1.6783-8.8348-1.1838
		c-1.2004-1.2794-2.7844-0.6498-4.2098-0.0906c-7.5855,2.9759-15.2461,5.7946-22.1425,10.2528
		c-23.9215,15.4641-43.5121,34.1473-47.7381,64.2537c-0.1369,0.9753-0.3937,1.9857-0.8365,2.857
		c-1.8517,3.6446-1.3209,7.0923,0.7094,10.4363c1.8795,3.0958,2.7391,6.5084,2.4513,10.0389
		C749.3348,453.1937,750.274,466.3671,750.3784,479.5103z M856.8712,510.6657c-15.9074-0.1833-31.629,1.4221-47.0529,5.2952
		c-13.4866,3.3867-26.6095,7.8274-37.1935,17.3801c-11.1179,10.0345-11.1744,21.6672-0.3492,31.9604
		c6.9003,6.5612,15.2731,10.7399,24.1826,13.6594c37.3046,12.2245,74.9354,12.4752,112.7177,2.3754
		c10.858-2.9025,21.1638-7.2227,29.8785-14.5316c12.9442-10.8564,12.8775-23.7564,0.0005-34.6389
		c-5.27-4.4536-11.2724-7.6819-17.6307-10.2654C900.7201,513.4878,879.0202,510.7664,856.8712,510.6657z M866.0651,87.1608
		c0.0441-9.3732-1.929-17.5692-5.0722-22.5279c-4.9537-7.8148-12.433-8.0871-16.7892,0.0475
		c-7.3269,13.682-7.3475,27.8983,0.002,41.5813c4.371,8.1379,11.897,7.9325,16.7632,0.0528
		C864.8456,100.0372,865.8612,92.9624,866.0651,87.1608z"/>
	<path d="M622.6144,598.8179c-21.1248-0.1836-40.5858-4.9305-56.1451-20.4675c-22.7203-22.6877-23.1381-63.0854-0.7552-86.0827
		c7.6631-7.8735,15.924-14.9259,25.1318-21.1597c14.3851-9.7389,22.7416-22.6879,21.0759-41.658
		c-1.6127-18.3652-0.5413-36.9574-0.8608-55.4463c-1.1746-67.9603-0.8903-135.9471-3.1702-203.8829
		c-0.7203-21.4612-1.4561-42.9358-2.4794-64.3935c-0.6661-13.9652-0.8864-27.9515-1.3237-41.9278
		c-0.3071-9.8159-0.5414-19.6359-1.0187-29.4438c-0.1826-3.7502,1.3678-5.7348,4.7032-7.233
		c10.0616-4.5193,19.9627-4.4594,29.9469,0.1484c2.8622,1.321,4.4644,3.0747,4.3124,6.4748
		c-0.6984,15.6298-1.5252,31.262-1.7657,46.9017c-0.1896,12.3277-0.7278,24.6286-1.1966,36.9431
		c-2.3888,62.7585-3.9441,125.5475-4.1544,188.3465c-0.1295,38.6532-1.4378,77.2903-1.0635,115.9434
		c0.0677,6.9887-1.0413,13.9484-0.2098,20.9671c0.5046,4.2591,1.7795,8.0832,4.3177,11.5269
		c5.8707,7.9653,12.7866,14.5574,21.1151,20.2185c17.3964,11.8248,31.9603,26.2529,35.8172,48.3554
		c6.2997,36.101-15.3324,66.9302-51.9069,73.9306C636.2629,598.1655,629.5052,599.0884,622.6144,598.8179z M622.6484,44.1301
		c0-0.0057,0-0.0113,0-0.017c-1.1603,0-2.3207-0.0089-3.481,0.0015c-6.3691,0.057-6.8419,0.4984-6.2524,6.9103
		c0.561,6.1026,1.457,12.1764,1.9315,18.2842c0.3057,3.9351,2.386,5.1808,5.9302,4.8179c3.4597-0.3542,8.0698,1.6685,8.6517-4.5093
		c0.6522-6.9244,1.5647-13.8247,2.3939-20.7319c0.3837-3.1961-1.147-4.6537-4.2018-4.7466
		C625.9647,44.0887,624.3059,44.1301,622.6484,44.1301z"/>
	<path d="M642.1958,925.2942c-0.6279-78.1528,0.8616-156.2972,1.1473-234.4473c0.0353-9.6422,0.6725-19.3089,1.5737-28.9133
		c0.8787-9.3656,6.0291-16.4041,13.6684-21.6847c7.3577-5.0862,15.6793-8.0055,24.1132-10.6682
		c3.243-1.0237,5.3393-0.1156,5.4418,3.5059c0.2097,7.4142,2.4664,14.8271-0.0562,22.2608c-0.5451,1.6062-0.0627,3.3589,0.76,4.8363
		c0.9808,1.7611,1.2359,3.3852-0.0779,5.0659c-0.1966,0.2514-0.4517,0.7296-0.3474,0.9042
		c3.158,5.2863-0.2808,11.3159,1.9056,16.6931c0.2487,0.6116,1.0259,1.525,0.8684,1.7094
		c-3.8376,4.4929,0.8122,9.5508-0.9991,14.1443c-0.6397,1.6224-0.6774,3.2939,0.2109,4.8297
		c1.1823,2.0436,1.2985,4.0685,0.2159,6.1589c-0.925,1.7861-0.8119,3.5543,0.1841,5.2438c1.1229,1.9047,1.1104,3.7411,0.0092,5.6467
		c-0.3253,0.5626-0.7881,1.4552-0.5684,1.8613c2.835,5.2397-0.2695,10.8174,1.1007,16.3243
		c1.0395,4.1777-0.0276,8.9185,0.1924,13.4754c0.3263,6.7604,0.5648,13.706,0.1011,20.3761
		c-0.3843,5.5281-0.1506,11.2172,0.1781,16.461c0.3375,5.3853-1.8513,10.9521,0.527,16.2422
		c0.3813,0.8483,0.393,1.9536,0.2957,2.9117c-0.6841,6.7319,0.1704,13.557-0.3098,20.1381
		c-0.3781,5.181,0.2269,10.3283-0.0108,15.4603c-0.2498,5.3922-1.2137,10.9968,0.104,16.4282
		c0.368,1.5169,0.6929,2.9116-0.0476,4.3427c-1.0689,2.0661-1.1437,4.1518-0.1429,6.2429c0.9339,1.951,0.7729,3.8279-0.0524,5.782
		c-0.8083,1.9139-0.8771,3.8854,0.1404,5.7952c0.1559,0.2926,0.4569,0.6697,0.3782,0.9016
		c-1.7823,5.2526,0.7446,10.6472-0.5307,15.885c-0.4471,1.8361-0.8298,3.5878,0.104,5.3311
		c1.0352,1.9324,1.0039,3.7921-0.0706,5.7031c-0.3153,0.5608-0.7207,1.4545-0.4934,1.8785
		c2.8164,5.2547-1.414,11.0103,1.2264,16.2776c0.6224,1.2417,0.1578,2.6263-0.5015,3.8365
		c-1.1175,2.0516-1.2422,4.2084-0.2128,6.2419c0.9219,1.821,0.9284,3.4223,0.0004,5.2075
		c-0.8829,1.6982-1.0792,3.6164-0.1555,5.3063c1.2531,2.2926,1.1906,4.3464-0.1051,6.5816
		c-0.7773,1.3411-0.5901,2.9063-0.1465,4.3868c0.0953,0.3181,0.3702,0.6791,0.2916,0.9383
		c-2.3896,7.8817,4.112,14.1958,3.7935,21.7288c-0.3237,7.6552-0.4599,15.3182-0.6912,22.9775
		c-0.0615,2.0342-1.1127,3.3013-2.9317,4.2471c-3.0901,1.6068-6.0888,3.3968-9.0747,5.1949
		c-4.3968,2.6478-6.8841,6.3758-7.5323,11.6627c-0.7971,6.5015-0.9729,12.9305-0.1454,19.4165
		c0.7166,5.6173,1.2334,11.2438,1.336,16.9248c0.554,30.6469,1.3564,61.2898,1.7844,91.9381
		c0.2236,16.0078,3.5601,31.7732,3.1143,47.8384c-0.2258,8.14-0.1595,8.4132-8.4851,9.1885
		c-11.0439,1.0286-21.9506-0.682-32.9156-1.215c-3.5698-0.1736-5.1753-1.9117-5.3348-5.7097
		c-0.4211-10.0309,0.8797-19.9697,1.1619-29.9581c0.9504-33.6426,1.4702-67.307,3.0644-100.9198
		C641.6028,1024.5903,642.6257,974.9622,642.1958,925.2942z"/>
	<path d="M1336.6608,565.1645c-21.4301,1.0137-42.6287-0.8851-63.5597-5.3436c-10.3929-2.2139-19.7742-6.0321-28.5116-13.1804
		c-11.0034-9.002-22.2301-18.0312-34.4281-25.5707c-8.255-5.1025-15.8279-11.0627-22.7612-17.8357
		c-2.4362-2.3799-4.9473-4.3556-8.618-4.4346c-2.2823-0.0491-4.4688-1.2157-5.03-3.4533c-0.5587-2.2275,1.6064-3.4819,3.181-4.6324
		c1.3308-0.9724,2.8344-1.78,4.3689-2.3906c10.3555-4.1207,20.2026-9.2332,30.1616-14.2232
		c13.3857-6.707,28.3517-9.3653,43.3022-10.953c8.9392-0.9493,17.9091-1.6767,26.8826-2.2064
		c3.5696-0.2107,5.202-1.8146,6.3933-5.0289c4.0613-10.9581,8.8699-21.5256,16.8699-30.3445
		c6.4706-7.133,14.4615-12.2226,22.4711-17.3188c2.1228-1.3506,3.9719-0.5076,6.047,0.4937
		c18.1898,8.7772,30.6195,22.8581,37.1902,41.7317c2.3145,6.6483,6.2372,8.748,12.5417,9.6367
		c14.4967,2.0434,29.0168,4.1524,43.3372,7.1456c12.0453,2.5177,23.9707,5.9918,32.8074,15.6121
		c5.3903,5.8683,5.5638,12.1158,0.4532,18.2968c-1.4846,1.7953-3.053,3.5514-4.3063,5.5032
		c-8.9028,13.8661-20.5803,24.8157-33.1023,35.5713c-17.166,14.7444-36.9236,19.7363-58.2478,21.6475
		C1354.9906,564.7036,1345.8103,564.7617,1336.6608,565.1645z"/>
	<path d="M1671.9498,1381.879c-31.39,0.3406-72.3784,0.504-113.3713,0.2607c-17.6674-0.1049-35.3131,0.9451-52.5104,5.6595
		c-0.8026,0.2201-1.5907,0.5088-2.4048,0.6681c-10.6639,2.0853-17.7222,7.41-18.7456,19.1914
		c-0.6108,7.0331-5.109,10.2909-12.2463,11.4585c-22.4188,3.6675-44.8798,2.0107-67.3354,1.3049
		c-11.4764-0.3608-22.985-0.4115-34.3817-2.2664c-25.3533-4.1261-40.4031-18.9609-44.5894-44.3086
		c-2.6488-16.0377-0.2686-31.4889,5.6674-46.5244c1.1254-2.8503,2.7473-3.9985,5.8259-4.3656
		c17.7278-2.1135,35.5616-2.4298,53.3522-3.4694c18.2928-1.0687,36.5797-2.2457,54.8782-3.2051
		c7.3406-0.3851,14.6471,0.3364,21.8468,1.9125c7.7421,1.6948,13.7517,5.726,17.4791,12.8867
		c1.4603,2.8054,3.2942,5.4452,4.4957,8.3516c4.9368,11.9414,14.5171,16.48,26.6577,17.804
		c15.1914,1.6567,30.2885,0.1985,45.4213-0.5016c9.8185-0.4542,19.6377-1.2388,29.4576-1.2556
		c59.8236-0.1024,119.6501,0.0903,179.4586-1.5105c10.4741-0.2803,20.9229-1.5502,31.3799-2.4059
		c8.024-0.6567,16.0087-0.5514,23.8052,1.6493c8.0662,2.2769,13.6559,7.2333,16.358,15.3951
		c1.2512,3.7797,0.2499,6.365-2.7704,8.675c-4.6862,3.5842-10.1527,4.1263-15.6691,3.9922
		C1776.5162,1380.1191,1729.0352,1381.511,1671.9498,1381.879z M1783.358,1376.074c4.9109-0.0621,9.3876-0.9957,13.3258-3.8834
		c2.5353-1.8586,2.6603-3.9291,0.9756-6.4294c-5.022-7.4532-23.2205-8.5497-28.9528-1.7128
		c-2.9293,3.4938-2.5145,6.145,1.4445,8.5071C1774.2544,1375.0033,1778.7828,1375.9364,1783.358,1376.074z"/>
	<path d="M302.8989,1056.7682c1.018-51.2253,1.6042-90.8774,1.0107-130.5208c-0.254-16.9662-0.1999-33.9741-1.6262-50.9224
		c-0.481-5.7155-2.8192-10.0803-7.5745-13.3543c-5.345-3.6801-10.7733-7.3145-15.6985-11.5161
		c-22.203-18.9405-29.0259-43.4527-26.6114-71.8114c1.7847-20.961,8.0781-40.3623,16.9493-59.1484
		c4.6505-9.8483,11.6875-17.803,20.2097-24.4199c15.3715-11.9346,34.3514-11.2568,49.2428,2.2659
		c12.4229,11.281,21.6067,25.2255,26.4225,41.1698c6.1864,20.4825,8.4751,41.6594,6.9745,63.191
		c-1.5214,21.8304-12.6048,37.8038-29.7222,50.2061c-5.1105,3.7027-10.628,6.8706-16.0998,10.0403
		c-5.2887,3.0636-7.5479,7.3819-7.6078,13.5273c-0.5505,56.5103,2.2603,112.8879,5.8166,169.2637
		c2.6738,42.387,4.3355,84.8375,6.4841,127.2579c0.5813,11.4779,1.3786,22.9454,1.9159,34.4252
		c0.3276,7.0007-0.9295,8.2139-7.7787,8.5294c-5.8208,0.2681-11.6385,0.6047-17.4599,0.8556
		c-6.8849,0.2969-8.6721-1.5638-8.6041-8.2517C299.692,1153.4128,301.6934,1099.3065,302.8989,1056.7682z"/>
	<path d="M1563.6271,472.1009c1.8464,27.65,0.8002,56.1864,3.0392,84.6159c0.2072,2.6309-0.0061,5.3402-0.3799,7.9624
		c-0.8871,6.2231-5.3357,10.4789-11.5609,11.212c-5.7017,0.6716-11.3444,0.0524-16.8218-1.5109
		c-4.1089-1.1727-6.9127-3.6221-7.1409-8.4384c-0.5999-12.6692,0.0724-25.3244,0.6486-37.9512
		c1.5425-33.7949,2.2662-67.6063,2.8894-101.4239c0.2238-12.146-0.0521-24.3095,1.1886-36.4229
		c0.0338-0.33-0.1005-0.7273,0.0391-0.989c3.3618-6.3093,1.7179-11.4808-3.0448-16.4596c-2.3418-2.448-1.212-6.0645-0.906-9.1826
		c1.2518-12.7491-5.2375-22.2717-17.3914-25.3913c-7.2069-1.8498-8.2654-3.0732-9.0897-10.4357
		c-2.5867-23.1032-2.1183-46.2509-0.8046-69.3906c1.7964-31.6371,5.3596-63.0538,12.9063-93.9012
		c4.0522-16.5634,9.7233-32.5295,18.4399-47.2888c2.2897-3.877,4.6838-7.6848,7.8141-10.9648
		c3.8723-4.0574,6.3394-4.0487,9.7172,0.425c5.1382,6.8056,9.2458,14.2339,12.6309,22.0591
		c12.0692,27.8997,18.3975,57.1854,22.2611,87.2515c3.536,27.5174,3.5966,55.1588,5.0649,82.7565
		c0.5422,10.1916,0.8005,20.2564-1.0654,30.3523c-0.9626,5.209-3.3239,7.8941-8.7465,9.2594
		c-14.0507,3.5375-19.6094,10.6065-18.6477,26.2445c0.2911,4.7352-0.2061,8.8816-3.4254,12.5556
		c-1.6276,1.8572-2.2086,4.3916-1.3834,6.6101c3.241,8.7118,2.0715,17.7711,2.3451,26.689
		C1562.8259,430.6607,1563.1587,450.9869,1563.6271,472.1009z"/>
	<path d="M1806.6962,323.9101c1.3379-47.2913,2.6924-94.583,2.6066-141.9005c-0.0682-37.6504,0.0782-75.2953,2.7781-112.8772
		c0.179-2.4911,0.2977-4.9941,0.6476-7.4628c0.2262-1.5966-0.4663-3.9824,0.9515-4.6219c1.9374-0.8738,3.6818,1.0283,5.2323,2.2082
		c5.7351,4.3638,9.3707,10.3088,12.2063,16.784c8.0232,18.3207,11.2727,37.8621,14.7949,57.3629
		c5.27,29.1784,4.9293,58.6961,5.8114,88.1454c0.3993,13.3317,1.1891,26.6211,3.9872,39.7035
		c0.5337,2.4955,0.1918,4.5928-1.64,6.4134c-2.8336,2.8165-5.6193,5.6818-8.4751,8.4756
		c-11.6301,11.3773-13.5037,24.4035-5.2507,38.4932c3.7006,6.3177,7.688,12.4767,11.7501,18.571
		c5.9524,8.9302,7.1711,17.9313,1.7787,27.6686c-6.7166,12.1284-4.8823,25.2477-3.4537,38.1482
		c2.0515,18.5267,5.9532,36.8148,7.3802,55.4304c1.8022,23.5081-2.5258,46.4543-6.2892,69.4631
		c-0.8578,5.2448-1.1584,10.5814-1.6946,15.878c-0.9061,8.9534,0.9478,17.2939,6.1451,24.6586
		c7.2816,10.318,6.5684,20.2484-0.1017,30.633c-3.9387,6.1323-6.8278,12.9371-10.2178,19.4243
		c-2.1852,4.1812-5.0369,5.7012-10.116,4.3017c-17.7175-4.8823-26.5635-17.2957-30.3027-34.2975
		c-3.1366-14.2617-3.2166-28.7644-3.0007-43.2671c0.6769-45.4715,1.2649-90.9448,2.1462-136.4124
		C1804.8932,377.8542,1805.9044,350.8843,1806.6962,323.9101z"/>
	<path d="M935.0452,728.6293c0.04-10.112,5.3096-13.6078,14.0039-9.8475c1.1093,0.4797,1.9266,0.1044,2.7968-0.2961
		c20.3299-9.3568,41.2634-9.2311,62.5557-4.118c2.4055,0.5777,4.9459,0.7092,7.4333,0.8107
		c11.3936,0.4654,11.8989,0.269,16.0762-10.2169c2.3052-5.7864,6.1055-8.8849,12.382-9.006
		c5.3242-0.1027,10.652-0.6662,15.9667-0.5399c59.8153,1.422,119.5973-1.2838,179.4006-1.3734
		c38.4908-0.0577,76.959,0.4542,115.4225,2.019c9.8707,0.4016,16.7502,3.7863,19.3439,13.6771
		c0.9281,3.5388,3.324,4.1104,6.3505,4.2752c9.7688,0.5318,19.2063-1.7247,28.7035-3.3843
		c14.2769-2.4949,28.1989-1.7627,41.6086,4.1216c2.1211,0.9308,4.2457,2.0357,6.0491,3.4636
		c2.3531,1.8633,4.3644,2.163,7.2179,0.837c5.8961-2.7399,11.3817-0.9252,13.1078,3.8375
		c1.8036,4.9758-1.5638,12.207-6.5118,14.1956c-3.0829,1.239-5.5583,0.1319-7.7649-1.8517
		c-1.3871-1.2468-2.5039-1.8528-4.309-0.5836c-13.1111,9.2179-27.702,7.9665-42.377,5.7671
		c-12.0074-1.7996-23.7764-5.0266-35.97-5.7856c-3.8412-0.239-5.4091,1.2222-6.989,4.6326
		c-3.71,8.0078-6.1526,10.7878-14.7767,10.8721c-104.4591,1.0222-208.9222,0.3641-313.3811,1.0215
		c-8.3395,0.0525-10.4736-1.4869-13.8842-9.9951c-2.9524-7.3654-2.9518-7.356-10.8408-6.9149
		c-13.0001,0.7267-25.6816,3.8359-38.6044,5.144c-11.1201,1.1257-21.9691,0.6459-32.0004-5.0853
		c-2.8817-1.6464-5.8753-1.5549-8.3175,0.6044c-2.8242,2.497-5.7269,3.3467-9.1218,1.6656
		C935.0015,734.7859,934.7336,731.4821,935.0452,728.6293z"/>
	<path d="M700.9939,1356.2009c26.8309,0,53.6617-0.0173,80.4924,0.0317c2.2658,0.004,4.1705-0.5304,6.0529-1.8148
		c5.5266-3.771,11.2056-4.2196,16.6012,0.167c2.7125,2.2053,5.2213,1.3074,7.2693-0.3474
		c13.4938-10.9016,29.5063-11.9424,45.84-12.3896c20.9866-0.5748,41.9982-0.4862,62.9528-2.0212
		c3.439-0.2521,6.297,0.1083,7.4966,4.0105c0.8446,2.7477,3.0427,1.934,5.0032,1.6323c17.114-2.6348,34.2033-5.4479,51.353-7.8256
		c12.5291-1.7371,25.135-2.9011,37.6047-5.1185c2.0813-0.37,4.33-0.1284,6.4582,0.1547c7.48,0.9946,10.9736,5.4286,10.0709,12.9125
		c-0.1696,1.4048,0.0605,2.5795,0.342,3.8729c2.6257,12.063,3.1611,24.2179,1.4847,36.4601
		c-0.2036,1.4861-0.455,2.9709-0.5535,4.465c-0.6907,10.4807-8.5262,16.2024-18.6839,13.6243
		c-23.4633-5.9554-47.6497-7.6343-71.3762-12.0427c-5.2346-0.9725-10.5537-1.4818-15.8152-2.3212
		c-2.1794-0.3477-4.1361-0.3489-4.8458,2.1488c-0.8648,3.0433-3.0276,3.5521-5.7484,3.5267
		c-29.6602-0.2754-59.3145,0.113-88.968,0.7471c-7.2355,0.1548-13.8065-2.3638-19.5215-6.6667
		c-4.0616-3.0579-7.7319-3.5024-11.6655-0.0995c-4.1787,3.6147-8.6895,2.99-13.0006,0.5306
		c-3.4005-1.9399-6.8583-2.2505-10.5906-1.8586c-26.5181,2.7839-53.1254,4.5488-79.7474,5.6603
		c-28.2863,1.1808-56.5542,3.8929-84.9123,2.3107c-11.9713-0.668-23.9284-1.7084-35.7131-4.0514
		c-2.7505-0.5469-5.4256-1.5728-8.0626-2.5707c-5.2546-1.9883-7.7689-5.8186-7.8964-11.5042
		c-0.1329-5.9265,2.5245-9.8431,7.7855-12.1599c9.7073-4.2749,20.071-6.0696,30.4489-7.527
		c28.0074-3.9336,56.1945-2.9496,84.3497-2.6611c5.1643,0.053,10.3297,0.0076,15.4945,0.0076
		C700.9937,1355.7225,700.9938,1355.9618,700.9939,1356.2009z"/>
	<path d="M192.4241,1073.1503c0.6385-43.3197,0.8549-86.6517,2.1232-129.9528c0.5078-17.3361,1.2235-34.6289-0.0687-51.9182
		c-1.6179-21.6475-7.2682-42.6483-10.8056-63.9915c-1.4156-8.5413-2.9909-17.0594-4.2232-25.6269
		c-1.7094-11.8841,0.5677-23.5829,2.1605-35.2838c3.452-25.3577,11.6661-49.5333,18.6969-73.9906
		c2.628-9.1418,7.1287-17.571,11.4417-26.0223c2.1409-4.1951,5.067-7.8446,8.9083-10.6432c2.6954-1.9638,5.6409-2.99,8.851-1.2296
		c3.1722,1.7397,4.0241,4.654,3.8508,8.0582c-0.4829,9.4825-1.106,18.962-1.361,28.4511
		c-0.7251,26.9843-1.0187,53.9828-1.9916,80.9574c-1.3748,38.1174-3.0042,76.2224-7.9264,114.1133
		c-1.9372,14.9122,0.1163,29.9553-0.1419,44.9397c-0.8474,49.186,2.022,98.2827,4.2464,147.371
		c1.6819,37.1176,3.8112,74.2009,3.9108,111.3705c0.0133,4.9784,0.9903,9.9341,0.7561,14.9584
		c-0.1165,2.4982-1.1063,3.9189-3.4762,4.8109c-10.0286,3.775-20.2957,3.1382-30.5847,1.7721
		c-4.3258-0.5745-5.8051-3.1378-5.7875-7.674c0.1691-43.4905,0.1012-86.9819,0.1012-130.473
		C191.544,1073.1481,191.9841,1073.1492,192.4241,1073.1503z"/>
	<path d="M823.8592,939.658c2.3976,25.9938,0.982,51.9468-0.1212,77.9047c-0.0353,0.832-0.0674,1.6656-0.1484,2.4938
		c-0.9783,10.0048-1.6556,10.5388-11.4938,9.9766c-3.8185-0.2183-7.6727-0.4025-11.478-0.1365
		c-7.05,0.4927-10.6944,4.1277-12.0677,11.1158c-1.0205,5.1929,0.0182,10.3076,0.3398,15.4314
		c1.7891,28.4976-1.059,56.9376-0.9346,85.4149c0.0569,13.0165,0.6416,25.941,2.5282,38.8362
		c0.9866,6.7428,1.1392,13.5696-0.3433,20.3722c-0.9054,4.1543-3.0889,6.2944-7.2924,6.9045
		c-10.9796,1.5933-21.5369-0.651-32.0504-3.2845c-3.7093-0.9291-4.1012-3.9196-3.7574-7.1488
		c1.0929-10.2637,2.1496-20.5311,3.2784-30.7908c2.4237-22.0295,3.0409-44.1862,4.7047-66.2688
		c2.8398-37.6931,5.8398-75.3746,8.4973-113.0804c1.7678-25.0829,2.95-50.2066,4.5864-75.2995
		c2.34-35.8826,4.2918-71.813,10.0464-107.3697c2.2714-14.0344,6.4775-27.5225,13.233-40.1191
		c0.7697-1.4351,1.3218-3.3754,3.2211-3.522c2.2818-0.176,2.8707,2.0023,3.6863,3.5573
		c8.0539,15.3546,11.9293,32.054,15.5866,48.8157c6.4147,29.3986,8.7236,59.2709,9.899,89.2389
		C824.2618,915.0015,823.8592,927.3376,823.8592,939.658z"/>
	<path d="M1682.9462,420.434c0-52.6422-0.5475-105.2931,0.3047-157.9215c0.2883-17.805-4.38-32.8232-14.5911-46.9492
		c-10.4874-14.5085-19.4113-30.0161-22.8893-47.8545c-4.209-21.5871-4.7271-43.0956,5.4415-63.4459
		c8.7223-17.4554,23.5544-24.5957,42.5969-23.7332c18.8162,0.8522,31.5154,10.1658,38.0962,27.8652
		c3.1731,8.5339,4.059,17.4511,4.9679,26.4054c2.5255,24.8808-3.7764,47.7442-14.8665,69.7987
		c-4.9323,9.8083-9.3657,19.8432-15.166,29.2111c-2.7152,4.3852-2.7201,9.5762-2.8857,14.5472
		c-0.9655,28.9797-0.3351,57.971-0.4695,86.9571c-0.3436,74.1304-0.6216,148.2612-0.9115,222.3918
		c-0.045,11.4916-0.0084,22.9834-0.0226,34.4751c-0.0073,5.9355-0.6442,6.5714-6.5566,6.6818
		c-14.2195,0.2658-14.218,0.2657-14.2178-13.5014c0.0006-54.9758,0.0001-109.9516,0.0001-164.9275
		C1682.1667,420.4341,1682.5564,420.4341,1682.9462,420.434z"/>
	<path d="M425.9359,1082.6165c0.9017-46.9437,1.6257-89.5837,2.628-132.217c0.1791-7.6195-2.5362-12.9746-8.7633-17.2371
		c-15.5464-10.6419-28.8513-23.6208-35.1551-41.7422c-8.6363-24.827-6.3279-48.8962,10.4578-69.8126
		c19.5605-24.3738,58.6385-24.9254,81.8494-4.1077c30.2779,27.1561,20.1949,75.9424,1.4952,95.6281
		c-7.3688,7.7573-15.1227,15.2227-24.5309,20.3384c-7.1196,3.8712-9.5455,9.5092-10.0879,16.9954
		c-1.6401,22.6417-1.0724,45.2926-0.5189,67.9395c0.7325,29.9763,1.5227,59.9532,2.5986,89.9187
		c1.1355,31.6266,2.7144,63.2368,3.9383,94.8605c0.4795,12.3899-0.462,13.2174-12.9344,13.7797
		c-2.9897,0.1348-6.0014,0.1653-8.9851-0.0298c-6.5326-0.4272-7.9332-1.8517-7.6847-8.3235
		c0.6837-17.8091,1.4846-35.6138,2.2984-53.4175C423.7124,1129.5635,424.9362,1103.9401,425.9359,1082.6165z"/>
	<path d="M63.9258,650.4324c2.6398,8.9361,2.5004,17.1099,2.9208,25.1635c0.9903,18.9665,0.9754,37.9866,2.7867,56.909
		c1.2685,13.252,3.9202,26.3552,4.2978,39.7115c0.0569,2.0131,0.5971,4.3458,3.2173,4.2288
		c2.3428-0.1046,2.6141-2.459,2.6815-4.1956c0.1549-3.988-0.0502-7.9893-0.0836-11.9854
		c-0.2412-28.8223-0.4428-57.645-0.7413-86.4667c-0.0586-5.6596-0.5389-11.3137-0.7094-16.9738
		c-0.0586-1.9462-0.3711-4.0303,1.3062-5.8986c1.9486,2.5916,2.0274,5.5985,2.3557,8.4936
		c3.2874,28.993,4.5958,58.1172,5.7391,87.252c0.3076,7.8396,1.2606,15.6036,2.9408,23.2645
		c0.5467,2.4926,0.4726,6.5036,3.6482,6.2291c3.5806-0.3094,2.6984-4.4646,2.7112-7.035
		c0.0708-14.1635,0.0439-28.3314-0.2402-42.4919c-0.4646-23.1584-1.1871-46.3116-1.691-69.4694
		c-0.0474-2.1772-1.0938-6.0124,1.2273-6.187c2.7143-0.2042,1.81,3.7001,2.0835,5.7386c2.4386,18.1778,2.8345,36.531,4.4786,54.7799
		c1.6439,18.2464,3.2778,36.4959,5.2292,54.7104c0.3581,3.3427-0.0212,9.331,3.9007,9.0439c4.0331-0.2953,1.794-5.8419,1.8015-9.025
		c0.0566-23.9907,0.6677-47.9844-0.6668-71.9701c-0.6477-11.6412-0.722-23.3159-0.9528-34.9774
		c-0.0502-2.5351-0.609-5.274,1.7899-8.1389c2.5386,6.1685,3.6688,12.1556,4.691,18.0886
		c3.0526,17.7163,6.6087,35.3979,8.5033,53.2486c2.3684,22.3149,4.9991,44.7621,0.9102,67.2298
		c-2.8282,15.5405-9.3405,29.1095-21.2185,39.7927c-4.3769,3.9366-6.3293,8.5639-6.0865,14.5812
		c1.2373,30.6617-1.7943,61.3021-0.6708,91.9686c2.5804,70.428,5.1996,140.8546,7.8025,211.2818
		c0.7015,18.9808,1.5491,37.958,2.037,56.9443c0.2321,9.0308-0.2713,9.1642-9.2349,10.6636
		c-6.4657,1.0815-12.9448,1.0198-19.4411,0.683c-6.7619-0.3503-8.17-1.6404-8.0536-8.5526
		c0.3256-19.3262,0.6205-38.6578,1.3552-57.9711c1.6152-42.4596,3.9726-84.8848,4.8761-127.3793
		c1.0945-51.4785,2.9308-102.9412,4.4199-154.4116c0.2361-8.162,0.2674-16.3301,0.5233-24.4913
		c0.1378-4.3958-1.0889-8.2779-4.0127-11.4899c-15.5905-17.1267-20.5492-37.9067-21.2753-60.3239
		c-1.1716-36.1672-0.4561-72.3061,1.1135-108.4381C60.3639,658.6876,60.3317,654.5974,63.9258,650.4324z"/>
	<path d="M1033.897,257.5154c1.5157-10.3438,3.436-23.3482,5.3239-36.3574c2.3147-15.9517,4.2025-31.9777,6.9956-47.8448
		c4.1832-23.7642,7.7719-47.6125,11.3401-71.4695c0.6163-4.1208,0.2653-8.2967,1.2825-12.4033
		c3.9744-16.0451,17.9606-27.4944,34.4648-27.2499c4.6797,0.0693,7.3727-1.4298,9.6808-5.1636
		c2.3307-3.77,5.4388-6.7018,10.3156-6.9898c10.5098-0.6206,13.5818,8.8717,12.2266,17.3814
		c-0.1552,0.9733-0.4479,1.9963-0.9519,2.8301c-2.2183,3.6698-1.9459,6.9278,0.5825,10.5101
		c2.2028,3.1209,2.9713,7.0013,3.8237,10.7556c5.3054,23.3691,10.6183,46.7367,16.0099,70.086
		c6.7988,29.4434,13.8363,58.8327,20.4583,88.3156c3.9752,17.6984-4.7985,34.892-20.6318,41.6673
		c-5.3716,2.2986-6.0751,1.9937-7.3721-3.705c-8.791-38.624-17.519-77.2624-26.3496-115.8774
		c-1.8298-8.0018-0.4476-7.7538-9.2627-6.3938c-4.934,0.7612-10.032,0.8429-14.9447-0.0392
		c-3.4177-0.6136-4.3885,0.4415-4.838,3.5888c-4.2826,29.9941-8.6862,59.9708-13.0282,89.9564
		c-1.5746,10.8741-3.222,21.7411-4.5383,32.6474c-0.494,4.0941-2.1538,4.4346-5.6351,3.3414
		C1043.8215,290.3832,1033.8531,276.5899,1033.897,257.5154z"/>
	<path d="M1122.6292,444.5787c9.2026-1.6231,17.3643,1.8254,25.4695,5.3794c2.5913,1.1362,4.9717,2.7377,6.7251,5.0523
		c0.8491,1.1208,1.2822,2.3498,0.2323,3.6429c-0.9806,1.2077-2.1398,1.4802-3.533,0.7596
		c-0.5912-0.3058-1.2482-0.5047-1.7965-0.8702c-7.5913-5.0584-16.265-3.6905-24.6196-4.1042
		c-2.8418-0.1407-5.3304,0.6192-5.7363,4.1425c-0.2433,2.1117-1.7523,3.5228-3.0511,5.0443
		c-4.8853,5.7227-6.6006,12.1319-4.4449,19.5152c10.8182,37.0538,11.6511,75.2032,12.1978,113.3588
		c0.1416,9.8963-8.0452,18.1664-18.1936,19.2051c-10.2235,1.0464-19.9432-5.8168-21.9728-15.5715
		c-0.3374-1.6216-0.5609-3.2904-0.6128-4.9444c-1.1108-35.4576-2.1771-70.9166-3.2834-106.3744
		c-0.2804-8.9882-0.7709-17.9708-0.9633-26.9603c-0.0905-4.2212-1.916-6.0694-6.116-5.8733
		c-9.8595,0.4604-19.1305-1.8997-28.0323-5.9971c-2.3019-1.0594-4.3512-2.4478-6.1707-4.1808
		c-1.222-1.1638-2.5022-2.4424-1.5602-4.3157c0.9324-1.8541,2.7129-2.5565,4.6344-2.1863c2.6006,0.5009,5.3177,0.9643,7.668,2.0995
		c9.9934,4.8276,20.5908,4.896,31.2915,4.4258c2.9307-0.1288,4.3049-0.9545,1.7506-3.7656c-0.8666-0.9538-2.04-2.3767-1.8771-3.3934
		c0.896-5.5872-3.03-7.7088-6.5831-10.5431c-29.9171-23.8647-21.6509-70.1101,15.035-84.5679
		c23.3533-9.2034,50.7784-1.5482,65.4642,18.2731c20.7588,28.0181,4.8816,68.2548-30.4498,77.0342
		c-3.3783,0.8394-6.8899,1.1358-10.3323,1.7271c-1.302,0.2236-2.9032,0.4098-2.7451,2.208
		c0.1583,1.8031,1.8705,1.6945,3.1213,1.7446C1116.9689,444.6564,1119.8005,444.5787,1122.6292,444.5787z"/>
	<path d="M853.2815,1093.2007c1.1459-25.4171,1.9016-55.9247,1.3661-86.3903c-0.4539-25.8256-0.7736-51.6304-0.1381-77.4423
		c0.6558-26.6401,0.1578-53.3351,3.5651-79.8594c1.6169-12.5865,4.5927-24.8697,7.8339-37.1045
		c0.3826-1.4443,0.6272-3.2101,2.3786-3.4708c1.9759-0.2943,2.8697,1.4698,3.6966,2.8639
		c6.0184,10.1461,9.3948,21.2725,11.9787,32.6833c5.3498,23.6251,7.4678,47.6983,9.7375,71.7347
		c2.3014,24.372,5.0848,48.7141,4.553,73.2867c-0.1345,6.2196-0.9114,11.3265-6.6461,15.015
		c-4.3906,2.8239-5.4729,7.679-5.7192,12.7134c-0.5408,11.0538,1.4611,21.9255,2.2341,32.8838
		c1.8755,26.5905,3.7504,53.1815,5.8267,79.7567c0.7,8.9592,1.894,17.8862,3.0814,26.7987c0.595,4.4663,2.0085,8.6576,4.7268,12.469
		c3.4572,4.8475,2.9481,10.8248,3.6484,16.3872c0.6648,5.2814,0.6843,10.6409,1.2127,15.9435
		c0.5268,5.2856-2.1309,7.4734-6.9606,8.3658c-8.2735,1.5291-16.6044,1.2218-24.9262,1.16
		c-5.3183-0.0396-10.647,0.1154-15.9457-0.8541c-4.5547-0.8334-6.6458-3.4597-6.6808-7.9078
		c-0.0511-6.4989-0.2819-13.0092,0.0007-19.4957C853.3316,1154.5861,852.9857,1126.4174,853.2815,1093.2007z"/>
	<path d="M588.7568,908.5132c0.6065,15.1491-5.749,30.8228-19.5364,43.4125c-2.2109,2.0189-4.2039,4.2757-6.308,6.4124
		c-5.6281,5.7157-7.4474,12.217-6.5688,20.4443c2.9393,27.5225,2.6113,55.2256,3.6106,82.859
		c1.6857,46.6154,0.3083,93.3052,3.5544,139.8771c0.0116,0.1661,0.0197,0.3328,0.0244,0.4993
		c0.3448,12.2185-4.4118,16.2301-16.4659,13.7285c-3.3527-0.6957-4.9948-3.0403-5.136-6.4534
		c-0.1997-4.8254-0.7697-9.6638-0.5783-14.4728c1.4314-35.9755,0.5341-71.964,0.8601-107.9432
		c0.3123-34.4777,1.3088-68.9755,2.6655-103.4063c0.5876-14.9101-5.0948-23.7725-15.3074-32.1272
		c-24.9487-20.4105-27.546-59.2314-5.678-83.0217c13.6738-14.8758,39.3821-14.2734,52.3778,1.2273
		C583.9888,878.7547,589.0957,893.2042,588.7568,908.5132z"/>
	<path d="M1218.173,255.935c0.0757-18.4947,8.1819-31.534,25.5885-36.8564c15.8484-4.846,25.9258-14.6023,32.6621-29.1715
		c2.2875-4.947,3.3895-11.167,10.2354-13.187c1.6301-0.481,2.0618-4.3526,3.4706-6.3666
		c7.7456-11.072,6.3165-21.2301-0.1802-32.9107c-10.9868-19.7541-20.146-40.5235-30.1151-60.8457
		c-1.5061-3.07-2.4989-6.1807-1.7769-9.616c0.3989-1.898,1.4243-3.534,3.322-4.0405c2.1666-0.5782,2.6854,1.5128,3.5408,2.8369
		c13.0106,20.1401,25.9785,40.3079,39.0375,60.4165c1.0145,1.5622,1.6122,4.224,3.9568,3.9512
		c1.9869-0.2312,2.1707-2.7421,2.8895-4.3432c9.135-20.3442,18.2047-40.7176,27.2944-61.0821
		c0.4746-1.0634,0.8662-2.1871,1.4941-3.1544c1.3446-2.0718,1.8356-5.7646,5.5227-4.3106c3.1301,1.2343,4.9569,3.9556,4.6814,7.5204
		c-0.1393,1.8031-0.632,3.6067-1.1686,5.3472c-7.8914,25.5973-15.7523,51.2045-23.8162,76.7476
		c-1.0195,3.2294-0.679,5.6969,1.1605,8.3793c3.4834,5.0794,5.7596,11.5836,10.3497,15.1877
		c10.83,8.5033,16.3784,21.5444,27.3242,29.7844c6.5348,4.9194,14.0483,6.5668,21.7827,7.9875
		c24.1968,4.4448,37.931,25.9089,31.9336,49.7771c-3.0884,12.2903-12.1229,19.7383-25.0055,20.6597
		c-4.1931,0.2999-8.3258-0.1911-12.4259-0.9276c-5.8005-1.0418-10.5-5.6676-10.4775-11.6045
		c0.0529-13.9194-5.5804-25.9405-12.1301-37.5383c-6.6934-11.8524-13.3069-23.8325-22.7814-33.887
		c-1.9882-2.1099-4.0873-4.9813-3.2201-8.0565c1.2151-4.3091-1.4612-4.5626-4.1667-4.7435
		c-4.3301-0.2894-8.6227,0.3358-12.9265,0.9133c-4.9462,0.6636-9.9686,0.7477-14.924,1.3583
		c-2.9172,0.3595-5.5383,1.1165-4.5454,5.3799c0.7126,3.0597-1.3734,5.728-2.799,8.338
		c-9.1301,16.7166-16.5024,34.1308-21.0933,52.6641c-1.4116,5.6982-2.2612,11.402-1.2334,17.3008
		c0.3955,2.2695,0.5741,4.703,0.2043,6.9555c-1.0262,6.2537-3.6246,10.6239-10.7603,12.5042
		C1235.536,293.506,1218.0728,280.408,1218.173,255.935z M1226.7952,255.22c-0.3558,12.0965,5.4531,21.6201,13.3871,22.8708
		c8.4852,1.3376,14.8734-4.5129,18.3312-16.7851c0.1354-0.4808,0.3262-0.9482,0.4316-1.4348
		c1.1637-5.3667,2.2643-10.7477,3.4851-16.1012c1.2755-5.5925,0.6488-10.7995-3.9507-14.5771
		c-4.552-3.7387-9.7511-2.7544-14.6603-0.5687C1231.9644,233.9019,1226.759,243.4082,1226.7952,255.22z M1410.1094,249.0318
		c0.0829-16.2508-10.0963-29.3209-24.4354-31.3751c-11.6548-1.6696-17.7206,5.2715-13.8765,16.4017
		c2.3807,6.8933,5.4768,13.5548,8.5165,20.1992c1.667,3.6441,4.2512,6.7764,7.2625,9.4467
		c7.1696,6.3578,16.7294,4.2667,20.5551-4.4648C1409.5513,255.9993,1410.1798,252.5758,1410.1094,249.0318z"/>
	<path d="M858.9897,584.0949c-21.7528,0.0796-40.6583-2.2883-58.8013-9.2002c-7.3514-2.8005-14.3154-6.3364-19.9745-11.9955
		c-8.6766-8.6769-8.665-18.6218,0.307-27.102c9.3869-8.8723,21.1511-13.1434,33.3986-15.9862
		c32.2797-7.4927,64.376-7.1246,96.0695,3.2553c7.4754,2.4482,14.5184,5.871,20.6019,10.9729
		c11.4852,9.632,11.5861,21.3079,0.0361,30.8254c-11.2643,9.2821-24.8939,13.1476-38.843,16.0002
		C880.1674,583.2403,868.4051,584.3311,858.9897,584.0949z M859.9261,581.1555c3.4429,0.18,10.0779-0.5428,16.6819-1.2877
		c5.4402-0.6135,10.8732-1.5831,16.1993-2.8553c11.5544-2.7602,22.8231-6.3735,31.8309-14.6321
		c8.7527-8.0247,8.7863-17.3369,0.2625-25.541c-5.5048-5.2983-12.188-8.6974-19.3414-11.0644
		c-31.9599-10.5752-64.0664-10.5255-96.167-0.7255c-7.665,2.34-14.8854,5.8475-20.8941,11.353
		c-8.8983,8.1532-8.9692,17.6531-0.2438,25.9223c4.6619,4.4182,10.236,7.3899,16.1353,9.7535
		C821.1758,578.8038,838.7759,580.8581,859.9261,581.1555z"/>
	<path d="M855.7839,521.2989c17.1158,0.3753,33.4204,2.1179,48.8586,8.6975c5.2424,2.2344,10.1652,4.9938,14.135,9.1686
		c6.2927,6.6175,6.2443,14.2145-0.1226,20.8064c-4.3682,4.5226-9.7898,7.4753-15.565,9.6791
		c-21.3304,8.1395-43.4266,9.333-65.8508,6.7135c-11.6158-1.3569-22.9778-3.9254-33.3659-9.5555
		c-6.982-3.7841-14.1292-8.1345-14.2031-17.1646c-0.0762-9.2975,7.1862-13.8063,14.3777-17.5428
		C820.4225,523.5933,838.27,521.8411,855.7839,521.2989z M856.1257,575.0887c8.3535,0.158,16.6415-0.6288,24.8129-2.2088
		c10.8325-2.0947,21.4612-4.9688,30.1081-12.3591c8.0695-6.8969,7.9924-15.0866,0.0106-22.0966
		c-3.9274-3.4491-8.4611-5.9314-13.3615-7.6137c-27.3715-9.3967-54.7983-9.444-82.1791-0.0694
		c-5.6968,1.9505-10.9879,4.8031-15.2081,9.2538c-5.8531,6.173-5.8773,12.8788,0.0054,19.0054
		c4.7266,4.9225,10.7524,7.7744,17.0663,9.9979C829.911,573.4111,842.9124,574.9658,856.1257,575.0887z"/>
	<path d="M855.8013,526.9049c12.5376-0.1829,24.3646,1.3051,35.8103,5.283c4.7386,1.6468,9.2378,3.7803,13.1636,6.9663
		c7.8373,6.3606,7.9124,14.1271,0.164,20.5408c-3.3619,2.7829-7.1595,4.8766-11.2787,6.2836
		c-24.9586,8.5252-49.9226,8.5025-74.8316-0.1961c-4.2635-1.4888-8.1859-3.707-11.5529-6.7778
		c-6.6605-6.0745-6.73-12.7872-0.1378-18.8771c5.0154-4.6332,11.1929-7.1091,17.6002-9.0385
		C835.0145,527.9949,845.5515,526.7254,855.8013,526.9049z"/>
</g>
</svg>
