<?xml version="1.0" encoding="utf-8"?>

<!DOCTYPE svg PUBLIC "-//W3C//DTD SVG 1.1//EN" "http://www.w3.org/Graphics/SVG/1.1/DTD/svg11.dtd">
<svg version="1.1" id="Layer_1" xmlns="http://www.w3.org/2000/svg" xmlns:xlink="http://www.w3.org/1999/xlink" x="0px" y="0px"
	 viewBox="0 0 2069.845 1693.51" enable-background="new 0 0 2069.845 1693.51" xml:space="preserve">
<g>
	<polygon points="1116.443,533.527 1123.812,580.088 1077.251,572.72 1015.326,510.796 953.402,448.871 946.034,402.31 
		992.595,409.679 1054.519,471.603 	"/>
	<polygon points="953.402,533.527 946.034,580.088 992.595,572.72 1054.519,510.796 1116.443,448.871 1123.812,402.31 
		1077.251,409.679 1015.326,471.603 	"/>
	<polygon points="1116.443,711.305 1123.812,757.866 1077.251,750.498 1015.326,688.573 953.402,626.649 946.034,580.088 
		992.595,587.456 1054.519,649.381 	"/>
	<polygon points="953.402,711.305 946.034,757.866 992.595,750.498 1054.519,688.573 1116.443,626.649 1123.812,580.088 
		1077.251,587.456 1015.326,649.381 	"/>
	<polygon points="1116.443,889.083 1123.812,935.644 1077.251,928.276 1015.326,866.351 953.402,804.427 946.034,757.866 
		992.595,765.234 1054.519,827.159 	"/>
	<polygon points="953.402,889.083 946.034,935.644 992.595,928.276 1054.519,866.351 1116.443,804.427 1123.812,757.866 
		1077.251,765.234 1015.326,827.159 	"/>
	<polygon points="1116.443,1066.861 1123.812,1113.422 1077.251,1106.053 1015.326,1044.129 953.402,982.205 946.034,935.644 
		992.595,943.012 1054.519,1004.936 	"/>
	<polygon points="953.402,1066.861 946.034,1113.422 992.595,1106.053 1054.519,1044.129 1116.443,982.205 1123.812,935.644 
		1077.251,943.012 1015.326,1004.936 	"/>
	<polygon points="1116.443,1244.638 1123.812,1291.199 1077.251,1283.831 1015.326,1221.907 953.402,1159.982 946.034,1113.422 
		992.595,1120.79 1054.519,1182.714 	"/>
	<polygon points="953.402,1244.638 946.034,1291.199 992.595,1283.831 1054.519,1221.907 1116.443,1159.982 1123.812,1113.422 
		1077.251,1120.79 1015.326,1182.714 	"/>
	<polygon points="1827.554,177.972 1834.923,224.533 1788.362,217.164 1726.437,155.24 1664.513,93.316 1657.145,46.755 
		1703.706,54.123 1765.63,116.047 	"/>
	<polygon points="1664.513,177.972 1657.145,224.533 1703.706,217.164 1765.63,155.24 1827.554,93.316 1834.923,46.755 
		1788.362,54.123 1726.437,116.047 	"/>
	<polygon points="1649.777,177.972 1657.145,224.533 1610.584,217.164 1548.66,155.24 1486.735,93.316 1479.367,46.755 
		1525.928,54.123 1587.852,116.047 	"/>
	<polygon points="1486.735,177.972 1479.367,224.533 1525.928,217.164 1587.852,155.24 1649.777,93.316 1657.145,46.755 
		1610.584,54.123 1548.66,116.047 	"/>
	<polygon points="1471.999,177.972 1479.367,224.533 1432.806,217.164 1370.882,155.24 1308.958,93.316 1301.589,46.755 
		1348.15,54.123 1410.074,116.047 	"/>
	<polygon points="1308.958,177.972 1301.589,224.533 1348.15,217.164 1410.074,155.24 1471.999,93.316 1479.367,46.755 
		1432.806,54.123 1370.882,116.047 	"/>
	<polygon points="1827.554,355.75 1834.923,402.31 1788.362,394.942 1726.437,333.018 1664.513,271.093 1657.145,224.533 
		1703.706,231.901 1765.63,293.825 	"/>
	<polygon points="1664.513,355.75 1657.145,402.31 1703.706,394.942 1765.63,333.018 1827.554,271.093 1834.923,224.533 
		1788.362,231.901 1726.437,293.825 	"/>
	<polygon points="2005.332,355.75 2012.7,402.31 1966.14,394.942 1904.215,333.018 1842.291,271.093 1834.923,224.533 
		1881.483,231.901 1943.408,293.825 	"/>
	<polygon points="1842.291,355.75 1834.923,402.31 1881.483,394.942 1943.408,333.018 2005.332,271.093 2012.7,224.533 
		1966.14,231.901 1904.215,293.825 	"/>
	<polygon points="1649.777,355.75 1657.145,402.31 1610.584,394.942 1548.66,333.018 1486.735,271.093 1479.367,224.533 
		1525.928,231.901 1587.852,293.825 	"/>
	<polygon points="1486.735,355.75 1479.367,402.31 1525.928,394.942 1587.852,333.018 1649.777,271.093 1657.145,224.533 
		1610.584,231.901 1548.66,293.825 	"/>
	<polygon points="1471.999,355.75 1479.367,402.31 1432.806,394.942 1370.882,333.018 1308.958,271.093 1301.589,224.533 
		1348.15,231.901 1410.074,293.825 	"/>
	<polygon points="1308.958,355.75 1301.589,402.31 1348.15,394.942 1410.074,333.018 1471.999,271.093 1479.367,224.533 
		1432.806,231.901 1370.882,293.825 	"/>
	<polygon points="1294.221,355.75 1301.589,402.31 1255.028,394.942 1193.104,333.018 1131.18,271.093 1123.812,224.533 
		1170.372,231.901 1232.297,293.825 	"/>
	<polygon points="1131.18,355.75 1123.812,402.31 1170.372,394.942 1232.297,333.018 1294.221,271.093 1301.589,224.533 
		1255.028,231.901 1193.104,293.825 	"/>
	<polygon points="1827.554,533.527 1834.923,580.088 1788.362,572.72 1726.437,510.796 1664.513,448.871 1657.145,402.31 
		1703.706,409.679 1765.63,471.603 	"/>
	<polygon points="1664.513,533.527 1657.145,580.088 1703.706,572.72 1765.63,510.796 1827.554,448.871 1834.923,402.31 
		1788.362,409.679 1726.437,471.603 	"/>
	<polygon points="2005.332,533.527 2012.7,580.088 1966.14,572.72 1904.215,510.796 1842.291,448.871 1834.923,402.31 
		1881.483,409.679 1943.408,471.603 	"/>
	<polygon points="1842.291,533.527 1834.923,580.088 1881.483,572.72 1943.408,510.796 2005.332,448.871 2012.7,402.31 
		1966.14,409.679 1904.215,471.603 	"/>
	<polygon points="1649.777,533.527 1657.145,580.088 1610.584,572.72 1548.66,510.796 1486.735,448.871 1479.367,402.31 
		1525.928,409.679 1587.852,471.603 	"/>
	<polygon points="1486.735,533.527 1479.367,580.088 1525.928,572.72 1587.852,510.796 1649.777,448.871 1657.145,402.31 
		1610.584,409.679 1548.66,471.603 	"/>
	<polygon points="1471.999,533.527 1479.367,580.088 1432.806,572.72 1370.882,510.796 1308.958,448.871 1301.589,402.31 
		1348.15,409.679 1410.074,471.603 	"/>
	<polygon points="1308.958,533.527 1301.589,580.088 1348.15,572.72 1410.074,510.796 1471.999,448.871 1479.367,402.31 
		1432.806,409.679 1370.882,471.603 	"/>
	<polygon points="1294.221,533.527 1301.589,580.088 1255.028,572.72 1193.104,510.796 1131.18,448.871 1123.812,402.31 
		1170.372,409.679 1232.297,471.603 	"/>
	<polygon points="1131.18,533.527 1123.812,580.088 1170.372,572.72 1232.297,510.796 1294.221,448.871 1301.589,402.31 
		1255.028,409.679 1193.104,471.603 	"/>
	<polygon points="1827.554,711.305 1834.923,757.866 1788.362,750.498 1726.437,688.573 1664.513,626.649 1657.145,580.088 
		1703.706,587.456 1765.63,649.381 	"/>
	<polygon points="1664.513,711.305 1657.145,757.866 1703.706,750.498 1765.63,688.573 1827.554,626.649 1834.923,580.088 
		1788.362,587.456 1726.437,649.381 	"/>
	<polygon points="2005.332,711.305 2012.7,757.866 1966.14,750.498 1904.215,688.573 1842.291,626.649 1834.923,580.088 
		1881.483,587.456 1943.408,649.381 	"/>
	<polygon points="1842.291,711.305 1834.923,757.866 1881.483,750.498 1943.408,688.573 2005.332,626.649 2012.7,580.088 
		1966.14,587.456 1904.215,649.381 	"/>
	<polygon points="1649.777,711.305 1657.145,757.866 1610.584,750.498 1548.66,688.573 1486.735,626.649 1479.367,580.088 
		1525.928,587.456 1587.852,649.381 	"/>
	<polygon points="1486.735,711.305 1479.367,757.866 1525.928,750.498 1587.852,688.573 1649.777,626.649 1657.145,580.088 
		1610.584,587.456 1548.66,649.381 	"/>
	<polygon points="1471.999,711.305 1479.367,757.866 1432.806,750.498 1370.882,688.573 1308.958,626.649 1301.589,580.088 
		1348.15,587.456 1410.074,649.381 	"/>
	<polygon points="1308.958,711.305 1301.589,757.866 1348.15,750.498 1410.074,688.573 1471.999,626.649 1479.367,580.088 
		1432.806,587.456 1370.882,649.381 	"/>
	<polygon points="1294.221,711.305 1301.589,757.866 1255.028,750.498 1193.104,688.573 1131.18,626.649 1123.812,580.088 
		1170.372,587.456 1232.297,649.381 	"/>
	<polygon points="1131.18,711.305 1123.812,757.866 1170.372,750.498 1232.297,688.573 1294.221,626.649 1301.589,580.088 
		1255.028,587.456 1193.104,649.381 	"/>
	<polygon points="1827.554,889.083 1834.923,935.644 1788.362,928.276 1726.437,866.351 1664.513,804.427 1657.145,757.866 
		1703.706,765.234 1765.63,827.159 	"/>
	<polygon points="1664.513,889.083 1657.145,935.644 1703.706,928.276 1765.63,866.351 1827.554,804.427 1834.923,757.866 
		1788.362,765.234 1726.437,827.159 	"/>
	<polygon points="1649.777,889.083 1657.145,935.644 1610.584,928.276 1548.66,866.351 1486.735,804.427 1479.367,757.866 
		1525.928,765.234 1587.852,827.159 	"/>
	<polygon points="1486.735,889.083 1479.367,935.644 1525.928,928.276 1587.852,866.351 1649.777,804.427 1657.145,757.866 
		1610.584,765.234 1548.66,827.159 	"/>
	<polygon points="1471.999,889.083 1479.367,935.644 1432.806,928.276 1370.882,866.351 1308.958,804.427 1301.589,757.866 
		1348.15,765.234 1410.074,827.159 	"/>
	<polygon points="1308.958,889.083 1301.589,935.644 1348.15,928.276 1410.074,866.351 1471.999,804.427 1479.367,757.866 
		1432.806,765.234 1370.882,827.159 	"/>
	<polygon points="1294.221,889.083 1301.589,935.644 1255.028,928.276 1193.104,866.351 1131.18,804.427 1123.812,757.866 
		1170.372,765.234 1232.297,827.159 	"/>
	<polygon points="1131.18,889.083 1123.812,935.644 1170.372,928.276 1232.297,866.351 1294.221,804.427 1301.589,757.866 
		1255.028,765.234 1193.104,827.159 	"/>
	<polygon points="1649.777,1066.861 1657.145,1113.422 1610.584,1106.053 1548.66,1044.129 1486.735,982.205 1479.367,935.644 
		1525.928,943.012 1587.852,1004.936 	"/>
	<polygon points="1486.735,1066.861 1479.367,1113.422 1525.928,1106.053 1587.852,1044.129 1649.777,982.205 1657.145,935.644 
		1610.584,943.012 1548.66,1004.936 	"/>
	<polygon points="1471.999,1066.861 1479.367,1113.422 1432.806,1106.053 1370.882,1044.129 1308.958,982.205 1301.589,935.644 
		1348.15,943.012 1410.074,1004.936 	"/>
	<polygon points="1308.958,1066.861 1301.589,1113.422 1348.15,1106.053 1410.074,1044.129 1471.999,982.205 1479.367,935.644 
		1432.806,943.012 1370.882,1004.936 	"/>
	<polygon points="1294.221,1066.861 1301.589,1113.422 1255.028,1106.053 1193.104,1044.129 1131.18,982.205 1123.812,935.644 
		1170.372,943.012 1232.297,1004.936 	"/>
	<polygon points="1131.18,1066.861 1123.812,1113.422 1170.372,1106.053 1232.297,1044.129 1294.221,982.205 1301.589,935.644 
		1255.028,943.012 1193.104,1004.936 	"/>
	<polygon points="1471.999,1244.638 1479.367,1291.199 1432.806,1283.831 1370.882,1221.907 1308.958,1159.982 1301.589,1113.422 
		1348.15,1120.79 1410.074,1182.714 	"/>
	<polygon points="1308.958,1244.638 1301.589,1291.199 1348.15,1283.831 1410.074,1221.907 1471.999,1159.982 1479.367,1113.422 
		1432.806,1120.79 1370.882,1182.714 	"/>
	<polygon points="1294.221,1244.638 1301.589,1291.199 1255.028,1283.831 1193.104,1221.907 1131.18,1159.982 1123.812,1113.422 
		1170.372,1120.79 1232.297,1182.714 	"/>
	<polygon points="1131.18,1244.638 1123.812,1291.199 1170.372,1283.831 1232.297,1221.907 1294.221,1159.982 1301.589,1113.422 
		1255.028,1120.79 1193.104,1182.714 	"/>
	<polygon points="1294.221,1422.416 1301.589,1468.977 1255.028,1461.609 1193.104,1399.684 1131.18,1337.76 1123.812,1291.199 
		1170.372,1298.568 1232.297,1360.492 	"/>
	<polygon points="1131.18,1422.416 1123.812,1468.977 1170.372,1461.609 1232.297,1399.684 1294.221,1337.76 1301.589,1291.199 
		1255.028,1298.568 1193.104,1360.492 	"/>
	<polygon points="242.291,177.972 234.923,224.533 281.483,217.164 343.408,155.24 405.332,93.316 412.7,46.755 366.14,54.123 
		304.215,116.047 	"/>
	<polygon points="405.332,177.972 412.7,224.533 366.14,217.164 304.215,155.24 242.291,93.316 234.923,46.755 281.483,54.123 
		343.408,116.047 	"/>
	<polygon points="420.069,177.972 412.7,224.533 459.261,217.164 521.186,155.24 583.11,93.316 590.478,46.755 543.917,54.123 
		481.993,116.047 	"/>
	<polygon points="583.11,177.972 590.478,224.533 543.917,217.164 481.993,155.24 420.069,93.316 412.7,46.755 459.261,54.123 
		521.186,116.047 	"/>
	<polygon points="597.846,177.972 590.478,224.533 637.039,217.164 698.963,155.24 760.888,93.316 768.256,46.755 721.695,54.123 
		659.771,116.047 	"/>
	<polygon points="760.888,177.972 768.256,224.533 721.695,217.164 659.771,155.24 597.846,93.316 590.478,46.755 637.039,54.123 
		698.963,116.047 	"/>
	<polygon points="242.291,355.75 234.923,402.31 281.483,394.942 343.408,333.018 405.332,271.093 412.7,224.533 366.14,231.901 
		304.215,293.825 	"/>
	<polygon points="405.332,355.75 412.7,402.31 366.14,394.942 304.215,333.018 242.291,271.093 234.923,224.533 281.483,231.901 
		343.408,293.825 	"/>
	<polygon points="64.513,355.75 57.145,402.31 103.706,394.942 165.63,333.018 227.554,271.093 234.923,224.533 188.362,231.901 
		126.437,293.825 	"/>
	<polygon points="227.554,355.75 234.923,402.31 188.362,394.942 126.437,333.018 64.513,271.093 57.145,224.533 103.706,231.901 
		165.63,293.825 	"/>
	<polygon points="420.069,355.75 412.7,402.31 459.261,394.942 521.186,333.018 583.11,271.093 590.478,224.533 543.917,231.901 
		481.993,293.825 	"/>
	<polygon points="583.11,355.75 590.478,402.31 543.917,394.942 481.993,333.018 420.069,271.093 412.7,224.533 459.261,231.901 
		521.186,293.825 	"/>
	<polygon points="597.846,355.75 590.478,402.31 637.039,394.942 698.963,333.018 760.888,271.093 768.256,224.533 721.695,231.901 
		659.771,293.825 	"/>
	<polygon points="760.888,355.75 768.256,402.31 721.695,394.942 659.771,333.018 597.846,271.093 590.478,224.533 637.039,231.901 
		698.963,293.825 	"/>
	<polygon points="775.624,355.75 768.256,402.31 814.817,394.942 876.741,333.018 938.665,271.093 946.034,224.533 899.473,231.901 
		837.549,293.825 	"/>
	<polygon points="938.665,355.75 946.034,402.31 899.473,394.942 837.549,333.018 775.624,271.093 768.256,224.533 814.817,231.901 
		876.741,293.825 	"/>
	<polygon points="242.291,533.527 234.923,580.088 281.483,572.72 343.408,510.796 405.332,448.871 412.7,402.31 366.14,409.679 
		304.215,471.603 	"/>
	<polygon points="405.332,533.527 412.7,580.088 366.14,572.72 304.215,510.796 242.291,448.871 234.923,402.31 281.483,409.679 
		343.408,471.603 	"/>
	<polygon points="64.513,533.527 57.145,580.088 103.706,572.72 165.63,510.796 227.554,448.871 234.923,402.31 188.362,409.679 
		126.437,471.603 	"/>
	<polygon points="227.554,533.527 234.923,580.088 188.362,572.72 126.437,510.796 64.513,448.871 57.145,402.31 103.706,409.679 
		165.63,471.603 	"/>
	<polygon points="420.069,533.527 412.7,580.088 459.261,572.72 521.186,510.796 583.11,448.871 590.478,402.31 543.917,409.679 
		481.993,471.603 	"/>
	<polygon points="583.11,533.527 590.478,580.088 543.917,572.72 481.993,510.796 420.069,448.871 412.7,402.31 459.261,409.679 
		521.186,471.603 	"/>
	<polygon points="597.846,533.527 590.478,580.088 637.039,572.72 698.963,510.796 760.888,448.871 768.256,402.31 721.695,409.679 
		659.771,471.603 	"/>
	<polygon points="760.888,533.527 768.256,580.088 721.695,572.72 659.771,510.796 597.846,448.871 590.478,402.31 637.039,409.679 
		698.963,471.603 	"/>
	<polygon points="775.624,533.527 768.256,580.088 814.817,572.72 876.741,510.796 938.665,448.871 946.034,402.31 899.473,409.679 
		837.549,471.603 	"/>
	<polygon points="938.665,533.527 946.034,580.088 899.473,572.72 837.549,510.796 775.624,448.871 768.256,402.31 814.817,409.679 
		876.741,471.603 	"/>
	<polygon points="242.291,711.305 234.923,757.866 281.483,750.498 343.408,688.573 405.332,626.649 412.7,580.088 366.14,587.456 
		304.215,649.381 	"/>
	<polygon points="405.332,711.305 412.7,757.866 366.14,750.498 304.215,688.573 242.291,626.649 234.923,580.088 281.483,587.456 
		343.408,649.381 	"/>
	<polygon points="64.513,711.305 57.145,757.866 103.706,750.498 165.63,688.573 227.554,626.649 234.923,580.088 188.362,587.456 
		126.437,649.381 	"/>
	<polygon points="227.554,711.305 234.923,757.866 188.362,750.498 126.437,688.573 64.513,626.649 57.145,580.088 103.706,587.456 
		165.63,649.381 	"/>
	<polygon points="420.069,711.305 412.7,757.866 459.261,750.498 521.186,688.573 583.11,626.649 590.478,580.088 543.917,587.456 
		481.993,649.381 	"/>
	<polygon points="583.11,711.305 590.478,757.866 543.917,750.498 481.993,688.573 420.069,626.649 412.7,580.088 459.261,587.456 
		521.186,649.381 	"/>
	<polygon points="597.846,711.305 590.478,757.866 637.039,750.498 698.963,688.573 760.888,626.649 768.256,580.088 
		721.695,587.456 659.771,649.381 	"/>
	<polygon points="760.888,711.305 768.256,757.866 721.695,750.498 659.771,688.573 597.846,626.649 590.478,580.088 
		637.039,587.456 698.963,649.381 	"/>
	<polygon points="775.624,711.305 768.256,757.866 814.817,750.498 876.741,688.573 938.665,626.649 946.034,580.088 
		899.473,587.456 837.549,649.381 	"/>
	<polygon points="938.665,711.305 946.034,757.866 899.473,750.498 837.549,688.573 775.624,626.649 768.256,580.088 
		814.817,587.456 876.741,649.381 	"/>
	<polygon points="242.291,889.083 234.923,935.644 281.483,928.276 343.408,866.351 405.332,804.427 412.7,757.866 366.14,765.234 
		304.215,827.159 	"/>
	<polygon points="405.332,889.083 412.7,935.644 366.14,928.276 304.215,866.351 242.291,804.427 234.923,757.866 281.483,765.234 
		343.408,827.159 	"/>
	<polygon points="420.069,889.083 412.7,935.644 459.261,928.276 521.186,866.351 583.11,804.427 590.478,757.866 543.917,765.234 
		481.993,827.159 	"/>
	<polygon points="583.11,889.083 590.478,935.644 543.917,928.276 481.993,866.351 420.069,804.427 412.7,757.866 459.261,765.234 
		521.186,827.159 	"/>
	<polygon points="597.846,889.083 590.478,935.644 637.039,928.276 698.963,866.351 760.888,804.427 768.256,757.866 
		721.695,765.234 659.771,827.159 	"/>
	<polygon points="760.888,889.083 768.256,935.644 721.695,928.276 659.771,866.351 597.846,804.427 590.478,757.866 
		637.039,765.234 698.963,827.159 	"/>
	<polygon points="775.624,889.083 768.256,935.644 814.817,928.276 876.741,866.351 938.665,804.427 946.034,757.866 
		899.473,765.234 837.549,827.159 	"/>
	<polygon points="938.665,889.083 946.034,935.644 899.473,928.276 837.549,866.351 775.624,804.427 768.256,757.866 
		814.817,765.234 876.741,827.159 	"/>
	<polygon points="420.069,1066.861 412.7,1113.422 459.261,1106.053 521.186,1044.129 583.11,982.205 590.478,935.644 
		543.917,943.012 481.993,1004.936 	"/>
	<polygon points="583.11,1066.861 590.478,1113.422 543.917,1106.053 481.993,1044.129 420.069,982.205 412.7,935.644 
		459.261,943.012 521.186,1004.936 	"/>
	<polygon points="597.846,1066.861 590.478,1113.422 637.039,1106.053 698.963,1044.129 760.888,982.205 768.256,935.644 
		721.695,943.012 659.771,1004.936 	"/>
	<polygon points="760.888,1066.861 768.256,1113.422 721.695,1106.053 659.771,1044.129 597.846,982.205 590.478,935.644 
		637.039,943.012 698.963,1004.936 	"/>
	<polygon points="775.624,1066.861 768.256,1113.422 814.817,1106.053 876.741,1044.129 938.665,982.205 946.034,935.644 
		899.473,943.012 837.549,1004.936 	"/>
	<polygon points="938.665,1066.861 946.034,1113.422 899.473,1106.053 837.549,1044.129 775.624,982.205 768.256,935.644 
		814.817,943.012 876.741,1004.936 	"/>
	<polygon points="597.846,1244.638 590.478,1291.199 637.039,1283.831 698.963,1221.907 760.888,1159.982 768.256,1113.422 
		721.695,1120.79 659.771,1182.714 	"/>
	<polygon points="760.888,1244.638 768.256,1291.199 721.695,1283.831 659.771,1221.907 597.846,1159.982 590.478,1113.422 
		637.039,1120.79 698.963,1182.714 	"/>
	<polygon points="775.624,1244.638 768.256,1291.199 814.817,1283.831 876.741,1221.907 938.665,1159.982 946.034,1113.422 
		899.473,1120.79 837.549,1182.714 	"/>
	<polygon points="938.665,1244.638 946.034,1291.199 899.473,1283.831 837.549,1221.907 775.624,1159.982 768.256,1113.422 
		814.817,1120.79 876.741,1182.714 	"/>
	<polygon points="775.624,1422.416 768.256,1468.977 814.817,1461.609 876.741,1399.684 938.665,1337.76 946.034,1291.199 
		899.473,1298.568 837.549,1360.492 	"/>
	<polygon points="938.665,1422.416 946.034,1468.977 899.473,1461.609 837.549,1399.684 775.624,1337.76 768.256,1291.199 
		814.817,1298.568 876.741,1360.492 	"/>
	<polygon points="1116.443,1422.416 1123.812,1468.977 1077.251,1461.609 1015.326,1399.684 953.402,1337.76 946.034,1291.199 
		992.595,1298.568 1054.519,1360.492 	"/>
	<polygon points="953.402,1422.416 946.034,1468.977 992.595,1461.609 1054.519,1399.684 1116.443,1337.76 1123.812,1291.199 
		1077.251,1298.568 1015.326,1360.492 	"/>
	<polygon points="1116.443,1600.194 1123.812,1646.755 1077.251,1639.387 1015.326,1577.462 953.402,1515.538 946.034,1468.977 
		992.595,1476.345 1054.519,1538.27 	"/>
	<polygon points="953.402,1600.194 946.034,1646.755 992.595,1639.387 1054.519,1577.462 1116.443,1515.538 1123.812,1468.977 
		1077.251,1476.345 1015.326,1538.27 	"/>
</g>
</svg>
