<?xml version="1.0" encoding="UTF-8" standalone="no"?>
<!-- Created with Inkscape (http://www.inkscape.org/) -->

<svg
   xmlns:dc="http://purl.org/dc/elements/1.1/"
   xmlns:cc="http://creativecommons.org/ns#"
   xmlns:rdf="http://www.w3.org/1999/02/22-rdf-syntax-ns#"
   xmlns:svg="http://www.w3.org/2000/svg"
   xmlns="http://www.w3.org/2000/svg"
   xmlns:sodipodi="http://sodipodi.sourceforge.net/DTD/sodipodi-0.dtd"
   xmlns:inkscape="http://www.inkscape.org/namespaces/inkscape"
   width="799.96552"
   height="708.36072"
   id="svg9787"
   version="1.1"
   inkscape:version="0.48.4 r9939"
   sodipodi:docname="Новый документ 8">
  <defs
     id="defs9789">
    <filter
       color-interpolation-filters="sRGB"
       inkscape:collect="always"
       id="filter5961"
       x="-0.28596836"
       width="1.5719367"
       y="-0.14576723"
       height="1.2915345">
      <feGaussianBlur
         inkscape:collect="always"
         stdDeviation="0.34813858"
         id="feGaussianBlur5963" />
    </filter>
  </defs>
  <sodipodi:namedview
     id="base"
     pagecolor="#ffffff"
     bordercolor="#666666"
     borderopacity="1.0"
     inkscape:pageopacity="0.0"
     inkscape:pageshadow="2"
     inkscape:zoom="0.35"
     inkscape:cx="527.57813"
     inkscape:cy="-140.329"
     inkscape:document-units="px"
     inkscape:current-layer="layer1"
     showgrid="false"
     fit-margin-top="0"
     fit-margin-left="0"
     fit-margin-right="0"
     fit-margin-bottom="0"
     inkscape:window-width="1920"
     inkscape:window-height="1018"
     inkscape:window-x="-8"
     inkscape:window-y="-8"
     inkscape:window-maximized="1" />
  <metadata
     id="metadata9792">
    <rdf:RDF>
      <cc:Work
         rdf:about="">
        <dc:format>image/svg+xml</dc:format>
        <dc:type
           rdf:resource="http://purl.org/dc/dcmitype/StillImage" />
        <dc:title></dc:title>
      </cc:Work>
    </rdf:RDF>
  </metadata>
  <g
     inkscape:label="Layer 1"
     inkscape:groupmode="layer"
     id="layer1"
     transform="translate(-317.49206,125.0411)">
    <g
       transform="matrix(1.577336,-4.4600831,4.4600831,1.577336,-1427.7531,-5093.8163)"
       id="g5081">
      <path
         style="font-size:medium;font-style:normal;font-variant:normal;font-weight:normal;font-stretch:normal;text-indent:0;text-align:start;text-decoration:none;line-height:normal;letter-spacing:normal;word-spacing:normal;text-transform:none;direction:ltr;block-progression:tb;writing-mode:lr-tb;text-anchor:start;baseline-shift:baseline;color:#000000;fill:#f2f2f2;fill-opacity:1;stroke:none;stroke-width:3;marker:none;visibility:visible;display:inline;overflow:visible;enable-background:accumulate;font-family:Sans;-inkscape-font-specification:Sans"
         d="m -872.71875,708.375 c -0.53441,0.0631 -1.02063,0.43716 -1.21875,0.9375 l -70.92857,176.41964 c -0.29479,0.73322 -6.42774,17.20588 -7.12371,21.60935 1.89331,-2.11438 9.61017,-19.75113 9.90496,-20.48435 l 70.92857,-176.41964 c 0.39709,-0.96136 -0.52954,-2.18451 -1.5625,-2.0625 z"
         id="path5083"
         inkscape:connector-curvature="0"
         sodipodi:nodetypes="ccscscc" />
      <path
         style="font-size:medium;font-style:normal;font-variant:normal;font-weight:normal;font-stretch:normal;text-indent:0;text-align:start;text-decoration:none;line-height:normal;letter-spacing:normal;word-spacing:normal;text-transform:none;direction:ltr;block-progression:tb;writing-mode:lr-tb;text-anchor:start;baseline-shift:baseline;color:#000000;fill:#333333;stroke:none;stroke-width:0.30000001;marker:none;visibility:visible;display:inline;overflow:visible;enable-background:accumulate;font-family:Sans;-inkscape-font-specification:Sans"
         d="m -872.71875,708.375 c -0.53441,0.0631 -1.02063,0.43716 -1.21875,0.9375 l -70.9375,176.40625 c -0.16083,0.40002 -3.42237,10.27293 -5.22768,15.52679 2.50715,-5.34168 6.40548,-15.86402 6.57143,-16.27679 L -874.8074,714.0371 c 0.14952,-0.55764 1.72868,-1.39366 2.30956,-1.26382 1.54913,0.34628 -0.51228,-2.87814 -0.0959,-4.24203 0.0226,-0.0548 0.017,-0.10005 0.0312,-0.15625 -0.053,-7.2e-4 -0.10245,-0.006 -0.15625,0 z"
         id="path5085"
         inkscape:connector-curvature="0"
         sodipodi:nodetypes="ccccccscccc" />
      <path
         style="font-size:medium;font-style:normal;font-variant:normal;font-weight:normal;font-stretch:normal;text-indent:0;text-align:start;text-decoration:none;line-height:normal;letter-spacing:normal;word-spacing:normal;text-transform:none;direction:ltr;block-progression:tb;writing-mode:lr-tb;text-anchor:start;baseline-shift:baseline;color:#000000;fill:#999999;stroke:none;stroke-width:0.30000001;marker:none;visibility:visible;display:inline;overflow:visible;enable-background:accumulate;font-family:Sans;-inkscape-font-specification:Sans"
         d="m -871.40625,709 c -0.0742,0.10035 -0.14144,0.19618 -0.1875,0.3125 l -70.9375,176.40625 c -0.16083,0.40002 -2.66344,6.56757 -4.46875,11.82143 2.17724,-4.71497 4.76029,-10.33339 4.90625,-10.69643 l 70.9375,-176.40625 c 0.19854,-0.48068 0.0611,-1.02679 -0.25,-1.4375 z"
         id="path5087"
         inkscape:connector-curvature="0"
         sodipodi:nodetypes="ccccccc" />
      <path
         sodipodi:type="arc"
         style="fill:#b60724;fill-opacity:1;stroke:#aa203a;stroke-width:1.68527925;stroke-linecap:round;stroke-linejoin:round;stroke-miterlimit:4;stroke-opacity:1;stroke-dasharray:none;stroke-dashoffset:0.8"
         id="path5089"
         sodipodi:cx="-871.25"
         sodipodi:cy="706.4693"
         sodipodi:rx="10.357142"
         sodipodi:ry="10.357142"
         d="m -860.89286,706.4693 c 0,5.72009 -4.63705,10.35714 -10.35714,10.35714 -5.72009,0 -10.35714,-4.63705 -10.35714,-10.35714 0,-5.72009 4.63705,-10.35714 10.35714,-10.35714 5.72009,0 10.35714,4.63705 10.35714,10.35714 z"
         transform="matrix(0.59337348,0,0,0.59337348,-354.27336,287.26915)" />
      <path
         style="fill:#ffb7c4;fill-opacity:1;stroke:none;filter:url(#filter5961)"
         d="m -869.03125,702.3125 c -0.57745,-0.0868 -0.34375,1.13049 -0.34375,1.75 0,1.82098 0.66684,2.87775 2.17411,3.91964 0.48827,0.33752 0.70089,-0.88328 0.70089,-1.51339 0,-1.81021 -0.85815,-3.90488 -2.53125,-4.15625 z"
         id="path5091"
         inkscape:connector-curvature="0"
         sodipodi:nodetypes="sssss" />
    </g>
  </g>
</svg>
