<?xml version="1.0" encoding="UTF-8" standalone="no"?>
<svg id="svg4224" xmlns:rdf="http://www.w3.org/1999/02/22-rdf-syntax-ns#" xmlns="http://www.w3.org/2000/svg" height="523.12" viewBox="0 0 707.8125 523.125" width="707.81" version="1.1" xmlns:cc="http://creativecommons.org/ns#" xmlns:dc="http://purl.org/dc/elements/1.1/">
<path id="path4234" d="m195.47 522.19c-1.0312-0.44315-3.2461-0.83537-4.9219-0.8716-2.7536-0.0595-3.0469-0.3397-3.0469-2.9107v-2.8448l4.9219 0.5759c2.707 0.31675 6.0842 0.9429 7.5048 1.3914 1.6218 0.51207 6.3313 0.31659 12.656-0.52531 5.5403-0.73747 10.601-1.3491 11.245-1.3592 1.5026-0.0234 1.5386 4.865 0.0469 6.3567-1.3214 1.3214-25.398 1.4803-28.406 0.1875zm0-8.6197c-1.5469-0.50611-3.8672-1.2169-5.1562-1.5796-5.0855-1.4307-3.0526-13.622 2.2384-13.423 2.6728 0.10049 3.1994-0.21392 3.2788-1.9573 0.052-1.1424 0.35289-5.5522 0.66867-9.7995 0.54895-7.3838 0.42479-8.0793-2.8307-15.856-2.2324-5.3329-3.8486-11.228-4.6935-17.121-0.70878-4.9432-1.6648-9.9604-2.1246-11.149-2.0614-5.3309-0.42916-8.8931 3.8129-8.3212l3.8688 0.52154 0.16972-6.2693c0.16269-6.0098 0.11295-6.1626-1.2018-3.6912-3.0531 5.739-6.0104 2.7503-4.0966-4.1402 1.3643-4.9119-0.1065-10.2-4.2402-15.244-3.6068-4.4017-3.6489-4.6729-1.8476-11.923 0.59059-2.3771 0.15883-2.7094-10.49-8.0717-6.1083-3.0759-17.4-8.8158-25.094-12.755-7.6932-3.9395-14.573-7.1626-15.289-7.1626-0.71594 0-2.859-1.2229-4.7624-2.7175-3.79-2.97-7.68-4.51-7.68-3.03 0 1.5532 2.8314 3.8801 4.7215 3.8801 3.0336 0 4.0466 3.2971 2.4513 7.979-1.2064 3.5406-1.2155 4.2546-0.0667 5.2081 1.64 1.3611 1.7302 5.9194 0.17163 8.6714-0.80808 1.4268-1.1634 7.4765-1.1719 19.95-0.007 11.685-0.37353 18.36-1.0528 19.219-0.57235 0.72392-1.9382 4.0194-3.0353 7.3234-2.0989 6.3211-4.2382 9.4616-6.4451 9.4616-1.4904 0-1.0103-2.3308 1.4484-7.0312 2.4512-4.6861 2.0618-21.695-0.79936-34.922-2.3644-10.93-3.2876-6.3336-1.3193 6.5687 2.296 15.05 1.1272 26.09-3.8952 36.791-0.72601 1.5469-1.3748 5.6825-1.4418 9.1902l-0.12179 6.3777-6.4172 3.2316c-10.452 5.2636-17.735 4.5664-18.887-1.8081l-0.48708-2.696 4.5596 0.54003c5.4589 0.64653 6.3487-0.0442 9.3336-7.2458 1.5609-3.7661 2.8581-5.4447 4.8426-6.2667 2.9198-1.2094 6.7034-7.4167 6.1353-10.066-0.24659-1.1499-0.76818-0.75714-1.9496 1.4681-2.3331 4.3945-5.5624 6.227-9.77 5.5442-5.1715-0.83921-9.2388 3.0844-7.2281 6.9727 2.7446 5.3075 1.9075 7.7339-2.4657 7.1474-6.7523-0.90568-7.6488-9.7099-1.5571-15.292 3.357-3.0765 4.3379-3.4795 11.093-4.5575 5.5754-0.8897 7.1948-25.515 2.689-40.89-1.9409-6.6231-2.2276-19.89-0.50199-23.227 1.6675-3.2246 3.9592-3.546 3.632-0.50937-0.88764 8.2379 1.492 24.176 5.584 37.399 2.4901 8.0469 3.3669 5.4171 1.6128-4.8372-1.2999-7.5992-0.77315-11.189 1.7597-11.993 3.4223-1.0862 5.0931-13.49 2.8872-21.434-1.3115-4.7229-0.3259-8.8139 2.4772-10.283l2.2575-1.1828-4.4436-2.8708c-2.444-1.5789-6.7316-3.6057-9.528-4.5041-7.3561-2.3631-21.295-9.5654-21.983-11.359-0.314-0.85-0.579-3.17-0.579-5.16 0-5.238-1.7656-5.845-9.2918-3.1946-23.633 8.3224-49.192 14.043-52.554 11.763-2.0716-1.4049-2.8711-13.735-1.7695-27.288 0.52388-6.4453 0.81333-13.617 0.64323-15.938-0.35172-4.7977 0.46623-4.5793-12.306-3.286l-7.3094 0.74008 0.27814-6.9292 0.27814-6.9292 3.75-1.2356c2.0625-0.67956 5.8594-1.4763 8.4375-1.7705 7.1298-0.81362 7.1323-0.81869 6.8794-14.271-0.1223-6.5066 0.07087-12.305 0.42926-12.885 0.35839-0.57988 0.18162-5.5103-0.39281-10.956-1.5709-14.894 0.54232-18.404 11.083-18.412 2.6809-0.002 9.2199-0.82604 14.531-1.8314 5.3113-1.0053 14.298-2.5267 19.969-3.3808 16.715-2.5172 14.908-0.44504 15.556-17.836 0.30604-8.2085 0.34448-22.432 0.08542-31.607l-0.47103-16.683-2.8979-2.4181c-5.2075-4.3454-5.1232-9.4913 0.24345-14.858l2.6889-2.6889 15.835-0.29365c8.7092-0.16149 18.155-0.7041 20.991-1.2058 2.8359-0.50168 16.758-1.5573 30.938-2.3458 14.18-0.78851 27.258-1.6366 29.062-1.8846 1.8047-0.248 13.16-0.68028 25.233-0.96062 12.074-0.28034 23.675-0.89455 25.781-1.3649 3.8901-0.86879 14.48-1.5845 34.767-2.3497 57.635-2.1739 52.613-1.1534 50.292-10.22-0.61162-2.3888-0.62312-7.5519-0.0335-15 0.49456-6.2466 0.61568-18.846 0.26916-27.999l-0.63005-16.642-3.8549-2.1204c-9.4655-5.2064-4.9034-10.77 8.9394-10.902 5.3381-0.05084 13.292-0.51286 17.674-1.0267 4.3828-0.51386 12.82-0.94597 18.75-0.96025 5.9297-0.01428 13.516-0.4211 16.857-0.90405 3.3419-0.48295 10.936-0.9371 16.875-1.0092 5.9394-0.07212 17.338-0.49919 25.33-0.94904 7.9922-0.44985 22.758-1.2808 32.812-1.8465 10.055-0.56575 22.711-1.2525 28.125-1.5261 5.4141-0.2736 17.016-0.9854 25.781-1.5818 18.8-1.2791 26.358-1.0253 27.101 0.91002 0.98736 2.573-4.4979 3.2892-30.623 3.9982-28.812 0.78195-33.901 1.8534-17.814 3.7504 38.061 4.4884 17.415 16.044-28.667 16.045-36.533 0.000424-53.352-3.5722-49.692-10.556 1.7176-3.2774-2.8418-3.7899-22.18-2.4929-17.447 1.1702-20.942 1.318-38.787 1.64-9.1396 0.16494-11.003 1.9632-3.5704 3.4451 1.6402 0.32702 5.5133 1.4004 8.6071 2.3854 3.0938 0.98493 8.3672 2.3972 11.719 3.1384 7.55 1.6697 27.86 6.8812 42.188 10.825 5.9297 1.6323 13.312 3.6239 16.406 4.4258 3.0938 0.80188 7.7344 2.0427 10.312 2.7573 25.518 7.0734 24.711 7.0493 92.812 2.771 3.0938-0.19436 14.273-0.80988 24.844-1.3678 22.864-1.2069 24.817-1.3239 54.375-3.2585 12.633-0.82683 31.406-1.9396 41.719-2.4728 10.312-0.53322 22.114-1.382 26.225-1.8862 4.1115-0.50418 10.123-0.91668 13.359-0.91668 11.39 0 7.2052-2.2647-7.4754-4.0453-7.3476-0.89119-16.102-2.2308-19.453-2.9769-20.716-4.6116-24.356-4.8646-32.436-2.2543-3.4872 1.1266-7.3935 1.7772-9.1023 1.5159-3.7609-0.575-7.7108 1.6251-9.1483 5.0956-1.5501 3.7423-3.034 4.6649-8.5934 5.3434-8.0681 0.98462-55.18 0.56975-59.502-0.52398-3.155-0.79853-4.4588-0.71437-6.5625 0.42359-6.1044 3.3021-52.313 0.60791-52.313-3.0501 0-3.4741 4.6258-4.6813 9.0673-2.3662 5.2 2.686 15.8 3.74 15.8 1.558 0-1.137-0.86-1.542-3.28-1.542-2.1591 0-3.2812-0.44085-3.2812-1.2891 0-1.638 4.1149-2.4609 12.305-2.4609 6.4765 0 7.6432-0.65122 5.0391-2.8125-1.7676-1.467-1.7945-2.7224-0.0725-3.3832 0.73358-0.2815 2.1472 0.30165 3.1415 1.2959 2.0824 2.0824 14.901 3.0595 40.525 3.0889 36.962 0.04251 61.823-3.5949 40.032-5.8571-20.898-2.1694-21.141-2.1669-24.375 0.25981-4.6197 3.4664-34.725 2.9864-37.715-0.60121l-1.9017-2.2817-8.2825 1.4457c-12.359 2.1573-10.908-0.25002 2.2421-3.7179 8.8462-2.3329 8.7747-2.2994 7.7319-3.6198-0.51-0.638-1.25-5.169-1.66-10.067-2.04-24.486 0.19-27.497 21.66-29.168 33.76-2.6283 67.07 0.9606 60.1 6.4773-5.73 4.5377-62.91 4.5147-67.86-0.0271-1.4838-1.3604-2.7429-1.7144-4.5154-1.2696-3.4184 0.85796-2.7559 3.73 0.95591 4.144 1.5425 0.17204 3.5009 0.93781 4.352 1.7017 1.0526 0.94469 1.748 1.0646 2.1742 0.37502 1.7796-2.8795 2.4699 0.81577 1.9195 10.277-0.62159 10.685 0.0842 12.948 3.0986 9.9332 1.1639-1.1639 1.464-2.9686 1.2576-7.563-0.28849-6.4239 1.2141-11.23 2.7623-8.835 0.46173 0.71419 0.75417 4.1324 0.64988 7.5961-0.21931 7.2836-0.30716 7.1248 4.2661 7.7103 2.8281 0.36209 6.1327 1.998 9.892 4.897 0.20915 0.16128 0.63103 1.8232 0.9375 3.6932l0.55723 3.3999 16.406 0.12606 16.406 0.12605-0.21995-2.8125c-1.0698-13.68 0.12251-22.969 2.9482-22.969 0.69085 0 1.5065-1.1602 1.8126-2.5781 2.7271-12.632 9.9907-10.88 9.9896 2.4107-0.002 22.684 2.5302 27.676 14.812 29.204 5.0022 0.62216 15.212 2.1737 22.689 3.4479 7.4766 1.2742 16.125 2.6938 19.219 3.1547 3.0938 0.46094 9.953 1.4803 15.243 2.2653 19.563 2.9029 24.343 18.347 5.6782 18.345l-4.9835-0.000449v23.204c0 12.762-0.33647 44.297-0.74771 70.079-2.2362 140.19-2.2823 160.23-0.37328 162.14 0.87436 0.87435 1.5897 2.3224 1.5897 3.2179 0 0.89551 1.6775 2.8693 3.7278 4.3862 5.2273 3.8673 3.1422 8.2565-3.1416 6.6132-0.99725-0.26078-3.9629-0.0357-6.5903 0.50017-2.6274 0.53588-5.7371 1.157-6.9104 1.3802-5.7177 1.0878-6.2154 12.388-0.73456 16.675 1.9385 1.5164 3.517 8.1173 2.2935 9.5915-1.1435 1.3779-0.24561 5.0291 1.2368 5.0291 0.68606 0 0.75806 1.5617 0.22694 4.9219-0.42788 2.707-0.80306 7.5589-0.83372 10.782-0.0308 3.2444-0.47417 5.86-0.99323 5.86-0.51563 0.00003-1.0007 1.0926-1.078 2.4279-0.11011 1.9031 0.22207 2.3331 1.5368 1.9892 2.8797-0.75307 4.0451 0.8533 4.4873 6.1854 0.49878 6.0147-0.21853 6.7034-8.0652 7.7443-6.349 0.84223-6.9518-2.82-0.84621-5.1414 5.1758-1.9678 1.7977-5.5747-4.0237-4.2962-2.6242 0.57637-2.7574 0.82089-2.2331 4.0995 0.89816 5.6168-10.144 8.1442-12.79 2.9273-1.0835-2.1366-2.4973-13.125-1.6886-13.125 0.39012 0 0.98115-1.449 1.3134-3.22 0.33224-1.771 1.3858-3.9274 2.3412-4.792 1.4636-1.3246 1.6522-2.4818 1.1976-7.3503-0.43391-4.6465-0.24147-6.0257 0.98253-7.0415 3.1782-2.6377 0.3066-10.211-3.0785-8.1186-0.93742 0.57934-3.0831-1.7009-2.7238-2.8945 0.34543-1.1474-2.891-5.9942-5.9778-8.9521-1.5042-1.4414-2.6353-3.5251-2.6353-4.8549 0-3.1061-2.5574-5.5697-5.0616-4.8761-1.0833 0.30004-8.2977 1.1849-16.032 1.9662-7.7344 0.78139-18.157 2.0452-23.161 2.8085-5.004 0.76329-11.206 1.3878-13.782 1.3878s-6.7084 0.39576-9.183 0.87945c-2.4746 0.4837-6.4538 1.135-8.8428 1.4473-4.2855 0.56021-4.3769 0.64555-6.8448 6.3862-1.3757 3.2001-2.9085 6.562-3.4063 7.471-0.71099 1.2983-3.6867 13.6-3.6867 15.241 0 0.20073 1.5006 0.64649 3.3346 0.99054 8.8671 1.6635 10.292 20.084 1.5539 20.084-2.1181 0-2.2382-0.24761-1.6474-3.3971l0.6373-3.3971-3.1111 0.58113c-1.7111 0.31963-4.6931 0.84917-6.6267 1.1768-4.2461 0.71939-4.4756 1.7057-0.70313 3.0208 5.7654 2.0098 3.5508 4.1854-3.5156 3.4536-8.8489-0.91636-11.312-2.7602-10.581-7.9218 0.66293-4.6834-3.0953-17.336-6.975-23.481-3.3542-5.3134-4.8065-10.88-3.3092-12.684 2.0471-2.4666 0.39913-2.7-10.538-1.4922-5.8025 0.64074-14.136 1.532-18.519 1.9806-22.222 2.2744-27.634 2.876-38.438 4.2727-6.4453 0.83329-15.305 1.8639-19.688 2.2902-37.307 3.6291-56.283 5.5739-59.062 6.0531-9.1182 1.5719-16.42 2.5147-25.781 3.3286-17.895 1.5559-54.704 5.5766-72.656 7.9363-5.9297 0.77941-15.633 2.0469-21.562 2.8166-12.601 1.6357-13.493 2.2814-12.852 9.3019 0.79915 8.7584-1.5724 12.724-7.6093 12.724-2.3616 0-2.9957 0.55834-4.2804 3.769-2.1209 5.3008-1.9274 6.4628 1.8701 11.231 3.8537 4.8388 4.0018 9.192 0.46542 13.688-1.4069 1.7886-1.9749 3.8708-1.9908 7.2981-0.0255 5.5041-2.8494 13.068-7.2858 19.517-3.4747 5.0504-8.6294 18.382-8.6294 22.319 0 3.7903 0.87381 3.5452-17.735 4.9737-1.2462 0.0957-2.4275 0.65924-2.6251 1.2524-0.51865 1.5565 19.141 2.8292 21.448 1.3885 4.2044-2.6257 5.4628-0.99846 4.7738 6.1729-0.59498 6.1922-2.0136 7.3907-9.6845 8.1822-7.4785 0.77162-8.9237-0.29818-8.0218-5.9381 0.51474-3.219 0.33977-3.702-1.5216-4.2009-3.0592-0.81988-7.528-0.68737-9.0367 0.26796-1.7907 1.1339-0.58598 3.8303 1.7113 3.8303 2.0616 0 5.6909 3.4011 5.6909 5.333 0 1.4414-4.6606 1.4989-8.9062 0.10982zm17.049-32.794c2.9668-2.7872 3.1698-10.606 0.2948-11.358-2.2-0.58-2.61-4.42-0.47-4.42 0.77344 0 1.4062 0.42187 1.4062 0.9375 0 0.51562 0.36456 0.9375 0.81013 0.9375 1.3466 0 3.8774-7.7711 3.8774-11.906 0-2.1312 0.43797-4.0209 0.97327-4.1993 2.2572-0.7524 3.841-13.164 1.9461-15.251-3.3216-3.6579-4.154-6.1294-2.6477-7.8618 0.74725-0.85944 1.7565-2.8019 2.2427-4.3165 1.5078-4.6971 3.1106-4.043 3.1106 1.2695 0 3.5156 0.4918 5.2574 1.875 6.6406 3.5288 3.5288 5.9536 1.4366 2.8734-2.4792-5.3427-6.7921-0.34682-20.926 7.4133-20.973 3.6282-0.022 4.3826-0.97369 5.0904-6.4218l0.65355-5.0299-3.5622 0.58522c-1.9592 0.32187-5.7771 0.84459-8.4841 1.1616-7.5144 0.87999-6.1934 2.207 3.4379 3.4535 2.7702 0.35854 1.8876 2.3382-1.6787 3.7651-2.0764 0.8308-5.2763 3.3588-7.2688 5.7424-3.9391 4.7124-7.6981 5.4336-15.712 3.0143-4.5565-1.3756-4.4773-2.9748 0.14748-2.9748 2.8737 0 3.547-0.3622 3.7855-2.0362 0.23495-1.6498-0.0772-1.9401-1.6456-1.53-1.0646 0.2784-2.4607 0.0895-3.1025-0.41979-0.64179-0.50929-2.7755-1.4443-4.7416-2.0779-2.5115-0.80929-4-2.0436-5.0045-4.1501-1.3413-2.8127-1.7516-3.0058-6.6308-3.12l-5.2011-0.12177 3.768 3.9154c4.5752 4.7542 5.862 7.1338 5.862 10.841 0 2.4529 0.56246 3.0791 4.2188 4.6964 4.5193 1.9991 5.3788 4.0973 2.3438 5.7216-1.07 0.57263-1.875 1.963-1.875 3.2383 0 2.339-2.6092 7.9989-4.217 9.1476-0.60235 0.43035-0.37525 2.2676 0.63742 5.157 0.86522 2.4686 2.0724 7.2306 2.6826 10.582 0.61022 3.3516 1.8707 7.7812 2.8011 9.8438 0.9304 2.0625 2.1679 5.6484 2.7501 7.9688 0.58214 2.3203 1.4263 5.2734 1.8759 6.5625 0.44959 1.2891 1.0707 3.5039 1.3803 4.9219 0.67911 3.1109 1.174 3.178 3.9823 0.53971zm-9.4-42.66c-0.95656-0.95655-0.74285-4.0625 0.27952-4.0625 1.1785 0 2.9557 3.3273 2.1875 4.0955-0.76467 0.76465-1.6816 0.75239-2.467-0.033zm6.4022-0.31912c-0.32091-0.51927 0.0943-1.2042 0.92262-1.5221 1.795-0.6888 2.7954 0.0702 1.9325 1.4663-0.77848 1.2596-2.0952 1.2853-2.8552 0.0558zm7.5041 0.007c-0.31868-0.51563 0.0783-0.9375 0.88217-0.9375s1.4616 0.42187 1.4616 0.9375c0 0.51562-0.39698 0.9375-0.88217 0.9375s-1.1429-0.42188-1.4616-0.9375zm-11.516-8.2924c-1.4267-0.90525-0.46065-4.1352 1.0848-3.6269 1.2241 0.40261 2.0346 4.4264 0.8872 4.405-0.42258-0.007-1.31-0.35803-1.972-0.77808zm-9.7325 26.856-1.2101-2.1577-0.31384 2.061c-0.17263 1.1336 0.2307 3.032 0.89628 4.2188l1.2101 2.1577 0.31384-2.061c0.17263-1.1336-0.23071-3.032-0.89628-4.2188zm-92.472-3.1435c0.36031-2.5189 0.47109-4.7639 0.24617-4.9888-0.73068-0.73067-4.2976 8.3098-3.6757 9.3161 1.256 2.0323 2.7981 0.0863 3.4295-4.3273zm125.84 2.248c1.7982-3.6045 1.9678-9.231 0.27821-9.231-0.78677 0-1.1882 1.3648-1.1719 3.9844 0.0137 2.1914-0.32 4.9336-0.74147 6.0938-1.1313 3.114-0.0654 2.5618 1.6351-0.84716zm-35.379-8.0591c-0.23581-0.90234-0.42875-0.16406-0.42875 1.6406s0.19294 2.543 0.42875 1.6406c0.2358-0.90234 0.2358-2.3789 0-3.2812zm25.425-42.188c-0.21438-1.1132-1.1909-1.6406-3.0375-1.6406-3.3059 0-4.3119 2.0354-1.2912 2.6125 4.1319 0.7895 4.6457 0.67415 4.3287-0.97192zm452.99-1.007c2.3203-0.34851 4.2188-1.1258 4.2188-1.7274 0-0.60156 0.31641-1.4102 0.70312-1.7969 0.38672-0.38672 0.70313-2.2359 0.70313-4.1094 0-1.8734 0.35226-3.807 0.78278-4.2969 0.43053-0.48985 0.59899-2.8945 0.37435-5.3438-0.46577-5.0783-2.5246-6.0854-3.4866-1.7054-0.73029 3.325-2.9639 5.4589-4.3076 4.1152-0.61848-0.61848-0.59626-1.8173 0.066-3.559 1.345-3.5377 0.95525-3.6514-3.0916-0.90151-4.5434 3.0873-5.0504 7.4527-0.5882 5.0646 2.258-1.2085 2.58 1.0421 0.40712 2.8455-0.85811 0.71216-1.4062 2.7668-1.4062 5.271 0 4.0652-0.0309 4.104-3.2812 4.104-2.2917 0-3.2812 0.42411-3.2812 1.4062 0 1.5488 4.5274 1.7841 12.188 0.63364zm-129.92-3.7884c0.27566-0.44602-0.0796-2.6609-0.78948-4.9219l-1.2907-4.1109-0.0927 4.9219c-0.0839 4.4556 0.85821 6.2381 2.1729 4.1109zm-321.54-3.0373c-0.65435-1.0588-3.2205-1.105-3.2205-0.058 0 1.3193 1.0554 1.9272 2.43 1.3997 0.72006-0.27631 1.0758-0.88006 0.79052-1.3416zm338.79-2.9567c0.16316-1.4136-0.0478-2.5759-0.46875-2.5829-0.42096-0.007-1.7146-0.26718-2.8748-0.5781-1.7615-0.47207-2.1094-0.19169-2.1094 1.7003 0 4.7679 4.9191 6.0856 5.4529 1.4607zm-334.58-4.1187c0.29549-0.3255-1.1502-0.32582-3.2127-0.00071-2.0625 0.32513-5.146 0.59578-6.8522 0.60145-1.7062 0.006-2.8832 0.36468-2.6155 0.79777 0.51887 0.83954 11.776-0.40197 12.68-1.3985zm9.92-0.32c0.35391-0.57263-1.084-0.9375-3.6947-0.9375-2.3507 0-4.2741 0.42187-4.2741 0.9375 0 0.51562 1.6626 0.9375 3.6947 0.9375s3.9554-0.42188 4.2741-0.9375zm318.79-6.4916c-0.84432-1.3661 1.3445-10.431 3.7949-15.716 1.2403-2.6751 2.255-5.7854 2.255-6.9117 0-3.455-2.4311-0.48736-3.709 4.5277-0.62163 2.4394-1.7289 5.5551-2.4606 6.9237-1.5848 2.9643-1.8926 16.388-0.31362 13.676 0.52785-0.90643 0.72285-2.0313 0.43334-2.4998zm-329.58 0.78713c4.3828-0.53927 11.977-1.3607 16.875-1.8254 4.8984-0.46472 15.867-1.5009 24.375-2.3026 8.5078-0.8017 20.531-2.066 26.719-2.8095 6.1875-0.74354 16.102-1.7988 22.031-2.3449 5.9297-0.54618 12.991-1.4343 15.693-1.9736 2.7012-0.53929 8.2128-0.86798 12.248-0.73043 4.0351 0.13756 8.575-0.21763 10.089-0.7893 1.5137-0.57167 9.0803-1.742 16.815-2.6008 7.7344-0.85877 22.078-2.575 31.875-3.8138 9.7969-1.2388 22.664-2.6782 28.594-3.1988 5.9297-0.52056 14.156-1.3732 18.281-1.8948 12.89-1.63 41.787-4.5638 51.094-5.1876 4.8984-0.32829 10.55-1.0183 12.559-1.5334 2.0089-0.51509 9.1808-1.3221 15.938-1.7934 18.005-1.2559 34.151-2.9798 43.222-4.615 5.1628-0.93061 34.12-4.519 45.938-5.6926 12.305-1.222 32.297-3.509 40.312-4.6115 4.125-0.56739 10.582-1.3919 14.35-1.8323 10.511-1.2286 10.13-0.39418 10.931-23.976 0.66895-19.708 0.64183-20.164-1.3945-23.459-1.5987-2.5868-1.9448-4.1852-1.5034-6.9449 0.61059-3.8184-0.2796-5.2456-3.6327-5.824-1.7187-0.29651-1.875 0.19372-1.875 5.8822 0 5.3055 0.27199 6.3254 1.875 7.0312 1.375 0.60545 1.808 1.5755 1.6235 3.6381-0.13831 1.5469-0.27173 4.5-0.29651 6.5625-0.11505 9.5762-1.8172 11.001-15.687 13.128-4.9928 0.76585-14.14 2.7051-20.328 4.3095-10.364 2.6872-21.38 5.1287-45.938 10.181-5.1562 1.0608-10.76 2.5579-12.454 3.327-1.6933 0.76909-4.2836 1.3983-5.7562 1.3983s-6.8372 0.88492-11.921 1.9665c-5.0841 1.0816-11.986 2.5055-15.338 3.1642-3.3516 0.65877-7.3594 1.6397-8.9062 2.1799-24.019 8.3874-27.961 6.8242-28.173-11.172-0.0813-6.8997-0.20907-12.816-0.28404-13.148-0.34109-1.5086-3.715-1.5938-13.261-0.33468-14.672 1.9351-13.501 3.7433-12.697-19.602 0.37429-10.875 0.95853-53.403 1.2983-94.506 0.68693-83.098 0.21091-77.723 6.9242-78.176 11.851-0.79922 17.739-1.5187 21.819-2.6664 2.5781-0.72518 10.172-2.0173 16.875-2.8713 6.7031-0.85407 18.727-2.6 26.719-3.88 7.9922-1.2799 21.492-3.3309 30-4.5578 8.5078-1.2268 18.211-2.6789 21.562-3.2268 3.3516-0.54787 9.4688-1.4643 13.594-2.0366 10.848-1.5049 11.169-1.7594 10.304-8.1826-0.39211-2.912-0.63398-7.4709-0.53746-10.131 0.22184-6.1138 0.0852-6.1792-10.406-4.9755-4.8042 0.55119-20.548 1.6292-34.985 2.3955-14.438 0.76634-37.008 2.0066-50.156 2.756-13.148 0.74949-29.602 1.5867-36.562 1.8606-6.9609 0.27384-13.922 0.72419-15.469 1.0008-1.5469 0.27659-8.9288 0.70923-16.404 0.96142-16.139 0.54445-14.517-0.79364-15.79 13.025-0.94328 10.241-1.1546 17.093-1.2976 42.067-0.0262 4.5742 0.49478 11.191 1.1577 14.705 1.4659 7.769 0.30081 11.83-3.6443 12.703-1.3527 0.29918-3.0923 0.69786-3.8657 0.88596-6.8414 1.6638-34.589 1.4192-35.516-0.31309-2.0099-3.7556-9.1216-3.7-9.6587 0.0755-0.39277 2.761-2.6666 3.1447-26.075 4.4002-10.57 0.56692-25.969 1.4478-34.219 1.9574-8.25 0.50966-18.797 1.1015-23.438 1.3152-18.111 0.83407-41.338 2.438-43.068 2.974-0.99983 0.30984-6.0623 0.67893-11.25 0.8202-5.1877 0.14129-13.229 0.68915-17.87 1.2175-4.6406 0.52834-15.82 1.4243-24.844 1.991-9.0234 0.56672-17.32 1.2298-18.436 1.4736l-2.0301 0.44314-0.11776 40.08c-0.0648 22.044-0.23202 62.018-0.37168 88.83s-0.0169 53.391 0.27285 59.062l0.52677 10.312 3.75 0.5439c4.0419 0.58625 6.8968 0.42402 19.219-1.0921zm52.988-11.139c-0.30795-0.49828-0.50234-6.6584-0.43198-13.689 0.15761-15.749 1.0037-14.891-13.399-13.589-17.11 1.5467-15.856 3.4395-14.866-22.441 0.40425-10.57 0.8107-40.936 0.90324-67.478 0.0925-26.543 0.4733-48.529 0.84612-48.858 0.65951-0.5819 31.549-3.3418 46.615-4.1649 4.125-0.22536 16.992-1.2708 28.594-2.3233 11.602-1.0524 29.742-2.5415 40.312-3.309 10.57-0.76755 21.539-1.7801 24.375-2.2502 13.229-2.1926 16.786-0.99626 16.845 5.6655 0.0263 2.9753 1.6284 9.2805 2.3581 9.2805 0.14843 0 1.4782-0.63022 2.9552-1.4005 7.3294-3.8225 10.632-1.3037 10.65 8.1216 0.0535 28.343-0.26569 31.136-3.8664 33.823-1.4594 1.0892-4.1351 1.8947-6.5625 1.9756l-4.0985 0.13652-0.26406 11.587c-0.3076 13.498 0.004 14.194 6.3578 14.194 5.4974 0 7.2453 1.6232 5.8034 5.3898-1.7243 4.5045-2.3993 15.38-1.0079 16.239 7.3211 4.5247-0.62284 29.971-8.8432 28.327l-2.7949-0.55897 0.59498 4.5983c0.87957 6.7978 0.14515 7.423-12.502 10.642-4.3828 1.1156-11.133 2.8414-15 3.8352-34.58 8.8868-41.314 10.58-45 11.318-2.3203 0.46428-7.1719 1.6668-10.781 2.6722-3.6094 1.0054-10.992 2.9463-16.406 4.3129-5.4141 1.3666-14.222 3.9168-19.572 5.667-10.759 3.5192-11.016 3.5686-11.814 2.2762zm14.87-16.96c0.44639-0.39957 0.12999-1.6997-0.70312-2.8891-2.1515-3.0717-2.305-48.62-0.16383-48.62 0.74301 0 1.6117 0.42187 1.9303 0.9375 0.96579 1.5627 1.9843 1.066 3.1756-1.5489 1.7434-3.8262-7.667-4.765-13.734-1.37-1.8083 1.012-1.8111 30.312-0.004 35.442 0.81046 2.2998 0.76661 3.863-0.18962 6.7604-1.1885 3.6011-0.82556 15.859 0.53471 18.06 0.44544 0.72074 2.3908-0.71841 9.1529-6.7713zm40.159-0.46567c4.0813-1.3906 16.141-4.6379 52.253-14.069 8.9918-2.3485 16.586-4.4163 16.875-4.5952 0.28941-0.17892 0.52619-5.3226 0.52619-11.43v-11.105h-6.0938c-3.3516 0-9.9042 0.32463-14.561 0.7214-6.5833 0.56086-8.858 0.43604-10.221-0.56091-3.5402-2.5886-0.75777-3.4398 11.479-3.5112 17.656-0.10312 20.335-0.64989 20.335-4.1493 0-1.5469-0.42188-2.7981-0.9375-2.7806-1.8755 0.0639-12.307 2.4451-16.992 3.8788-10.751 3.2899-9.8429-2.7792 1.0076-6.7366 9.1677-3.3436 8.4843-1.0862 8.4843-28.026 0-17.466 0.28668-23.449 1.1373-23.738 1.7217-0.58502 2.027 2.2667 2.5322 23.653 0.2558 10.828 0.48402 19.822 0.50716 19.987 0.33145 2.3602 4.2761-0.89005 4.3458-3.5808 0.63379-24.465 0.72305-44.035 0.20323-44.555-0.3571-0.3573-7.318-1.2238-15.469-1.9255-18.015-1.551-19.038-1.7748-19.038-4.1622 0-2.1378 1.473-2.3062 8.157-0.93242 15.173 3.1184 26.779 2.7963 27.299-0.75765 0.4125-2.8182-1.6106-3.3619-8.1939-2.2023-4.8845 0.86039-16.67 0.50482-15.691-0.47344 0.20165-0.20165 5.066-1.1729 10.81-2.1584 12.042-2.0661 12.307-2.1786 12.307-5.232 0-2.6817-2.5798-3.0924-5.8924-0.93805-2.114 1.3748-18.94 6.1496-21.67 6.1496-4.6326 0-0.092-2.7218 7.8753-4.7207 10.228-2.5661 14.213-5.9154 11.308-9.5033l-1.7233-2.1282-8.7766 2.1597c-4.8271 1.1878-10.464 2.7648-12.527 3.5044-13.099 4.6972-60.335 12.243-61.8 9.8724-0.82647-1.3372 1.9936-2.4289 9.7685-3.7815 3.3516-0.58307 8.8359-1.6672 12.188-2.4091 25.578-5.6621 31.92-6.9873 35.625-7.4439 2.3203-0.28593 6.3281-0.9357 8.9062-1.4439 17.878-3.5242 21.643-3.2419 22.21 1.666 0.92266 7.9835 4.5088 3.3205 4.5088-5.8628 0-9.3434-0.69361-10.709-3.3675-6.6277-1.9983 3.0498-4.1325 3.0346-4.1325-0.0294 0-3.4877-1.5506-3.6399-14.902-1.4631-8.3545 1.3621-12.834 1.7064-14.409 1.1074-2.2581-0.85853-11.597 0.48608-28.814 4.1485-3.8672 0.82266-9.3516 1.8857-12.188 2.3624-2.8359 0.47667-8.5312 1.5489-12.656 2.3828-4.125 0.83389-12.984 2.4354-19.688 3.5588l-12.188 2.0427 0.2276 15.914c0.45041 31.493 0.34907 29.382 1.2363 25.757 0.44177-1.8047 0.738-7.7109 0.65826-13.125-0.34643-23.524 1.3518-28.465 7.8023-22.701l2.9228 2.6115-0.0425 15.466c-0.0462 16.827-0.0423 16.845 4.0702 18.788 3.9993 1.8901 5.0311 6.0004 5.7622 22.954 0.60567 14.047 0.6926 14.526 2.5885 14.255 3.0977-0.44249 2.2648-36.374-0.84312-36.374-0.67672 0-1.6716-1.2656-2.2108-2.8125-0.53924-1.5469-1.6352-2.8125-2.4354-2.8125-2.3052 0-1.6916-1.8315 0.95011-2.8358 4.2537-1.6173 7.9321 2.0772 6.5147 6.5431-0.31985 1.0078 0.0465 2.8007 0.81409 3.9844 1.1274 1.7385 2.3927 7.5252 3.5454 16.215 0.0684 0.51562-0.18621 2.7295-0.5658 4.9198-0.92643 5.3455 0.008 5.5697 11.326 2.7179 5.0832-1.2808 11.966-2.8194 15.296-3.4191 6.2567-1.1269 12.603-3.7667 10.646-4.4282-0.98577-0.33313-8.0236 0.37227-22.09 2.2141-4.4487 0.5825-6.4234-0.80185-2.5781-1.8074 1.0593-0.277 1.875-1.2788 1.875-2.3026 0-2.261 2.837-3.5873 10.47-4.8945 3.2651-0.55917 7.9476-1.4716 10.406-2.0276 6.5177-1.4743 9.1246 0.38791 9.1246 6.5179 0 4.9597-1.1625 6.7284-4.4223 6.7284-1.1948 0-7.1221 1.644-13.172 3.6532-7.1064 2.3602-13.737 3.8879-18.734 4.3163l-7.7344 0.66308-0.006 2.9493c-0.0142 8.0015-3.6197 14.073-8.2787 13.94-2.9854-0.0849-4.3355 2.5832-2.0286 4.009 1.6352 1.0106 1.0183 2.3594-1.5203 3.3246-2.8626 1.0883-4.714-0.009-5.327-3.1583-0.21855-1.1227-0.45482 5.854-0.52503 15.504-0.15753 21.649-1.2587 20.47 15.42 16.51 6.66-1.5813 13.797-3.1896 15.859-3.5739 2.0625-0.38432 8.6016-1.8623 14.531-3.2844 18.501-4.437 21.78-5.195 30.858-7.133 15.36-3.2793 22.05-6.3328 22.422-10.235 0.67759-7.1018 4.064-6.8606 4.064 0.28946 0 6.4413-1.138 7.7378-8.8176 10.046-3.7441 1.1251-12.503 3.9466-19.464 6.27-12.748 4.255-20.134 6.3699-40.781 11.677-11.419 2.9351-17.11 5.1233-10.781 4.1452 1.8047-0.27892 3.9141-0.0987 4.6875 0.40053 2.0047 1.2939 4.666 1.1493 9.5646-0.51981zm-35.33-120.38c-1.0179-1.6469 3.9973-4.1834 5.6158-2.8402 1.0746 0.89186 1.1583 1.4798 0.34926 2.4546-1.2185 1.4681-5.1394 1.7216-5.9651 0.38554zm-33.917 102.59c-0.74366-1.9379-1.265-1.7096-1.265 0.55411 0 1.0617 0.40345 1.681 0.89656 1.3762 0.49311-0.30475 0.6589-1.1734 0.36845-1.9303zm-4.07-11.57c0-13.302-0.57392-18.867-1.9455-18.867-0.42551 0-0.68918 7.1714-0.58594 15.936 0.14163 12.023 0.47548 15.937 1.3596 15.938 0.88126 0.00085 1.1719-3.2248 1.1719-13.007zm7.5 6.39c0-0.4852-0.42188-0.88217-0.9375-0.88217-0.51563 0-0.9375 0.65771-0.9375 1.4616 0 0.80387 0.42187 1.2008 0.9375 0.88217 0.51562-0.31867 0.9375-0.97639 0.9375-1.4616zm145.73-10.47c2.1582-3.0813 1.8753-7.8312-0.56837-9.5429-2.8619-2.0045-3.3437-1.3261-3.3986 4.7852-0.0666 7.4107 1.1156 8.8285 3.967 4.7576zm-1.9221-16.274c0.31298-0.8156 0.56905-2.5383 0.56905-3.8281 0-3.6959-2.3025-2.0636-2.6347 1.8679-0.2933 3.4708 1.011 4.7086 2.0657 1.9602zm-134.94-3.9077c0.89446-3.0383 0.91431-3.0468 7.0312-3.0296 6.631 0.0187 16.894-2.6333 16.907-4.3687 0.0134-1.7943-4.6658-2.383-14.034-1.7657-8.1682 0.53828-8.7723 0.46466-7.1072-0.86601 1.0009-0.79988 2.372-1.4543 3.0469-1.4543 0.67489 0 1.2271-0.44678 1.2271-0.99283 0-0.54606-0.48119-0.69543-1.0693-0.33195-4.2189 2.6074-15.797 0.63683-15.82-2.6926-0.0117-1.6999-0.18497-1.8214-0.95533-0.67014-0.82263 1.2294-1.0991 1.2-2.1984-0.23437-1.8568-2.4227-2.457-2.022-2.457 1.6406 0 2.6883-0.34906 3.2812-1.9316 3.2812-1.6588 0-1.8905 0.49652-1.6406 3.5156 0.25289 3.0555 0.57683 3.4847 2.4749 3.2791 1.7617-0.1908 2.4652 0.47946 3.6386 3.4665 1.5397 3.9196 2.9327 4.6231 8.7088 4.3979 2.8492-0.11108 3.3994-0.52915 4.1782-3.1748zm-6.7564-4.0136c-4.1176-1.6551-1.5308-4.4847 3.049-3.3353 2.6223 0.65815 3.1292 2.8617 0.85872 3.7329-0.8156 0.31298-1.5539 0.54231-1.6406 0.50962-0.0867-0.0327-1.1069-0.44096-2.2671-0.90728zm134.35 1.8225c1.1584-1.8744-1.031-2.8846-3.6579-1.6877-1.3675 0.62307-2.4864 1.487-2.4864 1.9199 0 1.1619 5.409 0.95752 6.1442-0.23217zm10.015-8.8258c-0.29814-5.565-1.6404-7.3499-3.5657-4.7414-2.535 3.4346-0.94048 10.343 2.2357 9.686 1.2634-0.26112 1.5281-1.2454 1.3299-4.9446zm-124.41-7.0772c0.88374-1.4299 0.50217-50.89-0.39955-51.792-0.69218-0.69218-1.2355 7.1625-2.5157 36.372-0.4854 11.075-2.2598 16.134-2.2845 6.514-0.0197-7.6638-1.7643-10.244-2.0286-3-0.42462 11.64-0.47342 11.352 2.0429 12.052 3.4909 0.97105 4.5129 0.94229 5.1854-0.14589zm10.197-1.4732c0.90706-2.3638-0.44875-13.705-1.9196-16.058-2.2336-3.5721-3.1508-2.3757-3.1508 4.11 0 9.8147 3.0925 17.102 5.0704 11.948zm46.264-4.1272c2.7106-0.59013 4.6832-1.4696 4.3836-1.9544-1.0532-1.7042-18.218 1.2798-18.218 3.167 0 1.0426 5.8189 0.53252 13.835-1.2126zm-80.288-28.664-0.85808-3.6571-0.0942 3.3594c-0.0518 1.8477 0.18708 3.6406 0.53083 3.9844 1.1533 1.1533 1.2855-0.004 0.42142-3.6866zm147.85-5.2978c-0.16477-1.1602-0.72146-2.1094-1.2371-2.1094-0.51563 0-1.0723 0.94922-1.2371 2.1094-0.20614 1.4514 0.17975 2.1094 1.2371 2.1094 1.0573 0 1.4432-0.65797 1.2371-2.1094zm-0.003-10.419c0.42358-5.1461-0.27374-6.5509-2.6267-5.2917-1.8938 1.0135-2.7681 7.2533-1.2315 8.7898 1.6694 1.6694 3.575-0.0583 3.8582-3.4982zm-1.4098-14.894c-0.79053-6.9988-1.7954-7.477-2.7931-1.329-0.64977 4.004 0.0539 6.2509 1.9575 6.2509 1.1242 0 1.2847-0.94536 0.83556-4.9219zm-180.2 94.905-4.1281-1.8949 0.59396-11.719c0.50078-9.8808 0.9732-12.521 3.0116-16.83 1.8971-4.0101 2.3553-6.2499 2.1279-10.401-0.39455-7.2037 0.97497-8.0586 8.0155-5.0036 7.354 3.1909 9.4341 10.251 5.2955 17.972-1.2892 2.4054-2.2108 6.9888-2.9746 14.794-1.4574 14.894-3.3878 17.009-11.942 13.082zm6.4719-5.6632c0-1.1947-0.64401-1.8197-1.875-1.8197-2.0999 0-2.6789 3.3054-0.70313 4.0141 1.7083 0.6128 2.5781-0.12755 2.5781-2.1944zm1.2351-7.679c0.27549-1.1602 0.74206-4.6406 1.0368-7.7344l0.53592-5.625-1.8481 3.75c-1.0164 2.0625-1.8592 5.543-1.8727 7.7344-0.0262 4.2341 1.3108 5.4011 2.148 1.875zm-2.7882-12.656c0.79859-2.707 1.0637-4.9219 0.58907-4.9219-1.5227 0-3.7244 5.4188-3.695 9.0941 0.0343 4.2832 0.99051 2.9987 3.106-4.1722zm7.6443-7.7198c1.23-7.2802-2.825-13.469-5.286-8.0675-0.81406 1.7867-0.71175 2.7132 0.48885 4.4274 0.83511 1.1923 1.5184 3.2692 1.5184 4.6154 0 5.1722 2.3587 4.4706 3.2788-0.97533zm224.72-21.76c-0.64304-0.64304-1.125-3.7222-1.125-7.1875 0-6.467-0.86131-7.0971-1.8008-1.3173-1.8561 11.419-4.0235 4.5075-3.6861-11.754l0.33062-15.934 2.9786-4.0756c7.5482-10.328 13.764-3.1535 12.714 14.674-0.0607 1.0312-0.3198 5.9654-0.57564 10.965-0.49409 9.655-1.2326 11.975-4.5515 14.3-2.4973 1.7492-2.8381 1.7754-4.2842 0.32933zm4.655-14.109c0.0853-4.7695 0.22701-12.369 0.31496-16.888 0.18459-9.485-0.78784-11.301-4.684-8.7483-2.9154 1.9103-3.0151 4.671-0.23908 6.6207 1.6541 1.1618 2.1273 2.4379 2.1922 5.9125 0.0456 2.4371 0.15104 8.3334 0.23437 13.103 0.0883 5.0552 0.54249 8.6719 1.089 8.6719 0.54626 0 1.0022-3.619 1.0925-8.6719zm150.75-153.56c-1.4633-2.7342-0.78886-7.8451 1.0819-8.1991 1.098-0.20774 1.7052 0.65838 2.1596 3.0802 1.0913 5.8171-1.0544 9.2055-3.2415 5.1189zm-13.875-1.515c0.38659-3.3767 3.1171-3.6654 3.1171-0.32948 0 1.511-0.6018 2.4468-1.7108 2.6604-1.3834 0.26641-1.6525-0.17976-1.4062-2.3309zm-413.62 292.89c-0.0328-2.676-1.8316-4.0461-1.8463-1.4062-0.008 1.418 0.40752 2.5781 0.92315 2.5781 0.51562 0 0.93104-0.52734 0.92315-1.1719zm102.67-0.20921 4.6875-1.3449-7.0312 0.56951c-9.3467 0.75703-13.497 1.9716-7.0312 2.0578 2.5781 0.0344 6.7969-0.54272 9.375-1.2824zm377.15-3.3804c2.4992-4.6821 0.0949-16.139-2.783-13.261-0.80523 0.80523-1.4375 0.82485-2.3438 0.0727-1.72-1.43-1.59-5.49 0.17-5.49 1.6339 0 1.7929-1.2758 0.46756-3.7522-0.78548-1.4677-1.933-1.7263-7.0312-1.5847-7.5926 0.21097-7.9762 1.6925-1.7574 6.7884 4.3846 3.5928 8.7627 11.128 8.7807 15.112 0.0234 5.1968 2.2882 6.2593 4.5019 2.112zm-361.43 1.3341c-0.63472-0.2568-1.9004-0.27243-2.8125-0.0348-0.91216 0.2377-0.39285 0.44781 1.154 0.46692 1.5469 0.0191 2.2932-0.17537 1.6585-0.43218zm-123.53-5.5569c0-1.1497-0.75977-1.9048-2.1094-2.0965-2.3295-0.33083-3.135 3.0144-0.9375 3.8933 1.9266 0.77065 3.0469 0.10999 3.0469-1.7969zm-31.875-5.0781c-0.31868-0.51563-1.2122-0.9375-1.9856-0.9375-0.77344 0-1.1455 0.42187-0.82685 0.9375 0.31868 0.51562 1.2122 0.9375 1.9856 0.9375 0.77344 0 1.1455-0.42188 0.82685-0.9375zm21.133-1.6406c0.0216-1.418 0.26801-10.652 0.54774-20.521 0.50495-17.814 0.0472-21.035-2.6108-18.377-1.083 1.083-1.9137 28.247-1.1036 36.085 0.5881 5.69 3.0892 7.9114 3.1666 2.8125zm-7.7488-20.156c0.15854-20.419-0.43713-25.543-2.5885-22.266-0.50773 0.77344-0.95209 2.4609-0.98749 3.75-0.93435 34.031-0.57007 39.375 2.6839 39.375 0.40154 0 0.80295-9.3867 0.89202-20.859zm14.206 16.351c-0.139-5.322-1.6748-6.4634-1.7432-1.2956-0.041 3.0944 0.28875 4.758 0.8716 4.3978 0.51562-0.31867 0.90785-1.7147 0.8716-3.1022zm-38.84 0.75846c-0.31868-0.51563-1.2122-0.9375-1.9856-0.9375-0.77344 0-1.1455 0.42187-0.82685 0.9375 0.31868 0.51562 1.2122 0.9375 1.9856 0.9375 0.77344 0 1.1455-0.42188 0.82685-0.9375zm16.875-29.444c0-8.092-0.32237-11.273-1.1719-11.562-1.3188-0.4499-1.7772 38.207-0.46875 39.529 0.8478 0.85654 1.6406-12.658 1.6406-27.967zm30.405 24.053c-0.0544-3.8186-0.20461-4.1611-1.0541-2.4034-0.90123 1.8646-0.41585 6.8566 0.66668 6.8566 0.24799 0 0.42233-2.0039 0.38744-4.4531zm-36.48-18.54c0-17.463-0.1982-20.262-1.4693-20.749-3.1961-1.2265-3.6852 1.2372-3.7615 18.947-0.041 9.5111-0.31533 17.534-0.60969 17.828-2.0368 2.0368-3.6524-14.097-2.7602-27.562 0.69457-10.482 0.67051-10.609-2.3212-12.183-2.9454-1.5499-3.1406-0.38955-3.1406 18.669 0 9.2391-0.37056 16.798-0.82346 16.798-1.8218 0-2.5968-7.8421-2.204-22.303 0.4427-16.301 0.0615-18.009-4.0169-18.009-2.8217 0-3.0088 1.0278-3.7554 20.625l-0.62501 16.406 6.8843 3.7336c7.4816 4.0575 15.57 7.7141 17.431 7.8804 0.90447 0.0808 1.1719-4.5016 1.1719-20.081zm-21.562 16.582c0-1.6801-2.4791-3.032-31.711-17.293-6.6828-3.2602-9.539-6.2741-9.539-10.066 0-2.7636-2.9976-4.3148-6.0642-3.1381-3.1412 1.2054-1.5368 9.9356 2.1318 11.6 1.7044 0.77344 11.829 5.7221 22.5 10.997 20.104 9.9381 22.682 10.836 22.682 7.8992zm404.69-1.6074c1.1175-0.22577 2.209 0.11614 2.4257 0.75978 0.31054 0.92268 0.70876 0.91039 1.8823-0.058 0.81863-0.67559 4.7896-1.582 8.8243-2.0142 10.89-1.1667 99.178-11.064 113.27-12.698 20.117-2.3323 21.094-2.4856 21.094-3.3109 0-1.6456-2.1895-2.04-5.4905-0.98907-1.8786 0.5981-36.852 4.7882-77.719 9.3114-48.413 5.3584-74.71 8.6337-75.469 9.4-1.1251 1.1357 4.5877 0.9308 11.179-0.40089zm-355.96-14.39c-0.62172-1.0631-0.85437-0.28513-0.81712 2.7325 0.0481 3.8948 0.11482 4.0089 0.86919 1.4863 0.48187-1.6114 0.4605-3.3423-0.052-4.2188zm-55.101-7.1113c1.2718-21.394 1.2757-24.153 0.0349-24.589-0.64426-0.22602-1.3238 0.15148-1.51 0.83888-0.18623 0.68741-1.0036 3.3592-1.8164 5.9373-0.81278 2.5781-1.763 6.543-2.1115 8.8108-0.34857 2.2678-1.2189 5.5238-1.9341 7.2355-0.71521 1.7117-1.3004 4.1805-1.3004 5.4861 0 3.5152-1.5477 2.8788-2.159-0.88786-0.48531-2.9906 1.1513-8.1928 2.9215-9.2861 1.1319-0.69912 0.0773-9.9522-1.1342-9.9522-2.4192 0-3.3783 2.418-3.3783 8.5174 0 3.447-0.6163 7.6869-1.3696 9.4219-1.3252 3.0524-1.3707 2.8588-1.4062-5.9861-0.0389-9.6964-0.92296-11.134-4.9014-7.9688-4.8874 3.8882-1.7654 17.578 4.0087 17.578 0.92552 0 1.9476 0.42853 2.2713 0.95229 1.0123 1.6379 9.2738 5.5705 11.241 5.3508 1.7168-0.19172 1.9314-1.1583 2.5438-11.459zm-94.888 3.5386c11.633-3.0738 14.99-4.0065 24.844-6.9032 5.6719-1.6673 13.477-3.7563 17.344-4.6423 10.994-2.5188 27.634-7.1329 29.688-8.2324 1.0244-0.54827 3.991-1.2792 6.5923-1.6243 6.636-0.88029 6.7435-1.0137 6.0048-7.4489-0.49895-4.3466-0.81084-5.1456-1.3723-3.5156-0.95946 2.7852-2.8482 2.6697-5.0165-0.30687-0.96806-1.3289-3.8509-3.5444-6.4063-4.9233l-4.6462-2.507-0.686-8.9049c-0.37729-4.8977-0.58823-19.346-0.46875-32.108l0.21725-23.204-3.2812 0.0167c-1.8047 0.009-6.2342 0.64216-9.8434 1.4066-3.6092 0.76449-7.6381 1.39-8.9531 1.39s-2.8989 0.50787-3.5196 1.1286c-0.62074 0.62074-4.3965 1.6553-8.3906 2.2991-3.9941 0.64379-9.1605 1.5941-11.481 2.1118-2.3203 0.5177-5.7556 0.95966-7.6341 0.98211-4.2418 0.0507-4.583 0.75828-5.8971 12.228-1.2225 10.671-2.7838 11.612-3.1123 1.875-0.48494-14.374-4.9112-17.531-4.9287-3.5156-0.0053 4.2539-0.19385 22.025-0.41892 39.492l-0.40922 31.757 2.3898-2.226c2.3562-2.1947 2.3811-2.3641 1.7706-12.07-0.50066-7.9599-0.35241-10.203 0.77469-11.719 1.8905-2.5431 2.3608-1.063 2.6811 8.4375 0.28309 8.3964-0.34514 7.9109 8.456 6.535 3.1668-0.49506 4.4531-0.38003 4.4531 0.39821 0 1.3087-0.94503 1.6456-6.8239 2.4333-3.9147 0.52447-4.7726 1.0635-6.7969 4.2701-3.9836 6.3105-3.1012 8.3963 2.773 6.5544 6.7102-2.104 20.468-5.7963 30.067-8.0695 5.6719-1.3432 16.008-4.0594 22.969-6.036 12.542-3.5615 14.873-4.0586 18.047-3.8497 5.7873 0.38081-0.46411 3.1564-17.109 7.5966-5.9297 1.5818-12.047 3.2622-13.594 3.7342-2.599 0.79316-17.82 4.6363-36.975 9.3358-11.8 2.8951-14.668 2.6912-15.554-1.1056-1.3497-5.7851-1.7223-46.24-0.65411-71.016 0.97537-22.623 0.68403-26.45-1.9845-26.068-3.7018 0.53003-4.1262 3.6362-3.37 24.662 0.66574 18.51 0.10067 33.379-1.8811 49.5-0.87603 7.126-0.66974 11.879 0.87917 20.258 0.52032 2.8147 0.94603 6.9034 0.94603 9.086 0 4.0374 1.1323 5.3634 3.75 4.3916 0.77344-0.28714 3.7266-1.1352 6.5625-1.8845zm24.217-24.73c-1.6546-1.0226 3.8208-3.4108 11.521-5.0248 13.301-2.7882 20.071-4.4382 23.578-5.7465 1.944-0.72516 4.5807-1.3185 5.8594-1.3185 3.202 0 3.0076 2.6113-0.25334 3.4015-1.418 0.34361-6.375 1.6331-11.016 2.8656-13.425 3.5655-28.544 6.5306-29.689 5.8227zm135.06 15.801c-0.0869-5.3081-0.1729-5.5506-0.91363-2.5781-0.74353 2.9837-0.34579 8.4375 0.61533 8.4375 0.21684 0 0.35108-2.6367 0.2983-5.8594zm-89.9-1.12v-6.045l-2.8125 0.98044c-4.4416 1.5484-3.6064 11.11 0.97048 11.11 1.6406 0 1.842-0.66108 1.842-6.045zm416.36-2.8245c1.2227-1.7845 3.1756-3.7542 4.3396-4.3772 2.3436-1.2543 2.16 3.3782 2.4858-62.69l0.0994-20.155-3.967-0.53059c-6.8594-0.91746-6.5767-2.8572 0.68784-4.719 6.651-1.7046 5.8016-2.5509-2.0002-1.9927-5.4454 0.38962-6.6049 0.23597-6.2508-0.8283 0.79105-2.3774 15.246-3.7785 17.343-1.681 2.3169 2.3169 3.3998-11.918 1.3132-17.26-1.4228-3.6428-2.9075-2.2975-2.9075 2.6345 0 4.4949-1.0349 5.8919-2.7943 3.772-0.82869-0.99852-1.0759-7.4598-0.92338-24.13 0.11459-12.522 0.0892-26.564-0.0562-31.204l-0.26456-8.4375-0.70882 9.375c-0.38985 5.1562-0.98716 18.018-1.3273 28.581-0.34019 10.563-0.78827 19.376-0.99573 19.583-1.6674 1.6674-2.3929-7.5444-2.2372-28.404 0.1369-18.336-0.0862-23.516-1.0261-23.83-0.87687-0.29228-1.0477 0.36621-0.63301 2.4397 0.93612 4.6806-0.24409 9.7374-2.1327 9.138-1.4747-0.46805-1.608 1.4537-1.7476 25.19-0.16936 28.795-0.41448 27.83 6.5376 25.747 3.8688-1.1591 6.9482 0.0453 4.9812 1.9483-2.803 2.7118-18.005 4.0031-19.326 1.6416-0.48192-0.86118-1.6346-1.5658-2.5614-1.5658-0.92683 0-2.103-0.93653-2.6138-2.0812-0.83393-1.8689-1.1034-1.5258-2.641 3.363l-1.7124 5.4442-1.1183-2.6598c-0.98913-2.3526-1.2021-1.3679-1.8439 8.5248-0.73295 11.298-0.24514 14.128 2.435 14.128 1.0162 0 1.3069-1.8626 1.3171-8.4375 0.007-4.6406 0.34846-8.9648 0.75845-9.6094 1.2744-2.0034 3.1871-1.2906 3.7734 1.4062 0.89835 4.1321 2.076 5.2094 6.3252 5.7858 5.6001 0.75967 5.5617 0.42303 5.1406 45.074-0.44087 46.74-0.35705 47.545 4.2521 40.818zm-10.84-89.49c-0.77646-1.2564 0.345-3.6066 2.0294-4.2529 2.0034-0.76879 2.3342-0.2248 1.6123 2.6514-0.60426 2.4076-2.6009 3.2856-3.6417 1.6015zm-325.08 81.712c-0.10634-5.0273 0.15857-10.943 0.58869-13.146 0.64088-3.2824 0.47557-4.3441-0.91581-5.8815-1.1995-1.3254-1.4052-2.1688-0.70083-2.8732 0.70438-0.70438 1.1819-0.69787 1.6269 0.0221 0.93492 1.5128 3.3317 1.2343 3.3317-0.38704 0-0.77344-0.79862-1.4062-1.7747-1.4062-1.959 0-2.9128-1.7391-2.9128-5.311 0-1.4638-0.44043-2.1954-1.1719-1.9465-0.879 0.29905-1.0855 3.3266-0.82631 12.114 0.3931 13.327-0.24217 17.226-2.3394 14.358-0.89211-1.22-1.2874-4.6932-1.2874-11.31 0-9.4464-1.3674-13.814-3.3306-10.637-0.77722 1.2576-0.57577 28.422 0.22627 30.512 0.81403 2.1213 2.52 0.9725 3.4689-2.336 1.1366-3.9631 2.8397-3.2567 3.2209 1.336 0.26496 3.1925 1.503 6.0332 2.6294 6.0332 0.19815 0 0.27326-4.1133 0.16692-9.1406zm348.4 8.299c0.99703-0.39044 1.4189-0.94407 0.9375-1.2303-0.93097-0.55352-5.094 0.732-5.094 1.573 0 0.6792 1.9595 0.51764 4.1565-0.34271zm38.1-5.2603c10.593-1.6955 20.634-3.7791 29.246-6.0685 6.2599-1.6642 6.3647-1.6615 7.6629 0.19197 1.4073 2.0092 7.1984 1.1878 34.272-4.8608 4.3828-0.97918 11.977-2.5147 16.875-3.4122 10.701-1.9606 11.084-2.2561 11.439-8.811l0.27934-5.1562-4.6875-0.46875-4.6875-0.46875-0.25351-20.089c-0.19147-15.173 0.0302-20.264 0.90606-20.806 2.7785-1.7172 3.3003 1.0957 3.4283 18.481 0.13426 18.236 0.2877 19.376 2.4945 18.529 1.004-0.38528 1.1186-0.97075 0.43873-2.2412-1.9099-3.5686-1.1178-30.391 1.0865-36.794 2.0332-5.9065 3.2389-70.579 1.4204-76.191-1.0544-3.254 1.629-6.0234 3.7811-3.9023 2.7791 2.7391 3.2188 80.452 0.46609 82.38-1.6492 1.1552-2.4638 3.8103-2.1532 7.018 0.13422 1.386 2.533 2.2979 4.2805 1.6273 3.6527-1.4017 4.2743-8.7775 4.2923-50.931 0.0201-46.993 0.10755-46.552-8.4959-42.818-3.5385 1.5358-5.1258-1.63-5.1948-10.361-0.036-4.5525-0.41084-12.071-0.83291-16.707-1.1504-12.638-2.3348-7.1203-2.1826 10.167 0.0818 9.2931-0.26968 15.388-0.98767 17.127-0.82811 2.0048-0.93045 8.8453-0.39802 26.605 0.83426 27.828 0.28423 49.093-1.311 50.686-2.8472 2.8426-3.0353-0.48159-2.7679-48.926 0.22458-40.698 0.0554-48.893-1.0178-49.305-0.70793-0.27167-1.9152-1.7084-2.6828-3.1928-1.6697-3.2289-2.3867-3.2716-14.292-0.85276-4.9976 1.0154-9.9303 1.7537-10.962 1.6406-3.0512-0.33444-2.2134 2.5162 0.9375 3.19 1.5469 0.33078 6.6847 0.65133 11.417 0.71234 12.734 0.16414 11.759-3.0459 11.989 39.486 0.25495 47.076 0.77814 72.249 1.511 72.702 1.7077 1.0554 0.81531 3.212-1.5777 3.8126-1.3427 0.33701-4.3144 1.6086-6.6036 2.8259-2.2893 1.2172-5.8234 2.4787-7.8535 2.8034-2.0301 0.32463-4.1726 1.1704-4.7612 1.8795-1.4453 1.7415-4.2584 1.6316-4.9588-0.19367-1.4551-3.7918-1.1474-4.0027 13.78-9.4435l7.3182-2.6673-0.73551-39.375c-0.40454-21.656-0.66373-41.273-0.57599-43.594 0.0878-2.3203-0.0633-8.0824-0.33559-12.805l-0.49511-8.586-5.3096-1.0142c-19.434-3.7123-21.716-4.6708-21.716-9.1225 0-2.5088 4.051-5.035 8.0742-5.035 1.3983 0 4.6887-0.59963 7.3122-1.3325 6.2155-1.7364 15.382-3.355 18.999-3.355h2.8667l0.12642-9.0964c0.0696-5.003 0.51873-9.4888 0.99822-9.9682 1.4653-1.4653 3.8103 0.11863 3.8103 2.5737 0 2.8773 1.8261 4.1578 2.9825 2.0914 0.47335-0.84584 1.4274-1.5379 2.12-1.5379 2.1209 0 2.7828-14.052 0.75729-16.078-1.159-1.159-35.614 2.717-50.86 5.7214-2.8359 0.55887-11.906 1.8349-20.156 2.8356-24.73 2.9997-37.139 4.7478-44.062 6.2075-3.6094 0.76094-11.625 1.9823-17.812 2.7141-16.497 1.9512-17.83 2.4609-19.047 7.2822-1.3202 5.2314-2.1662 20.195-1.1764 20.807 1.0986 0.67895 1.9395-4.2949 1.9545-11.56 0.0219-10.636 2.7007-14.207 7.0346-9.378 3.4681 3.8641 7.9326 5.8121 9.721 4.2416 1.6344-1.4353 2.3174-1.5668 19.616-3.7771 6.3471-0.81098 11.859-1.6716 12.249-1.9125 0.62658-0.38725 17.241-3.29 42.774-7.4732 23.214-3.8032 40.404-5.7014 42.913-4.7384 2.6618 1.0214 1.8404 3.1123-1.4286 3.6364-3.8894 0.62352-25.957 3.262-32.109 3.8391-2.5781 0.24184-8.0625 1.0847-12.188 1.8729-4.125 0.78827-10.453 1.8054-14.062 2.2602-11.827 1.4904-21.489 2.9621-25.781 3.9272-6.4672 1.4541-12.717 2.4854-22.834 3.7684-5.8149 0.73735-9.4145 1.6248-9.7097 2.394-0.27437 0.71499-1.9836 1.2222-4.1187 1.2222-3.4302 0-3.6497 0.16913-3.6497 2.8125 0 2.1188 0.43088 2.8125 1.7471 2.8125 2.2387 0 3.1236 11.27 3.1285 39.844 0.003 15.361 0.20801 18.723 0.93453 15.3 1.02-4.8058 3.2962-6.723 3.9348-3.3142 2.4661 13.164 2.6445 15.799 2.0031 29.595-0.7 15.41-1.29 17.94-4.21 17.94-2.8811 0-2.8951 0.18098-2.9507 38.164l-0.0533 36.367 2.1939-0.21361c17.917-1.7445 27.485-3.3626 68.756-11.628 5.1562-1.0326 12.75-2.513 16.875-3.2897 14.724-2.7725 15.983-3.0282 19.688-3.9984 2.0625-0.54017 5.4978-0.99218 7.6341-1.0045 4.4308-0.0255 5.0222-0.86125 5.0222-7.0973 0-5.5461-1.2661-6.0761-16.087-6.7353-12.749-0.567-14.85-1.2795-14.85-5.0361 0-2.6008 2.5699-3.2637 5.6345-1.4534 2.1776 1.2864 4.2472 1.4436 12.421 0.94343 15.759-0.96419 15.621-1.0762 16.319 13.263 0.5282 10.844-0.52946 13.777-4.2499 11.786-1.1388-0.60947-2.9422-0.83149-4.0075-0.49337s-4.108 0.9617-6.7614 1.3857c-2.6535 0.42403-11.996 2.0826-20.762 3.6857-8.7656 1.6031-18.643 3.3312-21.949 3.8402-3.3065 0.50903-7.4252 1.799-9.1526 2.8666-2.9877 1.8465-15.7 5.4226-24.593 6.9182-2.2726 0.3822-5.4367 1.2629-7.0312 1.9571l-2.8992 1.2622 3.8192 0.0367c2.1006 0.0202 7.7959-0.59982 12.656-1.3778zm23.109-33.507c-0.85519-0.64453-2.1666-2.657-2.9143-4.4722-2.6036-6.3208-8.396-9.356-17.855-9.356-14.01 0-25.532-8.247-27.343-19.571-0.3369-2.1069-1.1927-4.3122-1.9018-4.9007-1.9646-1.6304-1.5535-4.82 1.2711-9.863 3.7967-6.7784 4.3154-33.41 0.73365-37.666-3.3796-4.0165-3.8484-7.1544-1.5126-10.124 1.2307-1.5645 1.9685-3.8646 1.9685-6.1363 0-11.085 5.8962-15.768 22.207-17.637 10.613-1.2158 15.913-3.9585 19.523-10.102 3.0024-5.1103 9.077-7.1119 13.582-4.4753 9.5223 5.5725 12.082 6.3191 19.52 5.6922 14.082-1.187 19.259 0.0509 20.475 4.8959 0.86584 3.4498-0.44597 3.6571-5.4527 0.86175l-4.6821-2.6141-9.2188 1.1505c-10.352 1.2919-14.08 0.65724-20.088-3.4199-4.1838-2.8392-5.1566-2.4666-10.926 4.1851-4.8844 5.6314-10.457 8.0618-21.297 9.2883-15.695 1.7758-17.868 6.4158-16.082 34.342 0.0989 1.5469 0.054 13.641-0.0997 26.875-0.36229 31.185-1.1974 29.785 20.368 34.152 14.805 2.9981 16.283 3.756 20 10.253 1.6423 2.8704 3.4704 5.0639 4.0625 4.8744 1.351-0.43241 6.1814-9.0688 6.2109-11.105 0.0299-2.067 4.5715-6.456 6.6806-6.456 1.4794 0 1.2055 0.93556-1.9897 6.7969-2.0378 3.7383-3.7111 7.5676-3.7183 8.5096-0.0355 4.619-7.9177 8.7383-11.522 6.0216zm4.875-16.014c-1.3284-0.60265-3.7666-2.2391-5.4182-3.6366-3.2261-2.7296-4.6756-3.1052-17.187-4.453-18.804-2.0258-20.729-8.905-17.067-60.975 0.34458-4.8984 0.54582-10.93 0.44721-13.403-0.28712-7.2008 3.6233-10.492 13.524-11.384 12.826-1.1548 15.353-2.0818 21.218-7.7827l5.2904-5.1419 3.6159 1.1655c1.9888 0.64101 4.1527 1.5919 4.8088 2.113 2.2424 1.7812 9.6007 2.2388 18.963 1.1791 6.0235-0.68171 6.137-0.65195 9.8438 2.5811l3.75 3.2708v36.007c0 43.652 0.5816 42.031-16.611 46.305-3.2389 0.80518-7.2036 1.8009-8.8106 2.2128-6.4278 1.6474-9.2623 4.248-11.567 10.612-1.0294 2.8425-1.3016 2.9179-4.8015 1.3301zm2.3141-7.9028c1.7903-3.9701 5.7491-7.0245 12.354-9.5318 4.0778-1.5479 14.431-11.18 14.457-13.449 0.005-0.39915 1.4848-2.8723 3.2895-5.4958 2.4437-3.5525 3.2839-5.7603 3.2916-8.6493 0.006-2.1336 0.27181-5.4612 0.59141-7.3948 0.8635-5.2242-1.8542-4.6417-5.4681 1.1719-1.6026 2.5781-3.2443 4.6875-3.6481 4.6875s-0.98862 0.80167-1.2996 1.7815c-0.31098 0.9798-2.2378 4.369-4.2819 7.5316s-3.7165 6.3033-3.7165 6.9795c0 2.1325-3.6373 4.8201-4.8636 3.5938-0.80074-0.80074-0.20652-2.4671 2.3659-6.6348 1.949-3.1576 3.4352-6.7786 3.4352-8.3694 0-2.2035 0.49822-2.929 2.3267-3.3879 1.3282-0.33336 2.9948-1.8857 3.8836-3.6173 2.2769-4.436 9.5612-15.476 10.659-16.155 0.51889-0.32069 0.94345-3.3597 0.94345-6.7534v-6.1704l-3.2722 4.1163c-1.7997 2.264-3.2762 4.4814-3.2812 4.9277-0.005 0.44627-1.8451 3.6103-4.0891 7.0312-5.3269 8.1207-12.248 21.87-13.984 27.782-1.6689 5.6824-5.1321 7.5722-4.0339 2.2012 0.35295-1.7263 0.88237-4.8262 1.1765-6.8887 0.29411-2.0625 1.2987-4.7228 2.2324-5.9117 2.6815-3.4145 5.741-10.29 5.39-12.113-0.57734-2.9978-2.9196-1.7499-6.5542 3.492-4.8296 6.9654-7.1105 7.2799-4.583 0.63205 1.0464-2.7521 0.30657-6.2554-1.321-6.2554-1.6199 0-9.5554 15.585-11.252 22.098-1.612 6.1887-1.7837 6.4512-3.7316 5.7037-2.2151-0.85001-1.744-5.5392 0.95616-9.5181 3.7578-5.5375 5.3907-10.436 4.8421-14.526-0.568-4.2348 0.56499-6.0907 4.2394-6.9445 1.418-0.32948 2.5781-0.93406 2.5781-1.3435s1.6875-3.5424 3.75-6.962c5.4189-8.9847 4.9037-14.12-0.64116-6.3898-1.452 2.0243-5.2419 6.8889-8.422 10.81-4.0178 4.9544-5.9717 8.2531-6.4039 10.812-0.39901 2.3617-1.2296 3.8747-2.3165 4.2197-3.8448 1.2203-8.95 11.92-6.1925 12.978 1.8456 0.70823 1.9801 6.1399 0.21196 8.558-1.821 2.4904-3.4235 0.97137-3.4235-3.2453 0-2.0016-0.42342-3.901-0.94094-4.2209-1.0639-0.65755-0.40873-4.2098 1.5772-8.5507 0.81843-1.789 1.2287-5.071 1.0547-8.4375l-0.28471-5.5097-4.2188 6.5625c-2.3203 3.6094-4.5401 7.1953-4.9329 7.9688-0.39278 0.77344-1.5395 2.6719-2.5483 4.2188-11.37 17.434-4.9059 29.482 15.854 29.552 6.5968 0.022 13.708 2.4858 14.71 5.0962 0.87416 2.278 1.8201 1.7213 3.5343-2.0801zm-30.391-22.317c-1.1247-2.9581 0.38436-6.2809 2.654-5.8438 1.8114 0.34885 2.4693 2.7281 1.6533 5.9793-0.74742 2.9779-3.1523 2.9023-4.3072-0.13553zm26.895-2.9855c-1.4136-2.7997-1.1604-4.4911 1.0524-7.0312 2.3576-2.7064 3.6066-1.9855 3.2485 1.875-0.76878 8.2877-1.9842 9.7448-4.3009 5.1562zm34.055 8.689c3.205-5.1858 2.51-7.6179-1.1187-3.9147-4.435 4.5262-5.6013 6.1484-5.0554 7.0317 1.0096 1.6336 4.2486-0.002 6.1741-3.117zm-60.617-30.252c4-6.5742 7.772-12.68 8.3824-13.568 0.82752-1.2041 0.83927-1.8853 0.0462-2.6783-0.79303-0.79303-1.4947-0.38232-2.7588 1.6148-0.93242 1.4731-3.0975 4.1549-4.8114 5.9596-4.8042 5.0589-11.586 20.625-8.9854 20.625 0.46989 0 4.127-5.3789 8.127-11.953zm17.296-8.4375c1.5196-1.9336 3.4643-4.8867 4.3216-6.5625 0.85732-1.6758 1.959-3.0469 2.4481-3.0469 1.201 0 3.75-5.0663 3.75-7.4534 0-3.029-1.3952-2.2961-5.7111 3.0003-2.2059 2.707-4.7859 5.7656-5.7334 6.7969-3.8692 4.2112-7.2469 9.18-6.7677 9.9554 1.2477 2.0189 5.032 0.69566 7.6925-2.6898zm34.936-4.608c2.74-4.468 6.3829-10.206 8.0954-12.75 3.0399-4.5173 3.9151-7.2509 2.3214-7.2509-0.92029 0-3.7417 2.981-5.2183 5.5135-0.5614 0.96285-2.699 4.2295-4.7502 7.2592-4.4785 6.6149-6.1143 10.124-6.1143 13.116 0 3.2388 0.19108 3.0402 5.666-5.8876zm-53.551 0.0315c2.0794-2.9038 3.5336-5.6795 3.2316-6.1681-0.81916-1.3254-5.5048 3.948-6.7558 7.6033-1.8899 5.5219-1.2796 5.2733 3.5243-1.4352zm44.939-1.3062c4.2474-6.3605 5.3078-8.9401 4.0061-9.7446-1.62-1.0012-3.3746 0.36152-6.185 4.8038-1.527 2.4136-3.5056 5.0128-4.3969 5.776-1.2089 1.0351-1.3878 1.8228-0.70402 3.1004 1.557 2.9093 3.3599 1.9346 7.2798-3.9355zm-47.445-4.513c3.739-5.8042 4.084-6.7137 2.5465-6.7137-0.53301 0-1.8136 1.4313-2.8457 3.1806s-2.7054 3.3973-3.7184 3.6622c-2.4059 0.62917-2.4458 5.3725-0.0449 5.3365 0.30078-0.005 2.1289-2.464 4.0625-5.4656zm58.242-11.702c1.8695-1.7124 3.3991-3.5454 3.3991-4.0734s0.84375-1.7236 1.875-2.6569c1.8861-1.7069 2.5877-5.1562 1.0487-5.1562-1.2342 0-6.5679 5.6091-9.1199 9.5908-3.9284 6.1291-2.5886 7.2288 2.7971 2.2958zm-3.3978-8.8823c3.0685-3.1304 2.5823-4.1575-0.97466-2.0589-3.5933 2.1201-9.4318 9.9525-8.5193 11.429 0.3698 0.59837 2.0051-0.66884 4.0048-3.1033 1.8589-2.263 4.329-5.083 5.4892-6.2666zm-12.898 4.0344c3.2327-3.2734 4.7577-5.474 4.1867-6.0416-1.0984-1.092-12.019 8.945-11.191 10.285 0.9576 1.5494 1.7674 1.0588 7.0039-4.2436zm-10.401-2.213c-1.2914-0.44918-4.6771 2.7156-4.0283 3.7654 0.2857 0.46229 1.5228-0.12144 2.7491-1.2972 1.2263-1.1757 1.8019-2.2864 1.2792-2.4683zm22.112 84.213c-0.91872-1.4865-0.79151-1.5457 8.8963-4.1383 13.737-3.6762 17.106-20.887 13.906-71.027-1.055-16.529-0.58755-20.663 2.1456-18.974 1.6572 1.0242 1.5431 75.915-0.12514 82.111-1.4097 5.2353-6.0324 8.7005-14.146 10.604-3.8012 0.8918-7.614 1.8108-8.4729 2.0421-0.85895 0.23138-1.8504-0.0464-2.2032-0.61732zm-70.76-116.2c-2.2649-1.4511 0.0982-4.1954 3.8446-4.4647 3.7252-0.26782 20.787-2.7634 27.562-4.0315 2.5781-0.48253 7.8516-1.3073 11.719-1.8329 3.8672-0.52554 10.406-1.5689 14.531-2.3185 34.604-6.2883 49.945-7.8301 48.976-4.922-0.38446 1.1534-2.0447 1.4798-17.57 3.4549-4.8984 0.62317-11.438 1.699-14.531 2.3907-3.0938 0.69172-9.4219 1.7499-14.062 2.3515-4.6406 0.60162-11.812 1.6775-15.938 2.3908-25.736 4.4506-30.513 5.2646-35.156 5.9908-2.8359 0.44355-5.7891 1.0506-6.5625 1.3491-0.77344 0.29844-2.0391 0.13718-2.8125-0.35835zm-381.56 170.25c0-0.7103-0.63281-1.8166-1.4062-2.4585-1.9696-1.6346-1.751-3.8354 0.4377-4.4077 2.484-0.64958 2.8405-2.2026 2.6467-11.53-0.18475-8.8941 1.0604-12.635 3.9051-11.732 3.2165 1.0209 6.7015-5.6884 3.8653-7.4413-1.0559-0.65256-1.9158-8.9007-2.3245-22.296-0.19168-6.2824-0.75019-10.597-1.4866-11.484-1.5621-1.8822-4.3904-1.8081-5.4826 0.14356-0.76599 1.3688-1.2448 1.412-3.8205 0.3451-2.5404-1.0523-3.1769-1.0097-4.6353 0.31013-2.1023 1.9026-2.9491 1.9381-2.9491 0.12365 0-0.77344 0.68447-1.4062 1.521-1.4062 1.2458 0 1.3098-0.25452 0.35396-1.4062-1.2232-1.4738-7.0511-2.0179-6.1594-0.57498 0.28257 0.4572-0.10942 1.3485-0.87108 1.9806-1.121 0.93036-1.5023 0.84326-2.0013-0.45714-0.34756-0.90573-0.0956-1.9284 0.57776-2.3445 1.3746-0.84955 0.48072-2.8227-1.2788-2.8227-0.65153 0-5.1284-1.9195-9.9486-4.2656-10.637-5.1772-13.6-5.2691-13.6-0.42194v3.2812l4.2188-0.21902c3.6214-0.18801 3.9285-0.0719 2.1691 0.81972-3.2377 1.6409-3.6933 19.385-0.52851 20.584 2.6145 0.99121 2.7505 3.2723 0.23438 3.9302-2.4629 0.64406-2.7893 10.927-0.40951 12.903 1.329 1.103 1.329 1.2926 0 2.0364-1.0813 0.6051-1.4682 2.3442-1.4758 6.6329-0.0161 9.1029-0.84051 12.481-3.3771 13.838-2.6284 1.4067-2.925 3.5318-0.59694 4.2775 0.90234 0.28901 4.1719 1.6259 7.2656 2.9708 19.028 8.2718 35.156 13.36 35.156 11.091zm-9.375-7.6148c0-0.77344 0.63281-1.4062 1.4062-1.4062 0.77344 0 1.4062 0.63281 1.4062 1.4062 0 0.77344-0.63281 1.4062-1.4062 1.4062-0.77344 0-1.4062-0.63281-1.4062-1.4062zm-7.5-2.8906c0-1.6556 2.0182-1.3672 2.5976 0.37109 0.20411 0.6123-0.29687 1.1133-1.1133 1.1133-0.8164 0-1.4844-0.66797-1.4844-1.4844zm-6.0537-0.32585c-0.69333-1.1218 1.0703-2.2333 2.319-1.4616 1.0485 0.64798 0.36016 2.3343-0.95279 2.3343-0.45476 0-1.0696-0.39273-1.3662-0.87272zm-13.075-5.5433c-0.32443-0.52493-0.13304-1.2368 0.4253-1.5818 1.4414-0.89082 2.3714 0.32939 1.1681 1.5327-0.6733 0.6733-1.1977 0.68947-1.5934 0.0491zm4.1282-7.1777c0-0.77344 0.63281-1.4062 1.4062-1.4062 0.77344 0 1.4062 0.63281 1.4062 1.4062 0 0.77344-0.63281 1.4062-1.4062 1.4062-0.77344 0-1.4062-0.63281-1.4062-1.4062zm3.0274-3.457c0.57944-1.7383 2.5976-2.0266 2.5976-0.37109 0 0.8164-0.66797 1.4844-1.4844 1.4844-0.81641 0-1.3174-0.50098-1.1133-1.1133zm16.162-2.6838c-0.89082-1.4414 0.32939-2.3714 1.5327-1.1681 0.6733 0.6733 0.68947 1.1977 0.0491 1.5934-0.52493 0.32443-1.2367 0.13304-1.5818-0.4253zm-24.229-0.70081c-0.74124-1.1993 0.97823-3.3049 2.1218-2.5981 1.5051 0.93019 1.2822 3.346-0.30861 3.346-0.74301 0-1.5589-0.33655-1.8131-0.74789zm19.57-2.4194c-1.7637-1.304-1.7752-1.4249-0.19394-2.0378 2.0249-0.7848 2.8133-0.1579 2.3862 1.8975-0.28294 1.3615-0.52003 1.3767-2.1922 0.14032zm-7.36-1.21c-1.1418-1.1418-0.64601-3.125 0.78125-3.125 0.78125 0 1.4062 0.83333 1.4062 1.875 0 1.8677-0.99894 2.4386-2.1875 1.25zm14.141-2.8541c-2.6906-1.0783-3.5156-1.9354-3.5156-3.6524 0-2.5747 0.66837-2.742 3.2261-0.80742 1.0009 0.75704 2.5829 1.3764 3.5156 1.3764 1.0536 0 1.6958 0.68909 1.6958 1.8197 0 2.6116-0.95013 2.8555-4.9219 1.2638zm-19.889-3.0308c-0.76879-1.2439 1.1598-5.6776 2.4696-5.6776 1.2175 0 0.91427 3.2068-0.48407 5.1191-0.94699 1.2951-1.444 1.4349-1.9856 0.55854zm9.502-1.3813c-0.28042-0.73077 0.0551-1.5454 0.74554-1.8104 1.4784-0.56733 2.3762 0.14641 2.3762 1.8891 0 1.6671-2.4758 1.6047-3.1218-0.0786zm21.686-5.937c-0.3414-13.356-0.43033-14.75-1.1361-17.812-0.86078-3.7352 1.7784-4.4338 3.1474-0.83316 0.66853 1.7584 1.4258 19.346 1.0653 24.739-0.35686 5.338-2.9138 0.27342-3.0766-6.0938zm-10.555 2.6429c-0.69333-1.1218 1.0703-2.2333 2.319-1.4616 1.0485 0.64798 0.36016 2.3343-0.95279 2.3343-0.45476 0-1.0696-0.39273-1.3662-0.87272zm-24.679-3.0221c0.48659-1.4598 2.584-1.7154 2.6575-0.32391 0.0273 0.51562-0.65416 1.0833-1.5142 1.2614-0.97754 0.20249-1.4061-0.14895-1.1433-0.9375zm21.798-6.4647c-0.89082-1.4414 0.32939-2.3714 1.5327-1.1681 0.6733 0.6733 0.68947 1.1977 0.0491 1.5934-0.52493 0.32442-1.2367 0.13303-1.5818-0.42531zm-6.0646-4.6404c0-0.51563 0.65771-0.9375 1.4616-0.9375 0.80387 0 1.2008 0.42187 0.88217 0.9375-0.31868 0.51562-0.97639 0.9375-1.4616 0.9375-0.4852 0-0.88217-0.42188-0.88217-0.9375zm-8.0812-1.3614c-0.64628-1.6842 0.4013-3.548 1.5835-2.8174 1.188 0.73419 1.1103 4.1787-0.0942 4.1787-0.53181 0-1.202-0.61261-1.4893-1.3614zm-6.45-1.46c-0.31868-0.51563 0.0783-0.9375 0.88217-0.9375s1.4616 0.42187 1.4616 0.9375c0 0.51562-0.39698 0.9375-0.88217 0.9375s-1.1429-0.42188-1.4616-0.9375zm24.221-0.53177c-0.3101-0.8081-0.15646-1.8766 0.34141-2.3745 1.3462-1.3462 4.0312 0.032 4.0312 2.069 0 2.1971-3.5516 2.4452-4.3727 0.30543zm-6.7009-2.0356c0.47063-2.4438 3.5736-2.7164 3.5736-0.31388 0 1.3416-0.60209 1.9437-1.9437 1.9437s-1.8465-0.50486-1.6299-1.6299zm-7.6764-2.5889c0-0.77344 0.63281-1.4062 1.4062-1.4062 0.77344 0 1.4062 0.63281 1.4062 1.4062 0 0.77344-0.63281 1.4062-1.4062 1.4062-0.77344 0-1.4062-0.63281-1.4062-1.4062zm-1.308-7.5821c-0.8-2.09-0.74-2.26 0.84-2.26 0.77344 0 1.4062 0.60791 1.4062 1.3509 0 1.9834-1.5869 2.627-2.2455 0.91077zm49.888 43.207c-0.49052-1.4183-0.67869-1.0758-0.77252 1.4062-0.51776 13.695-0.53255 18.768-0.0642 22.031 0.3291 2.2931 0.72217-1.1671 1.0117-8.9062 0.26044-6.9609 0.18172-13.5-0.17495-14.531zm301.58 21.094c0.31867-0.51563-0.0783-0.9375-0.88217-0.9375s-1.4616 0.42187-1.4616 0.9375c0 0.51562 0.39697 0.9375 0.88217 0.9375 0.48519 0 1.1429-0.42188 1.4616-0.9375zm14.297-0.70313c0.24497-0.73577-0.51109-1.1719-2.0317-1.1719-2.3661 0-3.0828 0.90162-1.7645 2.2199 0.96447 0.96448 3.3449 0.3073 3.7962-1.048zm-390.63-12.17c-0.76365-1.3116-0.97056-0.76156-0.99313 2.6401-0.0157 2.3633 0.2879 4.6181 0.67462 5.0107 1.106 1.1229 1.3944-5.803 0.31851-7.6508zm375.14-9.2576c-0.30004-2.6116 0.0521-4.6055 1.0942-6.196 1.4922-2.2775 1.2132-5.4219-0.4812-5.4219-0.46046 0-0.84366-1.1602-0.85155-2.5781-0.0137-2.4528-1.7295-6.4218-1.9251-4.4531-0.38249 3.8492 0.34419 32.964 0.84174 33.725 0.85488 1.308 1.8718-10.29 1.3219-15.076zm3.8877 7.8352c-0.81946-10.231-1.2994-10.375-1.2994-0.39062 0 4.9155 0.37899 8.125 0.95944 8.125 0.62677 0 0.74463-2.6817 0.33994-7.7344zm-371.71-6.1491c-0.0654-5.0436-0.319-6.506-0.84405-4.8665-1.1216 3.5021-1.1216 13.349 0 12.656 0.51563-0.31867 0.89544-3.824 0.84405-7.7897zm-113.17 3.4389c0.86844-0.44299 2.9017-0.80545 4.5183-0.80545 2.512 0 2.8958-0.30669 2.6398-2.1094-0.52939-3.7275-16.706-1.7256-16.706 2.0674 0 2.7753 4.9134 3.2114 9.5477 0.84744zm176.75-39.48c0.11154-21.785 0.24173-43.557 0.28932-48.382 0.10743-10.895-0.5909-12.059-1.3869-2.3122-0.32947 4.0344-1.0446 11.554-1.5892 16.71-0.54459 5.1562-0.94803 10.43-0.89655 11.719 0.0515 1.2891 0.20033 15.211 0.33079 30.938 0.21815 26.297 0.57856 30.939 2.4019 30.937 0.35628-0.00034 0.73906-17.825 0.85059-39.609zm-73.365 18.06c0.38756-5.543 1.2964-11.009 2.0835-12.531 0.76783-1.4848 1.2013-3.4443 0.96332-4.3545-0.238-0.91012-0.0539-6.4507 0.40918-12.312 0.72811-9.217 1.046-18.374 0.85371-24.594-0.0861-2.7831-5.3286-2.0097-38.023 5.6095-22.917 5.3407-24.405 6.0563-11.557 5.5576 9.3134-0.36153 15.823-1.7573 20.81-4.4618 1.9969-1.0831 5.2088-1.8104 16.38-3.7089 12.292-2.0892 10.719 5.4079-3.0721 14.642-1.7756 1.1888-1.7603 1.3412 0.70312 7.0214 2.2436 5.1734 2.5181 6.9664 2.5181 16.449 0 5.8535 0.25514 11.308 0.56698 12.12 1.1638 3.0328 2.2459 0.23804 2.2583-5.8326 0.0141-6.8784 0.69301-10.492 1.9715-10.492 0.45549 0 0.8549 6.8555 0.88759 15.234 0.0648 16.615 1.1457 17.409 2.2474 1.6527zm77.127 3.9932c-0.20295-1.9451-0.3724-0.58341-0.37656 3.026-0.004 3.6094 0.16189 5.2008 0.36899 3.5365s0.21051-4.6174 0.007-6.5625zm-67.398-6.5834c-0.13637-11.596-0.21821-12.185-0.81497-5.8594-1.0267 10.882-1.0145 18.75 0.0291 18.75 0.58689 0 0.88081-4.8208 0.78592-12.891zm551.94 2.1627c0.78223-3.1167-0.13918-4.272-3.407-4.272-2.252 0-2.7572 0.39503-2.7572 2.1562 0 4.449 5.1361 6.212 6.1642 2.1158zm-484.39-16.46c-0.38882-1.3522-0.64758 1.226-0.61159 6.0938 0.062 8.3777 0.0667 8.3943 0.67397 2.3438 0.33637-3.3516 0.3083-7.1484-0.0624-8.4375zm303.79 10.492c-0.139-5.322-1.6748-6.4634-1.7432-1.2956-0.041 3.0944 0.28875 4.758 0.8716 4.3978 0.51562-0.31867 0.90785-1.7147 0.8716-3.1022zm-314.47-40.96c-0.0791-4.125-0.28318-10.242-0.45342-13.594l-0.30951-6.0938-0.8387 6.5625c-0.46128 3.6094-0.92225 8.8828-1.0244 11.719-0.57081 15.852-2.9982 5.0405-2.9982-13.354 0-24.323-1.4947-24.906-3.02-1.1774-0.62975 9.7969-1.2381 18.867-1.3519 20.156-0.79735 9.0312 1.9719 15.99 3.4512 8.6719 2.2386-11.074 3.7316-8.7968 3.534 5.3906-0.0897 6.4453 0.11449 12.562 0.4539 13.594 0.78963 2.3992 2.7466-21.996 2.5571-31.875zm-16.41 20.16c0-0.51563-0.5307-0.9375-1.1793-0.9375-0.64863 0-3.0744-1.0002-5.3906-2.2226-2.3162-1.2225-5.266-2.5201-6.555-2.8838-2.0309-0.57287-6.7516-2.6096-12.409-5.3539-0.89535-0.43432-2.1375-0.78966-2.7603-0.78966-1.7933 0 5.0686 4.7126 7.6694 5.2672 1.2891 0.27488 4.4531 1.457 7.0312 2.6268 2.5781 1.1699 6.1641 2.7985 7.9688 3.619 3.8656 1.7577 5.625 1.9686 5.625 0.67441zm-118.72-2.5c8.3462-1.9441 9.2608-2.6882 6.2279-5.0676-4.2399-3.3263-19.688-1.0792-19.688 2.8639 0 3.8667 3.7115 4.4744 13.46 2.2038zm121.74-17.94c-0.14453-6.5469 0.20863-16.333 0.78478-21.747 1.1123-10.452 0.39259-15-2.3738-15-1.6152 0-1.5518-0.9346-1.8764 27.656-0.21588 19.02 0.40522 24.325 2.5911 22.134 0.80112-0.80305 1.0594-4.6564 0.87428-13.043zm25.03 4.5c0.0356-4.2092-0.22514-5.6588-0.84308-4.6875-0.49204 0.77344-0.84207 4.3524-0.77783 7.9533 0.14678 8.2279 1.5476 5.4056 1.6209-3.2658zm-32.841-9.1406c-0.10169-8.1211 0.13569-18.791 0.52749-23.711 0.68186-8.5623-0.54473-13.272-2.8548-10.962-0.84575 0.84574-1.0916 45.135-0.26295 47.375 2.0032 5.4151 2.77 1.6548 2.5902-12.702zm-117.89 12.14c-1.2196-0.19185-2.604 0.0377-3.0763 0.51-0.5201 0.5201 0.35448 0.65768 2.2175 0.34883 2.6034-0.43159 2.7354-0.56363 0.85883-0.85883zm92.239-0.15536c-0.49361-0.7987-6.3668-2.8282-8.2246-2.842-1.5724-0.0117-0.56037 1.9876 1.4062 2.7781 2.8487 1.145 7.5135 1.1888 6.8183 0.0639zm18.875-23.713c0.43613-23.957-0.0219-27.852-2.9321-24.942-1.0579 1.0579-2.0284 46.9-1.0272 48.519 2.8566 4.622 3.5175 0.6862 3.9592-23.577zm-97.178 21.623c1.8127-1.1138-5.5258 0.0248-7.5 1.1636-0.86449 0.4987 0.03844 0.59725 2.3438 0.25582 2.0625-0.30547 4.3828-0.94421 5.1562-1.4194zm89.744-22.858c0.2592-24.248-0.0952-27.434-2.9308-26.346-1.7469 0.67035-1.8286 2.2668-1.5671 30.614 0.17445 18.909 0.54991 21.205 3.3241 20.326 0.55389-0.1754 1.0164-9.8667 1.1739-24.594zm-8.1817-3.5794c0-25.618-0.0374-25.882-3.6751-25.882-1.0709 0-0.0112 48.08 1.09 49.453 2.2557 2.8131 2.5851-0.19053 2.5851-23.572zm-6.36 18.19c-0.14546-1.8047-0.44755-9.8203-0.67129-17.812-0.6523-23.299-1.2293-28.125-3.363-28.125-1.0653 0-1.8155 0.66691-1.8454 1.6406-0.0277 0.90235-0.007 10.568 0.047 21.478 0.0636 12.947-0.24458 20.049-0.88712 20.446-3.0321 1.874 0.81684 6.2757 5.1093 5.843 1.54-0.15524 1.8278-0.77519 1.6105-3.4702zm364.19-0.70313c-0.23581-0.90234-0.42875-0.16406-0.42875 1.6406s0.19294 2.543 0.42875 1.6406c0.2358-0.90234 0.2358-2.3789 0-3.2812zm-404.19-3.44c1.7166-1.2542 1.8367-2.8742 2.1184-28.568l0.29855-27.239-3.111-1.9165c-7.0422-4.3382-6.8921-4.9519-6.6116 27.034 0.28638 32.66 0.92686 35.351 7.3057 30.69zm404.39-6.5923c-0.51232-0.53728-0.80648 0.95049-0.74144 3.75l0.10781 4.6406 0.74145-3.75c0.4163-2.1056 0.36902-4.1406-0.10782-4.6406zm-375.75 3.0809c3.3789 2.1102 3.818-38.515 0.45271-41.88-3.9302-3.9302-4.6338-1.0709-4.0063 16.28 0.38669 10.692 0.2668 16.379-0.34529 16.379-2.0779 0-2.8606-5.697-2.6885-19.567 0.16074-12.949 0.002-14.619-1.4933-15.712-2.9861-2.1835-3.2379-0.55341-3.2329 20.927 0.003 11.651-0.22288 21.411-0.50142 21.69-2.3142 2.3142-4.7874-17.749-3.1367-25.446 2.2783-10.623-0.786-24.079-5.4836-24.079-1.5552 0-1.8273 51.528-0.28032 53.075 0.64117 0.64117 3.8651 0.34081 9.9251-0.92468 7.2021-1.504 9.3341-1.6504 10.79-0.7409zm381.47-0.26c0-0.74301-0.42188-1.6116-0.9375-1.9303-0.51562-0.31868-0.9375 0.28924-0.9375 1.3509s0.42188 1.9303 0.9375 1.9303 0.9375-0.60791 0.9375-1.3509zm-319.71-13.83c0.008-0.87192-0.40753-1.846-0.92315-2.1647-0.56313-0.34804-0.93177 0.84657-0.92315 2.9915 0.0107 2.6508 0.24853 3.2086 0.92315 2.1647 0.49984-0.77344 0.91525-2.1196 0.92315-2.9915zm326.27-10.14c0-0.97039-0.42188-2.0251-0.9375-2.3438-0.54844-0.33895-0.9375 0.6337-0.9375 2.3438 0 1.71 0.38906 2.6827 0.9375 2.3438 0.51562-0.31868 0.9375-1.3734 0.9375-2.3438zm-12.462-5.8484c-0.22424-1.1662-0.41624-0.43281-0.42664 1.6297s0.17307 3.0166 0.40772 2.1203c0.23464-0.89634 0.24316-2.5838 0.0189-3.75zm-306.94 0.17566c-1.964-0.95821-12.43-4.7397-23.258-8.4034-10.828-3.6636-26.438-8.9453-34.688-11.737-15.677-5.3048-29.841-10.189-39.375-13.579-3.0938-1.0997-6.4688-2.1624-7.5-2.3615s-3.0902-0.64891-4.5755-0.99958c-2.0746-0.48982-2.6008-0.33525-2.2703 0.66696 0.23659 0.71751 1.4209 1.4491 2.6317 1.6258 1.2109 0.17671 3.0763 0.89029 4.1453 1.5857 1.0691 0.69544 5.7406 2.5366 10.381 4.0914 4.6406 1.5548 12.656 4.3432 17.812 6.1964 5.1562 1.8532 10.852 3.7081 12.656 4.122 1.8047 0.41394 6.6562 2.0328 10.781 3.5974 4.125 1.5646 9.8203 3.5493 12.656 4.4104 2.8359 0.86112 6.2109 2.3184 7.5 3.2384 1.2891 0.92003 3.6623 1.7095 5.2738 1.7545 1.6115 0.0449 7.7264 1.6934 13.589 3.6633 5.8622 1.9699 12.268 3.6465 14.235 3.7257l3.576 0.14408-3.5708-1.7422zm24.007 0.39641c0.21-0.19-1.79-0.35-4.46-0.35-2.7906 0-4.8438 0.42173-4.8438 0.99494 0 0.90283 8.1998 0.33278 9.2969-0.64631zm17.205-1.9011c-0.63472-0.2568-1.9004-0.27243-2.8125-0.0348-0.91216 0.2377-0.39285 0.44781 1.154 0.46692 1.5469 0.0191 2.2932-0.17537 1.6585-0.43218zm9.1228-5.534c11.086-0.85874 24.164-1.7353 29.062-1.9479 19.647-0.8527 57.342-3.1166 67.5-4.054 10.016-0.92424 47.298-3.4646 62.344-4.248 32.629-1.6989 35.924-2.3288 25.236-4.8242-2.5361-0.59212-9.8845-2.6421-16.33-4.5554-6.4453-1.9134-16.359-4.7117-22.031-6.2185-5.6719-1.5068-12.279-3.4313-14.682-4.2767l-4.37-1.537-2.8957 2.8957c-1.5926 1.5926-2.8957 3.5745-2.8957 4.4042 0 6.5405-4.7833 9.8692-14.198 9.8805-2.3949 0.003-7.0355 0.82558-10.312 1.8282-21.785 6.6654-85.047 5.6729-92.166-1.446-4.9395-4.9395 7.0584-10.791 14.237-6.9434 4.3674 2.3408 4.9396 2.3422 4.9396 0.0118 0-1.0269 0.84375-2.394 1.875-3.038 4.3095-2.6913 0.98603-5.5128-3.6622-3.1091-14.844 7.6761-78.039 0.4579-78.65-8.9835l-0.28119-4.3414-6.2813 0.39177c-3.4547 0.21547-8.6016 0.67595-11.438 1.0233-2.8359 0.34733-5.7891 0.53573-6.5625 0.41865-0.77344-0.11709-6.6797 0.21249-13.125 0.73238-6.4453 0.5199-17.625 1.147-24.844 1.3935-17.672 0.60355-33.666 1.5342-34.128 1.9859-0.79705 0.77775 11.512 5.6102 32.253 12.663 11.859 4.0324 24.516 8.446 28.125 9.808 3.6094 1.362 11.836 4.0851 18.281 6.0512 6.4453 1.9662 14.672 4.6596 18.281 5.9856 7.7311 2.84 20.552 2.8513 56.719 0.0497zm97.734-1.0752c-1.1602-0.22346-3.0586-0.22346-4.2188 0-1.1602 0.22345-0.21093 0.40628 2.1094 0.40628s3.2695-0.18283 2.1094-0.40628zm57.651-2.8564c0.64157-0.23562 0.92882-0.81297 0.63835-1.283-0.29049-0.47001-1.008-0.55799-1.5945-0.19553-0.58649 0.36247-3.8269 0.95512-7.2008 1.317l-6.1345 0.65798 6.5625-0.034c3.6094-0.0188 7.0874-0.22683 7.729-0.46246zm122.13-5.1538c0.008-0.64453 0.26718-2.1211 0.5781-3.2812 0.41558-1.5507 0.16391-2.1094-0.95031-2.1094-1.1071 0-1.5156 0.88437-1.5156 3.2812 0 1.8047 0.42187 3.2812 0.9375 3.2812 0.51562 0 0.94326-0.52734 0.9503-1.1719zm-69.367-4.8971c-1.2273-1.4788-12.595-5.7316-18.771-7.0224-5.086-1.063-21.849-5.6492-32.812-8.9773-4.3828-1.3304-15.562-4.4679-24.844-6.9722-9.2812-2.5043-21.305-5.8513-26.719-7.4379-10.365-3.0375-13.125-3.4612-13.125-2.0153 0 0.48453 3.6914 1.9888 8.2031 3.3429s10.102 3.099 12.422 3.8777c2.3203 0.77865 5.9062 1.7576 7.9688 2.1754 6.2888 1.274 19.231 4.7467 22.841 6.1288 1.875 0.71791 8.4716 2.6322 14.659 4.254 27.25 7.1425 48.066 14.309 49.938 17.193 0.41443 0.63817 0.80556 0.20152 0.99179-1.1072 0.16913-1.1886-0.1699-2.7362-0.75338-3.4393zm230.13-2.965c1.6565-1.6565 1.1666-8.6624-0.68805-9.8397-2.7038-1.7163-5.8688 0.71482-6.7423 5.1788-1.1597 5.9273 3.3408 8.7503 7.4303 4.6608zm-346.87-0.33514c16.382-1.566 16.408-1.5732 16.392-4.5014-0.0253-4.4758-1.4566-5.6667-3.7944-3.1574l-2.0176 2.1657-2.1662-2.0351c-1.8698-1.7566-2.9145-1.9675-7.6337-1.5415-3.0071 0.27148-11.461 0.62893-18.787 0.79434-12.02 0.27141-13.452 0.48279-14.683 2.1664-1.3332 1.8237-1.3902 1.808-2.5343-0.70312-1.922-4.2182-5.5569-2.6585-5.5569 2.3844 0 3.7075-2.2565 2.8169-2.6375-1.0409-0.33521-3.3942-2.6922-4.0951-3.1566-0.93874-0.46138 3.1356-2.2544 3.0413-3.5924-0.18888-1.3552-3.2718-2.7617-2.251-2.7866 2.0225-0.0214 3.6639 1.8275 4.5948 8.7469 4.4042 3.4189-0.0942 6.3977 0.01 6.6194 0.2306 0.90392 0.90109 27.983 0.85711 37.588-0.061zm-56.719-6.513c0-1.5164-0.37391-2.9883-0.83092-3.2707-1.0252-0.6336-2.0395 2.911-1.3484 4.712 0.87749 2.2867 2.1793 1.4257 2.1793-1.4413zm78.75 0.9375c0-1.0008-0.37767-2.0531-0.83927-2.3384-1.0074-0.62263-2.2009 2.0937-1.4522 3.3051 0.92366 1.4945 2.2915 0.91741 2.2915-0.96677zm168.5-2.6335c-0.37371-1.5625-0.42641-1.5625-1.1065 0-0.39277 0.90235-0.39277 2.3789 0 3.2812 0.89879 2.0648 1.7684-0.51394 1.1065-3.2812zm-86.47-31.01c0-30.647-1.1471-41.164-2.7012-24.766-1.1029 11.637-1.3594 52.445-0.34515 54.922 2.4811 6.0601 3.0464 0.46456 3.0464-30.156zm6.3788 25.859c1.6434-19.128 0.40647-59.409-1.6284-53.028-0.77055 2.4164-1.4842 44.232-0.8788 51.492 0.74143 8.8904 1.8186 9.5505 2.5072 1.5362zm-13.708-4.1898c-0.31727-4.4958-0.15021-18.278 0.37124-30.628 0.98425-23.31 0.65383-26.199-2.7552-24.091-1.438 0.88905-2.1581 59.501-0.75835 61.721 2.4741 3.9242 3.7178 1.1527 3.1423-7.0023zm-79.61 3.8562c12.648-1.1001 9.791-2.7795-7.158-4.208-11.929-1.0054-14.041-1.617-12.757-3.6941 0.48558-0.78568 2.3158-0.95719 5.9652-0.559 6.0368 0.65871 4.8953-0.43366-2.3495-2.2485-5.7932-1.4512-7.6222-0.88933-8.3512 2.5655-1.5257 7.2298-3.5862 7.0889-4.1908-0.28658-0.65579-7.9987-1.6871-8.9558-9.2882-8.619-8.5754 0.37996-9.9206 6.979-1.7554 8.612 6.8308 1.3662 9.3843 5.2808 4.545 6.9678-3.9662 1.3826-6.6264 0.43322-6.6264-2.3648 0-2.0307-0.31061-2.2408-2.5781-1.7441-1.418 0.31066-4.7068 0.1605-7.3085-0.33368-5.5834-1.0605-27.361 0.22764-28.839 1.7059-4.3437 4.3437 47.84 7.064 80.692 4.2065zm71.845-0.13517c1.4624-4.7909 0.17608-61.172-1.3956-61.172-1.426 0-1.6384 2.5055-2.2053 26.016-0.34499 14.309-0.78964 27.249-0.98809 28.757-0.82223 6.2467 3.006 11.585 4.589 6.3993zm102.66-5.625c0.0514-1.6758-0.32843-3.0469-0.84405-3.0469-0.52714 0-0.8966 2.3596-0.84405 5.3906 0.10005 5.7715 1.4988 3.8296 1.6881-2.3438zm-266.43 3.916c2.632-0.75971 5.594-4.9721 3.8263-5.4417-13.242-3.5181-27.888-5.0093-25.725-2.6193 3.5753 3.9506 1.8387 5.7578-2.7862 2.8995l-3.1528-1.9485-0.91904 2.4173c-1.5467 4.0681-7.528 2.7756-7.528-1.6267 0-1.6115-0.4529-1.7241-4.4531-1.1075-10.01 1.5431-15.113 1.9335-16.768 1.2826-6.7875-2.6684-14.69 1.2964-8.0755 4.0516 7.1092 2.9614 57.05 4.5549 65.581 2.0925zm155.53-21.52c0.0499-12.368 0.39014-25.244 0.75625-28.614 0.73906-6.8031-0.55939-12.348-2.4491-10.458-2.9595 2.9595-2.9642 62.439-0.005 61.869 1.4615-0.28192 1.6153-2.3475 1.6977-22.797zm83.646 19.393c0.19101-1.2981-0.19733-2.0359-1.0716-2.0359-1.5443 0-2.8082 2.5078-1.9576 3.8841 0.90075 1.4574 2.7048 0.3568 3.0292-1.8482zm-90.828-15.395c0.81752-35.972 0.63783-45.234-0.87753-45.234-2.5656 0-5.2735 54.933-2.9243 59.322 2.7119 5.0672 3.4267 2.4185 3.8018-14.088zm274.24 14.062c1.8235-8.3072 2.5622-59.761 0.8579-59.764-0.71146-0.0011-1.2559 4.5323-1.6604 13.826-1.1647 26.759-1.6259 31.298-3.3565 33.029-1.5292 1.5292-1.5228 1.6737 0.12052 2.6999 2.7584 1.7227 2.1111 3.7259-1.3107 4.0559-4.032 0.38875-5.1241 5.8066-1.4662 7.2736 3.8911 1.5606 6.3144 1.1622 6.8154-1.1205zm-281.8-30.23c0.0526-28.554-0.30707-33.582-2.1848-30.544-0.29313 0.4743-0.71852 13.229-0.94532 28.344-0.25195 16.791-0.77083 27.601-1.3339 27.788-2.3801 0.79338-2.7721-4.2031-2.4338-31.022 0.33761-26.76 0.28248-27.847-1.4123-27.847-2.6477 0-2.789 2.1002-3.1945 47.473-0.11688 13.079 0.58696 14.64 7.2801 16.144 2.1275 0.47812 3.9353 0.91448 4.0174 0.9697 0.082 0.0552 0.1752-14.032 0.20702-31.306zm-122.7 25.763c3.3516-0.51571 10.207-1.1838 15.234-1.4848 9.0206-0.53989 9.1406-0.57838 9.1406-2.929v-2.382l-14.766 0.60831c-29.68 1.2228-35.555 2.2426-26.474 4.5956 1.7404 0.45097 4.032 1.4356 5.0925 2.188 1.0605 0.75241 2.7719 1.137 3.8032 0.85475 1.0312-0.2823 4.6172-0.93522 7.9688-1.4509zm108.21-1.6225c-0.41733-1.418-0.7829-15.234-0.81242-30.703-0.0544-28.517-0.88545-34.806-2.9239-22.128-1.1356 7.0633-1.2197 52.459-0.10046 54.237 1.5861 2.5199 4.6606 1.393 3.8368-1.4062zm-8.1108-26.25c-0.0563-14.824 0.17887-28.219 0.52262-29.766 0.70495-3.1723-0.62423-6.166-2.0778-4.6797-1.0825 1.1069-1.7522 58.556-0.70234 60.255 1.9861 3.2136 2.3518-0.96769 2.2575-25.81zm-5.9803-1.4296c-0.22-34.941-0.23-35.37-1.2-35.37-1.626 0-2.7997 49.643-1.4006 59.24 1.6745 11.486 2.7632 1.4992 2.6025-23.872zm-6.5422-7.0079 0.59975-31.172-2.6037-0.000284-2.6037-0.000285 0.1782 27.891c0.19934 31.199 0.81335 36.933 3.7008 34.559 0.071-0.0583 0.39888-14.133 0.72874-31.278zm-36.483 28.007c-2.6645-0.95532-4.838-1.2963-5.0361-0.79007-0.57091 1.4583 1.9746 2.5216 5.9736 2.4954l3.75-0.0247-4.6875-1.6807zm29.026-29.408c-0.0324-27.3-2.0148-45.864-3.3116-31.012-1.4799 16.949-0.15794 62.178 1.8174 62.178 1.3867-0.00017 1.5278-2.942 1.4943-31.166zm-6.8783-0.92601c-0.32668-32.642-0.34563-32.829-3.2821-32.41-1.8155 0.25904-1.999 0.90073-2.0919 7.3152-0.76105 52.53-0.94617 55.612-2.9228 48.672-0.59838-2.1011-0.79529-13.398-0.52567-30.158l0.43113-26.798-2.1238-1.1366c-1.8726-1.0022-8.1679-2.6942-16.085-4.3234-2.9707-0.61129-2.7088-2.631-3.005 23.166-0.0921 8.0176-0.48553 15.092-0.87438 15.721-0.38884 0.62916-0.41163 5.9402-0.0506 11.802l0.65635 10.658 4.6054 0.61094c2.533 0.336 5.959 1.4362 7.6134 2.445 1.6544 1.0087 3.8517 1.8475 4.883 1.8639 1.0312 0.0164 4.1953 0.80913 7.0312 1.7615 6.6635 2.2378 6.0849 5.1799 5.7409-29.189zm-17.31 19.274c-1.6044-1.6044-0.0603-48.065 1.6544-49.779 1.4466-1.4466 1.5941 2.4706 0.96 25.492-0.63794 23.161-0.93942 25.962-2.6144 24.287zm-8.8795-12.192c0.40806-6.2548 2.6295-6.5807 2.6295-0.38578 0 3.6858-0.33029 4.7656-1.4576 4.7656-1.1513 0-1.3976-0.92053-1.1719-4.3798zm1.2362-21.031c-0.88388-3.5457-0.12128-21.446 0.92459-21.702 1.2504-0.30674 1.7801 21.802 0.55175 23.031-0.59728 0.59728-1.1117 0.13444-1.4763-1.3283zm319.41 18.08c1.1606-0.46058 1.3597-1.0276 0.71748-2.0435-0.48885-0.77332-0.89527-5.2732-0.90317-9.9998-0.0151-9.0439-0.84876-10.756-3.9323-8.0737-1.3319 1.1584-1.5004 2.6909-1.0946 9.9558 0.6513 11.66 0.78381 11.919 5.2126 10.161zm8.04-1.294c2.1388-2.1388 1.5005-19.5-0.71702-19.5-2.7645 0-3.5538 2.4073-3.9195 11.954-0.34643 9.0435 0.9802 11.203 4.6365 7.5464zm10.65-11.062 0.31898-8.9062h-2.3438c-3.1155 0-4.2258 15.867-1.2619 18.034 2.4813 1.8144 2.9405 0.5392 3.2867-9.1277zm8.0654-0.9572c0.0588-7.4813-0.12445-8.4862-1.496-8.2057-1.3256 0.27112-1.5277 1.4539-1.3312 7.7882 0.41109 13.251 2.7237 13.592 2.8272 0.41753zm-201.34-3.527c5.4966-0.79424 4.687-0.89332-8.2611-1.011-12.069-0.10973-15.652-0.49288-22.5-2.406-12.1-3.38-31-8.395-44.24-11.743-6.45-1.629-15.73-4.05-20.63-5.38-55.12-14.969-59.06-15.909-59.06-14.083 0 1.3485 7.1696 3.7884 23.906 8.1357 6.1875 1.6072 14.836 3.9479 19.219 5.2016 4.3828 1.2537 11.766 3.1718 16.406 4.2625 4.6406 1.0906 11.18 2.6303 14.531 3.4216 3.3516 0.79121 8.625 2.2121 11.719 3.1576 12.138 3.7095 22.718 6.6125 40.293 11.055 9.6116 2.4299 10.697 2.5249 16.406 1.4357 3.3624-0.64149 8.8557-1.5626 12.207-2.0469zm44.06-2.13c10.055-0.4877 27.562-1.3069 38.906-1.8204 20.835-0.94321 58.372-3.1804 88.594-5.2803 4.3828-0.30452 16.161-1.0348 26.174-1.6227 21.514-1.2634 27.691-3.6653 7.4051-2.8794-19.506 0.75563-46.712 2.3315-56.079 3.2484-4.8984 0.47946-18.043 1.0885-29.21 1.3534-11.167 0.26493-20.87 0.66013-21.562 0.87821-0.69248 0.21808-5.1112 0.65314-9.8194 0.9668s-14.2 0.98296-21.094 1.4873c-6.8934 0.50438-21.182 1.3413-31.752 1.8599-20.622 1.0117-24.375 1.4689-24.375 2.9696 0 0.62626 2.5288 0.74573 7.2656 0.34326 3.9961-0.33953 15.492-1.0164 25.547-1.504zm-2.2753-17.313c-1.9266-1.4576-3.0032-1.2259-1.982 0.42651 0.33988 0.54993 1.3313 0.98646 2.2033 0.97006 1.3919-0.02618 1.3649-0.19659-0.22127-1.3966zm73.458-0.29801c14.633-2.4269 14.083-4.3063-0.99368-3.3998-6.3774 0.38344-13.376 0.76671-15.552 0.85171-4.8143 0.18805-6.0178 1.1727-3.597 2.9428 2.3568 1.7233 8.0442 1.6118 20.143-0.39479zm-106.99-12.701c18.856-2.4529 16.798-6.1879-4.2523-7.7193-6.6874-0.48649-9.0074-1.0237-10.223-2.3674-2.5012-2.7637-5.0324-2.2512-5.0324 1.019 0 3.6754-1.5485 4.4389-4.1142 2.0285-2.4142-2.268-3.6334-2.4249-6.4943-0.83577-1.3375 0.74293-7.4375 1.1924-17.587 1.2958-19.12 0.1948-25.455 0.93982-25.058 2.9469 0.977 4.94 45.59 7.1671 72.762 3.6323zm136.87 0.175c2.1086-2.1086 1.1663-2.8712-2.77-2.2418-4.5733 0.7313-5.7087 1.3009-4.9712 2.4941 0.77767 1.2583 6.4143 1.0746 7.7412-0.25228zm-50.045-1.3191c7.6648-2.9413-1.9514-14.863-10.381-12.869-5.1808 1.2252-7.1207 11.559-2.4026 12.798 2.5015 0.657 11.132 0.70512 12.783 0.07128zm-11.286-7.3548c-0.95347-2.4847 0.65232-3.5635 4.5302-3.0434 4.494 0.60277 5.1118 1.1178 3.5698 2.9758-1.5283 1.8415-7.4005 1.8905-8.1001 0.06755zm55.292-1.2168c0.78241-4.7336 0.63902-14.333-0.24797-16.601-0.88228-2.2559-1.9424 5.4771-1.9546 14.258-0.009 6.4654 1.2924 7.8503 2.2026 2.3438zm-64.185-2.3438c-0.38554-2.707-0.73824-5.7656-0.78378-6.7969-0.0689-1.5599-0.23551-1.6387-0.99158-0.46875-1.209 1.8708-1.1719 5.6104 0.0917 9.2351 1.582 4.5381 2.4636 3.5068 1.6836-1.9695zm-102.08 2.111c0-0.51562-1.6875-0.9375-3.75-0.9375s-3.75 0.42188-3.75 0.9375 1.6875 0.9375 3.75 0.9375 3.75-0.42188 3.75-0.9375zm96.56-21.15c0-1.258-0.42-2.288-0.94-2.288-0.51563 0-0.9375 1.2905-0.9375 2.8678 0 1.6732 0.39054 2.6265 0.9375 2.2884 0.51562-0.31867 0.9375-1.6092 0.9375-2.8678zm38.44-14.375c0-0.93487-2.2625-1.9753-4.2954-1.9753-0.73126 0-1.3296 0.63281-1.3296 1.4062 0 0.9375 0.9375 1.4062 2.8125 1.4062 1.5469 0 2.8125-0.37674 2.8125-0.8372zm79.92 421.64c-0.64-0.65-1.17-2.36-1.17-3.8 0-3.0171-0.12976-3.0004 9.7086-1.247 4.1619 0.74177 8.239 0.99056 9.375 0.57208 6.4292-2.3685 9.9789-2.1021 9.9789 0.74874 0 2.4012-0.41323 2.7991-3.5156 3.3853-7.1677 1.3544-23.144 1.579-24.375 0.3426zm-550.52-36.87c-1.836-2.2122-0.15147-16.34 2.1155-17.743 2.7894-1.726 5.8249 7.4036 3.4236 10.297-0.58215 0.70145-1.122 2.864-1.1997 4.8057-0.15598 3.8986-2.2419 5.1678-4.3394 2.6404zm-0.72368-21.739c-1.9936-0.80443-1.4178-6.6005 0.81075-8.1615 4.0812-2.8586 6.3713 2.0576 3.1205 6.6988-1.4946 2.1339-1.8969 2.2836-3.9312 1.4627z"/>
</svg>
