<?xml version="1.0" encoding="UTF-8" standalone="no"?>
<!-- Created with Inkscape (http://www.inkscape.org/) -->
<svg
   xmlns:svg="http://www.w3.org/2000/svg"
   xmlns="http://www.w3.org/2000/svg"
   version="1.0"
   width="587.16779"
   height="692.09674"
   id="svg29739">
  <defs
     id="defs29741" />
  <g
     transform="translate(-62.098266,-84.250166)"
     id="layer1">
    <g
       transform="matrix(1.3812634,0,0,1.4859357,-198.79644,-89.494624)"
       id="g30568">
      <g
         transform="matrix(2.072675,0,0,2.2499109,940.32407,335.97643)"
         id="g29902">
        <g
           id="g30726">
          <path
             d="M 392.55319,339.06431 L 356.91489,345.9792 L 371.80851,374.17069 L 380.31915,383.74516 L 605.31915,281.08559 L 605.85106,274.70261 L 609.04255,268.85154 L 605.85106,259.27708 L 594.14894,261.40474 L 412.76596,335.34091 L 392.55319,339.06431 z"
             transform="matrix(0.4824683,0,0,0.444462,-453.67656,-149.32877)"
             id="path30057"
             style="fill:#ebe4c7;fill-opacity:1;fill-rule:evenodd;stroke:none;stroke-width:1px;stroke-linecap:butt;stroke-linejoin:miter;stroke-opacity:1" />
          <path
             d="M -359.81569,-68.344685 C -360.51169,-64.562685 -362.20269,-59.117685 -358.30569,-56.372685 C -354.13069,-53.430685 -343.11469,-53.644685 -337.81569,-52.192685 C -321.75069,-47.789685 -304.43969,-38.060685 -287.81569,-37.344685 C -290.85569,-47.441685 -319.67869,-53.040685 -328.81569,-51.344685 C -331.00669,-58.832685 -344.77169,-55.172685 -349.81569,-60.344685 L -311.81569,-55.344685 C -309.19969,-51.294685 -303.32569,-51.389685 -298.90469,-50.174685 C -290.89569,-47.974685 -281.13569,-46.063685 -275.81569,-39.344685 L -270.81569,-39.344685 L -271.81569,-35.344685 L -267.81569,-35.344685 L -268.81569,-29.344685 L -267.81569,-29.344685 L -266.81569,-31.344685 C -261.23569,-27.141685 -251.08569,-32.755685 -244.81569,-34.134685 C -224.13569,-38.686685 -197.47569,-45.567685 -179.10569,-56.294685 C -173.62569,-59.493685 -155.80569,-61.485685 -157.57569,-70.305685 C -158.70569,-75.967685 -164.20569,-76.959685 -168.81569,-78.430685 C -179.91569,-81.973685 -191.52569,-83.338685 -202.81569,-86.092685 C -217.00569,-89.553685 -230.79569,-98.435685 -245.81569,-97.251685 C -253.59569,-96.638685 -261.25569,-92.935685 -268.81569,-91.092685 C -285.19569,-87.103685 -301.64669,-84.018685 -317.81569,-79.142685 C -331.20569,-75.104685 -345.75269,-68.949685 -359.81569,-68.344685 z"
             id="path21692"
             style="fill:#1890cd;stroke:none" />
          <path
             d="M -237.81569,-97.344685 L -237.81569,-96.344685 L -234.81569,-96.344685 L -237.81569,-97.344685 z"
             id="path21694"
             style="fill:#aaa9ab;stroke:none" />
          <path
             d="M -214.14569,-90.011685 L -213.48569,-89.677685 L -214.14569,-90.011685 z"
             id="path21772"
             style="fill:#a1d2ed;stroke:none" />
          <path
             d="M -281.81569,-89.344685 L -281.81569,-88.344685 L -277.81569,-88.344685 L -281.81569,-89.344685 z"
             id="path21802"
             style="fill:#aaa9ab;stroke:none" />
          <path
             d="M -291.81569,-87.344685 L -291.81569,-86.344685 L -285.81569,-86.344685 L -291.81569,-87.344685 z"
             id="path21818"
             style="fill:#6799d5;stroke:none" />
          <path
             d="M -296.81569,-86.344685 L -296.81569,-85.344685 L -291.81569,-85.344685 L -296.81569,-86.344685 z"
             id="path22030"
             style="fill:#5ac9e4;stroke:none" />
          <path
             d="M -300.81569,-85.344685 L -300.81569,-84.344685 L -296.81569,-84.344685 L -300.81569,-85.344685 z"
             id="path22058"
             style="fill:#6799d5;stroke:none" />
          <path
             d="M -312.14869,-81.011685 L -311.48269,-80.677685 L -312.14869,-81.011685 z"
             id="path22300"
             style="fill:#aaa9ab;stroke:none" />
          <path
             d="M -328.81569,-76.344685 L -328.81569,-75.344685 L -325.81569,-75.344685 L -328.81569,-76.344685 z"
             id="path22414"
             style="fill:#a1d2ed;stroke:none" />
          <path
             d="M -351.81569,-71.344685 L -351.81569,-70.344685 L -345.81569,-70.344685 L -351.81569,-71.344685 z"
             id="path22438"
             style="fill:#a1d2ed;stroke:none" />
          <path
             d="M -357.81569,-69.344685 L -357.81569,-68.344685 L -348.81569,-69.344685 L -357.81569,-69.344685 z"
             id="path22444"
             style="fill:#6799d5;stroke:none" />
          <path
             d="M -360.81569,-67.344685 C -363.20869,-62.855685 -363.61769,-58.149685 -358.81569,-55.344685 L -360.81569,-67.344685 z"
             id="path22480"
             style="fill:#4a5ce2;stroke:none" />
          <path
             d="M -170.81569,-58.344685 L -162.81569,-62.344685 L -170.81569,-58.344685 z"
             id="path22544"
             style="fill:#61504a;stroke:none" />
          <path
             d="M -349.81569,-60.344685 C -345.49069,-53.518685 -332.71069,-59.181685 -328.81569,-51.344685 C -318.76669,-52.613685 -292.79569,-47.304685 -287.81569,-37.344685 C -312.59969,-39.316685 -334.18869,-55.344685 -359.81569,-55.344685 L -359.81569,-54.344685 L -353.81569,-51.344685 L -348.81569,-53.344685 C -346.62069,-50.828685 -336.17469,-46.676685 -333.81569,-49.344685 L -321.81569,-43.344685 C -313.96569,-43.842685 -309.71869,-38.251685 -302.72669,-35.630685 C -290.51569,-31.053685 -277.86569,-28.345685 -264.81569,-28.344685 L -267.81569,-29.344685 L -268.81569,-29.344685 L -267.81569,-35.344685 L -271.81569,-35.344685 L -270.81569,-39.344685 L -275.81569,-39.344685 C -282.44569,-51.726685 -302.91069,-46.215685 -311.81569,-55.344685 L -349.81569,-60.344685 z"
             id="path22560"
             style="fill:#1c5398;stroke:none" />
          <path
             d="M -277.81569,-24.344685 L -276.81569,-21.344685 L -268.81569,-19.344685 L -268.81569,-18.344685 L -270.81569,-16.344685 C -267.06569,-15.462685 -263.06569,-14.570685 -262.81569,-19.344685 L -260.81569,-16.344685 L -256.81569,-19.344685 L -255.81569,-19.344685 C -249.54569,-15.023685 -241.19569,-20.853685 -234.81569,-22.768685 C -215.69569,-28.501685 -195.19569,-33.626685 -176.81569,-41.205685 C -171.68569,-43.322685 -155.46569,-49.755685 -160.84569,-58.026685 C -164.90569,-64.257685 -184.72569,-53.138685 -189.81569,-50.995685 C -203.73569,-45.131685 -217.59569,-41.626685 -231.81569,-36.661685 C -246.28569,-31.609685 -262.18569,-24.473685 -277.81569,-24.344685 z"
             id="path22562"
             style="fill:#d44a8a;stroke:none" />
          <path
             d="M -177.81569,-58.344685 L -177.81569,-57.344685 L -170.81569,-58.344685 L -177.81569,-58.344685 z"
             id="path22578"
             style="fill:#4a5ce2;stroke:none" />
          <path
             d="M -181.81569,-55.344685 L -181.81569,-54.344685 L -173.81569,-56.344685 L -181.81569,-55.344685 z"
             id="path22594"
             style="fill:#61504a;stroke:none" />
          <path
             d="M -159.81569,-57.344685 L -159.81569,-53.344685 L -158.81569,-53.344685 L -159.81569,-57.344685 z"
             id="path22596"
             style="fill:#a59075;stroke:none" />
          <path
             d="M -357.81569,-54.344685 L -354.81569,-52.344685 L -357.81569,-54.344685 z"
             id="path22610"
             style="fill:#6799d5;stroke:none" />
          <path
             d="M -189.81569,-52.344685 L -189.81569,-51.344685 L -181.81569,-53.344685 L -189.81569,-52.344685 z"
             id="path22612"
             style="fill:#61504a;stroke:none" />
          <path
             d="M -354.81569,-53.344685 L -357.81569,-51.344685 L -357.81569,-50.344685 L -349.81569,-48.344685 L -349.81569,-49.344685 L -354.81569,-53.344685 z"
             id="path22620"
             style="fill:#9c2730;stroke:none" />
          <path
             d="M -350.81569,-53.344685 L -351.81569,-49.344685 C -337.22169,-43.854685 -319.41869,-36.391685 -303.81569,-35.344685 L -303.81569,-36.344685 C -309.85769,-39.835685 -314.52669,-44.140685 -321.81569,-43.344685 L -333.81569,-49.344685 L -348.81569,-53.344685 L -350.81569,-53.344685 z"
             id="path22622"
             style="fill:#4a5ce2;stroke:none" />
          <path
             d="M -322.81569,-40.344685 C -317.69169,-34.246685 -301.49469,-32.604685 -293.80569,-30.898685 C -285.53569,-29.066685 -277.40569,-26.232685 -268.81569,-26.398685 C -242.13569,-26.914685 -214.63569,-42.253685 -189.81569,-50.344685 C -195.39569,-52.500685 -200.70569,-48.068685 -205.81569,-46.204685 C -218.80569,-41.459685 -233.58569,-35.474685 -246.82569,-32.318685 C -274.94569,-25.620685 -295.61369,-35.738685 -322.81569,-40.344685 z"
             id="path22630"
             style="fill:#61504a;stroke:none" />
          <path
             d="M -359.81569,-50.344685 L -359.81569,-44.344685 L -358.81569,-44.344685 L -359.81569,-50.344685 z"
             id="path22634"
             style="fill:#ccabab;stroke:none" />
          <path
             d="M -358.81569,-50.344685 C -358.68369,-44.876685 -357.51869,-41.523685 -351.81569,-40.344685 L -352.81569,-38.344685 C -331.91069,-30.907685 -311.31669,-23.627685 -289.81569,-17.855685 C -278.35569,-14.778685 -265.36569,-12.017685 -253.81569,-16.344685 L -254.81569,-19.344685 L -262.81569,-19.344685 C -263.43569,-14.881685 -267.18569,-15.709685 -270.81569,-16.344685 L -268.81569,-18.344685 L -268.81569,-19.344685 L -277.81569,-24.344685 L -269.81569,-24.344685 L -329.77669,-40.896685 L -358.81569,-50.344685 z"
             id="path22636"
             style="fill:#c92e66;stroke:none" />
          <path
             d="M -353.81569,-38.344685 L -352.81569,-34.344685 C -365.43969,-27.382685 -344.80269,-20.796685 -339.81569,-18.768685 C -326.15469,-13.212685 -311.84969,-8.4966853 -297.81569,-4.1256853 C -289.82569,-1.6386853 -281.34569,2.1493147 -272.81569,1.5653147 C -264.99569,1.0303147 -257.43569,-2.7866853 -249.81569,-4.5996853 C -227.65569,-9.8686853 -204.84569,-18.549685 -183.81569,-27.347685 C -177.34569,-30.054685 -168.30569,-32.031685 -163.13569,-36.981685 C -160.81569,-39.196685 -159.74569,-44.364685 -163.13569,-46.258685 C -167.44569,-48.665685 -183.83569,-38.907685 -188.81569,-37.206685 C -201.26569,-32.951685 -214.35569,-30.265685 -226.81569,-25.905685 C -238.58569,-21.788685 -251.44569,-15.296685 -263.81569,-13.553685 C -272.88569,-12.275685 -280.31569,-15.569685 -288.81569,-17.855685 C -304.54969,-22.085685 -320.24069,-26.660685 -335.81569,-31.535685 C -341.92969,-33.449685 -347.49669,-37.517685 -353.81569,-38.344685 z"
             id="path22684"
             style="fill:#181920;stroke:none" />
          <path
             d="M -160.81569,-43.344685 L -160.81569,-40.344685 L -159.81569,-40.344685 L -160.81569,-43.344685 z"
             id="path22758"
             style="fill:#a59075;stroke:none" />
          <path
             d="M -333.81569,-42.344685 L -333.81569,-41.344685 L -325.81569,-40.344685 L -333.81569,-42.344685 z"
             id="path22788"
             style="fill:#61504a;stroke:none" />
          <path
             d="M -277.81569,-34.344685 L -273.81569,-35.344685 L -277.81569,-34.344685 z"
             id="path22852"
             style="fill:#122662;stroke:none" />
          <path
             d="M -353.81569,-24.344685 L -356.81569,-9.3446853 L -291.82569,9.5933147 L -265.81569,17.655315 L -272.81569,3.6553147 C -264.91569,4.7183147 -260.97569,6.8373147 -254.81569,0.65531473 L -253.81569,3.6553147 C -243.64569,-0.76968527 -231.23569,-7.9366853 -219.81569,-6.3446853 L -219.81569,-11.344685 L -218.81569,-11.344685 L -217.81569,-9.3446853 L -216.81569,-9.3446853 L -204.81569,-18.344685 L -171.81569,-28.344685 L -167.81569,-30.344685 L -161.81569,-33.344685 L -162.81569,-36.344685 L -241.81569,-6.3416853 L -273.81569,2.4573147 L -299.81569,-4.6386853 L -353.81569,-24.344685 z"
             id="path22874"
             style="fill:#d8d1b3;stroke:none" />
          <path
             d="M -344.81569,-35.344685 L -341.81569,-33.344685 L -344.81569,-35.344685 z"
             id="path22882"
             style="fill:#9c2730;stroke:none" />
          <path
             d="M -253.81569,-32.344685 L -253.81569,-31.344685 L -241.81569,-33.344685 L -253.81569,-32.344685 z"
             id="path22888"
             style="fill:#4a5ce2;stroke:none" />
          <path
             d="M -204.81569,-34.344685 L -204.81569,-33.344685 L -200.81569,-33.344685 L -204.81569,-34.344685 z"
             id="path22890"
             style="fill:#9c2730;stroke:none" />
          <path
             d="M -175.14569,-31.011685 L -174.48569,-30.677685 L -175.14569,-31.011685 z"
             id="path22892"
             style="fill:#a59075;stroke:none" />
          <path
             d="M -180.14569,-29.011685 L -179.48569,-28.677685 L -180.14569,-29.011685 z"
             id="path22894"
             style="fill:#8c679e;stroke:none" />
          <path
             d="M -183.14569,-28.011685 L -182.48569,-27.677685 L -183.14569,-28.011685 z"
             id="path22900"
             style="fill:#896462;stroke:none" />
          <path
             d="M -281.81569,-27.344685 L -281.81569,-26.344685 L -264.81569,-25.344685 L -281.81569,-27.344685 z"
             id="path22904"
             style="fill:#9c2730;stroke:none" />
          <path
             d="M -191.14569,-25.011685 L -190.48569,-24.677685 L -191.14569,-25.011685 z"
             id="path22970"
             style="fill:#896462;stroke:none" />
          <path
             d="M -273.81569,18.655315 L -273.81569,19.655315 L -266.81569,23.655315 L -265.81569,30.655315 C -244.19569,24.935315 -224.23569,15.105315 -204.10569,5.4003147 C -194.52569,0.78431473 -184.32569,-8.8056853 -173.81569,-9.3446853 L -173.81569,-12.344685 C -164.63569,-12.370685 -158.41569,-15.243685 -160.81569,-25.344685 L -185.81569,-14.638685 L -253.81569,12.429315 L -273.81569,18.655315 z"
             id="path22972"
             style="fill:#61504a;stroke:none" />
          <path
             d="M -193.14569,-24.011685 L -192.48569,-23.677685 L -193.14569,-24.011685 z"
             id="path22992"
             style="fill:#a59075;stroke:none" />
          <path
             d="M -196.81569,-23.344685 L -196.81569,-22.344685 L -193.81569,-22.344685 L -196.81569,-23.344685 z"
             id="path23002"
             style="fill:#a59075;stroke:none" />
          <path
             d="M -200.81569,-22.344685 L -200.81569,-21.344685 L -197.81569,-21.344685 L -200.81569,-22.344685 z"
             id="path23072"
             style="fill:#896462;stroke:none" />
          <path
             d="M -159.81569,-22.344685 L -159.81569,-17.344685 L -158.81569,-17.344685 L -159.81569,-22.344685 z"
             id="path23074"
             style="fill:#a59075;stroke:none" />
          <path
             d="M -202.14569,-21.011685 L -201.48569,-20.677685 L -202.14569,-21.011685 z"
             id="path23086"
             style="fill:#a59075;stroke:none" />
          <path
             d="M -343.14869,-20.011685 L -342.48269,-19.677685 L -343.14869,-20.011685 z"
             id="path23132"
             style="fill:#61504a;stroke:none" />
          <path
             d="M -340.14869,-19.011685 L -339.48269,-18.677685 L -340.14869,-19.011685 z"
             id="path23160"
             style="fill:#61504a;stroke:none" />
          <path
             d="M -209.14569,-18.011685 L -208.48569,-17.677685 L -209.14569,-18.011685 z"
             id="path23174"
             style="fill:#8c679e;stroke:none" />
          <path
             d="M -212.14569,-17.011685 L -211.48569,-16.677685 L -212.14569,-17.011685 z"
             id="path23190"
             style="fill:#a59075;stroke:none" />
          <path
             d="M -215.14569,-16.011685 L -214.48569,-15.677685 L -215.14569,-16.011685 z"
             id="path23204"
             style="fill:#a59075;stroke:none" />
          <path
             d="M -330.14869,-15.011685 L -329.48269,-14.677685 L -330.14869,-15.011685 z"
             id="path23210"
             style="fill:#a59075;stroke:none" />
          <path
             d="M -279.81569,-15.344685 L -279.81569,-14.344685 L -260.81569,-13.344685 L -279.81569,-15.344685 z"
             id="path23212"
             style="fill:#513331;stroke:none" />
          <path
             d="M -162.81569,-15.344685 C -186.64569,1.0013147 -215.49569,11.430315 -242.10569,22.892315 C -249.99569,26.295315 -268.68569,28.728315 -267.81569,39.655315 L -271.81569,38.655315 L -269.81569,44.655315 C -258.38569,44.155315 -248.73569,37.761315 -238.85569,32.825315 C -219.46569,23.133315 -200.22569,11.459315 -179.81569,4.2033147 C -172.73569,1.6853147 -156.41569,-5.9586853 -162.81569,-15.344685 z"
             id="path23214"
             style="fill:#ab9127;stroke:none" />
          <path
             d="M -190.14569,-13.011685 L -189.48569,-12.677685 L -190.14569,-13.011685 z"
             id="path23254"
             style="fill:#a59075;stroke:none" />
          <path
             d="M -321.14869,-12.011685 L -320.48269,-11.677685 L -321.14869,-12.011685 z"
             id="path23262"
             style="fill:#6c976a;stroke:none" />
          <path
             d="M -226.14569,-12.011685 L -225.48569,-11.677685 L -226.14569,-12.011685 M -193.14569,-12.011685 L -192.48569,-11.677685 L -193.14569,-12.011685 z"
             id="path23264"
             style="fill:#a59075;stroke:none" />
          <path
             d="M -173.81569,-12.344685 L -173.81569,-9.3446853 C -178.79569,-9.2276853 -184.98569,-8.5966853 -186.81569,-3.3446853 L -168.81569,-11.344685 L -173.81569,-12.344685 z"
             id="path23266"
             style="fill:#896462;stroke:none" />
          <path
             d="M -317.14869,-11.011685 L -316.48269,-10.677685 L -317.14869,-11.011685 z"
             id="path23272"
             style="fill:#61504a;stroke:none" />
          <path
             d="M -229.14569,-11.011685 L -228.48569,-10.677685 L -229.14569,-11.011685 z"
             id="path23274"
             style="fill:#8c679e;stroke:none" />
          <path
             d="M -160.81569,-11.344685 L -160.81569,-8.3446853 L -159.81569,-8.3446853 L -160.81569,-11.344685 z"
             id="path23276"
             style="fill:#d8d1b3;stroke:none" />
          <path
             d="M -315.14869,-10.011685 L -314.48269,-9.6776853 L -315.14869,-10.011685 z"
             id="path23280"
             style="fill:#61504a;stroke:none" />
          <path
             d="M -232.81569,-10.344685 L -232.81569,-9.3446853 L -229.81569,-9.3446853 L -232.81569,-10.344685 z"
             id="path23282"
             style="fill:#a59075;stroke:none" />
          <path
             d="M -199.14569,-10.011685 L -198.48569,-9.6776853 L -199.14569,-10.011685 z"
             id="path23284"
             style="fill:#aaa9ab;stroke:none" />
          <path
             d="M -336.81569,9.6553147 L -336.81569,12.655315 C -327.33069,13.259315 -317.26269,18.487315 -308.64569,21.995315 C -302.72369,24.407315 -295.89869,24.629315 -289.81569,26.734315 C -277.86569,30.872315 -271.17569,35.961315 -258.81569,29.655315 L -258.81569,28.655315 L -265.81569,30.655315 L -266.81569,23.655315 C -271.03569,21.003315 -274.42569,16.877315 -278.82569,14.603315 C -294.87369,6.3263147 -318.18469,2.5583147 -335.81569,-1.3036853 C -339.99969,-2.2206853 -352.71369,-10.313685 -356.19769,-8.1836853 C -358.95369,-6.4986853 -356.80769,-0.82868527 -355.22669,0.94031473 C -350.88369,5.8023147 -343.21169,9.3223147 -336.81569,9.6553147 z"
             id="path23292"
             style="fill:#513331;stroke:none" />
          <path
             d="M -312.14869,-9.0116853 L -311.48269,-8.6776853 L -312.14869,-9.0116853 z"
             id="path23294"
             style="fill:#61504a;stroke:none" />
          <path
             d="M -235.14569,-9.0116853 L -234.48569,-8.6776853 L -235.14569,-9.0116853 z"
             id="path23296"
             style="fill:#a59075;stroke:none" />
          <path
             d="M -309.14869,-8.0116853 L -308.48269,-7.6776853 L -309.14869,-8.0116853 z"
             id="path23302"
             style="fill:#61504a;stroke:none" />
          <path
             d="M -238.14569,-8.0116853 L -237.48569,-7.6776853 L -238.14569,-8.0116853 z"
             id="path23304"
             style="fill:#a59075;stroke:none" />
          <path
             d="M -358.81569,-7.3446853 L -358.81569,-3.3446853 L -357.81569,-3.3446853 L -358.81569,-7.3446853 z"
             id="path23310"
             style="fill:#d8d1b3;stroke:none" />
          <path
             d="M -241.14569,-7.0116853 L -240.48569,-6.6776853 L -241.14569,-7.0116853 z"
             id="path23312"
             style="fill:#a59075;stroke:none" />
          <path
             d="M -349.81569,-6.3446853 L -349.81569,-5.3446853 L -346.81569,-5.3446853 L -349.81569,-6.3446853 z"
             id="path23320"
             style="fill:#896462;stroke:none" />
          <path
             d="M -345.14869,-5.0116853 L -344.48269,-4.6776853 L -345.14869,-5.0116853 z"
             id="path23322"
             style="fill:#a59075;stroke:none" />
          <path
             d="M -249.14569,-5.0116853 L -248.48569,-4.6776853 L -249.14569,-5.0116853 z"
             id="path23324"
             style="fill:#61504a;stroke:none" />
          <path
             d="M -247.14569,-5.0116853 L -246.48569,-4.6776853 L -247.14569,-5.0116853 M -208.14569,-5.0116853 L -207.48569,-4.6776853 L -208.14569,-5.0116853 z"
             id="path23326"
             style="fill:#a59075;stroke:none" />
          <path
             d="M -202.81569,3.6553147 L -202.81569,4.6553147 C -196.55569,3.6783147 -183.25569,0.11931473 -179.81569,-5.3446853 L -202.81569,3.6553147 z"
             id="path23328"
             style="fill:#d44a8a;stroke:none" />
          <path
             d="M -357.81569,-4.3446853 L -357.81569,-0.34468527 L -356.81569,-0.34468527 L -357.81569,-4.3446853 M -343.14869,-4.0116853 L -342.48269,-3.6776853 L -343.14869,-4.0116853 M -298.81569,-4.3446853 L -298.81569,-3.3446853 L -295.81569,-3.3446853 L -298.81569,-4.3446853 z"
             id="path23368"
             style="fill:#a59075;stroke:none" />
          <path
             d="M -254.81569,-3.3446853 L -254.81569,-2.3446853 L -247.81569,-3.3446853 L -254.81569,-3.3446853 z"
             id="path23370"
             style="fill:#aaa9ab;stroke:none" />
          <path
             d="M -295.14869,-3.0116853 L -294.48269,-2.6776853 L -295.14869,-3.0116853 z"
             id="path23378"
             style="fill:#a59075;stroke:none" />
          <path
             d="M -257.81569,-3.3446853 L -257.81569,-2.3446853 L -254.81569,-2.3446853 L -257.81569,-3.3446853 z"
             id="path23380"
             style="fill:#61504a;stroke:none" />
          <path
             d="M -267.81569,52.655315 L -271.81569,52.655315 L -271.81569,53.655315 C -260.82569,53.419315 -249.45569,45.666315 -239.81569,40.764315 C -223.90569,32.673315 -207.03569,26.156315 -190.81569,18.703315 C -182.19569,14.744315 -172.38569,8.2703147 -162.81569,7.6553147 L -164.81569,-3.3446853 C -179.83569,1.9613147 -193.56569,11.078315 -207.98569,17.609315 C -220.68569,23.365315 -233.86569,28.630315 -245.72569,36.230315 C -252.67569,40.685315 -271.50569,41.614315 -267.81569,52.655315 z"
             id="path23382"
             style="fill:#89c537;stroke:none" />
          <path
             d="M -339.81569,-2.3446853 L -339.81569,-1.3446853 L -334.81569,-1.3446853 L -339.81569,-2.3446853 z"
             id="path23412"
             style="fill:#a59075;stroke:none" />
          <path
             d="M -260.14569,-2.0116853 L -259.48569,-1.6776853 L -260.14569,-2.0116853 z"
             id="path23414"
             style="fill:#8c679e;stroke:none" />
          <path
             d="M -263.14569,-1.0116853 L -262.48569,-0.67768527 L -263.14569,-1.0116853 z"
             id="path23444"
             style="fill:#8c679e;stroke:none" />
          <path
             d="M -285.81569,-0.34468527 L -285.81569,0.65531473 L -281.81569,0.65531473 L -285.81569,-0.34468527 z"
             id="path23456"
             style="fill:#61504a;stroke:none" />
          <path
             d="M -356.48269,1.3223147 L -356.14869,1.9883147 L -356.48269,1.3223147 z"
             id="path23462"
             style="fill:#ccabab;stroke:none" />
          <path
             d="M -327.81569,0.65531473 L -327.81569,1.6553147 L -324.81569,1.6553147 L -327.81569,0.65531473 z"
             id="path23464"
             style="fill:#a59075;stroke:none" />
          <path
             d="M -269.14569,0.98831473 L -268.48569,1.3223147 L -269.14569,0.98831473 z"
             id="path23466"
             style="fill:#896462;stroke:none" />
          <path
             d="M -222.14569,0.98831473 L -221.48569,1.3223147 L -222.14569,0.98831473 z"
             id="path23468"
             style="fill:#a59075;stroke:none" />
          <path
             d="M -355.81569,1.6553147 L -355.81569,2.6553147 L -336.81569,11.655315 L -355.81569,1.6553147 z"
             id="path23484"
             style="fill:#61504a;stroke:none" />
          <path
             d="M -277.81569,1.6553147 L -277.81569,2.6553147 L -269.81569,2.6553147 L -277.81569,1.6553147 z"
             id="path23486"
             style="fill:#a59075;stroke:none" />
          <path
             d="M -162.81569,1.6553147 L -162.81569,7.6553147 L -161.81569,7.6553147 L -162.81569,1.6553147 z"
             id="path23488"
             style="fill:#d8d1b3;stroke:none" />
          <path
             d="M -352.81569,14.655315 L -356.81569,4.6553147 L -351.81569,6.6553147 C -356.11169,-1.0846853 -360.56069,10.591315 -352.81569,14.655315 z"
             id="path23504"
             style="fill:#d44a8a;stroke:none" />
          <path
             d="M -356.81569,4.6553147 C -356.36369,9.6303147 -354.88769,13.257315 -349.81569,14.655315 L -349.81569,18.655315 L -300.81569,32.040315 L -280.81569,35.655315 C -279.34569,39.341315 -274.97569,42.130315 -271.81569,38.655315 L -267.81569,39.655315 L -267.81569,33.655315 L -290.81569,26.093315 L -356.81569,4.6553147 z"
             id="path23556"
             style="fill:#e0372d;stroke:none" />
          <path
             d="M -312.81569,4.6553147 L -312.81569,5.6553147 L -309.81569,5.6553147 L -312.81569,4.6553147 z"
             id="path23558"
             style="fill:#a59075;stroke:none" />
          <path
             d="M -309.81569,5.6553147 L -309.81569,6.6553147 L -305.81569,6.6553147 L -309.81569,5.6553147 z"
             id="path23580"
             style="fill:#a59075;stroke:none" />
          <path
             d="M -305.14869,6.9883147 L -304.48269,7.3223147 L -305.14869,6.9883147 z"
             id="path23596"
             style="fill:#a59075;stroke:none" />
          <path
             d="M -211.81569,7.6553147 L -211.81569,8.6553147 L -205.81569,7.6553147 L -211.81569,7.6553147 z"
             id="path23598"
             style="fill:#9c2730;stroke:none" />
          <path
             d="M -210.81569,27.655315 L -210.81569,28.655315 L -164.81569,10.655315 L -162.81569,8.6553147 C -167.94569,6.5833147 -173.15569,10.244315 -177.81569,12.349315 C -188.87569,17.349315 -200.01569,22.106315 -210.81569,27.655315 z"
             id="path23610"
             style="fill:#61504a;stroke:none" />
          <path
             d="M -164.81569,8.6553147 L -161.81569,19.655315 C -158.29569,15.261315 -157.90569,8.9593147 -164.81569,8.6553147 z"
             id="path23612"
             style="fill:#a59075;stroke:none" />
          <path
             d="M -297.81569,8.6553147 L -297.81569,9.6553147 L -286.81569,11.655315 L -297.81569,8.6553147 z"
             id="path23622"
             style="fill:#ccabab;stroke:none" />
          <path
             d="M -295.14869,9.9883147 L -294.48269,10.322315 L -295.14869,9.9883147 z"
             id="path23626"
             style="fill:#896462;stroke:none" />
          <path
             d="M -247.14569,9.9883147 L -246.48569,10.322315 L -247.14569,9.9883147 z"
             id="path23628"
             style="fill:#aaa9ab;stroke:none" />
          <path
             d="M -201.81569,25.655315 L -200.81569,35.655315 C -190.37569,32.920315 -176.25569,26.621315 -166.96569,20.950315 C -163.73569,18.978315 -162.62569,13.857315 -166.12569,11.367315 C -169.72569,8.8113147 -173.11569,14.341315 -175.86569,15.947315 C -183.79569,20.573315 -193.63569,21.543315 -201.81569,25.655315 z"
             id="path23630"
             style="fill:#a59075;stroke:none" />
          <path
             d="M -164.81569,9.6553147 L -165.81569,10.655315 L -163.81569,17.655315 L -161.81569,17.655315 L -164.81569,9.6553147 z"
             id="path23632"
             style="fill:#8c679e;stroke:none" />
          <path
             d="M -249.14569,10.988315 L -248.48569,11.322315 L -249.14569,10.988315 z"
             id="path23638"
             style="fill:#a59075;stroke:none" />
          <path
             d="M -283.14569,12.988315 L -282.48569,13.322315 L -283.14569,12.988315 z"
             id="path23656"
             style="fill:#a59075;stroke:none" />
          <path
             d="M -196.81569,22.655315 L -196.81569,23.655315 C -189.52569,21.929315 -176.01569,19.180315 -171.81569,12.655315 L -196.81569,22.655315 z"
             id="path23658"
             style="fill:#8c679e;stroke:none" />
          <path
             d="M -353.81569,14.655315 C -352.74169,18.586315 -350.71969,20.540315 -346.81569,21.655315 L -346.81569,20.655315 L -349.81569,14.655315 L -353.81569,14.655315 z"
             id="path23670"
             style="fill:#ab9127;stroke:none" />
          <path
             d="M -263.81569,15.655315 L -263.81569,16.655315 L -260.81569,16.655315 L -263.81569,15.655315 z"
             id="path23678"
             style="fill:#a59075;stroke:none" />
          <path
             d="M -354.81569,16.655315 L -353.81569,28.655315 C -339.82669,32.252315 -325.51369,39.568315 -311.52969,44.109315 C -306.18469,45.846315 -300.24369,43.051315 -296.81569,48.655315 C -284.76569,49.422315 -275.11569,58.844315 -262.81569,53.655315 L -262.81569,52.655315 L -271.81569,53.655315 L -271.81569,52.655315 L -267.81569,52.655315 L -267.81569,44.655315 L -306.81169,33.004315 L -319.98569,26.899315 L -354.81569,16.655315 z"
             id="path23742"
             style="fill:#6c976a;stroke:none" />
          <path
             d="M -317.81569,17.655315 L -317.81569,18.655315 L -310.81569,20.655315 L -310.81569,19.655315 L -317.81569,17.655315 z"
             id="path23764"
             style="fill:#9c2730;stroke:none" />
          <path
             d="M -273.81569,17.655315 L -273.81569,18.655315 L -268.81569,18.655315 L -273.81569,17.655315 z"
             id="path23766"
             style="fill:#a59075;stroke:none" />
          <path
             d="M -163.81569,17.655315 C -170.17569,24.608315 -182.28569,27.089315 -190.81569,30.667315 C -206.98569,37.448315 -222.47569,46.319315 -238.81569,52.942315 C -247.86569,56.610315 -262.62569,59.673315 -267.81569,68.655315 L -263.81569,67.655315 C -257.68569,61.187315 -247.71569,59.808315 -239.81569,56.481315 C -221.88569,48.932315 -204.52569,40.032315 -186.81569,32.015315 C -179.04569,28.496315 -168.40569,21.095315 -159.81569,21.655315 L -161.81569,17.655315 L -163.81569,17.655315 z"
             id="path23768"
             style="fill:#9c2730;stroke:none" />
          <path
             d="M -349.81569,18.655315 L -349.81569,19.655315 L -330.81569,23.655315 L -330.81569,22.655315 L -349.81569,18.655315 z"
             id="path23778"
             style="fill:#896462;stroke:none" />
          <path
             d="M -263.81569,67.655315 L -265.81569,68.655315 C -270.76569,67.475315 -275.92569,68.249315 -280.81569,66.936315 C -298.47369,62.195315 -315.91369,52.621315 -332.81569,45.616315 C -340.16569,42.569315 -352.79069,37.677315 -349.81569,50.655315 C -340.32769,50.408315 -334.54869,55.872315 -326.72669,59.951315 C -321.37669,62.740315 -315.24369,62.316315 -309.83069,64.843315 C -299.34469,69.739315 -288.82569,78.414315 -276.81569,79.551315 C -262.19569,80.934315 -254.93569,73.861315 -242.81569,67.393315 C -232.29569,61.780315 -219.18569,55.183315 -207.81569,51.655315 L -208.81569,48.655315 C -204.35569,49.437315 -201.87569,49.498315 -200.81569,44.655315 C -192.76569,44.389315 -184.38569,38.188315 -176.81569,35.312315 C -172.07569,33.510315 -166.28569,33.405315 -161.87569,30.967315 C -158.40569,29.045315 -157.15569,24.043315 -161.28569,21.787315 C -165.86569,19.292315 -181.27569,28.780315 -185.81569,31.025315 C -203.82569,39.935315 -222.28569,48.680315 -240.81569,56.481315 C -247.88569,59.457315 -259.46569,60.718315 -263.81569,67.655315 z"
             id="path23946"
             style="fill:#c92e66;stroke:none" />
          <path
             d="M -159.81569,20.655315 L -159.81569,24.655315 L -158.81569,24.655315 L -159.81569,20.655315 z"
             id="path23948"
             style="fill:#ccabab;stroke:none" />
          <path
             d="M -311.81569,46.655315 C -312.40269,41.655315 -317.72669,41.166315 -321.81569,39.604315 C -329.23569,36.770315 -337.10969,35.607315 -344.52669,32.729315 C -347.37469,31.624315 -350.41569,28.066315 -353.70569,28.738315 C -361.04769,30.236315 -352.86769,41.169315 -350.81569,43.655315 C -343.37669,39.524315 -334.89969,45.201315 -327.81569,48.112315 C -312.05969,54.586315 -291.97569,67.481315 -274.81569,67.651315 C -265.51569,67.743315 -257.92569,61.288315 -249.81569,57.264315 C -237.69569,51.250315 -224.30569,46.901315 -211.81569,41.524315 C -208.66569,40.166315 -191.52569,31.655315 -202.20569,27.302315 C -207.17569,25.278315 -215.37569,31.421315 -219.81569,33.206315 C -235.51569,39.516315 -251.44569,51.079315 -267.81569,55.072315 C -281.76569,58.477315 -298.06869,47.685315 -311.81569,46.655315 z"
             id="path24226"
             style="fill:#8c679e;stroke:none" />
          <path
             d="M -312.81569,28.655315 C -310.35469,32.977315 -306.53469,33.544315 -301.81569,33.655315 L -312.81569,28.655315 z"
             id="path24316"
             style="fill:#ab9127;stroke:none" />
          <path
             d="M -229.81569,35.655315 L -229.81569,36.655315 C -224.15569,35.681315 -215.31569,33.425315 -211.81569,28.655315 L -229.81569,35.655315 z"
             id="path24318"
             style="fill:#896462;stroke:none" />
          <path
             d="M -160.81569,29.655315 C -167.16569,33.602315 -174.23569,35.007315 -180.81569,38.264315 C -199.21569,47.366315 -217.37569,56.760315 -235.81569,65.636315 C -245.45569,70.274315 -259.04569,80.193315 -269.81569,80.525315 C -282.75569,80.925315 -296.16369,71.524315 -307.81569,66.908315 C -318.07769,62.843315 -328.58069,59.344315 -338.81569,55.203315 C -343.32569,53.378315 -348.87869,50.913315 -350.49269,57.660315 C -352.43169,65.762315 -344.12469,64.805315 -338.98569,66.113315 C -327.27269,69.094315 -316.61769,74.914315 -304.81569,77.786315 C -295.78169,79.984315 -286.14569,85.470315 -277.85569,89.706315 C -274.36569,91.489315 -271.73569,94.965315 -267.72569,95.522315 C -258.50569,96.801315 -251.24569,89.565315 -243.64569,85.516315 C -231.82569,79.218315 -219.36569,73.979315 -207.90569,67.000315 C -203.10569,64.076315 -199.66569,59.443315 -194.79569,56.712315 C -185.20569,51.335315 -175.37569,48.262315 -166.53569,41.270315 C -162.34569,37.964315 -158.39569,35.483315 -160.81569,29.655315 z"
             id="path24346"
             style="fill:#dda730;stroke:none" />
          <path
             d="M -305.81569,31.655315 L -305.81569,32.655315 L -269.81569,42.655315 L -269.81569,41.655315 L -280.81569,35.655315 L -305.81569,31.655315 z"
             id="path24370"
             style="fill:#896462;stroke:none" />
          <path
             d="M -200.81569,44.655315 L -201.81569,49.655315 L -167.81569,33.655315 C -178.63569,30.453315 -190.35569,43.858315 -200.81569,44.655315 z"
             id="path24378"
             style="fill:#e0372d;stroke:none" />
          <path
             d="M -262.81569,52.655315 L -229.81569,37.655315 C -236.39569,36.293315 -258.82569,47.230315 -262.81569,52.655315 z"
             id="path24410"
             style="fill:#896462;stroke:none" />
          <path
             d="M -167.81569,42.655315 L -162.81569,40.655315 L -167.81569,42.655315 z"
             id="path24458"
             style="fill:#ccabab;stroke:none" />
          <path
             d="M -204.81569,65.655315 C -194.70569,61.059315 -185.35569,55.134315 -175.81569,49.607315 C -170.92569,46.777315 -166.80569,46.368315 -165.81569,52.655315 L -163.81569,52.655315 L -162.81569,41.655315 L -161.81569,44.655315 C -160.33569,38.074315 -169.52569,43.655315 -171.81569,44.957315 C -181.28569,50.342315 -199.06569,56.240315 -204.81569,65.655315 z"
             id="path24478"
             style="fill:#513331;stroke:none" />
          <path
             d="M -163.81569,41.655315 L -163.81569,51.655315 C -160.42569,48.989315 -159.04569,46.989315 -159.81569,42.655315 L -161.81569,44.655315 L -163.81569,41.655315 z"
             id="path24490"
             style="fill:#255269;stroke:none" />
          <path
             d="M -351.81569,43.655315 L -351.81569,47.655315 L -350.81569,47.655315 L -351.81569,43.655315 z"
             id="path24576"
             style="fill:#d44a8a;stroke:none" />
          <path
             d="M -311.81569,45.655315 L -311.81569,46.655315 L -296.81569,48.655315 C -298.47669,42.978315 -307.26969,44.175315 -311.81569,45.655315 z"
             id="path24618"
             style="fill:#896462;stroke:none" />
          <path
             d="M -206.81569,65.655315 C -206.81569,70.486315 -217.98569,73.798315 -221.81569,75.822315 C -234.11569,82.313315 -247.08569,88.163315 -258.81569,95.655315 C -262.58569,98.062315 -270.13569,99.776315 -269.64569,105.65531 C -268.81569,115.86731 -248.11569,101.45931 -244.81569,99.488315 C -223.51569,86.765315 -202.09569,74.197315 -180.81569,61.488315 C -177.11569,59.277315 -168.74569,56.702315 -166.31569,53.322315 C -164.76569,51.166315 -165.85569,46.163315 -168.81569,45.988315 C -173.32569,45.723315 -179.48569,51.368315 -182.81569,53.822315 C -188.52569,58.023315 -199.82569,64.183315 -206.81569,65.655315 z"
             id="path24642"
             style="fill:#255269;stroke:none" />
          <path
             d="M -160.48569,48.322315 L -160.14569,48.988315 L -160.48569,48.322315 z"
             id="path24680"
             style="fill:#ccabab;stroke:none" />
          <path
             d="M -296.81569,48.655315 L -296.81569,49.655315 L -279.81569,53.655315 L -296.81569,48.655315 z"
             id="path24702"
             style="fill:#896462;stroke:none" />
          <path
             d="M -208.81569,48.655315 L -207.81569,51.655315 L -249.81569,70.655315 L -249.81569,71.655315 C -234.56569,69.028315 -216.15569,58.414315 -202.81569,50.655315 L -208.81569,48.655315 z"
             id="path24704"
             style="fill:#e0372d;stroke:none" />
          <path
             d="M -347.81569,50.655315 L -329.81569,58.655315 C -332.74469,53.511315 -342.11969,49.955315 -347.81569,50.655315 z"
             id="path24728"
             style="fill:#9c2730;stroke:none" />
          <path
             d="M -199.81569,60.655315 L -189.81569,55.655315 C -193.84569,54.586315 -197.67569,57.318315 -199.81569,60.655315 z"
             id="path24796"
             style="fill:#d8d1b3;stroke:none" />
          <path
             d="M -351.81569,56.655315 L -351.81569,60.655315 L -350.81569,60.655315 L -351.81569,56.655315 z"
             id="path24812"
             style="fill:#d8d1b3;stroke:none" />
          <path
             d="M -288.81569,57.655315 L -276.81569,64.655315 L -273.81569,64.655315 L -272.81569,60.655315 L -288.81569,57.655315 z"
             id="path24818"
             style="fill:#61504a;stroke:none" />
          <path
             d="M -317.81569,62.655315 L -317.81569,63.655315 L -304.81569,67.655315 L -317.81569,62.655315 z"
             id="path24952"
             style="fill:#9c2730;stroke:none" />
          <path
             d="M -344.81569,65.655315 L -344.81569,66.655315 L -317.81569,74.655315 L -317.81569,73.655315 L -344.81569,65.655315 z"
             id="path24990"
             style="fill:#513331;stroke:none" />
          <path
             d="M -342.81569,65.655315 L -342.81569,66.655315 L -336.81569,66.655315 L -342.81569,65.655315 z"
             id="path24992"
             style="fill:#ab9127;stroke:none" />
          <path
             d="M -344.81569,66.655315 L -344.81569,69.655315 L -343.81569,69.655315 L -344.81569,66.655315 z"
             id="path25006"
             style="fill:#8c679e;stroke:none" />
          <path
             d="M -269.81569,95.655315 L -269.81569,97.655315 C -259.78569,97.572315 -253.38569,92.689315 -244.81569,88.240315 C -231.77569,81.466315 -218.57569,75.077315 -205.81569,67.655315 C -211.53569,66.272315 -217.93569,72.331315 -222.81569,74.836315 C -236.39569,81.803315 -254.52569,95.643315 -269.81569,95.655315 z"
             id="path25008"
             style="fill:#513331;stroke:none" />
          <path
             d="M -344.81569,76.655315 C -336.70969,77.468315 -328.98569,82.646315 -321.81569,86.281315 C -304.69969,94.958315 -282.23569,109.65331 -262.81569,109.65531 L -262.81569,108.65531 C -273.23569,107.85031 -266.69569,100.07431 -260.81569,97.655315 C -282.24569,92.482315 -302.01169,80.843315 -322.81569,73.562315 C -331.59669,70.490315 -344.68169,61.843315 -344.81569,76.655315 z"
             id="path25032"
             style="fill:#122662;stroke:none" />
          <path
             d="M -345.81569,69.655315 L -345.81569,73.655315 L -344.81569,73.655315 L -345.81569,69.655315 z"
             id="path25056"
             style="fill:#61504a;stroke:none" />
          <path
             d="M -220.14569,72.988315 L -219.48569,73.322315 L -220.14569,72.988315 z"
             id="path25094"
             style="fill:#896462;stroke:none" />
          <path
             d="M -345.48269,74.322315 L -345.14869,74.988315 L -345.48269,74.322315 z"
             id="path25098"
             style="fill:#aaa9ab;stroke:none" />
          <path
             d="M -343.81569,76.655315 L -343.81569,77.655315 L -337.81569,78.655315 L -343.81569,76.655315 z"
             id="path25112"
             style="fill:#8c679e;stroke:none" />
          <path
             d="M -312.81569,76.655315 L -299.81569,84.076315 L -270.81569,95.655315 L -281.81569,89.194315 L -312.81569,76.655315 z"
             id="path25114"
             style="fill:#513331;stroke:none" />
          <path
             d="M -310.81569,76.655315 L -310.81569,77.655315 L -273.81569,91.655315 C -283.29569,84.803315 -299.09469,77.612315 -310.81569,76.655315 z"
             id="path25116"
             style="fill:#ab9127;stroke:none" />
          <path
             d="M -274.81569,79.655315 L -274.81569,80.655315 L -265.81569,80.655315 L -274.81569,79.655315 z"
             id="path25128"
             style="fill:#e0372d;stroke:none" />
          <path
             d="M -332.14869,80.988315 L -331.48269,81.322315 L -332.14869,80.988315 z"
             id="path25258"
             style="fill:#8c679e;stroke:none" />
          <path
             d="M -310.14869,90.988315 L -309.48269,91.322315 L -310.14869,90.988315 z"
             id="path25760"
             style="fill:#a59075;stroke:none" />
          <path
             d="M -296.14869,97.988315 L -295.48269,98.322315 L -296.14869,97.988315 z"
             id="path25892"
             style="fill:#8c679e;stroke:none" />
          <path
             d="M -290.14569,100.98831 L -289.48569,101.32231 L -290.14569,100.98831 z"
             id="path25902"
             style="fill:#8c679e;stroke:none" />
        </g>
      </g>
    </g>
  </g>
</svg>
