<?xml version="1.0" encoding="UTF-8" standalone="no"?>
<svg xmlns:rdf="http://www.w3.org/1999/02/22-rdf-syntax-ns#" xmlns="http://www.w3.org/2000/svg" height="346.88" viewBox="0 0 420.9375 346.875" width="420.94" version="1.1" xmlns:cc="http://creativecommons.org/ns#" xmlns:dc="http://purl.org/dc/elements/1.1/">
<path d="m182.07 345.7c-0.53731-0.64741-1.2685-2.3389-1.6249-3.7588-0.91989-3.6652-1.8782-3.891-4.5024-1.061-2.9752 3.2087-4.3754 2.2406-4.3754-3.0252 0-3.5424 0.45383-4.6058 2.8125-6.5905 3.0446-2.5618 3.416-4.807 1.5271-9.2311-1.0246-2.3997-0.93718-3.707 0.59524-8.9062 2.974-10.09 9.0919-15.326 27.409-23.455 27.265-12.101 50.036-24.466 44.821-24.339-6.1207 0.14886-16.124 3.0504-20.306 5.8903-19.499 13.239-52.171 14.419-52.171 1.8834 0-2.8549-5.9321-6.7986-10.269-6.8271-5.7984-0.0382-23.21 1.6869-33.378 3.3071-4.6703 0.74411-12.303 1.3529-16.962 1.3529-4.8213 0-14.448 1.029-22.347 2.3886-7.6321 1.3137-15.01 2.1397-16.395 1.8354-1.3853-0.30426-4.3832-0.14505-6.662 0.3538-13.004 2.8466-37.146 4.145-38.401 2.0653-0.81887-1.3568-0.99996-1.3563-2.0699 0.006-5.0233 6.396-28.265 5.378-28.176-1.2342 0.022817-1.6888-0.00929-10.876-0.071357-20.415-0.24427-37.544 0.28166-68.816 1.2319-73.246 0.68827-3.2093 0.70762-7.3283 0.062383-13.281-1.1418-10.56-1.3752-33.03-0.4906-47.53 1.0462-17.16 0.7535-33.945-0.8881-50.944l-1.5243-15.783 2.859-4.456c1.5725-2.45 2.859-4.863 2.859-5.362 0-0.4987 1.9433-3.6258 4.3185-6.9492 5.1935-7.2668 7.8206-12.652 7.8484-16.088 0.05989-7.4045 6.7859-10.7 17-8.3289 8.6856 2.0162 32.829 2.15 41.146 0.22809 11.727-2.7099 34.175-5.7938 42.188-5.7956 8.5028-0.00194 12.514-0.42994 26.25-2.8008 9.6405-1.664 27.943-1.4796 31.875 0.32108 5.4281 2.4856 17.124 9.013 18.692 10.431 1.8134 1.6411 4.7459 0.29184 4.7459-2.1837 0-2.0674 6.281-7.8106 12.304-11.25 4.6476-2.6543 18.527-2.704 19.422-0.069448 0.74127 2.1826 11.856 5.5578 15.813 4.8022 0.62288-0.11893 6.2457 0.64194 12.495 1.6908 6.2494 1.0489 12.722 1.9071 14.383 1.9071 1.6613 0 3.4304 0.40995 3.9315 0.91101 1.1538 1.1538 12.36 2.7961 19.246 2.8204 2.8879 0.01021 6.6429 0.5039 8.3445 1.0971 2.4033 0.83781 4.1606 0.79805 7.8743-0.17814 3.2412-0.85201 11.874-1.308 26.812-1.4163 12.393-0.08982 24.082-0.6244 26.719-1.222 24.218-5.4885 34.484-4.061 29.166 4.0555-2.8401 4.3346-2.0561 6.1199 2.6875 6.1199 3.4477 0 4.4726 0.42048 5.74 2.3548 0.8486 1.2951 2.5285 2.6021 3.7332 2.9045 3.1291 0.78535 4.5415 2.8827 4.5786 6.799 0.0262 2.761 0.41535 3.4651 2.0438 3.6972 3.6843 0.52523 5.5124 3.6406 5.2527 8.9518-0.12969 2.6532-0.40602 16.636-0.61406 31.074-0.2649 18.384-0.86477 29.481-2.0018 37.031-2.2786 15.131-2.5209 27.745-2.0626 107.34 0.33575 58.308 4.8676 52.081-37.463 51.478-44.989-0.64042-55.643-0.99221-65.699-2.1693-4.7858-0.5602-14.911-1.4422-22.5-1.9599-7.5892-0.51776-16.411-1.209-19.604-1.5362l-5.8054-0.59478-6.6912 6.7045c-6.0944 6.1065-16.02 12.296-19.717 12.296-0.58643 0-2.1861 0.78337-3.5547 1.7408-2.4153 1.6896-9.7645 4.239-19.363 6.717-4.1873 1.081-10.537 4.431-20.055 10.581-9.9854 6.4522-12.713 16.205-3.4492 12.334 5.0471-2.1088 15.535 1.1331 15.535 4.802 0 1.8803-3.6983 3.6261-4.9756 2.3488-1.2351-1.2351-2.5244-1.3353-2.5244-0.19619 0 0.45548 0.84375 1.0488 1.875 1.3185 3.3879 0.88595 2.1284 7.2284-1.4354 7.2284-0.1895 0-1.6117-1.3558-3.1604-3.0129-3.4472-3.6885-4.4389-3.0435-2.4904 1.6198 1.5568 3.7259 1.8735 7.7577 0.74369 9.4654-2.188 3.3071-11.182 5.3158-13.155 2.9381zm4.5893-3.276c1.2151-3.1866 0.23015-10.81-1.3297-10.292-1.1437 0.37978-2.755 9.6255-2.0386 11.698 0.68714 1.9882 2.3365 1.2996 3.3683-1.4062zm-1.967-31.602c1.2891-1.744 3.5168-3.8688 4.9505-4.7216 1.4337-0.85285 3.3321-2.2933 4.2188-3.201 0.88662-0.90771 9.2058-4.9325 18.487-8.944s17.789-7.8649 18.907-8.5632c1.1176-0.69823 4.9145-2.8123 8.4375-4.6979 30.003-16.058 39.36-48.536 23.719-82.327-1.5304-3.3066-2.7826-6.2973-2.7826-6.6461 0-2.0272-6.1407-13.351-9.7566-17.991-2.3339-2.9953-6.4723-8.3114-9.1966-11.814-2.7242-3.5021-6.4297-8.225-8.2344-10.495-1.8047-2.2703-4.7578-6.054-6.5625-8.4081-1.8047-2.3542-7.3945-8.102-12.422-12.773-5.0273-4.671-9.1406-9.0962-9.1406-9.8338 0-0.73753-0.63281-1.341-1.4062-1.341-2.8811 0-1.2522 3.4485 4.2068 8.9062 7.4944 7.4925 39.387 47.027 39.387 48.825 0 0.37721 1.0901 2.1151 2.4225 3.8619 5.7755 7.572 13.11 25.942 16.022 40.126 2.9822 14.529 2.5869 19.071-2.5341 29.116-1.0162 1.9933-1.8477 4.1678-1.8477 4.8322 0 0.66442-0.31889 1.208-0.70865 1.208-0.38975 0-1.2308 1.1796-1.869 2.6214-1.4316 3.2342-8.5079 10.504-10.225 10.504-0.69311 0-1.2602 0.34069-1.2602 0.75708 0 0.4164-1.5986 1.4624-3.5525 2.3244-1.9539 0.86205-4.3796 2.3319-5.3906 3.2663-2.6263 2.4274-23.455 13.265-35.588 18.517-12.834 5.5553-17.581 8.7626-20.603 13.92-4.1553 7.0905-2.3912 9.3497 2.3218 2.9733zm-143.58-38.52c2.3542-2.129-17.48-4.4014-20.019-2.2936-2.9391 2.4392-1.4798 3.0911 5.5831 2.4941 4.4636-0.37731 7.2036-0.23792 7.5892 0.38607 0.51471 0.83282 5.776 0.38209 6.8471-0.58659zm-25.025-3.24c1.072 0 3.3643-1.2426 5.0941-2.7614 4.5979-4.037 8.3358-4.7451 27.571-5.2233 29.799-0.74076 36.885-1.3358 46.622-3.9148 10.293-2.7262 19.795-4.1329 30.411-4.502 3.9541-0.13746 9.3886-0.77754 12.077-1.4224 2.9947-0.71841 7.3106-0.94727 11.144-0.59095 4.0233 0.37393 8.8772 0.0803 13.597-0.82275 7.1662-1.3711 7.5573-1.3469 16.557 1.027 5.0698 1.3372 10.181 2.5407 11.358 2.6744 1.1771 0.13371 3.0395 0.53253 4.1386 0.88626 1.3798 0.44409 2.1722 0.18996 2.5602-0.82104 0.72425-1.8874-2.8047-3.2792-8.3143-3.2792-2.2563 0-4.3548-0.4084-4.6633-0.90757-0.3085-0.49916-2.0016-0.8534-3.7626-0.78721-1.7609 0.0662-3.9194-0.4746-4.7968-1.2018-1.2677-1.0508-5.1734-1.28-19.027-1.1169-16.776 0.19752-21.551 0.68821-48.37 4.9706-20.289 3.2398-24.204 3.8246-28.439 4.2487-2.2352 0.22384-4.3993 0.61417-4.809 0.86739-0.69034 0.42665-5.07 0.81008-22.064 1.9317-12.172 0.80334-16.434-4.8915-21.075-28.161-0.61704-3.0938-2.6139-11.742-4.4374-19.219-4.4685-18.321-5.767-27.948-6.818-50.548-0.85455-18.376-1.9381-24.469-3.1522-17.725-1.4127 7.8468-0.83242 67.797 0.78793 81.398 1.9524 16.388 1.1562 37.5-1.4141 37.5-1.4121 0-1.5561-10.756-0.21329-15.938 1.2493-4.8212 1.194-5.6741-0.85214-13.125-1.9313-7.0327-2.172-9.8409-2.0492-23.906 0.6649-76.164 0.31122-93.65-1.8504-91.489-0.71976 0.71976-0.99772 10.142-0.90844 30.794 0.09124 21.108-0.21685 31.256-1.0599 34.913-0.65369 2.8359-1.2665 6.5743-1.3617 8.3074-0.095253 1.7332-0.58478 3.9203-1.0878 4.8602-1.306 2.4402-1.1296 3.9904 0.38776 3.4082 1.5859-0.60857 3.0634 8.647 3.8639 24.205 0.29183 5.6719 0.95553 14.139 1.4749 18.815 0.56427 5.0809 0.61401 9.9856 0.1236 12.188-0.45138 2.0266-0.50764 4.843-0.12502 6.2585 0.7798 2.8849-0.42866 4.2361-2.3571 2.6356-0.91202-0.75691-1.0504-1.9763-0.50076-4.4132 0.4177-1.852 0.53336-3.9565 0.25702-4.6767-0.27634-0.72014-0.01347-2.4898 0.58416-3.9326 0.74755-1.8047 0.79933-3.3788 0.16595-5.0448-0.50636-1.3318-1.1769-8.2649-1.4901-15.407-0.62615-14.278-1.2269-18.738-2.3611-17.531-0.41114 0.43768-0.37241 7.9677 0.086071 16.733 0.45848 8.7656 0.79049 20.367 0.73779 25.781-0.052701 5.4141 0.40235 11.685 1.0112 13.935l1.107 4.0914 1.8466-1.982c1.0156-1.0901 2.7237-1.982 3.7956-1.982zm50.478 0.41841c1.8047-0.35969 3.8031-1.07 4.441-1.5784 0.63784-0.50842 2.1315-0.6805 3.3193-0.38239 1.3213 0.33164 3.3362-0.17356 5.1911-1.3016 1.6673-1.014 4.4525-1.8436 6.1893-1.8436s8.4536-1.2656 14.926-2.8125c6.4727-1.5469 13.584-2.8226 15.804-2.8349 2.2195-0.0123 5.7229-0.4149 7.7854-0.89467 11.038-2.5676 48.435-3.2467 57.34-1.0412 9.9629 2.4676 14.152 2.3067 8.2854-0.31817-9.3973-4.2047-34.662-5.5652-51.094-2.7516-3.8672 0.66219-9.5625 1.1902-12.656 1.1733-7.4523-0.0406-22.986 2.3763-30 4.6675-5.8724 1.9184-15.408 2.8539-35.156 3.449-15.401 0.46409-25.853 1.5996-25.492 2.7694 0.1591 0.51562 1.0028 0.82872 1.875 0.69578 1.5728-0.23976 21.102-0.48163 25.372-0.31423 6.1416 0.24078-0.25066 2.8997-6.9711 2.8997-5.9687 0-8.7386 0.73134-7.4939 1.9786 0.45977 0.46073 13.958-0.68793 18.335-1.5602zm29.062-2.7192c1.8047-0.26925 5.3906-0.89127 7.9688-1.3822 2.5781-0.49098 7.2467-0.91784 10.375-0.94859 3.128-0.0308 7.9795-0.46863 10.781-0.9731 12.65-2.2776 43.314-3.372 52.711-1.8811 7.5382 1.196 9.8624 0.73329 6.9635-1.3865-3.3053-2.4169-37.934-3.0916-48.486-0.94476-1.2891 0.26226-4.2422 0.69207-6.5625 0.95513s-6.1172 0.86409-8.4375 1.3356c-2.3203 0.47154-8.0182 1.1158-12.662 1.4318-8.7117 0.59269-22.455 3.6047-20.084 4.4016 0.73672 0.24759 1.9723 0.32223 2.7457 0.16589 0.77344-0.15636 2.8828-0.50459 4.6875-0.77384zm273.75-0.20634c0.77344-0.31343 5.8359-0.69859 11.25-0.85591 17.468-0.50757 22.514-0.96321 23.69-2.1393 1.4952-1.4946 3.2305-63.975 2.8084-101.12-0.17093-15.04 0.15898-31.43 0.7643-37.969 0.58578-6.3282 1.4523-22.053 1.9256-34.943 0.47332-12.891 1.0884-27.656 1.3669-32.812 0.41442-7.673 0.28575-9.1572-0.70875-8.1752-1.7025 1.681-2.4622 10.037-3.5137 38.644-0.50221 13.664-1.3569 29.273-1.8992 34.688-0.54238 5.4141-1.2175 31.57-1.5002 58.125-0.95555 89.741 1.0995 80.579-18.488 82.432-4.9908 0.47218-9.4151 1.0692-9.8317 1.3267-0.41664 0.25749-6.1007 0.70429-12.631 0.99288-6.5306 0.28859-12.426 0.63836-13.1 0.77726-0.67451 0.1389-1.2264-0.38027-1.2264-1.1537 0-1.1134 1.503-1.4419 7.218-1.5774 5.7171-0.13553 7.78-0.5866 9.9206-2.1692 1.4864-1.099 3.3008-2.0969 4.032-2.2177 0.73117-0.1208 2.1732-0.67276 3.2044-1.2266 1.0312-0.55383 3.9844-1.3067 6.5625-1.673 16.534-2.3493 16.408-1.7176 17.027-85.355 0.48244-65.141 0.93483-86.736 1.9541-93.281 1.112-7.1406 1.0366-43.969-0.0936-45.749-1.5663-2.4663-3.4187 0.74114-3.4187 5.9196 0 2.7177-0.60602 10.787-1.3467 17.932-1.6698 16.107-1.9615 38.75-0.67464 52.366 1.1816 12.502 1.5444 23.874 0.82233 25.781-0.95421 2.52-1.9819 41.267-1.5914 60 1.032 49.506-0.45151 59.049-9.1843 59.077-4.855 0.0155-8.5456 1.1497-15.682 4.8196-5.7862 2.9757-8.5721 3.4958-21.977 4.1028-5.8375 0.26432-10.987 0.71122-11.443 0.99309-1.9267 1.1908 0.60212 2.2579 5.3504 2.2579 3.8041 0 5.1009 0.34168 5.1009 1.344 0 1.9466 20.871 2.6362 25.312 0.8364zm-48.211-1.356c0.55004-0.88997-0.79647-1.0674-6.6324-0.87385-2.0625 0.0683-11.133-0.5619-20.156-1.4006-22.957-2.1339-23.664-2.2142-24.196-2.7461-0.73474-0.73476-2.9913 1.4565-2.9913 2.9048 0 1.0225 2.392 1.3075 11.484 1.3684 6.3164 0.0423 17.602 0.57774 25.078 1.1898 13.735 1.1245 16.489 1.0545 17.414-0.44241zm-61.268-12.195c1.0199-2.7697 2.4054-8.2702 3.079-12.223 0.67356-3.953 1.5102-8.087 1.8592-9.1867 1.0057-3.1686-7.8891-29.74-13.506-40.345-0.95577-1.8047-2.0146-4.1962-2.3531-5.3144-1.0823-3.5761-10.984-19.316-16.271-25.865l-5.1148-6.3356-2.5409 4.0066c-1.3975 2.2036-4.7533 5.8984-7.4574 8.2106-2.704 2.3122-6.4214 5.5005-8.2608 7.0851l-3.3443 2.8811-0.17445 38.135c-0.0959 20.974 0.0357 38.135 0.29263 38.135 0.25689 0 1.1331-0.57529 1.9472-1.2784 5.181-4.4751 28.427-7.52 44.373-5.8123 5.7169 0.61223 9.034 2.4032 4.451 2.4032-1.9773 0-2.5228 1.364-0.9375 2.3438 2.374 1.4672 0.2173 2.102-8.8944 2.618-9.6249 0.54505-13.99 1.6109-11.896 2.9049 0.55721 0.34438 4.856 0.13332 9.5529-0.46904 6.3866-0.81904 8.8089-0.82602 9.6073-0.0276 1.6631 1.6631-0.55378 3.2467-4.6688 3.3351-4.8406 0.10402-5.3512 1.8298-0.73243 2.4753 5.5034 0.76915 8.7022-1.4652 10.989-7.6757zm51.355 6.8055c0-1.448-28.44-4.6718-31.353-3.5541-2.8856 1.1073-0.4773 2.493 4.4552 2.5634 2.6766 0.0383 6.765 0.40729 9.0853 0.82016 5.8614 1.0429 17.812 1.1574 17.812 0.17051zm30.365-1.0968 6.666-0.0367l-3.29-1.43c-1.8058-0.78951-4.7568-1.2499-6.5625-1.0238-3.1694 0.39683-17.578-1.2825-26.25-3.0596-2.3203-0.47546-11.006-1.0864-19.301-1.3576-15.572-0.50912-18.539-0.96881-17.912-2.7759 0.81297-2.3448 28.73-0.50343 55.494 3.6603 12.277 1.9099 29.164 1.273 38.906-1.4672 3.8672-1.0877 8.9197-2.3744 11.228-2.8592 7.5668-1.5895 7.0151 2.8077 7.3756-58.783 0.17721-30.274 0.27522-62.216 0.21782-70.982-0.0574-8.7656-0.21276-34.289-0.34524-56.719-0.29028-49.146 1.3381-45.336-17.605-41.19-4.8621 1.0641-11.298 2.3023-14.302 2.7514-3.004 0.44911-6.4164 1.442-7.5831 2.2064-2.176 1.4257-8.1962 1.8449-43.544 3.0315-13.331 0.44755-16.202 0.32007-15.863-0.70449 0.48369-1.4645 8.5482-2.2993 29.327-3.0358 38.166-1.3527 34.076-3.7161-6.5625-3.7915-24.698-0.04581-38.557-0.94747-53.092-3.4541-11.133-1.9199-13.542 0.22021-8.2892 7.3629 14.373 19.545 6.3711 89.726-13.434 117.82-2.2952 3.2559-2.7462 2.3681 9.1769 18.067 4.6331 6.1005 9.619 13.388 11.08 16.193 1.4608 2.806 3.4194 6.181 4.3523 7.5 1.7025 2.4071 4.8319 8.9318 10.143 21.148 5.7199 13.156 6.6934 33.127 2.1021 43.125-4.3459 9.4638-4.3592 11.018-0.0635 7.4031l2.9921-2.5177 13.298 0.54802c7.3136 0.30142 14.774 1.0501 16.579 1.6637 4.9983 1.6994 19.644 3.5988 24.271 3.1477 2.2634-0.22062 7.1149-0.41762 10.781-0.43781zm-11.62-9.88c-4.3828-0.69997-9.8672-1.6901-12.188-2.2002-2.3203-0.51013-5.8008-0.94589-7.7344-0.96834-1.9752-0.023-3.5156-0.50743-3.5156-1.1058 0-1.0799 2.3345-0.88883 14.062 1.1512 2.8359 0.49329 8.5312 1.1192 12.656 1.391 9.3788 0.61784 11.948 1.1439 11.233 2.3002-0.72213 1.1684-4.5889 1.0171-14.514-0.56812zm0.46875-5.1015c-2.5781-0.37985-9.2227-1.2496-14.766-1.9328-5.543-0.68322-10.078-1.5786-10.078-1.9899 0-1.2304 11.246-0.81519 18.281 0.67485 3.6092 0.76449 9.199 1.39 12.422 1.39 4.5836 0 5.8597 0.30624 5.8597 1.4062 0 1.5486-3.387 1.6792-11.719 0.45162zm-10.781-7.5308c-3.3516-0.96699-7.9922-1.8117-10.312-1.8772l-4.2188-0.11901 3.159-0.9088c2.1528-0.61935 5.1389-0.55148 9.375 0.21309 3.4188 0.61704 9.38 1.3804 13.247 1.6965 3.8672 0.31603 7.0312 0.99647 7.0312 1.5121 0 1.6672-11.875 1.3315-18.281-0.51668zm2.3438-6.1935c-10.653-0.85562-23.281-4.0711-15.989-4.0711 11.384 0 28.826 2.4692 26.744 3.7861-1.3478 0.8524-3.1098 0.8991-10.755 0.28503zm-5.625-7.734c-3.2946-0.39067-4.6875-0.9737-4.6875-1.9621 0-1.5729 15.715-1.5103 19.896 0.0792 6.2176 2.364-2.2796 3.4159-15.208 1.8828zm-1.4-7.95c0-2.1964 6.622-3.1443 13.023-1.8641 2.3623 0.47246 2.7336 0.84331 1.8774 1.875-1.52 1.83-14.9 1.82-14.9-0.01zm3.9787-133.94c0.42417-1.2912 6.5879-2.1035 8.9842-1.1839 1.3123 0.50356 1.3305 0.69881 0.13578 1.4544-2.1498 1.3595-9.583 1.1391-9.12-0.27045zm-6.18-8.629c-0.53618-1.3973 5.686-2.365 15.289-2.3779 5.1912-0.0069 5.8634 0.17743 4.6875 1.2859-1.9348 1.8238-19.331 2.7748-19.977 1.092zm-3.8405-7.9212c-1.0214-1.6527 1.2594-2.0638 14.617-2.6351 9.701-0.4149 13.105-0.28456 12.63 0.48362-1.164 1.8835-26.192 3.8597-27.247 2.1515zm-2.7844-7.4544c-0.83213-1.3464 1.6321-1.7961 13.51-2.4654 5.4141-0.30505 12.27-0.80383 15.234-1.1084 5.6403-0.57942 7.5137 0.80262 3.2734 2.4148-3.5048 1.3325-31.289 2.3382-32.018 1.159zm-4.3-8.983c0-1.657 1.2008-1.9377 8.4375-1.9721 4.3828-0.02081 12.504-0.40133 18.047-0.84559 10.455-0.83795 13.958 0.31296 6.5625 2.1561-3.7976 0.94651-33.047 1.532-33.047 0.66151zm5.1562-6.0996c-1.5469-0.42298-4.4648-0.81897-6.4844-0.87998-2.0195-0.061-3.3716-0.41123-3.0045-0.77827 0.36704-0.36704 6.871-0.69158 14.453-0.72119 7.5822-0.02962 15.344-0.41352 17.249-0.85314 3.7683-0.8696 12.322 0.03264 11.587 1.2222-0.2499 0.40434-5.0042 1.0023-10.565 1.3289-5.5609 0.32653-12.431 0.78649-15.267 1.0221-2.8359 0.23565-6.4219 0.08238-7.9688-0.3406zm-14.021-6.5481c-0.97733-1.5814 0.58512-1.7628 20.114-2.3358 10.055-0.29502 21.34-0.80585 25.078-1.1352 5.79-0.51 6.79-0.383 6.79 0.869 0 1.6425-4.8701 2.0718-34.821 3.0695-11.449 0.38138-16.733 0.23746-17.169-0.46762zm103.18 221.9c4.0232-1.8331 4.9404-16.547 5.4501-87.438 0.19649-27.328 0.841-58.969 1.4322-70.312 0.59123-11.344 1.2386-25.266 1.4387-30.938 0.20004-5.6719 0.62189-14.742 0.93746-20.156 0.3529-6.0548 0.20996-10.382-0.37138-11.242-2.1778-3.2223-2.8613 1.1633-3.3395 21.428-0.27158 11.509-0.72134 21.294-0.99947 21.745-0.68009 1.1004-1.37 36.387-1.8226 93.225-0.60686 76.199-0.76251 78.162-6.3921 80.585-5.5214 2.3762-9.5569 3.7696-10.266 3.5446-0.38671-0.1226-0.70312 0.24811-0.70312 0.82381 0 1.2454 11.263 0.27192 14.636-1.2651zm-317.45-3.18c5.9297-1.2743 15.422-3.1768 21.094-4.2278 5.6719-1.051 13.898-2.6835 18.281-3.628 12.351-2.6614 26.271-4.0772 34.525-3.5115 5.638 0.38643 7.987 0.18325 9.4108-0.81405 1.251-0.87623 4.5724-1.3487 9.7488-1.3867 4.3182-0.0317 8.455-0.44613 9.1929-0.92094 2.6871-1.7292-1.3281-2.7094-11.158-2.724-7.3295-0.0109-9.592-0.29959-9.295-1.1862 0.2837-0.84698 2.5127-1.0803 8.0395-0.84171 6.4831 0.27991 7.7388 0.0909 8.2501-1.2415 0.51374-1.3388 1.8238-1.5274 8.8407-1.2729 8.2031 0.29752 10.046-0.10277 8.913-1.936-0.37026-0.59912-3.5094-0.78133-8.297-0.4816-4.2358 0.26519-11.422 0.20184-15.969-0.14076l-8.2676-0.6229 1.9812-1.8457c1.5255-1.4212 2.7802-1.7201 5.4551-1.2995 6.9601 1.0943 22.693 1.4801 22.693 0.55637 0-1.6019-9.9532-3.0052-20.183-2.8455-6.1372 0.0958-16.175-2.4724-11.223-2.8717 3.3334-0.26882 18.526 0.2345 26.953 0.89296 6.5378 0.51082 8.2031 0.38674 8.2031-0.61119 0-0.68867 0.42188-0.99138 0.9375-0.67271 0.51563 0.31868 0.9375 0.16615 0.9375-0.33893 0-1.0206-3.4446-1.9045-8.4375-2.1653-1.8047-0.0943-3.8062-0.56823-4.4477-1.0533-0.64157-0.48504-2.3291-0.65591-3.75-0.3797-2.5009 0.48613-16.147-0.66121-20.816-1.7501-5.7627-1.3441 1.3763-2.0778 16.428-1.6883 11.216 0.29024 16.376 0.10095 16.82-0.61706 0.44107-0.71366 1.1524-0.5721 2.2876 0.45525 1.4989 1.3565 1.758 1.3578 2.8733 0.014 1.8107-2.1818-1.1546-5.1084-3.6175-3.5703-1.2845 0.8022-4.5027 0.63855-13.344-0.6786-6.4083-0.95465-13.42-1.755-15.58-1.7786-2.161-0.0235-4.1766-0.44342-4.4792-0.93299-0.95895-1.5516 6.0219-2.2055 13.914-1.3033 13.372 1.5286 21.682 1.1071 21.682-1.0999 0-1.191-0.67631-1.9138-1.875-2.0038-1.0312-0.0775-5.4609-0.44143-9.8438-0.80874-4.3828-0.36731-11.555-0.96199-15.938-1.3215-7.5491-0.61924-7.8206-0.71644-5.1562-1.8457 3.0433-1.2899 29.468-1.0274 32.578 0.32355 2.4906 1.0819 2.0944-1.9669-0.46875-3.6066-1.5206-0.97276-6.6886-1.5158-18.516-1.9457-9.0234-0.32796-16.754-0.94322-17.179-1.3672-1.4178-1.4137 6.2576-2.1191 19.693-1.8098 7.3133 0.16833 13.539 0.0639 13.835-0.23198 2.6455-2.6455-12.942-5.7244-24.552-4.8494-5.874 0.44273-6.7969 0.30425-6.7969-1.0199 0-1.7959 0.19812-1.8402 9.375-2.0974 3.8672-0.10835 9.9844-0.37798 13.594-0.5992 3.6923-0.22631 7.2614 0.0274 8.1605 0.57994 2.1836 1.3421 3.0069 0.23977 1.5561-2.0834-1.5124-2.4217-3.9254-2.9775-9.2478-2.1301-2.3203 0.36944-5.2734 0.37613-6.5625 0.0149-1.2891-0.36127-5.6791-0.42143-9.7555-0.13368-5.4817 0.38693-7.2373 0.24076-6.7415-0.56131 0.36863-0.59646 1.6194-1.0845 2.7795-1.0845 4.7066 0 5.7782-2.2295 2.2377-4.6555-6.5033-4.4562-9.7765-12.013-8.7237-20.142 1.2767-9.8574 3.5962-16.114 6.2912-16.969 1.0184-0.32323 1.7249-1.4336 1.7249-2.7108 0-1.6538 0.66253-2.2959 2.8125-2.7259 4.101-0.8202 3.5445-3.0652-0.9375-3.7819-6.1938-0.99042-4.2974-2.4525 3.181-2.4525 8.9529 0 10.945-2.3183 2.86-3.3284-7.3886-0.92314-6.2621-2.2966 1.8837-2.2966 12.832 0 16.899-4.4151 4.4972-4.8824-8.1059-0.30548-9.8826-1.9866-2.5781-2.4394 5.4442-0.33754 6.7801-1.2328 4.7976-3.2154-1.0632-1.0632-2.3649-1.2433-5.2165-0.72186-3.3319 0.60929-3.7998 0.47947-3.7998-1.0543 0-1.4156 0.71497-1.7491 3.75-1.7491 2.0625 0 3.75-0.3375 3.75-0.75 0-1.7298-2.4845-3-5.8678-3-4.1313 0-3.9467-1.4236 0.30577-2.3576 5.4462-1.1962 3.1014-3.6732-3.9803-4.2049-9.8414-0.73888-9.7426-2.5214 0.16738-3.0212 4.5605-0.23 5.1913-0.50692 5.4594-2.3969 0.28966-2.0416 0.0511-2.1269-5.351-1.9135-9.2565 0.36556-9.4632-1.6823-0.26684-2.6435 8.628-0.9018 8.5692-4.0806-0.0759-4.1017-5.8042-0.01422-9.2775-1.0988-7.9073-2.469 0.39067-0.39067 4.0699-0.59578 8.176-0.45581 7.0047 0.23879 7.4657 0.13479 7.4657-1.6844 0-1.7217-0.56918-1.9389-5.0796-1.9389-2.7938 0-5.7445-0.25514-6.5571-0.56699-2.89-1.117-0.34-2.25 5.06-2.25 6.235 0 8.4588-0.61175 8.4588-2.3269 0-1.3896-4.1294-2.3606-10.039-2.3606-2.9338 0-4.0595-0.34931-3.7765-1.1719 0.28491-0.828 3.0414-1.1719 9.3938-1.1719 5.7887 0 9.3999-0.40494 10.14-1.137 1.92-1.894-3.02-3.082-12.81-3.082-8.7305 0-11.617-1.0863-5.9155-2.2266 4.6124-0.92249 9.4508-0.69682 17.313 0.80749 7.7777 1.4881 8.8336 1.3514 6.9634-0.90202-0.79-0.952-2.85-1.429-6.17-1.429-2.7392 0-6.0887-0.42136-7.4432-0.93634-1.3545-0.51499-5.4031-1.2096-8.9968-1.5436-11.377-1.0574-8.7002-2.4783 3.9426-2.0928 7.1678 0.21852 11.793-0.0048 12.082-0.58343 0.77798-1.556-7.4264-3.1257-16.755-3.2058-7.6992-0.06611-8.6422-0.2495-7.6196-1.4817 0.91318-1.1003 3.5046-1.4062 11.912-1.4062 8.1836 0 10.649-0.27932 10.345-1.1719-0.27067-0.79443-2.636-1.1761-7.3438-1.1849-20.541-0.03862-22.47-2.0287-2.4355-2.5123 6.5424-0.15793 11.896-0.60355 11.896-0.99027 0.00093-0.99899 0.66727-0.91796-12.655-1.5402-7.1205-0.33256-12.188-0.95897-12.188-1.5067 0-1.1735 18.368-2.2476 23.23-1.3584 2.3747 0.43425 3.4538 0.31738 3.2313-0.34996-0.59108-1.7732-5.5634-2.5461-17.79-2.7651-16.189-0.28996-17.041-3.4522-0.93751-3.4825 3.7383-0.007 6.7969-0.37948 6.7969-0.82764 0-1.1589-5.8504-1.9753-14.242-1.9873-7.1052-0.01017-9.8937-1.1569-7.2067-2.9637 1.1923-0.80172 16.72-0.40021 25.667 0.6637l3.75 0.44591-3.2812-1.3073c-9.1499-3.6455-29.843-3.8686-52.681-0.56817-3.4509 0.49872-11.256 0.90468-17.344 0.90213-7.0075-0.0029-12.617 0.48649-15.288 1.3338-2.3203 0.73613-8.2266 2.2791-13.125 3.4289s-9.7052 2.4953-10.682 2.9901c-2.5529 1.2936-38.214 1.1793-40.661-0.13023-2.5284-1.3532-4.8229-0.44664-5.3023 2.0949-1.9527 10.352-5.8511 61.38-4.8821 63.905 0.52729 1.3741 1.5634 1.4909 8.0969 0.91252 6.524-0.579 7.49-0.471 7.49 0.839 0 1.1745-1.001 1.5038-4.5703 1.5038-9.2146 0-10.162 0.52515-10.848 6.0123-1.0028 8.026 0.25377 9.9252 6.5667 9.9252 6.9614 0 6.5038 2.1578-0.59646 2.8125l-5.0835 0.46875 0.23532 18.75c0.32585 25.963 2.7832 41.446 6.9302 43.666 1.2448 0.66619 1.4985 1.6317 1.0901 4.1482-0.3408 2.1001-0.1509 3.3221 0.52791 3.3971 0.58309 0.0644 1.5875 0.17026 2.232 0.23513 0.74638 0.0751 1.1719 1.6494 1.1719 4.3359 0 4.1685 0.03473 4.2147 2.9615 3.9351 3.7904-0.3621 4.9412 1.4042 1.7142 2.6312-1.6128 0.61318-2.3575 1.5062-2.1485 2.5764 0.30687 1.5715 0.97146 1.7378 8.0751 2.0205 2.5205 0.10031 1.8435 1.9612-0.71348 1.9612-2.275 0-3.1217 2.4144-1.4373 4.0987 1.0118 1.0118 2.209 1.1405 4.882 0.52482 3.5845-0.82557 6.8228-0.39875 6.8228 0.89927 0 0.38994-1.582 1.0998-3.5156 1.5774-1.9336 0.47766-3.3047 1.2904-3.0469 1.806 0.47113 0.94225 5.7908 1.207 8.4652 0.42128 0.78868-0.2317 1.6324-0.007 1.875 0.50032 0.24257 0.50688-1.1456 1.1795-3.0849 1.4947-4.2143 0.68501-4.8683 1.2163-4.0672 3.3039 0.52436 1.3665 1.5633 1.5015 7.6158 0.98989 7.7993-0.65928 10.613 1.5121 3.493 2.6954-8.9173 1.482-7.8362 3.5557 2.1834 4.1882 7.1885 0.45376 7.8269 1.875 0.84217 1.875-3.0821 0-5.0196 1.3668-3.7429 2.6405 0.35323 0.35241 3.6281 0.64075 7.2776 0.64075 7.6057 0 9.974 1.8889 3.6386 2.902-3.1129 0.49778-3.8673 1.0424-4.324 3.1219-0.30429 1.3854-1.6979 3.2154-3.0968 4.0665-1.3989 0.85116-4.6809 3.5696-7.2931 6.0411-2.6123 2.4714-6.2622 5.3054-8.1109 6.2977-8.3481 4.4808 9.0766 5.0293 28.329 0.89179zm-12.433-4.7533c-0.90866-0.23556-1.4111-0.81822-1.1165-1.2948 0.72505-1.1732 7.9249-1.1087 7.9249 0.071 0 0.51562-0.59831 0.9375-1.3296 0.9375-0.73126 0-1.8914 0.16079-2.5781 0.35732-0.6867 0.19652-1.992 0.1646-2.9007-0.071zm4.6755-7.4192c-0.34577-0.34577-0.4043-0.99169-0.13008-1.4354 0.69621-1.1265 5.0754-1.0137 5.0754 0.13076 0 0.51562-0.38737 0.9375-0.86082 0.9375s-1.4447 0.22405-2.1583 0.49791c-0.71364 0.27384-1.5804 0.215-1.9262-0.13077zm-43.804-135.33c0-2.1692 9.3629-2.4264 10.079-0.27685 0.28107 0.84416-1.0736 1.1719-4.8442 1.1719-2.8789 0-5.2344-0.40276-5.2344-0.89502zm0.59848-7.0737c0.59181-1.5422 8.7765-2.0729 8.7765-0.56905 0 1.1887-2.4455 1.9753-6.141 1.9753-2.4372 0-3.0497-0.32684-2.6355-1.4062zm-0.37-10.466c-2.697-1.088 0.284-2.19 5.921-2.19 5.7382 0 7.7806 1.0058 4.5555 2.2434-1.7407 0.66798-8.7754 0.63187-10.476-0.05379zm1.8808-6.0704c-4.952-1.399-3.494-2.682 3.047-2.682 5.2897 0 6.0938 0.22736 6.0938 1.7231 0 1.985-4.015 2.4062-9.1406 0.95871zm-3.047-5.858c0-1.5923 1.3308-2.0663 8.2813-2.9494 4.8623-0.61778 4.9914-0.57445 4.6875 1.5728-0.388 2.74-12.969 4.075-12.969 1.377zm2.0494-6.9029c0.39273-2.0658 9.9732-2.9555 11.159-1.0363 1.278 2.0678-0.04938 2.6769-5.8329 2.6769-4.8637 0-5.5956-0.22541-5.3265-1.6406zm-0.174-4.821c0-2.2034 6.1551-2.5784 8.8511-0.53924 1.669 1.262 1.377 1.376-3.516 1.376-2.934 0-5.335-0.377-5.335-0.837zm21.459 185.73c2.8201-2.6448 10.596-9.0589 11.961-9.8665 2.1379-1.2646 1.4877-5.7512-1.1923-8.2275-2.6947-2.4899-10.841-12.448-16.812-20.55-5.1742-7.0214-12.06-19.447-13.979-25.225-3.2814-9.8794-5.456-4.7194-2.9147 6.916 0.90382 4.1382 2.4273 11.43 3.3856 16.204 0.95826 4.7742 1.9737 9.0547 2.2565 9.5123 0.6323 1.0231 8.0235 25.496 8.0235 26.566 0 6.1708 4.9911 8.685 9.2716 4.6706zm189.02-1.1701c0.39089-0.63246-0.78876-0.74779-3.4603-0.33828-5.3571 0.82117-5.7184 1.2979-0.98369 1.2979 2.118 0 4.1178-0.43182 4.444-0.95962zm-47.35-3.28c0-2.7604-15.34-5.8244-22.046-4.4037-5.3878 1.1414-2.1087 2.6963 9.1392 4.3337 11.942 1.7386 12.907 1.7438 12.907 0.0699zm8.5742-76.319c9.32-3.52 25.18-15.47 25.18-18.97 0-1.5524-4.9872-4.0975-5.4294-2.7708-3.8937 11.681-35.975 23.985-45.031 17.27-13.046-9.6723-8.2173-21.475 17.564-42.933 24.085-20.047 30.159-28.84 30.177-43.685 0.0266-22.13-27.091-27.915-37.671-8.0365-3.6198 6.8007-2.1104 24.495 2.4555 28.784l2.1933 2.0605-1.9319-6.4365c-5.9764-19.912 7.302-37.446 23.074-30.47 10.344 4.5757 10.311 18.854-0.0757 32.695-2.7058 3.6056-27.229 24.901-31.742 27.563-17.257 10.182-21.207 34.796-7.18 44.743l4.3793 3.1056 9.375-0.45759c6.3569-0.31028 11.079-1.1017 14.668-2.4584zm-8.7185-7.1992c7.1176-2.0277 7.7525-2.8081 4.5451-5.5864-2.8181-2.4411-5.2843-2.8951-6.9077-1.2717-0.71676 0.71676-2.5704 0.7178-6.4339 0.004-6.4198-1.1868-6.8895-1.5195-4.9219-3.4871 1.583-1.583 17.043-0.14035 18.179 1.6963 0.80714 1.306 3.1841 0.87042 3.1841-0.58344 0-0.84909-1.3268-1.5799-3.5156-1.9365-1.9336-0.31503-5.4888-1.1764-7.9006-1.9142-2.4117-0.73781-4.9757-1.1148-5.6977-0.83771-0.72203 0.27707-2.5157 0.0464-3.9859-0.51259-7.2985-2.7749-7.7418 5.4211-0.64564 11.936 4.8654 4.4669 6.2902 4.7189 14.101 2.4937zm-8.7012-2.1417c-0.69264-1.1207 1.7206-1.9732 5.5856-1.9732 3.4411 0 5.0612 1.3429 2.7091 2.2455-2.2365 0.8582-7.707 0.67863-8.2947-0.27229zm27.235-5.8805c10.02-7.5296 10.817-10.216 4.8139-16.225-2.1914-2.1935-4.6172-4.9095-5.3906-6.0356-2.8919-4.2105-17.812-6.2105-17.812-2.3876 0 1.5406 5.3211 2.7707 6.8353 1.5802 5.7899-4.5521 7.9813 1.6791 6.5586 18.649-0.61314 7.3135 0.1935 8.0271 4.9953 4.4189zm-10.211-7.6514c-0.17118-0.51354-0.92118-1.0237-1.6667-1.1338-0.74548-0.11001-3.6757-0.64358-6.5117-1.1857-8.8325-1.6884-15-2.1857-15-1.2094 0 1.3907 1.6589 2.1303 5.4596 2.4341 1.8956 0.15151 4.9232 0.66117 6.7278 1.1326 4.4142 1.153 11.38 1.1291 10.991-0.0378zm0.50705-4.9392c1.0556-1.0556-0.44734-3.1896-2.2464-3.1896-1.0382 0-2.1616-0.95652-2.6585-2.2635-1.0194-2.6813-4.4344-4.0509-5.9842-2.3999-0.81397 0.86708-0.79089 1.2529 0.0944 1.5775 3.5779 1.3119 0.97703 3.1247-3.61 2.5162-6.3231-0.83879-6.6755 2.522-0.36526 3.4836 5.1686 0.78767 14.092 0.95426 14.77 0.27576zm36.049-5.299c6.707-13.228 10.569-25.569 16.797-53.672 3.5111-15.844 0.91117-42.445-5.3722-54.966-4.4841-8.9354-23.281-21.427-30.27-20.116-6.869 1.2886-7.2158 3.3002-0.57645 3.3427 24.75 0.15829 37.381 31.379 30.54 75.489-2.5927 16.719-7.1508 28.991-17.436 46.946-2.1773 3.8007-2.1792 3.8336-0.38078 6.2987 2.6151 3.5845 3.3914 3.1994 6.6982-3.3224zm-7.8078-4.2188c0.90669-1.9336 2.7225-5.0872 4.035-7.008 11.592-16.963 17.205-68.011 9.688-88.103-4.0097-10.717-14.149-21.33-19.173-20.069-13.804 3.4645-15.93 6.4246-15.686 21.831 0.22998 14.482 0.19685 14.364 4.0291 14.364 3.8556 0 10.521 5.5787 12.462 10.431 5.2915 13.225 2.158 26.811-10.291 44.619-5.3026 7.5854-5.2706 7.9734 1.2583 15.276 2.9903 3.3444 6.394 7.4518 7.5638 9.1276 2.7544 3.9456 4.0912 3.8431 6.1131-0.46875zm-210.05-47.938c0.119-21.715-0.053-39.482-0.384-39.482-2.3872 0-3.3349 62.067-1.1635 76.203 1.1096 7.2239 1.3352 1.87 1.547-36.721zm181.95 18.076c2.0797-0.79806 0.88831-2.2455-1.8483-2.2455-2.2277 0-2.9289 0.92205-1.6634 2.1875 0.77363 0.77362 1.6108 0.78746 3.5117 0.058zm-1.448-6.5408c1.3836 0.85513 2.2292-1.0846 1.2418-2.8489-0.58641-1.0479-1.0657-1.1988-1.5123-0.47618-0.3596 0.58184-1.8946 1.0579-3.411 1.0579-2.8883 0-3.6187 1.576-1.645 3.5497 0.85793 0.85792 1.4874 0.77263 2.7534-0.37309 0.90268-0.81691 2.0605-1.2261 2.573-0.90941zm12.283-5.9612c5.346-10.59 4.5767-20.176-1.7975-22.398-3.7144-1.2949-3.595-1.7495-3.7159 14.139-0.12263 16.112 0.82935 17.538 5.5134 8.2591zm-11.399-0.7519c-0.18415-0.9562-1.4759-1.8521-3.1156-2.1609-2.5686-0.48375-2.6332-0.58456-0.77828-1.2148 4.1081-1.3958 3.4103-3.4284-1.177-3.4284-5.6117 0-5.8374 4.0677-0.37705 6.7954 4.1607 2.0785 5.847 2.0812 5.4479 0.0087zm1.11-10.794c0-6.4138-3.2033-10.487-6.0268-7.6634-1.9747 1.9747-1.8584 3.2143 0.30148 3.2143 0.97608 0 2.0299 0.66506 2.3418 1.4779 0.465 1.2118-0.0635 1.4236-2.9346 1.1762-2.5327-0.2182-3.5762 0.08626-3.7707 1.1002-0.21165 1.1029 0.83552 1.4125 4.9099 1.4515 2.8484 0.02728 5.1789-0.31325 5.1789-0.75673zm-187.59-24.427c0.0514-0.93277-0.32842-1.4352-0.84405-1.1165-0.51562 0.31867-0.89545 2.1365-0.84405 4.0397 0.09781 3.6219 1.4572 1.268 1.6881-2.9232z"/>
</svg>
