<?xml version="1.0" encoding="UTF-8"?>
<!DOCTYPE svg PUBLIC "-//W3C//DTD SVG 1.1//EN" "http://www.w3.org/Graphics/SVG/1.1/DTD/svg11.dtd">
<svg version="1.1" xmlns="http://www.w3.org/2000/svg" xmlns:xlink="http://www.w3.org/1999/xlink" x="0" y="0" width="650.742" height="650.742" viewBox="0, 0, 650.742, 650.742">
  <g id="レイヤー_1">
    <path d="M647.485,325.372 C647.485,147.474 503.269,3.259 325.371,3.259 C147.473,3.259 3.258,147.474 3.258,325.372 C3.258,503.27 147.473,647.485 325.371,647.485 C503.269,647.485 647.485,503.27 647.485,325.372" fill="#FFFFFF" id="path68022"/>
    <path d="M320.484,208.118 L320.28,207.968 L206.428,290.821 L206.782,290.925 z" fill="#030000" id="path68024"/>
    <path d="M250.466,425.219 L251.45,423.775 L231.827,370.085 L249.729,425.219 z" fill="#030000" id="path68026"/>
    <path d="M110.303,263.143 L105.191,261.561 L57.487,340.917 L110.323,263.583 z" fill="#030000" id="path68028"/>
    <path d="M191.025,521.328 L192.26,519.337 L137.777,498.712 z" fill="#030000" id="path68030"/>
    <path d="M390.829,425.219 L410.711,363.94 L388.286,425.219 z" fill="#030000" id="path68032"/>
    <path d="M533.92,263.392 L533.837,265.228 L561.473,308.04 L534.522,263.206 z" fill="#030000" id="path68034"/>
    <path d="M448.689,522.974 L501.936,500.358 L447.454,520.983 z" fill="#030000" id="path68036"/>
    <path d="M551.685,541.422 L560.694,481.392 L561.345,481.153 L603.485,373.332 L638.192,336.809 C635.333,415.993 602.924,487.772 551.685,541.422 M449.285,517.951 L390.699,424 L413.044,365.032 L438.481,295.526 L531.806,266.631 L559.358,309.311 L598.051,373.677 L557.556,477.287 L501.051,498.054 z M375.812,615.669 L265.144,615.669 L192.556,519.449 L192.26,519.336 L191.025,521.328 L190.337,521.036 L253.765,425.219 L385.763,425.219 L385.532,425.857 L446.217,522.342 z M325.371,638.401 C295.127,638.401 265.873,634.085 238.187,626.044 L262.984,618.93 L262.984,619.569 L380.327,619.569 L405.092,628.111 C379.631,634.821 352.911,638.401 325.371,638.401 M138.742,496.44 L82.168,472.412 L41.671,372.017 L59.565,342.249 L111.578,266.121 L203.833,293.881 L229.494,371.105 L248.557,423.935 L188.006,515.496 z M12.988,345.606 L36.282,371.415 L36.173,371.597 L78.356,476.185 L79.05,476.48 L78.497,476.271 L86.111,527.006 C44.179,477.328 17.402,414.46 12.988,345.606 M210.049,34.352 L198.743,56.845 L103.126,133.654 L70.481,143.852 C105.27,95.141 153.657,56.778 210.049,34.352 M318.234,103.704 L318.234,206.356 L205.923,288.112 L114.516,261.33 L108.072,136.003 L200.439,61.966 z M322.83,99.886 L322.336,100.057 L300.532,92.319 z M434.129,293.057 L431.011,301.575 L433.844,292.851 z M324.734,104.54 L445.403,62.787 L535.744,136.808 L529.296,262.151 L435.832,289.039 L324.734,207.475 z M583.812,148.933 L539.821,133.84 L448.026,58.653 L448.093,58.631 L432.53,31.236 C494.389,53.842 547.177,95.44 583.812,148.933 M625.17,198.721 C608.782,159.975 585.322,125.179 555.443,95.299 C525.563,65.419 490.768,41.96 452.022,25.572 C411.904,8.604 369.294,0 325.371,0 C281.449,0 238.838,8.604 198.721,25.572 C159.975,41.96 125.179,65.419 95.299,95.299 C65.419,125.179 41.96,159.975 25.572,198.721 C8.604,238.838 0,281.449 0,325.371 C0,369.293 8.604,411.904 25.572,452.022 C41.96,490.768 65.419,525.565 95.299,555.443 C125.179,585.322 159.975,608.782 198.721,625.171 C238.838,642.138 281.449,650.742 325.371,650.742 C369.294,650.742 411.904,642.138 452.022,625.171 C490.768,608.782 525.563,585.322 555.443,555.443 C585.322,525.565 608.782,490.768 625.17,452.022 C642.138,411.904 650.742,369.293 650.742,325.371 C650.742,281.449 642.138,238.838 625.17,198.721" fill="#030000" id="path68038"/>
  </g>
</svg>
