<?xml version="1.0" encoding="UTF-8" standalone="no"?>
<svg
   xmlns:dc="http://purl.org/dc/elements/1.1/"
   xmlns:cc="http://creativecommons.org/ns#"
   xmlns:rdf="http://www.w3.org/1999/02/22-rdf-syntax-ns#"
   xmlns:svg="http://www.w3.org/2000/svg"
   xmlns="http://www.w3.org/2000/svg"
   xmlns:sodipodi="http://sodipodi.sourceforge.net/DTD/sodipodi-0.dtd"
   xmlns:inkscape="http://www.inkscape.org/namespaces/inkscape"
   viewBox="0 0 701.91003 204.94661"
   id="svg2"
   version="1.1"
   inkscape:version="0.91 r13725"
   sodipodi:docname="Loaf.svg"
   width="701.91003"
   height="204.94661">
  <metadata
     id="metadata12">
    <rdf:RDF>
      <cc:Work
         rdf:about="">
        <dc:format>image/svg+xml</dc:format>
        <dc:type
           rdf:resource="http://purl.org/dc/dcmitype/StillImage" />
        <dc:title></dc:title>
      </cc:Work>
    </rdf:RDF>
  </metadata>
  <defs
     id="defs10" />
  <sodipodi:namedview
     pagecolor="#ffffff"
     bordercolor="#666666"
     borderopacity="1"
     objecttolerance="10"
     gridtolerance="10"
     guidetolerance="10"
     inkscape:pageopacity="0"
     inkscape:pageshadow="2"
     inkscape:window-width="1600"
     inkscape:window-height="837"
     id="namedview8"
     showgrid="false"
     fit-margin-top="0"
     fit-margin-left="0"
     fit-margin-right="0"
     fit-margin-bottom="0"
     inkscape:zoom="0.66880146"
     inkscape:cx="347.32036"
     inkscape:cy="-31.895441"
     inkscape:window-x="-8"
     inkscape:window-y="-8"
     inkscape:window-maximized="1"
     inkscape:current-layer="svg2" />
  <path
     inkscape:connector-curvature="0"
     id="path6"
     d="m 111.55373,203.91706 c -0.16879,-0.12612 -8.1327,-0.67851 -17.697628,-1.22758 C 65.53548,201.06375 43.16934,190.67159 22.89737,169.71937 5.5933702,151.83475 -0.42789978,139.37537 0.02340022,122.38803 0.40246022,108.1197 5.9005102,90.433293 13.30034,79.677993 c 15.33377,-22.28684 54.794312,-48.21688 80.801882,-53.09592 8.087258,-1.51718 15.582068,1.95961 24.929298,11.56457 13.48211,13.85379 30.28296,45.49171 36.38646,68.519797 3.62618,13.68134 7.16797,15.91401 9.07969,5.72361 4.04598,-21.566887 -6.99223,-61.830427 -22.64212,-82.590487 -2.45898,-3.26194 -4.04648,-7.0368 -3.52776,-8.38858 1.03581,-2.69929 36.78855,-9.5724 60.0008,-11.5345495 11.12116,-0.94008 14.99958,-0.54961 20.09821,2.0234795 19.8723,10.02871 36.70885,39.65063 42.95631,75.57662 3.5177,20.228387 4.22701,22.393467 7.33652,22.393467 3.72554,0 5.1391,-10.681837 4.08073,-30.836677 -0.7443,-14.17416 -2.23859,-21.29984 -7.54532,-35.98054 -3.63947,-10.06834 -9.15762,-21.92062 -12.26258,-26.33839 -4.63195,-6.59043 -5.20943,-8.4316595 -3.21703,-10.2569595 2.60545,-2.38691 57.81148,-6.51477001 86.35387,-6.45683001484 C 356.20032,0.04140349 360.2685,2.1815035 368.85297,17.215563 c 9.69983,16.98737 13.76867,29.78264 17.03907,53.58295 3.69338,26.87856 4.9197,32.186497 7.64623,33.095337 4.81434,1.60479 8.4945,-11.031517 9.33186,-32.042237 0.95722,-24.01819 -1.37283,-38.35323 -8.9504,-55.06522 -2.91206,-6.42238 -4.7672,-12.5304495 -4.12257,-13.5734895 1.35076,-2.18558 44.13873,-0.74471 77.09034,2.59599 15.15265,1.53621 21.94259,3.03125 25.12073,5.5311795 10.654,8.38042 19.04721,39.60831 19.34794,71.98611 0.0749,8.05467 0.76818,16.26159 1.54079,18.237577 1.31686,3.36795 1.61055,3.27866 4.69383,-1.42703 5.11459,-7.805847 6.91766,-41.178277 3.50684,-64.906977 -1.48682,-10.34367 -2.1967,-19.62639 -1.57751,-20.62827 1.76533,-2.85637 37.93197,2.98472 64.22075,10.37198 3.11667,0.875798 7.09958,0.300112 9.35002,2.62738 3.37178,3.486886 2.30949,9.422069 3.46424,14.1331 2.88724,11.77902 3.37598,19.69783 2.93421,47.54171 -0.29152,18.374737 0.12046,33.402987 0.91531,33.396107 3.04985,-0.0264 10.28004,-13.27977 12.73141,-23.337387 1.40973,-5.78401 3.01437,-21.63732 3.56582,-35.22959 0.55145,-13.59227 1.32931,-25.76074 1.72853,-27.04107 0.86019,-2.75869 28.84454,10.75924 45.06088,21.76682 15.3725,10.43476 22.80548,19.09002 31.03601,36.13958 6.88232,14.256737 7.38804,16.388467 7.38268,31.120347 -0.007,19.76812 -2.77435,27.6687 -15.65643,44.70106 -11.2014,14.81021 -13.72733,17.20941 -25.19225,23.92829 -18.78984,11.01159 -6.08515,10.57455 -289.9582,9.97451 -142.58338,-0.30139 -259.38061,-0.65115 -259.54937,-0.77726 z"
     sodipodi:nodetypes="ssssssssssssssssssssssssssssssssssssssssssssssss" />
</svg>
