<?xml version="1.0" encoding="UTF-8"?>
<!DOCTYPE svg PUBLIC "-//W3C//DTD SVG 1.1//EN" "http://www.w3.org/Graphics/SVG/1.1/DTD/svg11.dtd">
<svg version="1.1" xmlns="http://www.w3.org/2000/svg" xmlns:xlink="http://www.w3.org/1999/xlink" x="0" y="0" width="195.562" height="176.992" viewBox="0, 0, 195.562, 176.992">
  <g id="Layer_1">
    <path d="M187.562,101.963 C182.225,105.914 178.993,112.214 178.993,118.917 C178.993,125.62 182.225,131.92 187.562,135.871 L187.562,168.992 L8,168.992 L8,75.692 L187.562,75.692 z M55.901,49.885 C59.279,52.609 63.507,54.129 67.887,54.129 C78.43,54.129 87.006,45.552 87.006,35.01 C87.006,34.721 86.999,34.431 86.985,34.14 L136.537,9.041 L150.757,26.891 C147.219,29.931 145.098,34.401 145.098,39.245 C145.098,48.231 152.41,55.542 161.396,55.542 C164.902,55.542 168.28,54.399 171.047,52.361 L183.261,67.692 L20.748,67.692 z M193.562,107.579 C194.799,106.865 195.562,105.544 195.562,104.115 L195.562,71.692 C195.562,71.657 195.552,71.626 195.552,71.592 C195.546,71.393 195.527,71.195 195.492,70.999 C195.481,70.936 195.471,70.874 195.458,70.813 C195.408,70.588 195.342,70.367 195.253,70.154 C195.24,70.121 195.221,70.091 195.207,70.059 C195.126,69.88 195.032,69.707 194.924,69.539 C194.887,69.481 194.847,69.425 194.807,69.368 C194.767,69.313 194.734,69.253 194.691,69.199 L174.527,43.889 C173.745,42.909 172.584,42.344 171.293,42.383 C170.04,42.416 168.874,43.035 168.144,44.055 C166.583,46.238 164.06,47.542 161.396,47.542 C156.821,47.542 153.098,43.82 153.098,39.245 C153.098,35.885 155.104,32.878 158.208,31.584 C159.366,31.101 160.23,30.103 160.542,28.887 C160.855,27.672 160.579,26.38 159.797,25.4 L140.764,1.508 C139.583,0.025 137.52,-0.425 135.828,0.432 L80.86,28.275 C79.242,29.095 78.377,30.902 78.756,32.677 C78.922,33.456 79.006,34.241 79.006,35.01 C79.006,41.141 74.018,46.129 67.887,46.129 C64.731,46.129 61.706,44.765 59.589,42.387 C58.382,41.031 56.414,40.658 54.794,41.478 L2.192,68.123 C2.104,68.168 2.027,68.226 1.944,68.276 C1.861,68.327 1.776,68.373 1.697,68.429 C1.557,68.528 1.429,68.639 1.304,68.754 C1.253,68.8 1.197,68.842 1.148,68.892 C0.978,69.065 0.823,69.25 0.689,69.448 C0.671,69.474 0.659,69.504 0.642,69.53 C0.53,69.705 0.43,69.886 0.346,70.076 C0.312,70.154 0.287,70.236 0.258,70.316 C0.203,70.466 0.153,70.616 0.116,70.772 C0.095,70.86 0.08,70.95 0.065,71.041 C0.039,71.203 0.022,71.367 0.016,71.534 C0.014,71.587 0,71.637 0,71.692 L0,172.992 C0,175.201 1.791,176.992 4,176.992 L191.562,176.992 C193.771,176.992 195.562,175.201 195.562,172.992 L195.562,133.719 C195.562,132.29 194.799,130.969 193.562,130.255 C189.51,127.915 186.993,123.571 186.993,118.917 C186.993,114.263 189.51,109.919 193.562,107.579" fill="#424241" id="path30268"/>
    <path d="M60.781,160.928 C60.781,162.585 62.124,163.928 63.781,163.928 L64.781,163.928 C66.438,163.928 67.781,162.585 67.781,160.928 C67.781,159.271 66.438,157.928 64.781,157.928 L63.781,157.928 C62.124,157.928 60.781,159.271 60.781,160.928" fill="#424241" id="path30270"/>
    <path d="M29.018,163.928 L52.156,163.928 C53.812,163.928 55.156,162.585 55.156,160.928 C55.156,159.271 53.812,157.928 52.156,157.928 L29.018,157.928 C23.53,157.928 19.064,153.463 19.064,147.975 L19.064,136.071 C19.064,134.413 17.721,133.071 16.064,133.071 C14.407,133.071 13.064,134.413 13.064,136.071 L13.064,147.975 C13.064,156.772 20.221,163.928 29.018,163.928" fill="#424241" id="path30272"/>
    <path d="M127.795,128.737 C132.758,128.737 136.795,134.12 136.795,140.737 C136.795,147.354 132.758,152.737 127.795,152.737 C122.832,152.737 118.795,147.354 118.795,140.737 C118.795,134.12 122.832,128.737 127.795,128.737 M127.795,158.737 C136.066,158.737 142.795,150.662 142.795,140.737 C142.795,130.812 136.066,122.737 127.795,122.737 C119.524,122.737 112.795,130.812 112.795,140.737 C112.795,150.662 119.524,158.737 127.795,158.737" fill="#424241" id="path30274"/>
    <path d="M52.115,91.042 C54.48,91.042 57.115,94.66 57.115,99.853 C57.115,105.045 54.48,108.664 52.115,108.664 C49.75,108.664 47.115,105.045 47.115,99.853 C47.115,94.66 49.75,91.042 52.115,91.042 M52.115,114.664 C58.283,114.664 63.115,108.158 63.115,99.853 C63.115,91.547 58.283,85.042 52.115,85.042 C45.946,85.042 41.115,91.547 41.115,99.853 C41.115,108.158 45.946,114.664 52.115,114.664" fill="#424241" id="path30276"/>
    <path d="M115.795,51.579 C113.9,51.579 111.781,48.334 111.781,43.991 C111.781,39.649 113.9,36.404 115.795,36.404 C117.69,36.404 119.809,39.649 119.809,43.991 C119.809,48.334 117.69,51.579 115.795,51.579 M115.795,30.404 C110.18,30.404 105.781,36.372 105.781,43.991 C105.781,51.611 110.18,57.579 115.795,57.579 C121.41,57.579 125.809,51.611 125.809,43.991 C125.809,36.372 121.41,30.404 115.795,30.404" fill="#424241" id="path30278"/>
  </g>
</svg>
