<?xml version="1.0" encoding="UTF-8" standalone="no"?>
<!-- Created with Inkscape (http://www.inkscape.org/) -->

<svg
   width="200mm"
   height="200mm"
   viewBox="0 0 200 200"
   version="1.1"
   id="svg16343"
   inkscape:version="1.1.1 (3bf5ae0d25, 2021-09-20)"
   sodipodi:docname="cottage_cheese.svg"
   xmlns:inkscape="http://www.inkscape.org/namespaces/inkscape"
   xmlns:sodipodi="http://sodipodi.sourceforge.net/DTD/sodipodi-0.dtd"
   xmlns="http://www.w3.org/2000/svg"
   xmlns:svg="http://www.w3.org/2000/svg">
  <sodipodi:namedview
     id="namedview16345"
     pagecolor="#ffffff"
     bordercolor="#666666"
     borderopacity="1.0"
     inkscape:pageshadow="2"
     inkscape:pageopacity="0.0"
     inkscape:pagecheckerboard="0"
     inkscape:document-units="mm"
     showgrid="false"
     width="200mm"
     inkscape:zoom="0.76791526"
     inkscape:cx="327.51009"
     inkscape:cy="324.25453"
     inkscape:window-width="1914"
     inkscape:window-height="1026"
     inkscape:window-x="0"
     inkscape:window-y="51"
     inkscape:window-maximized="1"
     inkscape:current-layer="layer1" />
  <defs
     id="defs16340">
    <inkscape:path-effect
       effect="spiro"
       id="path-effect18139"
       is_visible="true"
       lpeversion="1" />
    <inkscape:path-effect
       effect="spiro"
       id="path-effect18135"
       is_visible="true"
       lpeversion="1" />
    <inkscape:path-effect
       effect="spiro"
       id="path-effect18131"
       is_visible="true"
       lpeversion="1" />
    <inkscape:path-effect
       effect="spiro"
       id="path-effect18127"
       is_visible="true"
       lpeversion="1" />
    <inkscape:path-effect
       effect="spiro"
       id="path-effect18123"
       is_visible="true"
       lpeversion="1" />
    <inkscape:path-effect
       effect="spiro"
       id="path-effect18119"
       is_visible="true"
       lpeversion="1" />
    <inkscape:path-effect
       effect="spiro"
       id="path-effect18115"
       is_visible="true"
       lpeversion="1" />
    <inkscape:path-effect
       effect="spiro"
       id="path-effect18111"
       is_visible="true"
       lpeversion="1" />
    <inkscape:path-effect
       effect="spiro"
       id="path-effect18107"
       is_visible="true"
       lpeversion="1" />
    <inkscape:path-effect
       effect="spiro"
       id="path-effect18070"
       is_visible="true"
       lpeversion="1" />
    <inkscape:path-effect
       effect="spiro"
       id="path-effect18033"
       is_visible="true"
       lpeversion="1" />
    <inkscape:path-effect
       effect="spiro"
       id="path-effect18029"
       is_visible="true"
       lpeversion="1" />
    <inkscape:path-effect
       effect="spiro"
       id="path-effect18025"
       is_visible="true"
       lpeversion="1" />
    <inkscape:path-effect
       effect="spiro"
       id="path-effect17988"
       is_visible="true"
       lpeversion="1" />
    <inkscape:path-effect
       effect="spiro"
       id="path-effect17951"
       is_visible="true"
       lpeversion="1" />
    <inkscape:path-effect
       effect="spiro"
       id="path-effect17947"
       is_visible="true"
       lpeversion="1" />
    <inkscape:path-effect
       effect="spiro"
       id="path-effect17943"
       is_visible="true"
       lpeversion="1" />
    <inkscape:path-effect
       effect="spiro"
       id="path-effect17939"
       is_visible="true"
       lpeversion="1" />
    <inkscape:path-effect
       effect="spiro"
       id="path-effect16702"
       is_visible="true"
       lpeversion="1" />
    <inkscape:path-effect
       effect="spiro"
       id="path-effect16698"
       is_visible="true"
       lpeversion="1" />
    <inkscape:path-effect
       effect="spiro"
       id="path-effect16694"
       is_visible="true"
       lpeversion="1" />
    <inkscape:path-effect
       effect="spiro"
       id="path-effect16690"
       is_visible="true"
       lpeversion="1" />
    <inkscape:path-effect
       effect="spiro"
       id="path-effect16686"
       is_visible="true"
       lpeversion="1" />
    <inkscape:path-effect
       effect="spiro"
       id="path-effect16682"
       is_visible="true"
       lpeversion="1" />
    <inkscape:path-effect
       effect="spiro"
       id="path-effect16678"
       is_visible="true"
       lpeversion="1" />
    <inkscape:path-effect
       effect="spiro"
       id="path-effect16674"
       is_visible="true"
       lpeversion="1" />
    <inkscape:path-effect
       effect="spiro"
       id="path-effect16670"
       is_visible="true"
       lpeversion="1" />
    <inkscape:path-effect
       effect="spiro"
       id="path-effect16666"
       is_visible="true"
       lpeversion="1" />
    <inkscape:path-effect
       effect="spiro"
       id="path-effect16662"
       is_visible="true"
       lpeversion="1" />
    <inkscape:path-effect
       effect="spiro"
       id="path-effect16658"
       is_visible="true"
       lpeversion="1" />
    <inkscape:path-effect
       effect="spiro"
       id="path-effect16654"
       is_visible="true"
       lpeversion="1" />
    <inkscape:path-effect
       effect="spiro"
       id="path-effect16650"
       is_visible="true"
       lpeversion="1" />
    <inkscape:path-effect
       effect="spiro"
       id="path-effect16646"
       is_visible="true"
       lpeversion="1" />
    <inkscape:path-effect
       effect="spiro"
       id="path-effect16642"
       is_visible="true"
       lpeversion="1" />
    <inkscape:path-effect
       effect="spiro"
       id="path-effect16638"
       is_visible="true"
       lpeversion="1" />
    <inkscape:path-effect
       effect="spiro"
       id="path-effect16634"
       is_visible="true"
       lpeversion="1" />
    <inkscape:path-effect
       effect="spiro"
       id="path-effect16630"
       is_visible="true"
       lpeversion="1" />
    <inkscape:path-effect
       effect="spiro"
       id="path-effect16593"
       is_visible="true"
       lpeversion="1" />
    <inkscape:path-effect
       effect="spiro"
       id="path-effect16556"
       is_visible="true"
       lpeversion="1" />
    <inkscape:path-effect
       effect="spiro"
       id="path-effect16439"
       is_visible="true"
       lpeversion="1" />
  </defs>
  <g
     inkscape:label="Layer 1"
     inkscape:groupmode="layer"
     id="layer1">
    <path
       style="fill:none;stroke:#000000;stroke-width:4.04962;stroke-linecap:butt;stroke-linejoin:miter;stroke-miterlimit:4;stroke-dasharray:none;stroke-opacity:1"
       d="m 19.337609,163.94371 c -0.112518,0.39909 -0.119708,0.82738 -0.02065,1.23002 0.09906,0.40264 0.304138,0.77871 0.588977,1.08004 0.526451,0.55693 1.277403,0.82782 1.979898,1.13413 0.351247,0.15316 0.698888,0.32064 1.00996,0.5444 0.311071,0.22375 0.585977,0.50743 0.755798,0.85093 0.163594,0.3309 0.226547,0.70887 0.423776,1.0209 0.162618,0.25727 0.410285,0.45532 0.687042,0.58196 0.276757,0.12664 0.581785,0.18436 0.885962,0.19482 0.608352,0.0209 1.205612,-0.14203 1.801492,-0.26635 2.522509,-0.52629 5.190136,-0.36082 7.617427,0.50422 0.608894,0.217 1.211272,0.4791 1.853315,0.55406 0.321022,0.0375 0.650304,0.0266 0.961621,-0.0602 0.311317,-0.0868 0.604278,-0.25233 0.819095,-0.49381 0.147217,-0.16549 0.257072,-0.36461 0.423781,-0.51044 0.121428,-0.10622 0.26946,-0.18011 0.425031,-0.22284 0.15557,-0.0427 0.31862,-0.0549 0.479688,-0.0457 0.322136,0.0185 0.632906,0.12075 0.93801,0.22574 0.305104,0.10499 0.61247,0.21436 0.93339,0.24785 0.32092,0.0335 0.662401,-0.0162 0.924048,-0.20506 0.241129,-0.17401 0.389618,-0.44439 0.567049,-0.68301 0.420784,-0.56591 1.031943,-0.97478 1.694538,-1.21619 0.662594,-0.24141 1.375735,-0.32223 2.080809,-0.30875 0.874038,0.0167 1.738719,0.17487 2.60972,0.24956 0.871001,0.0747 1.771184,0.0617 2.588071,-0.24956 0.926367,-0.35304 1.671071,-1.059 2.542676,-1.53133 0.608333,-0.32966 1.286056,-0.54493 1.977671,-0.56525 0.691615,-0.0203 1.396964,0.16208 1.959283,0.56525 0.618104,0.44316 1.041291,1.12762 1.689818,1.52493 0.613755,0.37601 1.36289,0.4535 2.082667,0.45369 0.719777,1.8e-4 1.446069,-0.067 2.155127,0.0568 0.983509,0.17166 1.868168,0.69968 2.672288,1.29142 0.80412,0.59173 1.556323,1.25865 2.413065,1.77124 1.569946,0.9393 3.407125,1.31335 5.085351,2.04176 1.110143,0.48184 2.166866,1.13333 2.966457,2.04176 0.438644,0.49835 0.795483,1.06838 1.271339,1.53133 0.577183,0.56153 1.341652,0.95332 2.146189,0.98762 0.402268,0.0172 0.809688,-0.0553 1.175734,-0.22305 0.366047,-0.1677 0.68947,-0.43162 0.915872,-0.76457 0.259805,-0.38207 0.386184,-0.84368 0.418312,-1.30459 0.03213,-0.46092 -0.0258,-0.92365 -0.109501,-1.37804 -0.167404,-0.90878 -0.439632,-1.82561 -0.309069,-2.74041 0.08199,-0.57446 0.323723,-1.12194 0.67176,-1.58626 0.348036,-0.46432 0.800361,-0.84656 1.303116,-1.13632 1.00551,-0.57952 2.190493,-0.78336 3.351042,-0.78747 2.321099,-0.008 4.630206,0.73818 6.933033,0.4474 0.857942,-0.10833 1.691322,-0.35881 2.54268,-0.51044 3.013103,-0.53663 6.093803,0.18061 9.062633,0.9241 2.96884,0.74349 6.02164,1.52368 9.05424,1.11128 0.74725,-0.10162 1.48493,-0.2752 2.23657,-0.33634 0.75165,-0.0611 1.53472,-0.003 2.20842,0.33634 0.4351,0.21885 0.80545,0.54424 1.1929,0.83935 0.38745,0.29511 0.81088,0.56867 1.29003,0.65599 0.41785,0.0761 0.84663,0.005 1.27133,0 1.20991,-0.0148 2.35332,0.50076 3.47712,0.94929 0.5619,0.22427 1.13229,0.43482 1.72471,0.5576 0.59241,0.12278 1.21066,0.15565 1.80126,0.0244 0.67274,-0.14945 1.2792,-0.50255 1.88511,-0.83085 0.60591,-0.32831 1.24226,-0.64208 1.92892,-0.70048 0.56026,-0.0477 1.12768,0.0779 1.68454,0 0.72066,-0.10084 1.34822,-0.52944 1.93279,-0.9628 0.58457,-0.43337 1.17733,-0.8944 1.88122,-1.07896 0.5586,-0.14647 1.14611,-0.10734 1.72353,-0.11534 0.57743,-0.008 1.18169,-0.0736 1.66143,-0.3951 0.36676,-0.24575 0.62645,-0.61851 0.86708,-0.98865 0.24064,-0.37014 0.47691,-0.7534 0.81495,-1.03736 0.44982,-0.37786 1.05121,-0.54721 1.63863,-0.54054 0.58743,0.007 1.16314,0.17848 1.69869,0.41994 1.07108,0.48293 2.00717,1.24391 3.10897,1.65192 0.83822,0.3104 1.74514,0.40432 2.63836,0.37087 0.89322,-0.0334 1.77703,-0.19105 2.6526,-0.37087 0.97284,-0.1998 1.94393,-0.42812 2.93413,-0.5046 1.92808,-0.14892 3.8468,0.28152 5.76698,0.51089 0.96008,0.11469 1.93067,0.17926 2.89397,0.0958 0.9633,-0.0835 1.92237,-0.31915 2.77367,-0.77764 0.58122,-0.31303 1.10273,-0.72384 1.64124,-1.10568 0.53852,-0.38184 1.10591,-0.74066 1.73842,-0.9297 1.09308,-0.3267 2.26281,-0.11851 3.3975,0 1.04929,0.10959 2.11624,0.13922 3.15344,-0.0538 1.03719,-0.19299 2.04834,-0.62021 2.82282,-1.33659 0.7262,-0.67172 1.20944,-1.55738 1.73901,-2.39292 0.52958,-0.83554 1.14986,-1.66395 2.03093,-2.11372 0.46871,-0.23927 0.98778,-0.35858 1.48313,-0.53627 0.49535,-0.17768 0.989,-0.43141 1.29438,-0.86 0.21303,-0.29898 0.31777,-0.65952 0.41949,-1.01226 0.10173,-0.35273 0.20776,-0.7131 0.42278,-1.01066 0.15882,-0.21979 0.37074,-0.39577 0.59209,-0.55243 0.22134,-0.15665 0.45443,-0.29653 0.67148,-0.45909 0.84892,-0.63582 1.41613,-1.6006 1.69622,-2.62357 0.2801,-1.02297 0.28976,-2.10401 0.17178,-3.15806 -0.23596,-2.10808 -0.97167,-4.15292 -1.02044,-6.27361 -0.0213,-0.92423 0.0888,-1.8457 0.1491,-2.7682 0.0603,-0.92251 0.0695,-1.86017 -0.1491,-2.75843 -0.33782,-1.38819 -1.21404,-2.61179 -2.32445,-3.51079 -1.11042,-0.89899 -2.44526,-1.49025 -3.82159,-1.87356 -0.51617,-0.14375 -1.0425,-0.26047 -1.53624,-0.46859 -1.22691,-0.51717 -2.17555,-1.58314 -2.71245,-2.80154 -0.53691,-1.2184 -0.68863,-2.57972 -0.61701,-3.90924 0.14324,-2.65905 1.14254,-5.19953 1.48195,-7.84072 0.0978,-0.76111 0.13997,-1.53816 0,-2.29265 -0.11681,-0.62965 -0.36861,-1.24772 -0.80652,-1.715 -0.21895,-0.23364 -0.48276,-0.4269 -0.77706,-0.55307 -0.29429,-0.12617 -0.61926,-0.18413 -0.93807,-0.15434 -0.1287,0.012 -0.25585,0.0381 -0.38473,0.0481 -0.12887,0.01 -0.26221,0.003 -0.38092,-0.0481 -0.13619,-0.0587 -0.24342,-0.17205 -0.31803,-0.3002 -0.0746,-0.12815 -0.11942,-0.27124 -0.15822,-0.41436 -0.0388,-0.14312 -0.0724,-0.28819 -0.12688,-0.42609 -0.0545,-0.1379 -0.13179,-0.26996 -0.24442,-0.36641 -0.1115,-0.0955 -0.25237,-0.15142 -0.39587,-0.18239 -0.14349,-0.031 -0.29085,-0.0384 -0.43739,-0.0471 -0.14655,-0.009 -0.29397,-0.0187 -0.43631,-0.0546 -0.14235,-0.0359 -0.28069,-0.0993 -0.38537,-0.20226 -0.0953,-0.0937 -0.15866,-0.2162 -0.19723,-0.34412 -0.0386,-0.12792 -0.0535,-0.26174 -0.0623,-0.39507 -0.0175,-0.26664 -0.0131,-0.54404 -0.12525,-0.78659 -0.0903,-0.19531 -0.24838,-0.34977 -0.40454,-0.49781 -0.15616,-0.14804 -0.31698,-0.29848 -0.41541,-0.48983 -0.1177,-0.2288 -0.13544,-0.49699 -0.11179,-0.75321 0.0236,-0.25621 0.086,-0.50728 0.11979,-0.76235 0.11388,-0.85939 -0.0997,-1.72931 -0.38879,-2.54659 -0.28909,-0.81728 -0.65592,-1.60953 -0.86651,-2.45047 -0.30214,-1.20652 -0.27215,-2.467906 -0.40367,-3.704712 -0.15562,-1.463383 -0.53779,-2.893071 -0.75642,-4.348374 -0.21864,-1.455302 -0.26669,-2.978011 0.22979,-4.363369 0.06,-0.167283 0.12758,-0.331768 0.20065,-0.49375 0.43496,-0.964196 1.07173,-1.868036 1.21006,-2.916716 0.0692,-0.52434 0.002,-1.079189 -0.26811,-1.53405 -0.13493,-0.227431 -0.31924,-0.426822 -0.54159,-0.569966 -0.22234,-0.143144 -0.483,-0.228856 -0.74738,-0.234652 -0.19219,-0.0042 -0.38255,0.03296 -0.57379,0.05253 -0.19123,0.01957 -0.39049,0.02042 -0.56835,-0.05253 -0.19162,-0.07859 -0.34077,-0.235998 -0.45786,-0.40683 -0.11709,-0.170833 -0.20785,-0.358352 -0.32126,-0.531645 -0.29606,-0.452373 -0.74316,-0.796626 -1.24109,-1.007228 -0.49794,-0.210602 -1.04498,-0.291765 -1.58546,-0.278523 -1.08096,0.02648 -2.11559,0.41849 -3.12206,0.813691 -0.53732,0.210984 -1.07686,0.425314 -1.64164,0.544713 -0.56477,0.119399 -1.1619,0.140099 -1.7122,-0.03427 -0.407,-0.128962 -0.77312,-0.358725 -1.15616,-0.547284 -0.38305,-0.188558 -0.80465,-0.339505 -1.22895,-0.292094 -0.32086,0.03585 -0.6188,0.182827 -0.89364,0.352231 -0.27484,0.169403 -0.53494,0.363858 -0.82256,0.510529 -0.28761,0.146671 -0.61195,0.244761 -0.93203,0.202559 -0.16005,-0.0211 -0.31648,-0.07788 -0.4471,-0.17274 -0.13061,-0.09486 -0.23439,-0.228658 -0.28443,-0.382134 -0.0543,-0.166434 -0.0443,-0.346457 -0.0252,-0.520477 0.019,-0.17402 0.0465,-0.34948 0.0252,-0.523243 -0.0198,-0.161863 -0.0819,-0.317237 -0.17105,-0.453792 -0.0891,-0.136555 -0.20477,-0.25472 -0.33342,-0.354915 -0.25731,-0.200388 -0.5627,-0.327885 -0.86591,-0.448009 -0.3032,-0.120124 -0.61145,-0.236834 -0.8814,-0.419848 -0.26994,-0.183014 -0.50242,-0.442474 -0.58418,-0.758194 -0.0426,-0.164418 -0.0426,-0.339672 0,-0.50409 -0.0781,-0.359358 -0.22049,-0.704636 -0.41849,-1.01452 -0.2814,-0.44041 -0.66783,-0.80163 -1.04196,-1.166563 -0.37412,-0.364933 -0.74559,-0.746023 -0.9858,-1.210183 -0.37248,-0.719738 -0.39366,-1.575278 -0.262,-2.374922 0.13166,-0.799644 0.40527,-1.568207 0.59796,-2.355378 0.19268,-0.78717 0.30333,-1.618618 0.10523,-2.404445 -0.099,-0.392914 -0.27622,-0.769039 -0.53785,-1.078464 -0.26162,-0.309425 -0.6098,-0.549885 -1,-0.659134 -0.2224,-0.06227 -0.45494,-0.08188 -0.67773,-0.142746 -0.11139,-0.03043 -0.22061,-0.07143 -0.31943,-0.131169 -0.0988,-0.05974 -0.1872,-0.13889 -0.24886,-0.236528 -0.0983,-0.155709 -0.12244,-0.34497 -0.16288,-0.524635 -0.0202,-0.08983 -0.0453,-0.179251 -0.0862,-0.26174 -0.0409,-0.08249 -0.0986,-0.158219 -0.17471,-0.210051 -0.0587,-0.03999 -0.127,-0.0648 -0.19697,-0.07704 -0.07,-0.01224 -0.14169,-0.0122 -0.21237,-0.0052 -0.14137,0.01408 -0.27838,0.05569 -0.41795,0.08221 -0.42369,0.08048 -0.86828,0.01876 -1.26836,-0.142264 -0.40008,-0.161022 -0.75716,-0.418284 -1.06281,-0.722537 -0.6113,-0.608506 -1.01331,-1.390105 -1.42412,-2.148529 -0.1063,-0.19624 -0.21434,-0.392612 -0.34892,-0.570644 -0.13459,-0.178031 -0.29756,-0.338278 -0.49385,-0.444475 -0.19694,-0.106549 -0.42232,-0.155393 -0.64623,-0.15741 -0.22391,-0.002 -0.44665,0.0416 -0.65948,0.111217 -0.42564,0.139236 -0.80952,0.37943 -1.2065,0.586708 -0.39698,0.207278 -0.82511,0.386243 -1.27295,0.385904 -0.22391,-1.69e-4 -0.44968,-0.04676 -0.64784,-0.151024 -0.19816,-0.104267 -0.36742,-0.268059 -0.46301,-0.470547 -0.11311,-0.239594 -0.11826,-0.516049 -0.0908,-0.77957 0.0275,-0.263521 0.0854,-0.524303 0.0908,-0.789199 0.009,-0.436508 -0.12511,-0.863204 -0.28546,-1.269289 -0.16036,-0.406086 -0.34917,-0.803072 -0.45878,-1.225687 -0.2638,-1.01714 -0.0503,-2.096135 -0.17198,-3.139855 -0.0609,-0.52186 -0.21166,-1.044744 -0.52244,-1.468371 -0.15539,-0.211814 -0.34985,-0.396372 -0.5761,-0.529862 -0.22626,-0.133491 -0.48469,-0.214946 -0.74727,-0.222982 -0.1395,-0.0043 -0.27944,0.01188 -0.4185,0 -0.25311,-0.02163 -0.49433,-0.13788 -0.68104,-0.310135 -0.18671,-0.172254 -0.32013,-0.398317 -0.39765,-0.640233 -0.15503,-0.483831 -0.0882,-1.013043 0.0561,-1.500184 0.1443,-0.487141 0.36307,-0.949223 0.51743,-1.43327 0.15436,-0.484048 0.243,-1.007058 0.11831,-1.499583 -0.10929,-0.431694 -0.37682,-0.810927 -0.70166,-1.115526 -0.32484,-0.304599 -0.7066,-0.541223 -1.09164,-0.764933 -0.38505,-0.22371 -0.77761,-0.437566 -1.13424,-0.704254 -0.35662,-0.266688 -0.67942,-0.591403 -0.8812,-0.988379 -0.18427,-0.362539 -0.26021,-0.768603 -0.3814,-1.15681 -0.26508,-0.849108 -0.75749,-1.626083 -1.41219,-2.228264 -0.6547,-0.602181 -1.47004,-1.028068 -2.3383,-1.221389 l -1.69512,-1.020886 c -0.0291,0.08711 -0.0861,0.16465 -0.16062,0.218335 -0.0745,0.05368 -0.16612,0.08325 -0.25796,0.08325 -0.0918,0 -0.18344,-0.02957 -0.25795,-0.08325 -0.0745,-0.05369 -0.13155,-0.131222 -0.16062,-0.218335 -0.0375,-0.11224 -0.0284,-0.234205 -0.0142,-0.351673 0.0142,-0.117469 0.0332,-0.236598 0.0142,-0.353393 -0.0171,-0.105556 -0.0649,-0.204543 -0.12768,-0.291144 -0.0627,-0.0866 -0.14018,-0.16156 -0.22136,-0.231166 -0.16237,-0.139214 -0.34363,-0.261305 -0.47126,-0.432927 -0.15653,-0.210479 -0.21827,-0.479157 -0.22281,-0.741419 -0.005,-0.262261 0.0439,-0.522154 0.0884,-0.78066 0.0445,-0.258506 0.0852,-0.520561 0.0652,-0.782094 -0.0201,-0.261533 -0.10645,-0.525908 -0.28675,-0.716415 -0.15031,-0.15882 -0.35516,-0.256017 -0.5643,-0.319873 -0.20914,-0.06386 -0.42615,-0.09768 -0.6383,-0.15069 -0.64498,-0.161163 -1.23958,-0.500862 -1.73282,-0.94661 -0.49324,-0.445747 -0.88715,-0.995436 -1.18641,-1.589086 -0.28099,-0.557409 -0.48056,-1.154084 -0.77985,-1.701886 -0.14964,-0.273901 -0.32467,-0.53564 -0.53939,-0.762156 -0.21472,-0.226516 -0.47041,-0.417443 -0.75884,-0.536705 -0.51347,-0.212313 -1.08908,-0.185972 -1.6447,-0.181674 -0.2778,0.0021 -0.55689,-0.0022 -0.83111,-0.04673 -0.27421,-0.04455 -0.54486,-0.130795 -0.7779,-0.282034 -0.37466,-0.243144 -0.62516,-0.63355 -0.84755,-1.020884 -0.48947,-0.852481 -0.92216,-1.77724 -1.68555,-2.396546 -0.38169,-0.309653 -0.84489,-0.532222 -1.33469,-0.573134 -0.2449,-0.02046 -0.49435,0.0049 -0.72767,0.08201 -0.23333,0.07715 -0.45015,0.206676 -0.62294,0.381428 -0.27961,0.282789 -0.43275,0.670923 -0.49914,1.063027 -0.0664,0.392103 -0.0528,0.79276 -0.0409,1.190265 0.0119,0.397505 0.0217,0.798661 -0.0521,1.189435 -0.0738,0.390774 -0.2385,0.775389 -0.52863,1.047374 -0.24977,0.234148 -0.58067,0.372205 -0.91968,0.419986 -0.33901,0.04778 -0.68619,0.0091 -1.01738,-0.07768 -0.66237,-0.173499 -1.25871,-0.532322 -1.88995,-0.79762 -1.25313,-0.526672 -2.64115,-0.679672 -3.99784,-0.595252 -1.356688,0.08442 -2.689078,0.398828 -3.994563,0.777555 -2.610971,0.757455 -5.20466,1.786807 -7.923266,1.795935 -0.866082,0.0029 -1.7344,-0.09872 -2.596472,-0.01543 -0.431036,0.04165 -0.860014,0.130302 -1.259911,0.29646 -0.399898,0.166157 -0.77063,0.412073 -1.053627,0.739852 -0.268963,0.311524 -0.45265,0.68877 -0.586459,1.077979 -0.133809,0.389209 -0.220184,0.792763 -0.314185,1.193452 -0.094,0.40069 -0.196608,0.801595 -0.360696,1.179039 -0.164088,0.377443 -0.393118,0.733027 -0.70772,0.998383 -0.454566,0.38341 -1.051022,0.551412 -1.636212,0.657177 -0.585191,0.105765 -1.184679,0.161124 -1.743781,0.363704 -0.751963,0.272459 -1.382787,0.792732 -2.057898,1.221577 -0.337555,0.214423 -0.691194,0.408363 -1.070774,0.534217 -0.379581,0.125853 -0.787619,0.181732 -1.18227,0.117145 -0.441112,-0.07219 -0.846614,-0.289986 -1.284679,-0.378816 -0.219032,-0.04442 -0.448426,-0.05559 -0.664623,10e-4 -0.216197,0.05663 -0.418459,0.18628 -0.533676,0.377781 -0.07402,0.123023 -0.109864,0.266937 -0.114171,0.410445 -0.0043,0.143509 0.02202,0.286808 0.06557,0.423616 0.0871,0.273618 0.24102,0.520087 0.369613,0.77683 0.348544,0.695889 0.513084,1.494576 0.394664,2.263811 -0.118421,0.769234 -0.534107,1.502088 -1.176213,1.941913 -0.640125,0.438468 -1.438608,0.560764 -2.158798,0.849454 -0.360094,0.144346 -0.707988,0.335552 -0.980154,0.61201 -0.272167,0.276458 -0.463499,0.646094 -0.470418,1.03398 -0.003,0.166329 0.02731,0.331217 0.04314,0.496818 0.01583,0.165602 0.01641,0.337322 -0.04314,0.492657 -0.05995,0.156407 -0.177865,0.285852 -0.315051,0.381962 -0.137186,0.09611 -0.293505,0.161337 -0.451552,0.21682 -0.158048,0.05548 -0.319333,0.102037 -0.474623,0.164827 -0.155289,0.06279 -0.305891,0.142975 -0.428336,0.257276 -0.16015,0.149498 -0.263328,0.348203 -0.376105,0.53603 -0.112778,0.187827 -0.245412,0.375193 -0.438812,0.478121 -0.137915,0.0734 -0.296872,0.098 -0.453032,0.102693 -0.15616,0.0047 -0.312331,-0.0093 -0.468554,-0.0079 -0.156224,0.0015 -0.315382,0.01929 -0.457587,0.08399 -0.0711,0.03235 -0.137295,0.07635 -0.19171,0.1324 -0.05442,0.05604 -0.09683,0.124337 -0.119009,0.199237 -0.02512,0.08482 -0.02373,0.176545 -0.0012,0.262093 0.0225,0.08555 0.06562,0.165006 0.12091,0.234055 0.110579,0.138098 0.266404,0.23264 0.42638,0.308181 0.159976,0.07554 0.327542,0.135097 0.483191,0.219193 0.155649,0.0841 0.302003,0.196668 0.388769,0.350844 0.0896,0.159214 0.108181,0.349762 0.09326,0.531847 -0.01492,0.182085 -0.06105,0.359952 -0.09326,0.539787 -0.143563,0.801695 -0.0088,1.623233 0.09448,2.4311 0.103327,0.807867 0.171912,1.649347 -0.09448,2.418996 -0.207214,0.59867 -0.612455,1.121377 -1.119506,1.50117 -0.559162,0.418825 -1.230019,0.664372 -1.908371,0.831449 -0.678353,0.167077 -1.37254,0.26107 -2.05513,0.409891 -0.68259,0.148822 -1.362452,0.35666 -1.953474,0.729178 -0.591022,0.372518 -1.090112,0.925742 -1.287278,1.595967 -0.05286,0.179694 -0.08371,0.365446 -0.140208,0.54403 -0.0565,0.178583 -0.142224,0.353946 -0.283571,0.476851 -0.137912,0.119918 -0.319959,0.181023 -0.502033,0.196797 -0.182075,0.01577 -0.365317,-0.01101 -0.543853,-0.05006 -0.178536,-0.03905 -0.354328,-0.0904 -0.533813,-0.124828 -0.179485,-0.03443 -0.364632,-0.05172 -0.544941,-0.02191 -0.345806,0.05718 -0.647193,0.286928 -0.846399,0.575317 -0.199205,0.288388 -0.305554,0.631504 -0.368577,0.976292 -0.06302,0.344788 -0.08543,0.695603 -0.132896,1.042875 -0.04746,0.347272 -0.121636,0.695744 -0.280253,1.0083 -0.204301,0.402576 -0.541186,0.727408 -0.921774,0.970221 -0.380589,0.242814 -0.805071,0.408545 -1.234213,0.548701 -0.858282,0.280313 -1.773592,0.47735 -2.489914,1.026992 -0.713235,0.547274 -1.140182,1.376028 -1.663027,2.107359 -0.261422,0.365666 -0.554176,0.714498 -0.912872,0.985404 -0.358696,0.270907 -0.789027,0.461063 -1.238117,0.480322 -0.141151,0.0061 -0.282575,-0.0046 -0.423779,0 -0.54165,0.01779 -1.064417,0.26762 -1.449712,0.648735 -0.385294,0.381116 -0.636939,0.886407 -0.75238,1.415911 -0.230881,1.059008 0.07018,2.165894 0.517058,3.153368 0.446879,0.987473 1.039793,1.906387 1.442755,2.912581 0.201481,0.503096 0.354854,1.028645 0.410315,1.567742 0.05546,0.539097 0.01067,1.093107 -0.173536,1.602784 -0.269823,0.746581 -0.816371,1.353534 -1.251319,2.017618 -0.53265,0.813257 -0.904626,1.725604 -1.46511,2.519934 -0.280242,0.397165 -0.609115,0.76479 -1.004261,1.047871 -0.395147,0.283081 -0.859928,0.479111 -1.344629,0.515726 -0.281826,0.02129 -0.565146,-0.01095 -0.847562,0 -0.902559,0.03501 -1.773648,0.542508 -2.249231,1.3104 -0.475583,0.767893 -0.541833,1.773854 -0.171062,2.597485 -0.648117,-0.09881 -1.324264,-0.006 -1.921748,0.263917 -0.597485,0.269875 -1.114156,0.715797 -1.468488,1.267403 -0.218175,0.339644 -0.374204,0.714617 -0.557775,1.074144 -0.183571,0.359527 -0.401367,0.71171 -0.713564,0.967623 -0.267356,0.219155 -0.591992,0.357547 -0.92191,0.460804 -0.329919,0.103258 -0.669212,0.174145 -0.999809,0.27521 -0.330597,0.101064 -0.656666,0.234925 -0.928335,0.448711 -0.271668,0.213786 -0.486014,0.515611 -0.540183,0.85704 -0.04751,0.299436 0.0314,0.61075 0.184482,0.872448 0.153078,0.261699 0.376491,0.476909 0.622925,0.653519 0.492867,0.35321 1.076982,0.55892 1.583155,0.89278 0.753494,0.497 1.320308,1.30272 1.435331,2.198 0.05751,0.44764 0.0023,0.91097 -0.1711,1.32764 -0.173424,0.41667 -0.466117,0.78489 -0.84045,1.03701 -0.265337,0.17871 -0.569286,0.29954 -0.815462,0.50384 -0.371678,0.30845 -0.57295,0.77354 -0.727063,1.23129 -0.154113,0.45775 -0.278155,0.93474 -0.544275,1.33781 -0.333775,0.50554 -0.861043,0.84875 -1.395314,1.13429 -0.53427,0.28555 -1.096033,0.53164 -1.571142,0.90748 -0.574613,0.45455 -0.991348,1.07376 -1.409185,1.6756 -0.417838,0.60183 -0.858763,1.20909 -1.463406,1.62286 -0.434584,0.29739 -0.93452,0.48129 -1.419351,0.68682 -0.48483,0.20554 -0.970272,0.44294 -1.337257,0.8206 -0.393924,0.40538 -0.624487,0.95009 -0.719,1.50739 -0.09451,0.55729 -0.06044,1.12924 0.02029,1.6887 0.161468,1.11891 0.508966,2.23348 0.385621,3.35724 -0.106228,0.96781 -0.562095,1.87445 -1.177026,2.6293 -0.61493,0.75485 -1.384478,1.36943 -2.18551,1.92286 -1.602065,1.10687 -3.396298,2.03109 -4.584596,3.57372 -1.293699,1.67946 -1.6966947,3.89187 -1.6790952,6.01176 0.025329,3.05088 0.8324492,6.10167 0.4184122,9.12443 -0.04403,0.32147 -0.101851,0.6417 -0.119694,0.96569 -0.01784,0.32398 0.0057,0.65517 0.119694,0.95896 0.10715,0.28552 0.291179,0.53781 0.507641,0.75263 0.216461,0.21483 0.465324,0.39422 0.720044,0.56192 0.50944,0.3354 1.057819,0.63718 1.448343,1.1057 0.335888,0.40297 0.534101,0.91092 0.60475,1.43074 0.07065,0.51983 0.0179,1.05155 -0.109299,1.5605 -0.254389,1.0179 -0.795618,1.93577 -1.26657,2.87334 -0.470951,0.93757 -0.884469,1.94718 -0.849786,2.99581 0.01734,0.52431 0.151198,1.04995 0.426305,1.49663 0.275108,0.44668 0.696633,0.80993 1.1946,0.97496 0.419117,0.1389 0.869816,0.13505 1.308213,0.18759 0.219199,0.0263 0.438047,0.0673 0.644177,0.14637 0.20613,0.079 0.399929,0.19773 0.546523,0.3628 0.132497,0.1492 0.222967,0.33217 0.283038,0.52245 0.06007,0.19028 0.09089,0.38851 0.114523,0.58665 0.04726,0.39626 0.06935,0.80629 0.240926,1.1666 0.130964,0.27502 0.34155,0.50371 0.561469,0.71447 0.219918,0.21077 0.45339,0.40937 0.645813,0.64551 0.241283,0.2961 0.411036,0.64243 0.593398,0.97805 0.182361,0.33561 0.384203,0.66944 0.67272,0.91974 0.144259,0.12515 0.309476,0.22785 0.490077,0.28995 0.180601,0.0621 0.376965,0.0826 0.564565,0.0468 0.187599,-0.0358 0.365642,-0.12941 0.492538,-0.27214 0.126896,-0.14272 0.199749,-0.33512 0.187341,-0.52569 -0.01184,-0.18183 -0.09776,-0.35139 -0.203896,-0.49951 -0.106132,-0.14812 -0.233372,-0.2799 -0.343804,-0.42484 -0.417225,-0.54761 -0.5733,-1.28565 -0.413487,-1.95528 z"
       id="path16437"
       inkscape:path-effect="#path-effect16439"
       inkscape:original-d="m 19.337609,163.94371 c 0.189443,0.77001 0.308944,1.5702 0.568329,2.31006 0.452188,1.28981 2.942781,1.55833 3.745656,2.52946 0.222878,0.2696 0.160963,0.80984 0.423776,1.0209 0.852169,0.68428 2.520854,-4e-4 3.374496,0.51043 2.349858,1.40652 4.990209,1.13711 7.617427,0.50422 1.095355,-0.26388 2.589258,0.46441 3.634031,0 0.187416,-0.0832 0.229972,-0.45209 0.423781,-0.51044 1.051033,-0.31649 2.6811,0.50219 3.700167,0 0.275137,-0.13556 0.261012,-0.58047 0.567049,-0.68301 1.290034,-0.43227 2.639262,-0.83295 3.775347,-1.52494 1.272663,-0.77518 3.837588,0.32768 5.197791,0 1.288204,-0.31034 1.41198,-1.07737 2.542676,-1.53133 0.416165,-0.16708 3.734883,-0.25301 3.936954,0 0.613897,0.76867 0.784627,1.25237 1.689818,1.52493 1.397346,0.42079 2.782147,0.29129 4.237794,0.51045 2.022547,0.30452 3.34457,2.01427 5.085353,3.06266 1.559311,0.93909 3.698741,0.92831 5.085351,2.04176 0.909823,0.73058 2.08944,1.24949 2.966457,2.04176 0.479452,0.43313 0.689919,1.35624 1.271339,1.53133 0.403533,0.12147 3.914118,0.36469 4.237795,0 0.731373,-0.82405 -0.274491,-4.97244 -2.58e-4,-5.42304 2.885465,-4.74108 8.254236,-2.37355 12.258951,-3.06265 1.546623,-0.26611 0.944885,-0.89534 2.54268,-0.51044 5.914311,1.42476 12.104711,0.82844 18.116871,2.03538 1.44016,0.28911 3.0065,-0.30044 4.44499,0 6.04397,1.26232 -1.62574,-0.48421 2.48293,1.49534 0.39345,0.18958 0.85183,-0.0721 1.27133,0 2.32416,0.39991 4.55519,2.27048 7.00309,1.53133 1.26609,-0.3823 2.53083,-1.14493 3.81403,-1.53133 0.54475,-0.16403 1.14,0.165 1.68454,0 1.19056,-0.36075 2.52685,-1.65417 3.81401,-2.04176 0.92885,-0.2797 2.6392,0.39348 3.38496,-0.51044 0.56175,-0.68091 0.84602,-1.59436 1.68203,-2.02601 1.57922,-0.81538 4.77585,1.24391 6.44629,1.53132 1.29928,0.22357 3.94086,0.43763 5.29096,0 0.4645,-0.15055 2.32635,-1.02524 2.93413,-0.5046 2.38533,2.0433 8.70425,1.47337 11.43462,-0.17098 1.00598,-0.60585 2.27582,-1.59235 3.37966,-2.03538 0.9929,-0.39852 2.37566,0.21407 3.3975,0 1.9847,-0.41581 4.1996,-0.67702 5.97626,-1.39036 1.81643,-0.72929 2.11527,-3.51012 3.76994,-4.50664 0.8675,-0.52245 2.10176,-0.58227 2.77751,-1.39627 0.23825,-0.28698 0.52728,-1.64511 0.84227,-2.02292 0.50254,-0.60279 0.9473,-0.24966 1.26357,-1.01152 0.80992,-1.95108 0.84756,-9.61378 0.84756,-12.05524 0,-1.42358 0.49557,-4.22101 0,-5.52663 -2.00872,-5.29209 -2.35117,-3.18296 -6.14604,-5.38435 -0.72118,-0.41837 -0.66666,0.54349 -1.53624,-0.46859 -0.82788,-0.96354 -0.77063,-11.97414 -1.84751,-14.5515 -0.24138,-0.57771 0.28814,-1.75095 0,-2.29265 -0.39983,-0.75167 -1.87058,-2.03033 -2.52165,-2.42241 -0.22828,-0.13749 -0.59921,0.23303 -0.76565,0 -0.31096,-0.43543 -0.29012,-0.83564 -0.84755,-1.50706 -0.19778,-0.23822 -1.37542,-0.19616 -1.65494,-0.48627 -0.2476,-0.25695 -0.21605,-1.19722 -0.38479,-1.52578 -0.0112,-0.0219 -0.81651,-0.9749 -0.81995,-0.98764 -0.12967,-0.48045 0.19536,-1.06369 0.008,-1.51556 -0.65964,-1.5891 -0.60608,-3.4226 -1.2553,-4.99706 -0.42876,-1.03984 0.0316,-2.60394 -0.40367,-3.704712 -0.69142,-1.748536 0.71903,-7.147756 -0.52663,-8.711743 -0.16327,-0.205024 0.17207,-0.41092 0.20065,-0.49375 0.26316,-0.762771 -0.22733,-5.081413 -0.34702,-5.255384 -0.1348,-0.195925 -0.94197,0.114667 -1.14214,0 -0.3317,-0.189985 -0.45221,-0.73683 -0.77912,-0.938475 -0.19989,-0.123259 -5.65381,-0.523748 -5.94861,-0.47206 -0.38661,0.06785 -2.71282,1.047779 -3.35384,0.510445 -0.73311,-0.614534 0.74417,-0.839378 -2.38511,-0.839378 -0.66043,0 -2.70233,1.283127 -3.37976,0.510445 -0.11303,-0.128889 0.12875,-0.92886 0,-1.04372 -0.92569,-0.825971 -2.14498,-1.191527 -2.83596,-2.434758 -0.0776,-0.139704 0,-0.33606 0,-0.50409 -0.1395,-0.338163 -0.19951,-0.744282 -0.41849,-1.01452 -0.86334,-1.065449 -1.61478,-0.497551 -2.02776,-2.376746 -0.65798,-2.994017 -0.0376,-6.305674 -1.09666,-8.872343 -0.52071,-1.261954 -0.34773,0.205022 -1.24602,-0.510443 -0.25844,-0.205838 -0.20207,-0.735762 -0.42379,-0.996426 -0.19735,-0.232003 -0.6323,0.234876 -0.82729,0 -1.41936,-1.709731 -1.88775,-1.665696 -3.75529,-3.01333 -0.34081,-0.245929 -0.48882,-0.797791 -0.84277,-1.015119 -0.82282,-0.505225 -3.8685,1.111604 -4.89601,0.304848 -0.1894,-0.148708 0.1,-1.267466 0,-1.568769 -0.28489,-0.858083 -0.51091,-1.648216 -0.74424,-2.494976 -0.0903,-0.327712 -1.94997,-5.278367 -2.01779,-5.36107 -0.098,-0.119555 -0.31667,0.11486 -0.4185,0 -0.76598,-0.864169 0.48431,-4.118846 -0.38689,-5.383405 -1.04339,-1.514471 -2.71525,-2.549189 -3.80874,-3.573092 -0.43615,-0.40837 0.51669,-0.601932 -0.3814,-1.15681 -1.90253,-1.175492 -2.07776,-2.040845 -3.75049,-3.449653 -0.56504,-0.340294 -1.13007,-0.680592 -1.69512,-1.020886 -0.27904,0 -0.58222,0.136741 -0.83715,0 -0.18842,-0.101064 0.10745,-0.546421 0,-0.705066 -0.24039,-0.354981 -0.64975,-0.545771 -0.8203,-0.955237 -0.43629,-1.047519 0.27014,-1.880892 -0.35602,-3.020588 -0.70576,-1.284651 -0.096,0.350108 -1.2026,-0.470563 -1.02893,-0.76308 -1.898,-1.894517 -2.91923,-2.535696 -0.7672,-0.481695 -0.38275,-2.286512 -2.07808,-3.000747 -0.90075,-0.379479 -2.42831,-0.01334 -3.25371,-0.510439 -0.35737,-0.215221 -0.51893,-0.747199 -0.84755,-1.020884 -1.23952,-1.032222 -3.4239,-0.871472 -4.37085,-2.506238 -1.12298,-1.938669 -0.88329,3.991716 -1.12077,4.490101 -0.32441,0.680862 -3.34116,-0.307732 -3.82701,-0.455311 -4.35469,-1.322706 -12.094439,-0.324003 -15.915667,1.978238 -1.351717,0.814397 -3.522707,0.603135 -4.91001,1.020887 -2.837769,0.854517 -1.019856,3.957022 -1.96906,4.448853 -1.004662,0.520568 -2.361509,0.615739 -3.379993,1.020881 -1.456623,0.579431 -2.564859,1.350291 -4.310942,1.872939 -0.713472,0.213561 -1.819314,-0.360207 -2.482978,0 -0.417989,0.226864 0.26994,1.062114 0.321013,1.610891 0.162313,1.744057 -0.05531,2.841323 -0.781549,4.205724 -0.716996,1.347048 -2.725114,0.916208 -3.60937,2.495444 -0.153109,0.273446 0.164241,0.725562 0,0.989475 -2.372989,3.813144 -0.468662,0.273732 -1.669562,1.020885 -0.176496,0.109808 -0.623656,0.937363 -0.814917,1.014151 -0.561157,0.225309 -1.203243,0.123571 -1.689892,0.510442 -0.419725,0.333666 1.411404,1.368012 1.41802,1.374366 0.06397,0.06146 0,0.982911 0,1.071634 0,1.292878 0.442063,3.758064 0,4.850096 -0.244737,0.604587 -0.732907,1.015801 -1.119506,1.50117 -1.983796,2.490597 -4.645706,2.539231 -7.204253,3.566485 -1.236089,0.496288 0.07999,0.364898 -0.423779,1.020881 -0.21093,0.27467 -1.879337,-0.101257 -2.12464,0 -1.500602,0.619428 -0.160962,2.473227 -1.628125,3.602784 -5.572814,4.290448 3.932231,-3.911802 -4.645901,2.545914 -1.365792,1.028184 -2.494553,2.460583 -3.814016,3.573085 -0.115725,0.09758 -0.323596,-0.119956 -0.423779,0 -1.404183,1.68127 1.015491,9.554542 -0.0055,11.301121 -0.401238,0.686401 -0.815936,1.362106 -1.251319,2.017618 -0.687099,1.03452 -3.322584,3.71359 -3.814,4.083531 -0.239577,0.180355 -0.612489,-0.188756 -0.847562,0 -0.946539,0.760074 -1.512108,2.97067 -2.420293,3.907885 -0.421843,3.247679 -2.355308,0.783379 -3.390236,1.53132 -0.605645,0.437705 -0.601285,1.772744 -1.271339,2.041767 -0.825643,0.331496 -2.879974,0.958253 -3.390237,2.041765 -0.199216,0.423037 2.129592,1.999186 2.390562,2.418746 0.32117,0.51632 0.907173,3.96514 0.423781,4.56265 -0.213204,0.26355 -0.599342,0.24377 -0.815462,0.50384 -1.066287,1.28315 1.719836,-0.11199 -1.271338,2.5691 -5.710142,5.11824 -0.108862,-0.21283 -2.966456,2.04177 -0.965316,0.76162 -1.685333,2.56594 -2.872591,3.29846 -0.667483,0.41181 -2.245984,0.58484 -2.756608,1.50742 -0.738052,1.33347 0.297889,5.08107 -0.313089,6.55333 -0.997869,2.40454 -6.283376,5.162 -7.947132,8.12588 -0.01144,0.0204 -1.6449787,5.86932 -1.6790952,6.01176 -0.6656689,2.77946 0.4184122,6.33217 0.4184122,9.12443 0,0.64156 -0.337109,1.42794 0,1.92465 0.754663,1.11193 2.042201,0.75726 2.676028,2.42025 0.787161,2.06527 -0.940054,9.82205 0,11.33198 0.372608,0.5985 1.904738,0.27703 2.498913,0.69676 0.626551,0.4426 0.362301,1.74201 0.638487,2.2757 0.0711,0.13734 1.012185,1.11717 1.207282,1.35998 1.398959,1.74101 0.809978,1.43675 3.000639,1.43675 0.01144,0 -0.522897,-0.85025 -0.5477,-0.92435 -0.208795,-0.62379 -0.275659,-1.30353 -0.413487,-1.95528 z" />
    <path
       style="fill:none;stroke:#000000;stroke-width:3.14848;stroke-linecap:butt;stroke-linejoin:miter;stroke-miterlimit:4;stroke-dasharray:none;stroke-opacity:1"
       d="m 81.158227,50.027046 c 0.450171,0.820523 1.039377,1.56454 1.734914,2.190752 1.597635,1.438397 3.738596,2.219123 5.886868,2.298831 2.148271,0.07971 4.296205,-0.517776 6.175463,-1.561718 1.997188,-1.109453 3.741126,-2.76845 4.661568,-4.859486 0.48662,-1.105491 0.74467,-2.323515 1.42219,-3.32345 0.5257,-0.775857 1.27437,-1.374056 1.84803,-2.115157 0.28682,-0.370551 0.53095,-0.780977 0.66088,-1.231194 0.12994,-0.450216 0.13969,-0.943784 -0.0296,-1.380718 -0.11201,-0.289065 -0.29946,-0.546578 -0.52986,-0.753987 -0.23041,-0.207409 -0.50303,-0.365536 -0.79208,-0.477583 -0.57811,-0.224092 -1.21189,-0.263427 -1.83138,-0.23788 -0.80925,0.03337 -1.629953,0.171951 -2.421427,0 -0.329413,-0.07157 -0.647161,-0.19654 -0.937065,-0.368558"
       id="path16628"
       inkscape:path-effect="#path-effect16630"
       inkscape:original-d="m 81.158227,50.027046 c 0.578303,0.73025 0.978047,1.665422 1.734914,2.190752 1.511122,1.048838 10.448032,1.695408 12.062331,0.737113 1.238097,-0.734971 3.903786,-3.735893 4.661568,-4.859486 0.66964,-0.992902 0.77485,-2.314712 1.42219,-3.32345 0.52129,-0.812318 3.12808,-3.413292 2.47929,-4.727069 -0.0349,-0.07074 -2.95915,-1.418709 -3.15332,-1.46945 -0.646175,-0.168853 -1.82159,0.323734 -2.421427,0 -0.511026,-0.275801 -0.35088,-0.368558 -0.937065,-0.368558" />
    <path
       style="fill:none;stroke:#000000;stroke-width:3.14848;stroke-linecap:butt;stroke-linejoin:miter;stroke-miterlimit:4;stroke-dasharray:none;stroke-opacity:1"
       d="m 81.843567,62.324399 c -1.449191,0.942074 -2.913038,1.861604 -4.390832,2.758144 -5.091731,3.089025 -10.462833,5.945932 -16.322938,7.007519 -0.466455,0.0845 -0.957954,0.155668 -1.405713,0 -0.25977,-0.09031 -0.490801,-0.25415 -0.678201,-0.45544 -0.1874,-0.201291 -0.3325,-0.439323 -0.445819,-0.689913 -0.226639,-0.501179 -0.327199,-1.048188 -0.468266,-1.579833 -0.288537,-1.087422 -0.753983,-2.127693 -1.372476,-3.067483"
       id="path16636"
       inkscape:path-effect="#path-effect16638"
       inkscape:original-d="m 81.843567,62.324399 c -4.720628,4.217389 0.103687,0.423575 -4.390832,2.758144 -4.286409,2.226466 -10.930884,9.826089 -16.322938,7.007519 -0.376747,-0.196938 -1.016341,0.175817 -1.405713,0 -0.656981,-0.29666 -1.280019,-2.076394 -1.592286,-2.725186 -0.371198,-0.77124 -1.372476,-2.113119 -1.372476,-3.067483" />
    <path
       style="fill:none;stroke:#000000;stroke-width:3.14848;stroke-linecap:butt;stroke-linejoin:miter;stroke-miterlimit:4;stroke-dasharray:none;stroke-opacity:1"
       d="m 137.93386,90.649806 c 0.52732,3.187562 2.26627,6.159498 4.78678,8.180797 2.52051,2.021297 5.7992,3.073217 9.0252,2.895587 1.82366,-0.10041 3.62541,-0.58281 5.25528,-1.40704 0.72333,-0.579341 1.33016,-1.303535 1.77399,-2.117085 0.1946,-0.356699 0.35794,-0.729769 0.55313,-1.086146 0.19518,-0.356376 0.42568,-0.69969 0.73184,-0.966833 0.57749,-0.503892 1.3589,-0.687614 2.04656,-1.026044 0.81063,-0.398952 1.50543,-1.029948 1.98039,-1.798518"
       id="path16644"
       inkscape:path-effect="#path-effect16646"
       inkscape:original-d="m 137.93386,90.649806 c 3.71851,5.03736 7.1641,10.979574 13.81198,11.076384 1.85198,0.027 3.70273,-0.1337 5.25528,-1.40704 1.02909,-0.27775 1.08204,-1.51821 1.77399,-2.117085 1.31639,-1.139312 1.01935,-0.563348 1.28497,-2.052979 0.0774,-0.434182 1.76956,-0.645236 2.04656,-1.026044 0.36173,-0.497279 1.44531,-1.530259 1.98039,-1.798518" />
    <path
       style="fill:none;stroke:#000000;stroke-width:3.14848;stroke-linecap:butt;stroke-linejoin:miter;stroke-miterlimit:4;stroke-dasharray:none;stroke-opacity:1"
       d="m 110.88674,103.46313 c -0.94342,-0.33033 -2.03811,-0.19361 -2.8713,0.35861 -0.8332,0.55222 -1.3856,1.50715 -1.44892,2.50472 -0.0553,0.87181 0.24624,1.73937 0.71683,2.47534 0.47059,0.73598 1.1032,1.35395 1.76181,1.92784 0.49118,0.428 1.00142,0.83676 1.4497,1.3095 0.44828,0.47275 0.8369,1.01791 1.03372,1.63896 0.18916,0.59689 0.19397,1.23765 0.35478,1.84279 0.29455,1.10843 1.11659,2.04033 2.12864,2.5799 0.76423,0.40744 1.62075,0.60363 2.46856,0.78051 0.8478,0.17688 1.70714,0.34136 2.49828,0.69372 0.48704,0.21692 0.94064,0.50187 1.4191,0.73711 1.31017,0.64417 2.80681,0.9033 4.25729,0.73712"
       id="path16660"
       inkscape:path-effect="#path-effect16662"
       inkscape:original-d="m 110.88674,103.46313 c -1.0431,0.95853 -3.78225,1.18057 -4.32022,2.86333 -0.4901,1.53302 1.76182,3.28618 2.47864,4.40318 0.55554,0.86568 2.22159,2.13247 2.48342,2.94846 0.54095,1.68591 -0.93011,-0.3819 0.35478,1.84279 0.41093,0.7115 1.59495,2.02549 2.12864,2.5799 1.1415,1.18586 3.56899,1.1838 4.96684,1.47423 0.5186,0.10775 0.92806,0.53307 1.4191,0.73711 1.28749,0.53502 2.87424,0.73712 4.25729,0.73712" />
    <path
       style="fill:none;stroke:#000000;stroke-width:3.14848;stroke-linecap:butt;stroke-linejoin:miter;stroke-miterlimit:4;stroke-dasharray:none;stroke-opacity:1"
       d="m 169.10682,153.42884 c 0.55194,0.76417 1.47483,1.24667 2.41732,1.26382 0.9425,0.0172 1.88233,-0.43145 2.46171,-1.17502 0.43749,-0.56147 0.66604,-1.2614 0.77617,-1.96462 0.11013,-0.70322 0.10951,-1.41827 0.13489,-2.1296 0.10217,-2.86318 0.6283,-5.6935 0.88003,-8.54742 0.0585,-0.66351 0.10014,-1.34722 -0.10193,-1.98191 -0.1278,-0.40142 -0.34792,-0.76579 -0.55351,-1.13348 -0.20559,-0.3677 -0.40103,-0.75029 -0.47182,-1.16557 -0.0462,-0.27124 -0.0375,-0.55174 0.0255,-0.81958"
       id="path16668"
       inkscape:path-effect="#path-effect16670"
       inkscape:original-d="m 169.10682,153.42884 c 1.71363,0.0767 3.33568,1.27059 4.87903,0.0888 1.29745,-0.99347 0.87233,-2.74343 0.91106,-4.09422 0.0814,-2.84044 1.08808,-5.67482 0.88003,-8.54742 -0.0478,-0.65971 0.0163,-1.33183 -0.10193,-1.98191 -0.11693,-0.64316 -1.05689,-1.61592 -1.02533,-2.29905 0.0454,-0.98285 0.36591,-0.0563 0.0255,-0.81958" />
    <path
       style="fill:none;stroke:#000000;stroke-width:3.14848;stroke-linecap:butt;stroke-linejoin:miter;stroke-miterlimit:4;stroke-dasharray:none;stroke-opacity:1"
       d="m 113.86715,52.965094 c -0.62159,0.03926 -1.22081,0.353476 -1.60658,0.842451 -0.38577,0.488975 -0.5519,1.14487 -0.44542,1.758528 0.047,0.270607 0.14406,0.533253 0.15835,0.807532 0.0138,0.26451 -0.051,0.529253 -0.16006,0.770645 -0.10902,0.241391 -0.2612,0.461047 -0.4271,0.667527 -0.3318,0.41296 -0.72431,0.78291 -0.98345,1.244936 -0.35774,0.637826 -0.42991,1.411275 -0.29049,2.129164 0.13942,0.717889 0.47813,1.384978 0.89606,1.985087 0.83588,1.20022 1.98861,2.157277 2.79252,3.379136 0.13352,0.202941 0.25923,0.415329 0.43763,0.580219 0.24585,0.227238 0.57789,0.347497 0.91137,0.377026 0.33348,0.02953 0.6696,-0.02636 0.99205,-0.11639 0.6449,-0.180051 1.25669,-0.497705 1.92278,-0.565796 0.45025,-0.04603 0.90532,0.02509 1.34339,0.138853 0.43807,0.113764 0.86389,0.269907 1.29784,0.398484 0.43396,0.128576 0.8807,0.230108 1.33331,0.230125 0.4526,1.8e-5 0.91446,-0.107532 1.28544,-0.366796 0.29565,-0.206615 0.52521,-0.50197 0.83779,-0.681942 0.33664,-0.193826 0.74234,-0.236096 1.12927,-0.201679 0.38693,0.03442 0.7633,0.140242 1.14227,0.225569 0.56888,0.128086 1.15102,0.210805 1.73391,0.194471 0.58289,-0.01633 1.16792,-0.134207 1.69123,-0.391459 0.5233,-0.257253 0.98257,-0.658893 1.265,-1.169052 0.28243,-0.510158 0.37798,-1.130671 0.21566,-1.690743 -0.15684,-0.541161 -0.53568,-0.995276 -0.70523,-1.532589 -0.1454,-0.460777 -0.12617,-0.97167 0.0535,-1.420212 0.17963,-0.448542 0.51835,-0.831487 0.94161,-1.064533"
       id="path17937"
       inkscape:path-effect="#path-effect17939"
       inkscape:original-d="m 113.86715,52.965094 c -0.83789,0.628359 -1.91208,1.403292 -2.052,2.600979 -0.0318,0.272703 0.24108,0.546615 0.15835,0.807532 -0.0679,0.214128 -1.40976,2.057876 -1.57061,2.683108 -0.79705,3.098068 1.17869,5.691089 3.39809,7.493387 0.18635,0.151321 0.2239,0.475001 0.43763,0.580219 1.47499,0.726103 2.58614,-0.116415 3.8262,-0.30516 1.60151,-0.243762 3.67508,0.88146 5.25998,0.400666 0.34056,-0.103321 0.52104,-0.515936 0.83779,-0.681942 0.80556,-0.422179 1.39406,0.09385 2.27154,0.02389 0.71735,-0.05722 4.52171,-2.306921 4.9058,-3.056783 0.25604,-0.49987 -0.77007,-0.970358 -0.70523,-1.532589 0.13854,-1.201608 0.88506,-1.543091 0.99507,-2.484745" />
    <path
       style="fill:none;stroke:#000000;stroke-width:3.14848;stroke-linecap:butt;stroke-linejoin:miter;stroke-miterlimit:4;stroke-dasharray:none;stroke-opacity:1"
       d="m 54.916266,88.954961 c -0.07209,-0.808386 0.178257,-1.64107 0.684172,-2.275684 0.505914,-0.634613 1.261872,-1.06422 2.065993,-1.174094 0.804122,-0.109873 1.647619,0.101188 2.305235,0.576819 0.657616,0.475631 1.122164,1.210634 1.269585,2.008726 0.11085,0.600108 0.04796,1.21671 0,1.825083 -0.106096,1.345968 -0.13707,2.70172 0,4.044887 0.03746,0.367054 0.08694,0.742492 0,1.101062 -0.09234,0.380848 -0.331697,0.70979 -0.598943,0.996411 -0.267247,0.286621 -0.567518,0.542209 -0.820155,0.841787 -0.584385,0.692967 -0.880002,1.576613 -1.184478,2.43043 -0.304475,0.853822 -0.648781,1.729162 -1.298943,2.360822 -0.712372,0.6921 -1.722716,1.01081 -2.714447,1.06511 -0.991732,0.0543 -1.979411,-0.13195 -2.953086,-0.328 -0.590625,-0.11892 -1.180457,-0.24178 -1.769446,-0.36856"
       id="path17941"
       inkscape:path-effect="#path-effect17943"
       inkscape:original-d="m 54.916266,88.954961 c 1.380633,-0.909293 5.041718,-3.514446 6.324985,-0.864233 0.224823,0.464308 -0.122594,1.318713 0,1.825083 0.370198,1.529097 0.373927,2.491063 0,4.044887 -0.08569,0.356063 0.112563,0.75317 0,1.101062 -0.310374,0.959243 -0.986215,0.938797 -1.419098,1.838198 -0.835476,1.73587 -1.229812,3.488932 -2.483421,4.791252 -0.485003,0.50384 -5.009304,0.87387 -5.667533,0.73711 -0.870711,-0.18091 -1.008128,-0.36856 -1.769446,-0.36856" />
    <path
       style="fill:none;stroke:#000000;stroke-width:3.14848;stroke-linecap:butt;stroke-linejoin:miter;stroke-miterlimit:4;stroke-dasharray:none;stroke-opacity:1"
       d="m 135.83025,108.46537 c -1.35064,0.96824 -2.28165,2.50233 -2.517,4.14742 -0.17491,1.22265 0.0198,2.46766 0.28699,3.67351 0.85191,3.84489 2.54675,7.65045 5.56496,10.18014 1.48763,1.24684 3.27471,2.15143 5.18017,2.52138 1.43313,0.27825 2.94212,0.2495 4.32554,-0.21681 1.45215,-0.48948 2.73663,-1.4627 3.60078,-2.72823"
       id="path18023"
       inkscape:path-effect="#path-effect18025"
       inkscape:original-d="m 135.83025,108.46537 c -0.0712,1.48485 -2.25754,2.68286 -2.517,4.14742 -0.12118,0.68399 0.0729,3.0315 0.28699,3.67351 0.18764,0.56257 5.21042,9.86711 5.56496,10.18014 1.38604,1.22369 3.4609,2.08285 5.18017,2.52138 1.23962,0.31618 3.13166,0.33467 4.32554,-0.21681 1.5873,-0.73319 0.95725,-4.45962 3.60078,-2.72823" />
    <path
       style="fill:none;stroke:#000000;stroke-width:3.14848;stroke-linecap:butt;stroke-linejoin:miter;stroke-miterlimit:4;stroke-dasharray:none;stroke-opacity:1"
       d="m 132.81296,144.47081 c 3.38302,3.36683 8.00913,5.45536 12.77188,5.76606 2.14848,0.14016 4.30536,-0.0681 6.45733,-2e-5 1.56786,0.0496 3.14776,0.24512 4.69714,0 2.09411,-0.33129 4.04467,-1.49558 5.33017,-3.18156 1.2855,-1.68598 1.89185,-3.87518 1.65692,-5.98228"
       id="path18027"
       inkscape:path-effect="#path-effect18029"
       inkscape:original-d="m 132.81296,144.47081 c 2.68598,5.92121 7.51514,5.26962 12.77188,5.76606 2.3452,0.22149 4.078,0.15066 6.45733,-2e-5 1.56281,-0.099 3.147,0.22887 4.69714,0 5.48675,-0.81007 6.98709,-3.32734 6.98709,-9.16384" />
    <path
       style="fill:none;stroke:#000000;stroke-width:3.14848;stroke-linecap:butt;stroke-linejoin:miter;stroke-miterlimit:4;stroke-dasharray:none;stroke-opacity:1"
       d="m 80.338049,116.36977 c -2.153954,1.37956 -3.973554,3.27723 -5.261464,5.4872 -0.220798,0.37888 -0.428063,0.76942 -0.709547,1.10567 -0.387084,0.4624 -0.903109,0.80565 -1.456424,1.04542 -0.553315,0.23977 -1.144801,0.38023 -1.739268,0.4815 -1.188934,0.20255 -2.417407,0.25659 -3.545035,0.68443 -0.347217,0.13174 -0.685148,0.29899 -1.050798,0.36391 -0.382211,0.0679 -0.781056,0.019 -1.145168,-0.11554 -0.364112,-0.13459 -0.694288,-0.35287 -0.978921,-0.61683 -0.25012,-0.23195 -0.465804,-0.49848 -0.70955,-0.73712 -0.400101,-0.39172 -0.87826,-0.70755 -1.405657,-0.89565 -0.527398,-0.18809 -1.104435,-0.2458 -1.654022,-0.13865 -0.115989,0.0226 -0.231044,0.0525 -0.348857,0.0617 -0.117813,0.009 -0.240875,-0.004 -0.343835,-0.0617 -0.06643,-0.0374 -0.122178,-0.0925 -0.164166,-0.15616 -0.04199,-0.0636 -0.07049,-0.13565 -0.08786,-0.20989 -0.03474,-0.14847 -0.02533,-0.30355 -0.008,-0.45505 0.01728,-0.1515 0.04228,-0.30297 0.03809,-0.4554 -0.0042,-0.15242 -0.04015,-0.30879 -0.132799,-0.4299 -0.07916,-0.10348 -0.194072,-0.17419 -0.313486,-0.22628 -0.119414,-0.0521 -0.245307,-0.0877 -0.366538,-0.13544 -0.324027,-0.12751 -0.613015,-0.34282 -0.827904,-0.61682 -0.214888,-0.274 -0.355116,-0.60598 -0.401728,-0.95106 -0.04661,-0.34508 5.13e-4,-0.70237 0.135006,-1.02356 0.134492,-0.32119 0.356,-0.60546 0.634584,-0.81437"
       id="path18105"
       inkscape:path-effect="#path-effect18107"
       inkscape:original-d="m 80.338049,116.36977 c -0.99444,2.80367 -3.434617,3.58939 -5.261464,5.4872 -0.3015,0.31322 -0.408047,0.79247 -0.709547,1.10567 -1.56255,1.62326 -4.607986,2.21135 -6.740727,2.21135 -0.481346,0 -0.58358,0.52499 -1.050798,0.36391 -0.705603,-0.24328 -1.461351,-0.50288 -2.124089,-0.73237 -0.31732,-0.10989 -0.412725,-0.57694 -0.70955,-0.73712 -1.059523,-0.57178 -2.179221,-0.2479 -3.059679,-1.0343 -0.175084,-0.15638 -0.516252,0.15473 -0.692692,0 -0.2369,-0.20774 -0.128953,-1.4718 -0.354776,-1.7064 -0.857249,-0.89055 0.282545,1.40284 -0.680024,-0.36172 -0.301603,-0.55289 -0.460042,-2.58593 -0.460042,-3.40581" />
    <path
       style="fill:none;stroke:#000000;stroke-width:3.14848;stroke-linecap:butt;stroke-linejoin:miter;stroke-miterlimit:4;stroke-dasharray:none;stroke-opacity:1"
       d="m 23.706713,133.03699 c 2.640257,-0.34789 5.309217,-0.47768 7.970771,-0.38762 0.953772,0.0323 1.911375,0.0926 2.860271,-0.009 2.036006,-0.21798 3.940644,-1.1799 5.536177,-2.4633 1.330948,-1.07057 2.501301,-2.4154 3.044181,-4.03491 0.271441,-0.80976 0.379382,-1.67926 0.26757,-2.52595 -0.111813,-0.84669 -0.448127,-1.66891 -0.997801,-2.32255 -0.234495,-0.27885 -0.506338,-0.52676 -0.717553,-0.82363 -0.105608,-0.14843 -0.195716,-0.30923 -0.252595,-0.4823 -0.05688,-0.17306 -0.07973,-0.35902 -0.05126,-0.53895 0.03587,-0.22667 0.151294,-0.43836 0.161161,-0.66764 0.0049,-0.11464 -0.01889,-0.23375 -0.08646,-0.32649 -0.03379,-0.0464 -0.07819,-0.0854 -0.12983,-0.11037 -0.05164,-0.025 -0.110566,-0.0356 -0.167361,-0.0275 -0.05913,0.008 -0.113853,0.0365 -0.162925,0.0706 -0.04907,0.0341 -0.09351,0.0743 -0.140737,0.11085 -0.245046,0.18975 -0.568026,0.27552 -0.874927,0.23235 -0.306901,-0.0432 -0.593685,-0.21472 -0.776876,-0.4647 -0.183191,-0.24999 -0.260378,-0.57513 -0.209093,-0.88078 0.05128,-0.30565 0.230365,-0.58779 0.485116,-0.76429"
       id="path18109"
       inkscape:path-effect="#path-effect18111"
       inkscape:original-d="m 23.706713,133.03699 c 2.824302,2.51382 4.969925,0.24495 7.970771,-0.38762 0.93438,-0.19698 1.966888,0.33761 2.860271,-0.009 0.39987,-0.15488 5.427144,-2.29376 5.536177,-2.4633 0.937644,-1.45795 2.732649,-7.34898 2.31395,-8.88341 -0.174876,-0.64088 -0.904236,-1.19037 -1.021409,-1.84488 -0.06778,-0.37863 0.135432,-1.03171 -0.222491,-1.13201 -0.112748,-0.0316 -0.190934,0.21305 -0.303662,0.18144 -0.124758,-0.035 -1.173328,-1.51175 -1.37578,-1.87742" />
    <path
       style="fill:none;stroke:#000000;stroke-width:3.14848;stroke-linecap:butt;stroke-linejoin:miter;stroke-miterlimit:4;stroke-dasharray:none;stroke-opacity:1"
       d="m 64.14335,159.39636 c 2.356294,-1.53679 4.232927,-3.79806 5.309075,-6.39724 0.19281,-0.46569 0.363781,-0.94777 0.657118,-1.35764 0.38856,-0.54292 0.97549,-0.9265 1.609651,-1.13527 0.634161,-0.20877 1.314335,-0.25093 1.979819,-0.1973 1.330968,0.10725 2.602307,0.58571 3.916528,0.82193 0.585411,0.10522 1.180483,0.16258 1.756023,0.31269 0.575539,0.15011 1.14188,0.40318 1.549565,0.83628 0.346191,0.36777 0.555734,0.83927 0.7847,1.28946 0.228967,0.4502 0.497447,0.9034 0.916522,1.18532 0.199489,0.1342 0.424915,0.22367 0.64576,0.31871 0.220844,0.095 0.442047,0.1986 0.624347,0.35535 0.1989,0.17103 0.344723,0.40294 0.41268,0.6563 0.06796,0.25337 0.05776,0.52712 -0.02885,0.77473"
       id="path18113"
       inkscape:path-effect="#path-effect18115"
       inkscape:original-d="m 64.14335,159.39636 c 1.5178,-2.52341 3.580305,-4.19701 5.309075,-6.39724 0.308325,-0.39242 0.304327,-1.008 0.657118,-1.35764 1.139791,-1.12964 5.971728,-0.8686 7.505998,-0.51064 0.266855,0.0623 3.275093,1.09789 3.305588,1.14897 0.120815,0.20238 1.440146,2.24785 1.701222,2.47478 0.327099,0.2843 1.003671,0.28602 1.270107,0.67406 0.270182,0.39351 -0.595639,1.20251 0.383829,1.43103" />
    <path
       style="fill:none;stroke:#000000;stroke-width:3.14848;stroke-linecap:butt;stroke-linejoin:miter;stroke-miterlimit:4;stroke-dasharray:none;stroke-opacity:1"
       d="m 31.847133,149.17188 c 0.570739,1.73676 1.73408,3.27277 3.251233,4.29274 1.263275,0.84929 2.765501,1.3411 4.286784,1.39449 1.521283,0.0534 3.056666,-0.33292 4.367065,-1.10752 0.155038,-0.0916 0.307241,-0.18872 0.468978,-0.26795 0.161736,-0.0792 0.334603,-0.14068 0.514062,-0.15585 0.213852,-0.0181 0.427707,0.03 0.633698,0.0903 0.20599,0.0602 0.409345,0.13315 0.62131,0.16677 0.426862,0.0677 0.869051,-0.0296 1.257522,-0.21899 0.38847,-0.18944 0.727768,-0.46714 1.036239,-0.76986 1.090509,-1.07019 1.814936,-2.45066 2.489343,-3.82168 0.431998,-0.87822 0.855333,-1.77621 1.027826,-2.73961 0.08625,-0.4817 0.108121,-0.97727 0.03475,-1.46109 -0.07337,-0.48383 -0.243875,-0.95595 -0.521523,-1.35892 -0.178662,-0.2593 -0.400673,-0.48866 -0.654025,-0.67567"
       id="path18117"
       inkscape:path-effect="#path-effect18119"
       inkscape:original-d="m 31.847133,149.17188 c 0.228577,0.85862 2.35092,3.90606 3.251233,4.29274 2.241105,0.96258 6.292142,0.71997 8.653849,0.28697 0.349359,-0.0641 0.632155,-0.36934 0.98304,-0.4238 0.740971,-0.11506 0.177223,0.42439 1.255008,0.25703 0.754028,-0.11708 1.585325,-0.68344 2.293761,-0.98885 2.288881,-0.98675 1.673472,-1.75365 2.489343,-3.82168 0.49789,-1.26202 2.274774,-4.00682 0.541049,-5.55962 -0.433601,-0.38833 -0.439894,-0.13964 -0.654025,-0.67567" />
    <path
       style="fill:none;stroke:#000000;stroke-width:3.14848;stroke-linecap:butt;stroke-linejoin:miter;stroke-miterlimit:4;stroke-dasharray:none;stroke-opacity:1"
       d="m 106.03036,85.098377 c 0.009,0.98397 0.33716,1.962461 0.92285,2.753188 0.58569,0.790726 1.42611,1.389662 2.36468,1.68523 1.13436,0.357224 2.36487,0.271415 3.52768,0.02187 1.1628,-0.249543 2.28588,-0.656892 3.4404,-0.942312 0.41752,-0.103218 0.84838,-0.194231 1.21265,-0.422888 0.31148,-0.19552 0.55666,-0.481954 0.75849,-0.789377 0.20184,-0.307424 0.3645,-0.638494 0.5448,-0.959022 1.12998,-2.008814 2.9293,-3.567497 4.12712,-5.536616 0.48979,-0.805183 0.87485,-1.673996 1.14242,-2.577668"
       id="path18121"
       inkscape:path-effect="#path-effect18123"
       inkscape:original-d="m 106.03036,85.098377 c 0.42882,2.158432 1.73978,3.193298 3.28753,4.438418 2.76156,2.22158 4.25289,0.597322 6.96808,-0.92044 0.37547,-0.209885 0.88468,-0.139845 1.21265,-0.422888 0.54579,-0.471024 0.8152,-1.213403 1.30329,-1.748399 1.59534,-1.748638 3.22861,-3.203874 4.12712,-5.536616 0.28742,-0.746199 1.29836,-2.057617 1.14242,-2.577668" />
    <path
       style="fill:none;stroke:#000000;stroke-width:3.14848;stroke-linecap:butt;stroke-linejoin:miter;stroke-miterlimit:4;stroke-dasharray:none;stroke-opacity:1"
       d="m 95.902661,103.3095 c -0.660228,-0.30127 -1.396968,-0.43304 -2.120691,-0.37928 -0.723724,0.0537 -1.432914,0.29292 -2.041388,0.68842 -0.2659,0.17283 -0.511943,0.37424 -0.770837,0.5574 -0.258894,0.18316 -0.534393,0.34975 -0.837842,0.44191 -0.393998,0.11966 -0.820936,0.10766 -1.220164,0.007 -0.399227,-0.10084 -0.772724,-0.28755 -1.118674,-0.51087 -0.6919,-0.44663 -1.280118,-1.03931 -1.971035,-1.48746 -0.610295,-0.39586 -1.28916,-0.67162 -1.932907,-1.01038 -0.643748,-0.33875 -1.270011,-0.7572 -1.679837,-1.35821 -0.45513,-0.667443 -0.599982,-1.491209 -0.754983,-2.284051 -0.155001,-0.792842 -0.347434,-1.616335 -0.869998,-2.232412 -0.201044,-0.23702 -0.444035,-0.434198 -0.666979,-0.650746 -0.222944,-0.216547 -0.430787,-0.460499 -0.53572,-0.75305 -0.08829,-0.246145 -0.09876,-0.512359 -0.107358,-0.773718 -0.0086,-0.261358 -0.01702,-0.527354 -0.101607,-0.774793 -0.124835,-0.365154 -0.401633,-0.653536 -0.636176,-0.959984 -0.78169,-1.021337 -1.132183,-2.362223 -0.950266,-3.635437 0.181917,-1.273215 0.893893,-2.462294 1.930324,-3.223858"
       id="path18125"
       inkscape:path-effect="#path-effect18127"
       inkscape:original-d="m 95.902661,103.3095 c -1.334999,1.20772 -2.784649,0.10854 -4.162079,0.30914 -0.832158,0.12119 -0.78098,0.88381 -1.608679,0.99931 -1.721264,0.2402 -2.919925,-1.19476 -4.309873,-1.99152 -1.071593,-0.61427 -2.922142,-1.18299 -3.612744,-2.36859 -0.808365,-1.387801 -0.706704,-3.130797 -1.624981,-4.516463 -0.341933,-0.515975 -0.934412,-0.84281 -1.202699,-1.403796 -0.223203,-0.466799 -0.04322,-1.056561 -0.208965,-1.548511 -0.12354,-0.366685 -0.488643,-0.603001 -0.636176,-0.959984 -0.904343,-2.188229 -0.352448,-5.023626 0.980058,-6.859295" />
    <path
       style="fill:none;stroke:#000000;stroke-width:3.14848;stroke-linecap:butt;stroke-linejoin:miter;stroke-miterlimit:4;stroke-dasharray:none;stroke-opacity:1"
       d="m 97.488644,120.61521 c 1.063563,-0.25476 2.235591,-0.0116 3.110036,0.64521 0.87445,0.65682 1.43452,1.71469 1.48618,2.80712 0.0146,0.30879 -0.009,0.61807 -0.007,0.9272 0.002,0.30912 0.0323,0.62332 0.14871,0.90968 0.1026,0.25233 0.26809,0.47301 0.4104,0.70527 0.55727,0.90953 0.7576,2.01675 0.63585,3.07645 -0.12176,1.0597 -0.55396,2.07141 -1.16816,2.94351 -1.22839,1.74418 -3.12146,2.89735 -5.039133,3.83206 -1.068976,0.52104 -2.166936,0.99156 -3.311513,1.31426 -1.439577,0.40587 -2.945967,0.57371 -4.439575,0.49465"
       id="path18129"
       inkscape:path-effect="#path-effect18131"
       inkscape:original-d="m 97.488644,120.61521 c 0.94161,1.30288 4.040076,1.66492 4.596216,3.45233 0.18186,0.58449 0.0117,1.23769 0.14189,1.83688 0.0582,0.26797 0.41648,0.43064 0.4104,0.70527 -0.0322,1.45583 -4.266672,8.86739 -5.571443,9.85202 -0.7884,0.59495 -2.329747,1.23091 -3.311513,1.31426 -1.319926,0.11208 -3.530139,-1.00087 -4.439575,0.49465" />
    <path
       style="fill:none;stroke:#000000;stroke-width:3.14848;stroke-linecap:butt;stroke-linejoin:miter;stroke-miterlimit:4;stroke-dasharray:none;stroke-opacity:1"
       d="m 110.34117,142.75398 c -0.86361,-0.11967 -1.77542,0.17602 -2.40444,0.77974 -0.62903,0.60371 -0.96189,1.50261 -0.87777,2.37041 0.0478,0.49306 0.22112,0.96572 0.4282,1.41573 0.20709,0.45002 0.44925,0.88355 0.64653,1.33795 0.45599,1.05031 0.66457,2.19371 1.10769,3.24952 0.912,2.17297 2.83341,3.87668 5.072,4.61303 0.96127,0.3162 1.96991,0.46277 2.94369,0.73804 0.97378,0.27527 1.94299,0.70212 2.61467,1.459 0.5219,0.58809 0.83944,1.34777 1.42342,1.87426 0.292,0.26324 0.65547,0.46273 1.0472,0.49589 0.19587,0.0166 0.39628,-0.009 0.57819,-0.0837 0.18191,-0.0745 0.34464,-0.19843 0.45729,-0.35952 0.0689,-0.0985 0.12138,-0.21271 0.21661,-0.2861 0.0647,-0.0498 0.14643,-0.077 0.22806,-0.0759 0.0816,0.001 0.16258,0.0307 0.2258,0.0823 0.0632,0.0517 0.10829,0.1251 0.1257,0.20486 0.0174,0.0797 0.007,0.1653 -0.0289,0.2386 0.0809,-0.46158 0.20149,-0.91619 0.36009,-1.35714 0.33847,-0.94104 0.85129,-1.81904 1.50467,-2.57615"
       id="path18137"
       inkscape:path-effect="#path-effect18139"
       inkscape:original-d="m 110.34117,142.75398 c -1.35435,0.36916 -3.24179,1.32148 -3.28221,3.15015 -0.0218,0.9902 0.80749,1.80291 1.07473,2.75368 0.24201,0.86108 0.65393,2.42721 1.10769,3.24952 0.38391,0.69573 4.4709,4.25169 5.072,4.61303 1.78652,1.07389 3.75913,1.07127 5.55836,2.19704 1.10883,0.69379 2.01623,2.10699 3.5061,1.9269 0.11594,-0.014 0.1006,-0.2717 0.21661,-0.2861 0.003,-3.6e-4 0.54798,0.45046 0.55067,0.44992 0.41917,-0.0374 0.36759,-1.2914 0.36009,-1.35714 -0.0454,-0.39716 1.02428,-1.94163 1.50467,-2.57615" />
  </g>
</svg>
