<?xml version="1.0"?>
<svg xmlns:rdf="http://www.w3.org/1999/02/22-rdf-syntax-ns#" xmlns="http://www.w3.org/2000/svg" xmlns:cc="http://web.resource.org/cc/" xmlns:xlink="http://www.w3.org/1999/xlink" xmlns:dc="http://purl.org/dc/elements/1.1/" xmlns:svg="http://www.w3.org/2000/svg" id="svg5103" viewBox="0 0 343.61 295.02" version="1.0">
  <g id="layer1" transform="translate(-23.4 -39.669)">
    <g id="g3215" fill-rule="evenodd">
      <path id="path3209" d="m209.88 233.69c-59.35 13.38-111.11 50.07-104.08 76.11 7.24 26.79 68.03 33.82 140.43 11.87 72.59-22.02 136.8-67.49 117.21-88.66-19.96-21.57-94.36-12.67-153.56 0.68z" fill="#555753" fill-opacity=".25098"/>
      <path id="path2167" stroke-linejoin="round" d="m237.39 219.85c0.63 59.72-38.42 111.12-103.87 111.12-65.458 0-109.14-33.88-108.71-115.95 0.425-82.26 54.548-172.74 103.87-173.93 52.62-1.302 107.77 87.89 108.71 178.76z" stroke="#000" stroke-linecap="round" stroke-width="2.8183" fill="#fcfcfa"/>
      <path id="path3139" d="m200.27 107.27c-4.58 4.32 2.48 11.42 2.87 16.88 11.18 34.97 15.59 72.86 7.97 109.05-8.88 35.66-36.04 67.41-71.85 77.78-14 4.35-28.78 5.33-43.361 5.3-4.701 6.19 8.951 5.84 12.621 7.35 31.12 6.05 66.19 0.87 90.45-20.77 22.64-20.08 33.83-50.84 33.2-80.74 0.18-35.03-8.95-69.68-23.29-101.47-2.63-4.42-4.34-10.71-8.61-13.38z" fill="#c6c6ba" fill-opacity=".25098"/>
      <path id="path4257" stroke-linejoin="round" d="m110.75 105.79c-3.2 12.98-4.72 17.62-14.901 19.36-7.019 1.2-14.096-5.45-11.68-18.55 1.937-10.513 9.93-21.123 18.931-22.584 9.92-1.61 10.24 11.283 7.65 21.774z" stroke-opacity=".2809" fill-opacity=".9382" stroke="#000" stroke-linecap="round" stroke-width="1.1273" fill="#fff"/>
    </g>
  </g>
  <metadata>
    <rdf:RDF>
      <cc:Work>
        <dc:format>image/svg+xml</dc:format>
        <dc:type rdf:resource="http://purl.org/dc/dcmitype/StillImage"/>
        <cc:license rdf:resource="http://creativecommons.org/licenses/publicdomain/"/>
        <dc:publisher>
          <cc:Agent rdf:about="http://openclipart.org/">
            <dc:title>Openclipart</dc:title>
          </cc:Agent>
        </dc:publisher>
        <dc:title>Whiter Egg</dc:title>
        <dc:date>2007-11-07T16:39:07</dc:date>
        <dc:description>A variation on dStulle original "white egg" featuring a less yellowish egg.</dc:description>
        <dc:source>http://openclipart.org/detail/8015/whiter-egg-by-carlitos</dc:source>
        <dc:creator>
          <cc:Agent>
            <dc:title>carlitos</dc:title>
          </cc:Agent>
        </dc:creator>
        <dc:subject>
          <rdf:Bag>
            <rdf:li>animal</rdf:li>
            <rdf:li>clip art</rdf:li>
            <rdf:li>clipart</rdf:li>
            <rdf:li>egg</rdf:li>
            <rdf:li>food</rdf:li>
            <rdf:li>image</rdf:li>
            <rdf:li>media</rdf:li>
            <rdf:li>public domain</rdf:li>
            <rdf:li>remix</rdf:li>
            <rdf:li>svg</rdf:li>
            <rdf:li>white</rdf:li>
          </rdf:Bag>
        </dc:subject>
      </cc:Work>
      <cc:License rdf:about="http://creativecommons.org/licenses/publicdomain/">
        <cc:permits rdf:resource="http://creativecommons.org/ns#Reproduction"/>
        <cc:permits rdf:resource="http://creativecommons.org/ns#Distribution"/>
        <cc:permits rdf:resource="http://creativecommons.org/ns#DerivativeWorks"/>
      </cc:License>
    </rdf:RDF>
  </metadata>
</svg>
