<?xml version="1.0" encoding="UTF-8" standalone="no"?>
<!-- Created with Inkscape (http://www.inkscape.org/) -->

<svg
   xmlns:dc="http://purl.org/dc/elements/1.1/"
   xmlns:cc="http://creativecommons.org/ns#"
   xmlns:rdf="http://www.w3.org/1999/02/22-rdf-syntax-ns#"
   xmlns:svg="http://www.w3.org/2000/svg"
   xmlns="http://www.w3.org/2000/svg"
   xmlns:sodipodi="http://sodipodi.sourceforge.net/DTD/sodipodi-0.dtd"
   xmlns:inkscape="http://www.inkscape.org/namespaces/inkscape"
   width="120mm"
   height="141.34595mm"
   viewBox="0 0 120 141.34595"
   version="1.1"
   id="svg8"
   inkscape:version="0.92.1 r15371"
   sodipodi:docname="biscotto zenzero.svg">
  <defs
     id="defs2" />
  <sodipodi:namedview
     id="base"
     pagecolor="#ffffff"
     bordercolor="#666666"
     borderopacity="1.0"
     inkscape:pageopacity="0.0"
     inkscape:pageshadow="2"
     inkscape:zoom="0.3535534"
     inkscape:cx="125.42194"
     inkscape:cy="363.54337"
     inkscape:document-units="mm"
     inkscape:current-layer="layer1"
     showgrid="false"
     inkscape:snap-bbox="false"
     inkscape:window-width="1920"
     inkscape:window-height="1009"
     inkscape:window-x="0"
     inkscape:window-y="0"
     inkscape:window-maximized="1"
     showguides="true"
     inkscape:guide-bbox="true"
     inkscape:snap-global="true"
     inkscape:snap-intersection-paths="true"
     inkscape:object-paths="false"
     inkscape:bbox-nodes="true"
     inkscape:snap-bbox-midpoints="true"
     inkscape:snap-bbox-edge-midpoints="true"
     inkscape:bbox-paths="true"
     inkscape:object-nodes="false"
     inkscape:snap-midpoints="false"
     inkscape:snap-smooth-nodes="false">
    <inkscape:grid
       type="xygrid"
       id="grid4911"
       originx="-53.52444"
       originy="-129.28667" />
  </sodipodi:namedview>
  <metadata
     id="metadata5">
    <rdf:RDF>
      <cc:Work
         rdf:about="">
        <dc:format>image/svg+xml</dc:format>
        <dc:type
           rdf:resource="http://purl.org/dc/dcmitype/StillImage" />
        <dc:title />
      </cc:Work>
    </rdf:RDF>
  </metadata>
  <g
     inkscape:label="Livello 1"
     inkscape:groupmode="layer"
     id="layer1"
     transform="translate(-53.524441,-26.367383)">
    <g
       id="g4805"
       transform="matrix(1.5700191,0,0,1.5700191,-398.60271,-23.122065)">
      <path
         sodipodi:nodetypes="cccccccccccccccccccccccccccccccccccc"
         inkscape:connector-curvature="0"
         id="path21"
         d="m 326.11902,35.272854 v 0.0107 c -5.20436,-0.0254 -10.03433,2.7138 -12.66866,7.21047 -2.66318,4.53883 -2.67877,10.15953 -0.039,14.7129 0.20855,0.34494 0.42872,0.68071 0.66453,1.00713 -0.44628,0.58422 -0.96463,1.23414 -1.3992,1.60109 -0.31961,0.26971 -0.88085,0.53279 -1.33881,0.81574 l -7.72407,-2.56798 c -4.36424,-1.44967 -9.04377,0.90247 -10.49346,5.26682 -1.44986,4.36431 0.89253,9.04385 5.25678,10.49344 l 10.81575,3.59518 c 0.32155,0.10726 0.6431,0.14607 0.9666,0.21133 1.7149,6.00342 1.97992,13.61533 -4.01813,19.33527 l -3.35343,2.5982 c -24.55526,-5.55824 -4.51584,28.963286 8.08656,14.793496 2.78202,-2.45791 5.91466,-4.63613 8.86194,-6.91841 2.02652,-1.5444 2.63375,-1.86185 6.23369,-1.83281 3.9427,0.10129 4.84361,0.57429 6.67661,1.83281 2.94729,2.28239 6.08011,4.46048 8.86215,6.91841 12.60238,14.16979 32.64181,-20.351736 8.08654,-14.793496 l -3.3534,-2.5982 c -5.99808,-5.72001 -5.73402,-13.33197 -4.01813,-19.33527 0.32349,-0.0759 0.64502,-0.11302 0.96657,-0.21133 l 10.81559,-3.59518 c 4.36422,-1.44967 6.70623,-6.12918 5.25675,-10.49344 -1.44986,-4.36461 -6.12902,-6.71671 -10.49344,-5.26682 l -7.7239,2.56798 c -0.4599,-0.28472 -1.0192,-0.54682 -1.33878,-0.81574 -0.43457,-0.36812 -0.95295,-1.01668 -1.3992,-1.60109 0.23578,-0.3274 0.456,-0.66219 0.66451,-1.00713 2.63765,-4.55325 2.62302,-10.17407 -0.039,-14.7129 -2.63452,-4.49652 -7.46431,-7.23698 -12.66865,-7.21047 v -0.0107 c -0.0192,-3.6e-4 -0.039,2.1e-4 -0.078,0 -0.0192,2.1e-4 -0.039,-3.6e-4 -0.0781,0 z"
         style="opacity:0.98000004;fill:#e2a25d;fill-opacity:1;stroke:none;stroke-width:0.3897506;stroke-miterlimit:4;stroke-dasharray:none;stroke-opacity:1" />
      <circle
         r="2.9231298"
         cy="70.943306"
         cx="326.19177"
         id="path4484"
         style="opacity:1;fill:#e06efc;fill-opacity:1;fill-rule:evenodd;stroke:none;stroke-width:0.52914298;stroke-linecap:square;stroke-linejoin:miter;stroke-miterlimit:4;stroke-dasharray:none;stroke-dashoffset:0;stroke-opacity:1;paint-order:markers fill stroke" />
      <circle
         style="opacity:1;fill:#e06efc;fill-opacity:1;fill-rule:evenodd;stroke:none;stroke-width:0.52914298;stroke-linecap:square;stroke-linejoin:miter;stroke-miterlimit:4;stroke-dasharray:none;stroke-dashoffset:0;stroke-opacity:1;paint-order:markers fill stroke"
         id="circle4486"
         cx="326.19177"
         cy="81.660713"
         r="2.9231298" />
      <g
         style="stroke:#fff3d4;stroke-opacity:1"
         transform="matrix(19.487531,0,0,19.487531,-2157.1685,-1293.8078)"
         id="g4518">
        <path
           style="fill:none;fill-rule:evenodd;stroke:#fff3d4;stroke-width:0.04;stroke-linecap:round;stroke-linejoin:miter;stroke-miterlimit:4;stroke-dasharray:none;stroke-opacity:1"
           d="m 128.07874,72.083935 -0.0384,-0.191674 0.19544,-0.0046"
           id="path4505"
           inkscape:connector-curvature="0"
           sodipodi:nodetypes="ccc" />
        <path
           sodipodi:nodetypes="ccc"
           inkscape:connector-curvature="0"
           id="path4511"
           d="m 128.23578,71.887661 -0.0384,-0.191674 0.19544,-0.0046"
           style="fill:none;fill-rule:evenodd;stroke:#fff3d4;stroke-width:0.04;stroke-linecap:round;stroke-linejoin:miter;stroke-miterlimit:4;stroke-dasharray:none;stroke-opacity:1" />
        <path
           style="fill:none;fill-rule:evenodd;stroke:#fff3d4;stroke-width:0.04;stroke-linecap:round;stroke-linejoin:miter;stroke-miterlimit:4;stroke-dasharray:none;stroke-opacity:1"
           d="m 128.39282,71.691387 -0.0384,-0.191674 0.19544,-0.0046"
           id="path4513"
           inkscape:connector-curvature="0"
           sodipodi:nodetypes="ccc" />
      </g>
      <g
         style="stroke:#fff3d4;stroke-opacity:1"
         id="g4526"
         transform="matrix(0,19.487531,-19.487531,0,1708.8891,-2395.9873)">
        <path
           sodipodi:nodetypes="ccc"
           inkscape:connector-curvature="0"
           id="path4520"
           d="m 128.07874,72.083935 -0.0384,-0.191674 0.19544,-0.0046"
           style="fill:none;fill-rule:evenodd;stroke:#fff3d4;stroke-width:0.04;stroke-linecap:round;stroke-linejoin:miter;stroke-miterlimit:4;stroke-dasharray:none;stroke-opacity:1" />
        <path
           style="fill:none;fill-rule:evenodd;stroke:#fff3d4;stroke-width:0.04;stroke-linecap:round;stroke-linejoin:miter;stroke-miterlimit:4;stroke-dasharray:none;stroke-opacity:1"
           d="m 128.23578,71.887661 -0.0384,-0.191674 0.19544,-0.0046"
           id="path4522"
           inkscape:connector-curvature="0"
           sodipodi:nodetypes="ccc" />
        <path
           sodipodi:nodetypes="ccc"
           inkscape:connector-curvature="0"
           id="path4524"
           d="m 128.39282,71.691387 -0.0384,-0.191674 0.19544,-0.0046"
           style="fill:none;fill-rule:evenodd;stroke:#fff3d4;stroke-width:0.04;stroke-linecap:round;stroke-linejoin:miter;stroke-miterlimit:4;stroke-dasharray:none;stroke-opacity:1" />
      </g>
      <g
         style="fill:none;stroke:#fff3d4;stroke-opacity:1"
         transform="matrix(18.112253,-7.1909784,7.1909784,18.112253,-2534.0523,-309.96479)"
         id="g4534">
        <path
           style="fill:none;fill-rule:evenodd;stroke:#fff3d4;stroke-width:0.04;stroke-linecap:round;stroke-linejoin:miter;stroke-miterlimit:4;stroke-dasharray:none;stroke-opacity:1"
           d="m 128.07874,72.083935 -0.0384,-0.191674 0.19544,-0.0046"
           id="path4528"
           inkscape:connector-curvature="0"
           sodipodi:nodetypes="ccc" />
        <path
           sodipodi:nodetypes="ccc"
           inkscape:connector-curvature="0"
           id="path4530"
           d="m 128.23578,71.887661 -0.0384,-0.191674 0.19544,-0.0046"
           style="fill:none;fill-rule:evenodd;stroke:#fff3d4;stroke-width:0.04;stroke-linecap:round;stroke-linejoin:miter;stroke-miterlimit:4;stroke-dasharray:none;stroke-opacity:1" />
        <path
           style="fill:none;fill-rule:evenodd;stroke:#fff3d4;stroke-width:0.04;stroke-linecap:round;stroke-linejoin:miter;stroke-miterlimit:4;stroke-dasharray:none;stroke-opacity:1"
           d="m 128.39282,71.691387 -0.0384,-0.191674 0.19544,-0.0046"
           id="path4532"
           inkscape:connector-curvature="0"
           sodipodi:nodetypes="ccc" />
      </g>
      <g
         style="fill:none;stroke:#fff3d4;stroke-opacity:1"
         id="g4542"
         transform="matrix(-18.112253,-7.1909784,-7.1909784,18.112253,3185.4532,-309.64254)">
        <path
           sodipodi:nodetypes="ccc"
           inkscape:connector-curvature="0"
           id="path4536"
           d="m 128.07874,72.083935 -0.0384,-0.191674 0.19544,-0.0046"
           style="fill:none;fill-rule:evenodd;stroke:#fff3d4;stroke-width:0.04;stroke-linecap:round;stroke-linejoin:miter;stroke-miterlimit:4;stroke-dasharray:none;stroke-opacity:1" />
        <path
           style="fill:none;fill-rule:evenodd;stroke:#fff3d4;stroke-width:0.04;stroke-linecap:round;stroke-linejoin:miter;stroke-miterlimit:4;stroke-dasharray:none;stroke-opacity:1"
           d="m 128.23578,71.887661 -0.0384,-0.191674 0.19544,-0.0046"
           id="path4538"
           inkscape:connector-curvature="0"
           sodipodi:nodetypes="ccc" />
        <path
           sodipodi:nodetypes="ccc"
           inkscape:connector-curvature="0"
           id="path4540"
           d="m 128.39282,71.691387 -0.0384,-0.191674 0.19544,-0.0046"
           style="fill:none;fill-rule:evenodd;stroke:#fff3d4;stroke-width:0.04;stroke-linecap:round;stroke-linejoin:miter;stroke-miterlimit:4;stroke-dasharray:none;stroke-opacity:1" />
      </g>
      <circle
         style="opacity:1;fill:#f8fafa;fill-opacity:1;fill-rule:evenodd;stroke:none;stroke-width:0.35276213;stroke-linecap:square;stroke-linejoin:miter;stroke-miterlimit:4;stroke-dasharray:none;stroke-dashoffset:0;stroke-opacity:1;paint-order:markers fill stroke"
         id="circle4546"
         cx="331.14688"
         cy="47.248825"
         r="1.9487532" />
      <circle
         r="1.9487532"
         cy="47.248825"
         cx="321.23642"
         id="circle4548"
         style="opacity:1;fill:#f3fafc;fill-opacity:1;fill-rule:evenodd;stroke:none;stroke-width:0.35276213;stroke-linecap:square;stroke-linejoin:miter;stroke-miterlimit:4;stroke-dasharray:none;stroke-dashoffset:0;stroke-opacity:1;paint-order:markers fill stroke" />
      <path
         sodipodi:nodetypes="cc"
         inkscape:connector-curvature="0"
         id="path4652"
         d="m 318.2762,44.541634 c 1.95153,-2.47346 3.87265,-1.55497 4.82858,-0.92632"
         style="fill:none;fill-rule:evenodd;stroke:#afdde9;stroke-width:1.26499999;stroke-linecap:round;stroke-linejoin:miter;stroke-miterlimit:4;stroke-dasharray:none;stroke-opacity:1" />
      <path
         style="fill:none;fill-rule:evenodd;stroke:#afdde9;stroke-width:1.36500001;stroke-linecap:round;stroke-linejoin:miter;stroke-miterlimit:4;stroke-dasharray:none;stroke-opacity:1"
         d="m 328.8271,44.043554 c 2.40575,-2.03442 4.10501,-0.75114 4.91632,0.0556"
         id="path4658"
         inkscape:connector-curvature="0"
         sodipodi:nodetypes="cc" />
      <path
         sodipodi:nodetypes="cccccc"
         inkscape:connector-curvature="0"
         id="path4660"
         d="m 332.85952,55.115344 c 0.74665,-0.68788 0.52335,-1.5516 -1.40628,-0.95968 -4.40193,1.06081 -6.55857,0.80851 -10.40554,-0.18006 -1.94152,-0.66713 -1.76062,0.29604 -1.09289,1.08511 4.64455,5.52556 8.16104,4.93503 12.90471,0.0546 z"
         style="fill:none;fill-rule:evenodd;stroke:#f10000;stroke-width:1.46500003;stroke-linecap:butt;stroke-linejoin:miter;stroke-miterlimit:4;stroke-dasharray:none;stroke-opacity:1" />
      <path
         sodipodi:nodetypes="ccccc"
         inkscape:connector-curvature="0"
         id="path4688"
         d="m 311.71936,91.551704 c 2.54491,-0.97169 5.91951,-3.86481 8.18586,-0.99385 1.97122,2.63926 4.74207,2.037 6.8703,0.0465 2.23404,-2.40993 6.06423,-2.11066 7.94732,0.43133 1.97757,2.00958 4.12495,0.11576 6.08128,-0.74446"
         style="fill:none;fill-rule:evenodd;stroke:#fff3d4;stroke-width:1.32610893;stroke-linecap:round;stroke-linejoin:miter;stroke-miterlimit:4;stroke-dasharray:none;stroke-opacity:1" />
    </g>
  </g>
</svg>
