<?xml version="1.0" encoding="UTF-8" standalone="no"?>
<!-- Created with Inkscape (http://www.inkscape.org/) -->
<svg xmlns:inkscape="http://www.inkscape.org/namespaces/inkscape" xmlns:rdf="http://www.w3.org/1999/02/22-rdf-syntax-ns#" xmlns="http://www.w3.org/2000/svg" xmlns:xlink="http://www.w3.org/1999/xlink" xmlns:ns1="http://sozi.baierouge.fr" xmlns:cc="http://creativecommons.org/ns#" xmlns:sodipodi="http://sodipodi.sourceforge.net/DTD/sodipodi-0.dtd" xmlns:dc="http://purl.org/dc/elements/1.1/" id="svg2" xml:space="preserve" viewBox="0 0 24.2 40.414" version="1.1" inkscape:version="0.91 r13725">
  <defs id="defs6">
    <linearGradient id="linearGradient24" y2="23.432" gradientUnits="userSpaceOnUse" x2="24.175" gradientTransform="matrix(.8 0 0 -.8 3.5474e-7 32.331)" y1="23.432">
      <stop id="stop26" style="stop-color:#d4d5ff" offset="0"/>
      <stop id="stop28" style="stop-color:#2a2a54" offset="1"/>
    </linearGradient>
    <linearGradient id="linearGradient42" y2="23.256" gradientUnits="userSpaceOnUse" x2="23.35" gradientTransform="matrix(.8 0 0 -.8 3.5474e-7 32.331)" y1="23.256" x1=".64990">
      <stop id="stop44" style="stop-color:#6e73e6" offset="0"/>
      <stop id="stop46" style="stop-color:#373770" offset="1"/>
    </linearGradient>
    <linearGradient id="linearGradient60" y2="26.631" gradientUnits="userSpaceOnUse" x2="17.562" gradientTransform="matrix(.8 0 0 -.8 3.5474e-7 32.331)" y1="26.631" x1="1.2373">
      <stop id="stop62" style="stop-color:#ded2a9" offset="0"/>
      <stop id="stop64" style="stop-color:#9e936d" offset="1"/>
    </linearGradient>
    <linearGradient id="linearGradient78" y2="30.6" gradientUnits="userSpaceOnUse" x2="14.625" gradientTransform="matrix(.8 0 0 -.8 3.5474e-7 32.331)" y1="30.6" x1="2.375">
      <stop id="stop80" style="stop-color:#45488f" offset="0"/>
      <stop id="stop82" style="stop-color:#313157" offset="1"/>
    </linearGradient>
    <linearGradient id="linearGradient96" y2="26.26" gradientUnits="userSpaceOnUse" x2="13.7" gradientTransform="matrix(.8 0 0 -.8 3.5474e-7 32.331)" y1="26.26" x1="2.5">
      <stop id="stop98" style="stop-color:#6e73e6" offset="0"/>
      <stop id="stop100" style="stop-color:#373770" offset="1"/>
    </linearGradient>
    <linearGradient id="linearGradient114" y2="28.049" gradientUnits="userSpaceOnUse" x2="13.7" gradientTransform="matrix(.8 0 0 -.8 3.5474e-7 32.331)" y1="28.049" x1="2.5">
      <stop id="stop116" style="stop-color:#6e73e6" offset="0"/>
      <stop id="stop118" style="stop-color:#373770" offset="1"/>
    </linearGradient>
    <linearGradient id="linearGradient132" y2="27.27" gradientUnits="userSpaceOnUse" x2="14.635" gradientTransform="matrix(.8 0 0 -.8 3.5474e-7 32.331)" y1="27.27" x1="2.3848">
      <stop id="stop134" style="stop-color:#45488f" offset="0"/>
      <stop id="stop136" style="stop-color:#313157" offset="1"/>
    </linearGradient>
    <linearGradient id="linearGradient150" y2="27.1" gradientUnits="userSpaceOnUse" x2="14.625" gradientTransform="matrix(.8 0 0 -.8 3.5474e-7 32.331)" y1="27.1" x1="2.375">
      <stop id="stop152" style="stop-color:#45488f" offset="0"/>
      <stop id="stop154" style="stop-color:#313157" offset="1"/>
    </linearGradient>
    <linearGradient id="linearGradient168" y2="28.35" gradientUnits="userSpaceOnUse" x2="14.625" gradientTransform="matrix(.8 0 0 -.8 3.5474e-7 32.331)" y1="28.35" x1="2.375">
      <stop id="stop170" style="stop-color:#45488f" offset="0"/>
      <stop id="stop172" style="stop-color:#313157" offset="1"/>
    </linearGradient>
    <linearGradient id="linearGradient186" y2="27.057" gradientUnits="userSpaceOnUse" x2="10.05" gradientTransform="matrix(.8 0 0 -.8 3.5474e-7 32.331)" y1="27.057" x1="2.8501">
      <stop id="stop188" style="stop-color:#cfd1ff" offset="0"/>
      <stop id="stop190" style="stop-color:#7e7fd6" offset="1"/>
    </linearGradient>
    <linearGradient id="linearGradient204" y2="25.095" gradientUnits="userSpaceOnUse" x2="10.05" gradientTransform="matrix(.8 0 0 -.8 3.5474e-7 32.331)" y1="25.095" x1="2.8501">
      <stop id="stop206" style="stop-color:#cfd1ff" offset="0"/>
      <stop id="stop208" style="stop-color:#7e7fd6" offset="1"/>
    </linearGradient>
    <clipPath id="clipPath216">
      <path id="path218" d="m1 1.3314h5v26h-5v-26z" inkscape:connector-curvature="0"/>
    </clipPath>
    <mask id="mask220">
      <g id="g222">
        <g id="g224" clip-path="url(#clipPath216)">
          <path id="path226" style="fill:#000000;fill-opacity:.57810" d="m1 1.3314h5v26h-5v-26z" inkscape:connector-curvature="0"/>
        </g>
      </g>
    </mask>
    <clipPath id="clipPath232">
      <path id="path234" d="m1 1.3314h5v26h-5v-26z" inkscape:connector-curvature="0"/>
    </clipPath>
    <clipPath id="clipPath236">
      <path id="path238" d="m1 2h5v26h-5v-26z" inkscape:connector-curvature="0"/>
    </clipPath>
    <linearGradient id="linearGradient244" y2="-15755" gradientUnits="userSpaceOnUse" x2="-517.99" gradientTransform="matrix(.05568 -.79808 .79808 .05568 12607 468.82)" y1="-15755" x1="-543.15">
      <stop id="stop246" style="stop-color:#ffffff" offset="0"/>
      <stop id="stop248" style="stop-color:#000000" offset="1"/>
    </linearGradient>
    <clipPath id="clipPath276">
      <path id="path278" d="m13 1.3314h5v26h-5v-26z" inkscape:connector-curvature="0"/>
    </clipPath>
    <mask id="mask280">
      <g id="g282">
        <g id="g284" clip-path="url(#clipPath276)">
          <path id="path286" style="fill:#000000;fill-opacity:.21090" d="m13 1.3314h5v26h-5v-26z" inkscape:connector-curvature="0"/>
        </g>
      </g>
    </mask>
    <clipPath id="clipPath292">
      <path id="path294" d="m13 1.3314h5v26h-5v-26z" inkscape:connector-curvature="0"/>
    </clipPath>
    <clipPath id="clipPath296">
      <path id="path298" d="m13 2h5v26h-5v-26z" inkscape:connector-curvature="0"/>
    </clipPath>
    <linearGradient id="linearGradient304" y2="-2.3844" gradientUnits="userSpaceOnUse" x2="2.4663" gradientTransform="matrix(.8 0 0 .8 13.52 27.6)" y1="-27.484" x1="4.2163">
      <stop id="stop306" style="stop-color:#ffffff" offset="0"/>
      <stop id="stop308" style="stop-color:#000000" offset="1"/>
    </linearGradient>
    <clipPath id="clipPath336">
      <path id="path338" d="m2 22.331h16v5h-16v-5z" inkscape:connector-curvature="0"/>
    </clipPath>
    <mask id="mask340">
      <g id="g342">
        <g id="g344" clip-path="url(#clipPath336)">
          <path id="path346" style="fill:#000000;fill-opacity:.76950" d="m2 22.331h16v5h-16v-5z" inkscape:connector-curvature="0"/>
        </g>
      </g>
    </mask>
    <clipPath id="clipPath352">
      <path id="path354" d="m2 22.331h16v5h-16v-5z" inkscape:connector-curvature="0"/>
    </clipPath>
    <clipPath id="clipPath356">
      <path id="path358" d="m2 23h16v5h-16v-5z" inkscape:connector-curvature="0"/>
    </clipPath>
    <linearGradient id="linearGradient386" y2="7.6499" gradientUnits="userSpaceOnUse" x2="22.65" gradientTransform="matrix(.8 0 0 -.8 3.5474e-7 32.331)" y1="7.6499" x1="1.6499">
      <stop id="stop388" style="stop-color:#d6d8ff" offset="0"/>
      <stop id="stop390" style="stop-color:#939aad" offset="1"/>
    </linearGradient>
    <linearGradient id="linearGradient404" y2="8.5" gradientUnits="userSpaceOnUse" x2="22.65" gradientTransform="matrix(.8 0 0 -.8 3.5474e-7 32.331)" y1="8.5" x1="2.0498">
      <stop id="stop406" style="stop-color:#8cadde" offset="0"/>
      <stop id="stop408" style="stop-color:#516d96" offset="1"/>
    </linearGradient>
    <clipPath id="clipPath416">
      <path id="path418" d="m2 24.331h15v4h-15v-4z" inkscape:connector-curvature="0"/>
    </clipPath>
    <mask id="mask420">
      <g id="g422">
        <g id="g424" clip-path="url(#clipPath416)">
          <path id="path426" style="fill:#000000;fill-opacity:.48830" d="m2 24.331h15v4h-15v-4z" inkscape:connector-curvature="0"/>
        </g>
      </g>
    </mask>
    <clipPath id="clipPath432">
      <path id="path434" d="m2 24.331h15v4h-15v-4z" inkscape:connector-curvature="0"/>
    </clipPath>
    <clipPath id="clipPath436">
      <path id="path438" d="m2 25h15v4h-15v-4z" inkscape:connector-curvature="0"/>
    </clipPath>
    <linearGradient id="linearGradient466" y2="6.4502" gradientUnits="userSpaceOnUse" x2="20.775" gradientTransform="matrix(.8 0 0 -.8 3.5474e-7 32.331)" y1="6.4502" x1="3.2998">
      <stop id="stop468" style="stop-color:#ffe5a3" offset="0"/>
      <stop id="stop470" style="stop-color:#87733d" offset="1"/>
    </linearGradient>
    <linearGradient id="linearGradient484" y2="4.75" gradientUnits="userSpaceOnUse" x2="20.925" gradientTransform="matrix(.8 0 0 -.8 3.5474e-7 32.331)" y1="4.75" x1="3.25">
      <stop id="stop486" style="stop-color:#2b2be2" offset="0"/>
      <stop id="stop488" style="stop-color:#3045ff" offset=".32550"/>
      <stop id="stop490" style="stop-color:#3241f6" offset="0.6"/>
      <stop id="stop492" style="stop-color:#3636e0" offset="1"/>
    </linearGradient>
    <linearGradient id="linearGradient506" y2="-3.0298" gradientUnits="userSpaceOnUse" x2="-3.3485" gradientTransform="matrix(-.79784 -.05872 -.05872 .79784 .00024824 32.331)" y1="-3.0298" x1="-19.367">
      <stop id="stop508" style="stop-color:#3b5bff" offset="0"/>
      <stop id="stop510" style="stop-color:#3b52ff" offset=".81570"/>
      <stop id="stop512" style="stop-color:#3b4fff" offset="1"/>
    </linearGradient>
    <clipPath id="clipPath520">
      <path id="path522" d="m3 25.331h9v2h-9v-2z" inkscape:connector-curvature="0"/>
    </clipPath>
    <mask id="mask524">
      <g id="g526">
        <g id="g528" clip-path="url(#clipPath520)">
          <path id="path530" style="fill:#000000;fill-opacity:.48050" d="m3 25.331h9v2h-9v-2z" inkscape:connector-curvature="0"/>
        </g>
      </g>
    </mask>
    <clipPath id="clipPath536">
      <path id="path538" d="m3 25.331h9v2h-9v-2z" inkscape:connector-curvature="0"/>
    </clipPath>
    <clipPath id="clipPath540">
      <path id="path542" d="m3 26h9v2h-9v-2z" inkscape:connector-curvature="0"/>
    </clipPath>
    <linearGradient id="linearGradient574" y2="3.876" gradientUnits="userSpaceOnUse" x2="21.394" gradientTransform="matrix(.8 0 0 -.8 3.5474e-7 32.331)" y1="3.876" x1="2.8125">
      <stop id="stop576" style="stop-color:#d6d8ff" offset="0"/>
      <stop id="stop578" style="stop-color:#7b8191" offset="1"/>
    </linearGradient>
    <linearGradient id="linearGradient592" y2="4.9502" gradientUnits="userSpaceOnUse" x2="21.25" gradientTransform="matrix(.8 0 0 -.8 3.5474e-7 32.331)" y1="4.9502" x1="2.75">
      <stop id="stop594" style="stop-color:#8cadde" offset="0"/>
      <stop id="stop596" style="stop-color:#516d96" offset="1"/>
    </linearGradient>
    <linearGradient id="linearGradient610" y2="2.9502" gradientUnits="userSpaceOnUse" x2="21.25" gradientTransform="matrix(.8 0 0 -.8 3.5474e-7 32.331)" y1="2.9502" x1="2.75">
      <stop id="stop612" style="stop-color:#8cadde" offset="0"/>
      <stop id="stop614" style="stop-color:#516d96" offset="1"/>
    </linearGradient>
    <linearGradient id="linearGradient628" y2="3.7754" gradientUnits="userSpaceOnUse" x2="21.25" gradientTransform="matrix(.8 0 0 -.8 3.5474e-7 32.331)" y1="3.7754" x1="2.75">
      <stop id="stop630" style="stop-color:#8cadde" offset="0"/>
      <stop id="stop632" style="stop-color:#516d96" offset="1"/>
    </linearGradient>
    <linearGradient id="linearGradient646" y2="4.2998" gradientUnits="userSpaceOnUse" x2="21.25" gradientTransform="matrix(.8 0 0 -.8 3.5474e-7 32.331)" y1="4.2998" x1="2.75">
      <stop id="stop648" style="stop-color:#8cadde" offset="0"/>
      <stop id="stop650" style="stop-color:#516d96" offset="1"/>
    </linearGradient>
    <linearGradient id="linearGradient664" y2="-2.6934" gradientUnits="userSpaceOnUse" x2="-2.2857" gradientTransform="matrix(-.79816 -.05472 -.05472 .79816 .00036368 32.331)" y1="-2.6934" x1="-21.305">
      <stop id="stop666" style="stop-color:#d6d8ff" offset="0"/>
      <stop id="stop668" style="stop-color:#939aad" offset="1"/>
    </linearGradient>
    <linearGradient id="linearGradient682" y2="-4.3008" gradientUnits="userSpaceOnUse" x2="-2.7196" gradientTransform="matrix(-.74448 -.29288 -.29288 .74448 .00042932 32.331)" y1="-4.3008" x1="-15.695">
      <stop id="stop684" style="stop-color:#8cadde" offset="0"/>
      <stop id="stop686" style="stop-color:#516d96" offset="1"/>
    </linearGradient>
    <linearGradient id="linearGradient700" y2="-6.522" gradientUnits="userSpaceOnUse" x2="-2.7138" gradientTransform="matrix(-.74448 -.29288 -.29288 .74448 .00042932 32.331)" y1="-6.522" x1="-15.69">
      <stop id="stop702" style="stop-color:#8cadde" offset="0"/>
      <stop id="stop704" style="stop-color:#516d96" offset="1"/>
    </linearGradient>
    <linearGradient id="linearGradient718" y2="-8.626" gradientUnits="userSpaceOnUse" x2="-2.7445" gradientTransform="matrix(-.74448 -.29288 -.29288 .74448 .00042932 32.331)" y1="-8.626" x1="-15.72">
      <stop id="stop720" style="stop-color:#8cadde" offset="0"/>
      <stop id="stop722" style="stop-color:#516d96" offset="1"/>
    </linearGradient>
  </defs>
  <g id="g10" transform="matrix(1.25 0 0 -1.25 0 40.414)">
    <g id="g12">
      <g id="g14">
        <g id="g16">
          <g id="g22">
            <path id="path30" style="fill-rule:evenodd;fill:url(#linearGradient24)" d="m17.84 24.21c0.558-0.586 0.933-1.144 1.121-1.679 0.266-0.664 0.398-1.547 0.398-2.641 0-1.066-0.093-3.625-0.281-7.68-0.183-3.867-0.316-6.16-0.398-6.879-0.082-0.855-0.453-1.679-1.121-2.48-0.879-1.094-2.172-1.883-3.879-2.359-1.36-0.375-2.692-0.536-4-0.481-1.305-0.055-2.653 0.106-4.039 0.481-1.707 0.48-3 1.265-3.879 2.359-0.668 0.801-1.028 1.625-1.082 2.48-0.078 0.719-0.215 3.012-0.399 6.879-0.187 4.055-0.281 6.614-0.281 7.68 0 1.094 0.133 1.973 0.398 2.641 0.188 0.507 0.547 1.066 1.082 1.679 0.961 1.016 1.692 2 2.2 2.961l6-0.32 6 0.32c0.558-1.011 1.281-2 2.16-2.961z" inkscape:connector-curvature="0"/>
          </g>
        </g>
      </g>
      <g id="g32">
        <g id="g34">
          <g id="g40">
            <path id="path48" style="fill-rule:evenodd;fill:url(#linearGradient42)" d="m17.281 24.05c0.508-0.586 0.867-1.133 1.078-1.64 0.215-0.637 0.321-1.493 0.321-2.559 0-0.984-0.094-3.481-0.282-7.481-0.16-3.546-0.265-5.773-0.32-6.679-0.078-0.852-0.426-1.653-1.039-2.399-0.851-1.066-2.078-1.828-3.68-2.281-1.281-0.375-2.531-0.535-3.757-0.48-1.227-0.055-2.481 0.105-3.762 0.48-1.602 0.453-2.813 1.215-3.641 2.281-0.64 0.774-0.984 1.575-1.039 2.399-0.055 0.668-0.172 2.894-0.359 6.679-0.188 3.922-0.281 6.415-0.281 7.481s0.121 1.922 0.359 2.559c0.187 0.507 0.535 1.054 1.043 1.64 0.957 1.043 1.637 2 2.039 2.883l5.641-0.32 5.636 0.32c0.535-0.988 1.215-1.949 2.043-2.883z" inkscape:connector-curvature="0"/>
          </g>
        </g>
      </g>
      <g id="g50">
        <g id="g52">
          <g id="g58">
            <path id="path66" style="fill-rule:evenodd;fill:url(#linearGradient60)" d="m0.961 16.812c0.906-0.402 2.664-0.668 5.277-0.801 3.336-0.187 5.934-0.148 7.801 0.121l-0.519-10.199c-0.375-0.16-0.946-0.309-1.719-0.441-1.52-0.239-3.242-0.309-5.16-0.2-1.575 0.078-2.907 0.371-4 0.879l-1.121 0.719-0.559 9.922z" inkscape:connector-curvature="0"/>
          </g>
        </g>
      </g>
      <g id="g68">
        <g id="g70">
          <g id="g76">
            <path id="path84" style="fill-rule:evenodd;fill:url(#linearGradient78)" d="m8.879 7.492 0.883 0.039c0.664 0 1.226-0.051 1.679-0.161 0.481-0.105 0.266-0.277-0.64-0.519-0.879-0.211-1.574-0.32-2.082-0.32-0.16 0-1.145 0.093-2.957 0.281-0.723 0.109-0.551 0.266 0.519 0.48l1.438 0.121c0.215 0 0.121 0.094-0.278 0.282-0.402 0.16-0.734 0.25-1 0.277-0.906 0.215-1.629 0.336-2.16 0.359-0.453 0.028-1.027 0.215-1.722 0.563-0.133 0.051-0.028 0.094 0.32 0.117 0.348 0.027 0.734 0.027 1.16 0l0.199-0.039 0.84 0.199h0.844c0.613-0.027 1.012-0.16 1.199-0.398 0.344-0.375 0.934-0.801 1.758-1.281z" inkscape:connector-curvature="0"/>
          </g>
        </g>
      </g>
      <g id="g86">
        <g id="g88">
          <g id="g94">
            <path id="path102" style="fill-rule:evenodd;fill:url(#linearGradient96)" d="m4.879 13.773c0.883-0.32 1.414-1 1.601-2.043 0.133-0.985-0.105-1.785-0.718-2.399-0.641-0.613-1.403-0.761-2.282-0.441-0.933 0.375-1.453 1.121-1.558 2.242-0.082 1.067 0.238 1.852 0.957 2.36 0.668 0.453 1.336 0.546 2 0.281z" inkscape:connector-curvature="0"/>
          </g>
        </g>
      </g>
      <g id="g104">
        <g id="g106">
          <g id="g112">
            <path id="path120" style="fill-rule:evenodd;fill:url(#linearGradient114)" d="m8.84 12.57c1.414-0.371 2.16-1.211 2.238-2.516 0.055-1.254-0.453-2.137-1.519-2.644-0.934-0.45-1.864-0.383-2.797 0.203-0.883 0.558-1.348 1.347-1.403 2.359-0.027 0.934 0.375 1.668 1.2 2.199 0.746 0.481 1.507 0.614 2.281 0.399z" inkscape:connector-curvature="0"/>
          </g>
        </g>
      </g>
      <g id="g122">
        <g id="g124">
          <g id="g130">
            <path id="path138" style="fill-rule:evenodd;fill:url(#linearGradient132)" d="m9.281 7.89c0.879 0.402 1.293 1.121 1.239 2.16-0.051 1.094-0.665 1.789-1.84 2.082-0.641 0.16-1.266 0.039-1.879-0.359-0.668-0.43-0.989-1.028-0.961-1.801 0.027-0.828 0.398-1.48 1.121-1.961 0.773-0.48 1.547-0.519 2.32-0.121zm-4.601 5.602c-0.559 0.238-1.094 0.16-1.602-0.239-0.613-0.457-0.879-1.148-0.797-2.082 0.078-0.961 0.504-1.601 1.278-1.918 0.722-0.297 1.336-0.175 1.839 0.356l-0.039 0.363c0 0.641 0.215 1.199 0.641 1.68-0.133 0.906-0.574 1.519-1.32 1.84zm-1.801 0c0.668 0.453 1.336 0.546 2 0.281 0.746-0.293 1.254-0.883 1.519-1.762 0.723 0.586 1.536 0.774 2.442 0.559 1.414-0.371 2.16-1.211 2.238-2.516 0.055-1.254-0.453-2.137-1.519-2.644-0.797-0.399-1.598-0.399-2.399 0-0.801 0.347-1.332 0.921-1.601 1.722l-0.84-0.359c-0.641-0.11-1.239 0.039-1.797 0.437-0.59 0.453-0.922 1.094-1 1.922-0.082 1.067 0.238 1.852 0.957 2.36z" inkscape:connector-curvature="0"/>
          </g>
        </g>
      </g>
      <g id="g140">
        <g id="g142">
          <g id="g148">
            <path id="path156" style="fill-rule:evenodd;fill:url(#linearGradient150)" d="m5.238 12.531 0.762-0.879c0.133-0.215 0.039-0.641-0.281-1.282-0.051-0.16-0.106-0.492-0.16-1 0.027-0.398-0.254-0.601-0.84-0.601-0.453 0-0.731 0.016-0.84 0.043-0.133 0-0.238 0.051-0.32 0.16l-0.2 1.121 0.68-0.683 0.402-0.118c-0.187 0.317-0.296 0.598-0.32 0.84l-0.043 0.598 0.203-0.32c0.133-0.239 0.266-0.383 0.399-0.438l0.48-0.199-0.441 1.199-0.078 0.359 0.64-0.398 0.16-0.16c0.051 0.426 0.028 0.797-0.082 1.117l-0.121 0.641z" inkscape:connector-curvature="0"/>
          </g>
        </g>
      </g>
      <g id="g158">
        <g id="g160">
          <g id="g166">
            <path id="path174" style="fill-rule:evenodd;fill:url(#linearGradient168)" d="m9.199 10.41-0.238 0.562 0.359-0.359c0.239-0.215 0.453-0.547 0.641-1l-0.082 1c-0.051 0.238-0.184 0.519-0.399 0.84l-0.32 0.359 0.68-0.039 0.238-0.203c0.16-0.184 0.297-0.371 0.402-0.559 0.215-0.398 0.266-1.078 0.161-2.039-0.082-0.453-0.414-0.949-1-1.48l-0.961 0.039c-0.399 0.027-0.746 0.16-1.039 0.402l-0.36 0.398 0.239-0.121c0.187-0.105 0.425-0.183 0.718-0.238 0.43-0.055 0.696 0.012 0.801 0.199-0.266 0.16-0.504 0.375-0.719 0.641-0.105 0.16-0.199 0.387-0.281 0.68l-0.078 0.402 0.719-0.723c0.242-0.238 0.492-0.293 0.761-0.16v0.563c0 0.156-0.082 0.437-0.242 0.836z" inkscape:connector-curvature="0"/>
          </g>
        </g>
      </g>
      <g id="g176">
        <g id="g178">
          <g id="g184">
            <path id="path192" style="fill-rule:evenodd;fill:url(#linearGradient186)" d="m7.281 11.492c0.481-0.028 0.547-0.332 0.199-0.922-0.347-0.586-0.668-0.797-0.96-0.637-0.266 0.133-0.282 0.426-0.04 0.879 0.239 0.453 0.508 0.68 0.801 0.68z" inkscape:connector-curvature="0"/>
          </g>
        </g>
      </g>
      <g id="g194">
        <g id="g196">
          <g id="g202">
            <path id="path210" style="fill-rule:evenodd;fill:url(#linearGradient204)" d="m3.32 12.89c0.453 0.055 0.559-0.145 0.321-0.598-0.243-0.453-0.496-0.679-0.762-0.679s-0.332 0.199-0.199 0.597c0.105 0.403 0.32 0.629 0.64 0.68z" inkscape:connector-curvature="0"/>
          </g>
        </g>
      </g>
      <g id="g212">
        <g id="g228" mask="url(#mask220)">
          <g id="g250">
            <g id="g252" clip-path="url(#clipPath232)">
              <g id="g254" transform="translate(0 -.66858)">
                <g id="g258">
                  <g id="g260" clip-path="url(#clipPath236)">
                    <g id="g262">
                      <g id="g264">
                        <g id="g266">
                          <g id="g268">
                            <path id="path270" style="fill-rule:evenodd;fill:url(#linearGradient244)" d="m4.441 27.16 1.559 0.442c0-0.215-0.16-0.801-0.48-1.762-0.133-0.375-0.426-1.106-0.879-2.199-0.375-0.856-0.586-1.481-0.641-1.879-0.078-0.508-0.121-2.617-0.121-6.321-0.024-3.468-0.012-6.16 0.043-8.082 0.023-2.293 0.172-3.945 0.437-4.961-0.265 0.188-0.64 0.575-1.121 1.161-0.316 0.375-0.613 0.828-0.879 1.363l-0.32 0.68-0.277 16.796c0.023 0.403 0.238 0.883 0.636 1.442 0.481 0.558 0.79 0.961 0.922 1.199 0.586 0.934 0.961 1.641 1.121 2.121z" inkscape:connector-curvature="0"/>
                          </g>
                        </g>
                      </g>
                    </g>
                  </g>
                </g>
              </g>
            </g>
          </g>
        </g>
      </g>
      <g id="g272">
        <g id="g288" mask="url(#mask280)">
          <g id="g310">
            <g id="g312" clip-path="url(#clipPath292)">
              <g id="g314" transform="translate(0 -.66858)">
                <g id="g318">
                  <g id="g320" clip-path="url(#clipPath296)">
                    <g id="g322">
                      <g id="g324">
                        <g id="g326">
                          <g id="g328">
                            <path id="path330" style="fill-rule:evenodd;fill:url(#linearGradient304)" d="m15.078 27.16c0.137-0.48 0.496-1.187 1.082-2.121 0.16-0.238 0.465-0.641 0.918-1.199 0.402-0.559 0.617-1.039 0.641-1.442l-0.239-16.796-0.32-0.68c-0.293-0.535-0.586-0.988-0.879-1.363-0.48-0.586-0.867-0.973-1.16-1.161 0.293 1.016 0.453 2.668 0.481 4.961 0.105 8.403 0.066 13.2-0.122 14.403-0.054 0.398-0.265 1.023-0.64 1.879-0.426 1.039-0.707 1.773-0.84 2.199-0.32 0.961-0.48 1.547-0.48 1.762l1.558-0.442z" inkscape:connector-curvature="0"/>
                          </g>
                        </g>
                      </g>
                    </g>
                  </g>
                </g>
              </g>
            </g>
          </g>
        </g>
      </g>
      <g id="g332">
        <g id="g348" mask="url(#mask340)">
          <g id="g360">
            <g id="g362" clip-path="url(#clipPath352)">
              <g id="g364" transform="translate(0 -.66858)">
                <g id="g368">
                  <g id="g370" clip-path="url(#clipPath356)">
                    <g id="g372">
                      <path id="path374" style="fill-rule:evenodd;fill:#333362" d="m16.441 26.879c0.133-0.453 0.532-1.067 1.2-1.84-0.375-0.398-0.829-0.746-1.36-1.039-0.297-0.16-0.761-0.281-1.402-0.359-0.801-0.106-1.277-0.188-1.438-0.243-0.347-0.105-0.816-0.132-1.402-0.078-0.691 0.078-1.211 0.133-1.559 0.16-0.16 0-0.601 0.133-1.32 0.399-0.668 0.215-1.574 0.348-2.719 0.402-1.066 0.051-1.828 0.184-2.281 0.399-0.027 0-0.293 0.199-0.801 0.601-0.32 0.266-0.734 0.371-1.238 0.321 0.426 0.773 0.813 1.371 1.16 1.796v0.204c8.637 0 13.024-0.243 13.16-0.723z" inkscape:connector-curvature="0"/>
                    </g>
                  </g>
                </g>
              </g>
            </g>
          </g>
        </g>
      </g>
      <g id="g376">
        <g id="g378">
          <g id="g384">
            <path id="path392" style="fill-rule:evenodd;fill:url(#linearGradient386)" d="m16.359 27.37c0.161-0.503 0.508-0.851 1.039-1.039 0.27-0.105 0.508-0.144 0.723-0.121 0-0.132-0.055-0.277-0.16-0.437-0.133-0.27-0.426-0.414-0.883-0.442-0.156 0-0.332-0.093-0.519-0.281-0.161-0.183-0.371-0.277-0.637-0.277-0.668 0-1.336-0.067-2-0.203-0.242-0.051-0.629-0.211-1.16-0.477-0.481-0.242-0.84-0.363-1.082-0.363-0.641 0.109-1.094 0.137-1.36 0.082-0.453-0.055-0.906 0-1.359 0.16-1.016 0.348-2.016 0.398-3 0.16-0.801-0.187-1.574 0.012-2.32 0.598-0.293 0.215-0.586 0.336-0.879 0.363-0.348 0-0.574 0.039-0.684 0.117-0.183 0.133-0.371 0.336-0.558 0.602l-0.2 0.359c0.692 0.239 1.16 0.481 1.399 0.719 0.242 0.215 0.48 0.816 0.722 1.801 2.079-0.028 4.184-0.094 6.321-0.199 4.238-0.239 6.437-0.614 6.597-1.122z" inkscape:connector-curvature="0"/>
          </g>
        </g>
      </g>
      <g id="g394">
        <g id="g396">
          <g id="g402">
            <path id="path410" style="fill-rule:evenodd;fill:url(#linearGradient404)" d="m18.121 26.132c0-0.105-0.055-0.226-0.16-0.359-0.133-0.27-0.414-0.414-0.84-0.442-0.348 0.266-0.773 0.696-1.281 1.282-0.16 0.183-0.426 0.172-0.801-0.043l-0.48-0.36 0.16-1.519-0.801-0.121c-0.238-0.051-0.613-0.211-1.117-0.477-0.457-0.215-0.801-0.336-1.043-0.363l0.281 0.64c0.266 0.536 0.414 1.067 0.441 1.602l-2.8-0.039c-0.106-0.297-0.348-0.695-0.719-1.203-0.133-0.238-0.293-0.453-0.481-0.637-0.906 0.211-1.746 0.227-2.519 0.039-0.133-0.054-0.348-0.082-0.641-0.082l0.559 0.281c0.773 0.399 1.32 0.961 1.641 1.68l-1 0.481-1.04-0.122-0.8-0.597c-0.266-0.215-0.785-0.481-1.559-0.801-0.48 0.027-0.828 0.106-1.043 0.238l-0.437 0.481 0.597 0.121c0.696 0.16 1.469 0.664 2.321 1.519l12.043-0.398c0.32-0.457 0.73-0.68 1.238-0.68l0.281-0.121z" inkscape:connector-curvature="0"/>
          </g>
        </g>
      </g>
      <g id="g412">
        <g id="g428" mask="url(#mask420)">
          <g id="g440">
            <g id="g442" clip-path="url(#clipPath432)">
              <g id="g444" transform="translate(0 -.66858)">
                <g id="g448">
                  <g id="g450" clip-path="url(#clipPath436)">
                    <g id="g452">
                      <path id="path454" style="fill-rule:evenodd;fill:#3b4f6b" d="m16.602 27.602c0.132-0.215 0.238-0.403 0.32-0.563 0-0.051-0.067-0.144-0.203-0.277-0.106-0.16-0.293-0.27-0.559-0.321-0.375-0.082-0.719-0.148-1.039-0.203-1.441-0.133-2.336-0.277-2.68-0.437-0.48-0.215-1-0.348-1.562-0.403-0.133-0.023-0.371 0.028-0.719 0.161-0.426 0.16-0.785 0.296-1.078 0.402-0.855 0.238-1.668 0.199-2.441-0.121-0.481-0.188-0.868-0.078-1.161 0.32-0.054 0.078-0.32 0.16-0.8 0.238-0.481 0.055-0.813 0.176-1 0.364-0.614 0.504-0.918 1.039-0.918 1.597 8.984-0.078 13.597-0.332 13.84-0.757z" inkscape:connector-curvature="0"/>
                    </g>
                  </g>
                </g>
              </g>
            </g>
          </g>
        </g>
      </g>
      <g id="g456">
        <g id="g458">
          <g id="g464">
            <path id="path472" style="fill-rule:evenodd;fill:url(#linearGradient466)" d="m16.641 27.171c0-0.453-0.68-0.84-2.039-1.16-1.364-0.32-3.016-0.48-4.961-0.48-1.922 0-3.563 0.16-4.922 0.48-1.387 0.32-2.078 0.707-2.078 1.16s0.691 0.84 2.078 1.16c1.359 0.321 3 0.481 4.922 0.481 1.918 0 3.574-0.16 4.961-0.481 1.359-0.32 2.039-0.707 2.039-1.16z" inkscape:connector-curvature="0"/>
          </g>
        </g>
      </g>
      <g id="g474">
        <g id="g476">
          <g id="g482">
            <path id="path494" style="fill-rule:evenodd;fill:url(#linearGradient484)" d="m16.762 30.652v-2.84c-0.055-0.348-0.762-0.668-2.121-0.961-1.442-0.293-3.094-0.441-4.961-0.441-1.868 0-3.52 0.148-4.961 0.441-1.36 0.293-2.067 0.613-2.117 0.961v2.84h14.16z" inkscape:connector-curvature="0"/>
          </g>
        </g>
      </g>
      <g id="g496">
        <g id="g498">
          <g id="g504">
            <path id="path514" style="fill-rule:evenodd;fill:url(#linearGradient506)" d="m16.719 30.613c0-0.375-0.692-0.696-2.078-0.961-1.364-0.266-3.016-0.399-4.961-0.399-1.973 0-3.641 0.133-5 0.399-1.387 0.265-2.082 0.586-2.082 0.961 0 0.371 0.695 0.691 2.082 0.957 1.359 0.269 3.027 0.402 5 0.402 1.945 0 3.597-0.133 4.961-0.402 1.386-0.266 2.078-0.586 2.078-0.957z" inkscape:connector-curvature="0"/>
          </g>
        </g>
      </g>
      <g id="g516">
        <g id="g532" mask="url(#mask524)">
          <g id="g544">
            <g id="g546" clip-path="url(#clipPath536)">
              <g id="g548" transform="translate(0 -.66858)">
                <g id="g552">
                  <g id="g554" clip-path="url(#clipPath540)">
                    <g id="g556">
                      <path id="path558" style="fill-rule:evenodd;fill:#ffffff" d="m3.801 27.16c0.504-0.16 1.332-0.32 2.48-0.48 1.438-0.215 3.028-0.321 4.758-0.321-0.055-0.132-0.918-0.16-2.598-0.078-2.136 0.078-3.722 0.305-4.761 0.68-0.188 0.078-0.254 0.144-0.2 0.199 0.055 0.055 0.161 0.055 0.321 0z" inkscape:connector-curvature="0"/>
                    </g>
                  </g>
                </g>
              </g>
            </g>
          </g>
        </g>
      </g>
      <path id="path560" style="fill-rule:evenodd;fill:#f9e2c9" d="m3.641 2.89c0.558-0.293 0.894-0.598 1-0.918 0.105-0.293 0.039-0.441-0.2-0.441-0.347 0-0.855 0.308-1.519 0.922-0.297 0.292-0.32 0.48-0.082 0.558 0.238 0.106 0.508 0.067 0.801-0.121z" inkscape:connector-curvature="0"/>
      <path id="path562" style="fill-rule:evenodd;fill:#f9e2c9" d="m5.762 1.812c0.398-0.082 0.504-0.227 0.316-0.442-0.183-0.21-0.344-0.253-0.476-0.117-0.137 0.106-0.204 0.239-0.204 0.399-0.023 0.16 0.094 0.215 0.364 0.16z" inkscape:connector-curvature="0"/>
      <g id="g564">
        <g id="g566">
          <g id="g572">
            <path id="path580" style="fill-rule:evenodd;fill:url(#linearGradient574)" d="m16.719 27.492c-0.239-0.321-0.867-0.602-1.879-0.84-1.36-0.321-3.16-0.492-5.399-0.52-3.015-0.027-5.281 0.321-6.8 1.039-0.243 0.106-0.375 0.586-0.403 1.442-0.023 0.718 0 1.32 0.082 1.797 0.078 0.453 0.614 0.867 1.602 1.242 1.25 0.453 3.023 0.679 5.316 0.679 2.508 0 4.457-0.199 5.84-0.601 1.254-0.371 1.91-0.852 1.961-1.438 0.133-1.386 0.027-2.32-0.32-2.8z" inkscape:connector-curvature="0"/>
          </g>
        </g>
      </g>
      <g id="g582">
        <g id="g584">
          <g id="g590">
            <path id="path598" style="fill-rule:evenodd;fill:url(#linearGradient592)" d="m17.039 30.292 0.039-0.722c-1.144-1.067-1.863-1.864-2.156-2.399l-0.32-0.558c-0.696-0.16-1.36-0.27-2-0.321 1.359 1.68 2.437 2.774 3.238 3.278 0.562 0.375 0.949 0.668 1.16 0.883l0.039-0.161z" inkscape:connector-curvature="0"/>
          </g>
        </g>
      </g>
      <g id="g600">
        <g id="g602">
          <g id="g608">
            <path id="path616" style="fill-rule:evenodd;fill:url(#linearGradient610)" d="m3.32 30.171 4.36 2.121 2.359 0.039c-1.117-0.64-2.387-1.265-3.801-1.878-0.636-0.266-1.25-0.481-1.84-0.641-0.878-0.719-1.543-1.453-2-2.199-0.105 0.32-0.16 0.812-0.16 1.48 0.055 0.106 0.11 0.172 0.16 0.199 0.27 0.344 0.575 0.641 0.922 0.879z" inkscape:connector-curvature="0"/>
          </g>
        </g>
      </g>
      <g id="g618">
        <g id="g620">
          <g id="g626">
            <path id="path634" style="fill-rule:evenodd;fill:url(#linearGradient628)" d="m9.398 30.812c0.774 0.348 1.657 0.824 2.641 1.441l1.961-0.281c-1.625-0.961-2.652-1.535-3.078-1.719l-2.32-0.922c-0.774-0.398-1.481-0.972-2.122-1.718l-1-1.243c-0.425 0.083-1.039 0.215-1.839 0.403 0.773 0.984 1.425 1.719 1.961 2.199 0.32 0.266 0.586 0.426 0.796 0.481l3 1.359z" inkscape:connector-curvature="0"/>
          </g>
        </g>
      </g>
      <g id="g636">
        <g id="g638">
          <g id="g644">
            <path id="path652" style="fill-rule:evenodd;fill:url(#linearGradient646)" d="m9.879 28.652 5.441 3c0.453-0.133 0.84-0.321 1.16-0.559l-3-1.601c-1.253-0.614-2.253-1.426-3-2.442l-0.601-0.918-2.078 0.039c0.801 1.227 1.492 2.055 2.078 2.481z" inkscape:connector-curvature="0"/>
          </g>
        </g>
      </g>
      <g id="g654">
        <g id="g656">
          <g id="g662">
            <path id="path670" style="fill-rule:evenodd;fill:url(#linearGradient664)" d="m9.762 29.331c-3.657 0-6.11 0.414-7.364 1.239 0.215 0.457 0.817 0.84 1.801 1.16 1.227 0.402 2.906 0.601 5.039 0.601 4.43 0 6.989-0.558 7.684-1.679-1.121-0.879-3.508-1.321-7.16-1.321z" inkscape:connector-curvature="0"/>
          </g>
        </g>
      </g>
      <g id="g672">
        <g id="g674">
          <g id="g680">
            <path id="path688" style="fill-rule:evenodd;fill:url(#linearGradient682)" d="m3.32 30.171 4.36 2.121 2.359 0.039c-1.117-0.64-2.387-1.265-3.801-1.878l-1.84-0.641-1.117 0.32 0.039 0.039z" inkscape:connector-curvature="0"/>
          </g>
        </g>
      </g>
      <g id="g690">
        <g id="g692">
          <g id="g698">
            <path id="path706" style="fill-rule:evenodd;fill:url(#linearGradient700)" d="m14 31.972c-0.398-0.16-1.012-0.441-1.84-0.84-0.879-0.453-1.414-0.722-1.601-0.801l-1.918-1-2.243 0.161 3 1.32c0.774 0.348 1.657 0.824 2.641 1.441v-0.043l1.082-0.078 0.758-0.121 0.121-0.039z" inkscape:connector-curvature="0"/>
          </g>
        </g>
      </g>
      <g id="g708">
        <g id="g710">
          <g id="g716">
            <path id="path724" style="fill-rule:evenodd;fill:url(#linearGradient718)" d="m11.078 29.37 4.242 2.282 0.641-0.242 0.078-0.04 0.402-0.277h0.039l-2.839-1.523-2.563-0.2z" inkscape:connector-curvature="0"/>
          </g>
        </g>
      </g>
    </g>
  </g>
<metadata><rdf:RDF><cc:Work><dc:format>image/svg+xml</dc:format><dc:type rdf:resource="http://purl.org/dc/dcmitype/StillImage"/><cc:license rdf:resource="http://creativecommons.org/licenses/publicdomain/"/><dc:publisher><cc:Agent rdf:about="http://openclipart.org/"><dc:title>Openclipart</dc:title></cc:Agent></dc:publisher></cc:Work><cc:License rdf:about="http://creativecommons.org/licenses/publicdomain/"><cc:permits rdf:resource="http://creativecommons.org/ns#Reproduction"/><cc:permits rdf:resource="http://creativecommons.org/ns#Distribution"/><cc:permits rdf:resource="http://creativecommons.org/ns#DerivativeWorks"/></cc:License></rdf:RDF></metadata></svg>
