<?xml version="1.0"?>
<svg xmlns:rdf="http://www.w3.org/1999/02/22-rdf-syntax-ns#" xmlns="http://www.w3.org/2000/svg" xmlns:cc="http://creativecommons.org/ns#" xmlns:dc="http://purl.org/dc/elements/1.1/" xmlns:svg="http://www.w3.org/2000/svg" id="svg3775" viewBox="0 0 612 612" version="1.0">
  <g id="g3785" transform="translate(-.0819 -.58539)">
    <path id="path3787" stroke="#000" stroke-width="3.408" d="m82.432 17.924c-41.335 0-64.571 21.371-64.571 65.036v450.12c0 40.84 20.891 62.23 62.192 62.23h452.03c41.3 0 62.22-20.32 62.22-62.23v-450.12c0-42.6-20.92-65.036-63.52-65.036 0 0-448.49-0.142-448.35 0z"/>
    <g id="g3789" fill="#fff">
      <path id="path3791" d="m288.58 229.5c0 15.33-13.97 31.75-32.08 31.75v258.83c0 36.74-50.08 36.74-50.08 0v-258.83c-17.64 0-33-13.59-33-33.94v-142.44c0-12.398 17.92-12.877 17.92 0.48v105.3h15v-106.26c0-11.394 17.25-12.126 17.25 0.481v105.78h15.5v-106.13c0-11.902 16.75-12.381 16.75 0.476v105.65h15.25v-106.13c0-11.777 17.5-12.256 17.5 0.476l-0.01 144.5z"/>
      <path id="path3793" d="m422.17 117.98v401.97c0 35.94-50.18 35.4-50.18 0v-159.49h-26.72v-242.48c0-56.449 76.9-56.449 76.9 0z"/>
    </g>
  </g>
  <metadata>
    <rdf:RDF>
      <cc:Work>
        <dc:format>image/svg+xml</dc:format>
        <dc:type rdf:resource="http://purl.org/dc/dcmitype/StillImage"/>
        <cc:license rdf:resource="http://creativecommons.org/licenses/publicdomain/"/>
        <dc:publisher>
          <cc:Agent rdf:about="http://openclipart.org/">
            <dc:title>Openclipart</dc:title>
          </cc:Agent>
        </dc:publisher>
        <dc:title>aiga restaurant bg</dc:title>
        <dc:date>2009-05-02T19:17:01</dc:date>
        <dc:description>Set of international airport symbols.&#xD;\n&#xD;\nSource: http://www.aiga.org/content.cfm/symbol-signs&#xD;\n&#xD;\nConverted to SVG by Jean-Victor Balin.</dc:description>
        <dc:source>http://openclipart.org/detail/25717/aiga-restaurant-bg-by-anonymous-25717</dc:source>
        <dc:creator>
          <cc:Agent>
            <dc:title>Anonymous</dc:title>
          </cc:Agent>
        </dc:creator>
        <dc:subject>
          <rdf:Bag>
            <rdf:li>aiga</rdf:li>
            <rdf:li>aiga bg</rdf:li>
            <rdf:li>black and white</rdf:li>
            <rdf:li>clip art</rdf:li>
            <rdf:li>clipart</rdf:li>
            <rdf:li>externalsource</rdf:li>
            <rdf:li>fork</rdf:li>
            <rdf:li>image</rdf:li>
            <rdf:li>knife</rdf:li>
            <rdf:li>map symbol</rdf:li>
            <rdf:li>media</rdf:li>
            <rdf:li>png</rdf:li>
            <rdf:li>public domain</rdf:li>
            <rdf:li>restaurant</rdf:li>
            <rdf:li>sign</rdf:li>
            <rdf:li>silhouette</rdf:li>
            <rdf:li>svg</rdf:li>
            <rdf:li>symbol</rdf:li>
          </rdf:Bag>
        </dc:subject>
      </cc:Work>
      <cc:License rdf:about="http://creativecommons.org/licenses/publicdomain/">
        <cc:permits rdf:resource="http://creativecommons.org/ns#Reproduction"/>
        <cc:permits rdf:resource="http://creativecommons.org/ns#Distribution"/>
        <cc:permits rdf:resource="http://creativecommons.org/ns#DerivativeWorks"/>
      </cc:License>
    </rdf:RDF>
  </metadata>
</svg>
