<svg width="869.9999999999999" height="1152" xmlns="http://www.w3.org/2000/svg">
 <defs>
  <clipPath transform="matrix(1 0 0 1 -56 -82.4984)" clipPathUnits="userSpaceOnUse" id="imagebot_28">
   <path fill="#729fcf" d="M 466 189.25 L 466 190.531 L 207 197.501 S 220 241.501 215 256.501 S 118 359.691 118 450.001 L 118 1016 S 133.75 1091.25 147.5 1122.5 S 180 1211.25 261.25 1221.25 C 337.061 1225.48 340.728 1234 490 1234 S 644.26 1230.04 718.75 1221.25 C 800 1211.25 818.75 1153.75 832.5 1122.5 C 846.25 1091.3 862 1016.1 862 1016.1 L 862 450.101 C 862 359.789 770 271.601 765 256.601 S 773 197.601 773 197.601 L 514 190.632 L 514 189.351 L 490 190.007 L 466 189.25 Z" id="imagebot_75"/>
  </clipPath>
  <clipPath transform="matrix(1 0 0 1 -42 -82.4984)" clipPathUnits="userSpaceOnUse" id="imagebot_8">
   <path fill="#729fcf" d="M 466 189.25 L 466 190.531 L 207 197.501 S 220 241.501 215 256.501 S 118 359.691 118 450.001 L 118 1016 S 133.75 1091.25 147.5 1122.5 S 180 1211.25 261.25 1221.25 C 337.061 1225.48 340.728 1234 490 1234 S 644.26 1230.04 718.75 1221.25 C 800 1211.25 818.75 1153.75 832.5 1122.5 C 846.25 1091.3 862 1016.1 862 1016.1 L 862 450.101 C 862 359.789 770 271.601 765 256.601 S 773 197.601 773 197.601 L 514 190.632 L 514 189.351 L 490 190.007 L 466 189.25 Z" id="imagebot_74"/>
  </clipPath>
  <linearGradient x1="0.5931" x2="0.5931" y1="0.98077" y2="0.16038" id="imagebot_32">
   <stop offset="0" stop-opacity="0.16471" id="imagebot_73"/>
   <stop offset="0.5" stop-opacity="0.14118" id="imagebot_72"/>
   <stop offset="1" stop-opacity="0" id="imagebot_71"/>
  </linearGradient>
  <clipPath transform="matrix(1 0 0 1 -50 -82.4984)" clipPathUnits="userSpaceOnUse" id="imagebot_31">
   <path fill="#ad7fa8" d="M 466 189.25 L 466 190.531 L 207 197.501 S 220 241.501 215 256.501 S 118 359.691 118 450.001 L 118 1016 S 133.75 1091.25 147.5 1122.5 S 180 1211.25 261.25 1221.25 C 337.061 1225.48 340.728 1234 490 1234 S 644.26 1230.04 718.75 1221.25 C 800 1211.25 818.75 1153.75 832.5 1122.5 C 846.25 1091.3 862 1016.1 862 1016.1 L 862 450.101 C 862 359.789 770 271.601 765 256.601 S 773 197.601 773 197.601 L 514 190.632 L 514 189.351 L 490 190.007 L 466 189.25 Z" id="imagebot_70"/>
  </clipPath>
  <filter color-interpolation-filters="sRGB" id="imagebot_33">
   <feGaussianBlur stdDeviation="5.13" id="imagebot_69"/>
  </filter>
  <clipPath transform="matrix(1 0 0 1 -50 -82.4984)" clipPathUnits="userSpaceOnUse" id="imagebot_41">
   <path fill="#e9b96e" d="M 466 189.25 L 466 190.531 L 207 197.501 S 220 241.501 215 256.501 S 118 359.691 118 450.001 L 118 1016 S 133.75 1091.25 147.5 1122.5 S 180 1211.25 261.25 1221.25 C 337.061 1225.48 340.728 1234 490 1234 S 644.26 1230.04 718.75 1221.25 C 800 1211.25 818.75 1153.75 832.5 1122.5 C 846.25 1091.3 862 1016.1 862 1016.1 L 862 450.101 C 862 359.789 770 271.601 765 256.601 S 773 197.601 773 197.601 L 514 190.632 L 514 189.351 L 490 190.007 L 466 189.25 Z" id="imagebot_68"/>
  </clipPath>
  <filter color-interpolation-filters="sRGB" height="1.0827" x="-0.10915" y="-0.04137" width="1.2183" id="imagebot_9">
   <feGaussianBlur stdDeviation="18.00943" id="imagebot_67"/>
  </filter>
  <filter color-interpolation-filters="sRGB" height="1.0827" x="-0.10915" y="-0.04137" width="1.2183" id="imagebot_29">
   <feGaussianBlur stdDeviation="18.00943" id="imagebot_66"/>
  </filter>
  <clipPath transform="matrix(1 0 0 1 -52 -82.4984)" clipPathUnits="userSpaceOnUse" id="imagebot_25">
   <path fill="#ad7fa8" d="M 466 189.25 L 466 190.531 L 207 197.501 S 220 241.501 215 256.501 S 118 359.691 118 450.001 L 118 1016 S 133.75 1091.25 147.5 1122.5 S 180 1211.25 261.25 1221.25 C 337.061 1225.48 340.728 1234 490 1234 S 644.26 1230.04 718.75 1221.25 C 800 1211.25 818.75 1153.75 832.5 1122.5 C 846.25 1091.3 862 1016.1 862 1016.1 L 862 450.101 C 862 359.789 770 271.601 765 256.601 S 773 197.601 773 197.601 L 514 190.632 L 514 189.351 L 490 190.007 L 466 189.25 Z" id="imagebot_65"/>
  </clipPath>
  <filter color-interpolation-filters="sRGB" height="1.6763" x="-0.82673" y="-0.33817" width="2.6535" id="imagebot_26">
   <feGaussianBlur stdDeviation="146.4" id="imagebot_64"/>
  </filter>
  <clipPath transform="matrix(1 0 0 1 -50 -82.4984)" clipPathUnits="userSpaceOnUse" id="imagebot_19">
   <path fill="#204a87" d="M 490 85 C 395.713 85 214.35 90.4645 207.28 94 C 200.801 97.2393 188.905 111.771 186.874 114.281 C 215.484 108.951 291.374 101.001 490.004 101.001 S 764.524 108.949 793.124 114.282 C 791.094 111.772 779.204 97.241 772.724 94.002 C 765.654 90.466 584.294 85.002 490.004 85.002 L 490 85 Z" id="imagebot_63"/>
  </clipPath>
  <clipPath transform="matrix(1 0 0 1 -50 -82.4984)" clipPathUnits="userSpaceOnUse" id="imagebot_22">
   <path fill="#204a87" d="M 490 85 C 395.713 85 214.35 90.4645 207.28 94 C 200.801 97.2393 188.905 111.771 186.874 114.281 C 215.484 108.951 291.374 101.001 490.004 101.001 S 764.524 108.949 793.124 114.282 C 791.094 111.772 779.204 97.241 772.724 94.002 C 765.654 90.466 584.294 85.002 490.004 85.002 L 490 85 Z" id="imagebot_62"/>
  </clipPath>
  <filter color-interpolation-filters="sRGB" height="2.2337" x="-0.01854" y="-0.61687" width="1.0371" id="imagebot_23">
   <feGaussianBlur stdDeviation="4.69078" id="imagebot_61"/>
  </filter>
  <filter color-interpolation-filters="sRGB" height="2.5158" x="-0.01844" y="-0.75789" width="1.0369" id="imagebot_20">
   <feGaussianBlur stdDeviation="4.36124" id="imagebot_60"/>
  </filter>
  <clipPath transform="matrix(1 0 0 1 66 2.0016)" clipPathUnits="userSpaceOnUse" id="imagebot_15">
   <path d="M 490 85 C 395.713 85 214.35 90.4645 207.28 94 C 200.209 97.5355 186.092 115.219 186.092 115.219 L 186.092 193 L 196.904 198.313 S 341.634 193 387.594 193 L 592.404 193 C 638.366 193 783.094 198.313 783.094 198.313 L 793.906 193 L 793.906 115.219 S 779.79 97.536 772.718 94 C 765.658 90.463 584.298 84.999 490.008 84.999 L 490 85 Z" fill="#3465a4" id="imagebot_59"/>
  </clipPath>
  <filter color-interpolation-filters="sRGB" height="1.4331" x="-1.0662" y="-0.21656" width="3.1324" id="imagebot_16">
   <feGaussianBlur stdDeviation="9.4125" id="imagebot_58"/>
  </filter>
  <filter color-interpolation-filters="sRGB" height="1.3971" x="-0.00619" y="-0.19855" width="1.0124" id="imagebot_5">
   <feGaussianBlur stdDeviation="1.607" id="imagebot_57"/>
  </filter>
  <clipPath clipPathUnits="userSpaceOnUse" id="imagebot_4">
   <path d="M 490 125 C 388.06 125 292.08 125.038 186.06 134.344 C 180.854 135.244 178.31 136.354 178.31 140.188 C 178.31 144.021 179.3 145.142 185.997 144 C 288.697 135.144 388.168 135 489.997 135 S 691.297 135.144 793.997 144 C 800.695 145.142 801.685 144.021 801.685 140.188 C 801.685 136.354 799.141 135.244 793.935 134.344 C 687.915 125.044 591.935 125.004 489.995 125.004 L 490 125 Z" fill="#204a87" id="imagebot_56"/>
  </clipPath>
  <clipPath transform="matrix(1 0 0 1 -50 -82.4984)" clipPathUnits="userSpaceOnUse" id="imagebot_37">
   <path fill="#ef2929" d="M 466 189.25 L 466 190.531 L 207 197.501 S 220 241.501 215 256.501 S 118 359.691 118 450.001 L 118 1016 S 133.75 1091.25 147.5 1122.5 S 180 1211.25 261.25 1221.25 C 337.061 1225.48 340.728 1234 490 1234 S 644.26 1230.04 718.75 1221.25 C 800 1211.25 818.75 1153.75 832.5 1122.5 C 846.25 1091.3 862 1016.1 862 1016.1 L 862 450.101 C 862 359.789 770 271.601 765 256.601 S 773 197.601 773 197.601 L 514 190.632 L 514 189.351 L 490 190.007 L 466 189.25 Z" opacity="0.33" id="imagebot_49"/>
  </clipPath>
  <filter color-interpolation-filters="sRGB" height="1.2664" x="-0.01319" y="-0.13322" width="1.0264" id="imagebot_38">
   <feGaussianBlur stdDeviation="3.49172" id="imagebot_48"/>
  </filter>
  <filter color-interpolation-filters="sRGB" height="1.6463" x="-0.04827" y="-0.32317" width="1.0965" id="imagebot_42">
   <feGaussianBlur stdDeviation="13.59586" id="imagebot_47"/>
  </filter>
  <linearGradient x1="-0.00067" x2="1.00067" y1="0.49602" y2="0.49602" id="imagebot_44">
   <stop offset="0" id="imagebot_46"/>
   <stop offset="1" stop-opacity="0.49412" id="imagebot_45"/>
  </linearGradient>
  <clipPath transform="matrix(1 0 0 1 -50 -82.4984)" id="imagebot_76" clipPathUnits="userSpaceOnUse">
   <path id="imagebot_77" d="M490,85C395.71301,85 214.35001,90.4645 207.28,94C200.209,97.5355 186.092,115.219 186.092,115.219L186.092,193L196.90401,198.313S341.634,193 387.59399,193L592.40399,193C638.36603,193 783.09399,198.313 783.09399,198.313L793.90601,193L793.90601,115.219S779.78998,97.536 772.71802,94C765.65802,90.463 584.29797,84.999 490.008,84.999L490,85z" fill="#3465a4"/>
  </clipPath>
 </defs>
 <g>
  <title>Layer 1</title>
  <path fill="none" stroke="url(#imagebot_44)" d="M 157 115.002 S 170 159.002 165 174.002 S 68 277.192 68 367.502 L 68 933.502 S 83.75 1008.75 97.5 1040 S 130 1128.75 211.25 1138.75 C 287.061 1142.98 290.728 1151.5 440 1151.5 S 594.26 1147.55 668.75 1138.75 C 750 1128.75 768.75 1071.25 782.5 1040 S 812 933.502 812 933.502 L 812 367.502 C 812 277.192 720 189.002 715 174.002 S 723 115.002 723 115.002" opacity="0.5" id="imagebot_43"/>
 </g>
 <g>
  <title>Layer 2</title>
  <path filter="url(#imagebot_42)" fill-opacity="0.18824" clip-path="url(#imagebot_41)" d="M 102.03 1050.5 C 115.837 1082.68 138.416 1129.76 211.25 1138.72 C 287.061 1142.95 290.728 1151.47 440 1151.47 S 594.26 1147.51 668.75 1138.72 C 741.583 1129.76 764.161 1082.68 777.97 1050.5 C 752.81 1065.4 675.6 1090 440 1090 S 127.19 1065.39 102.03 1050.53 L 102.03 1050.5 Z" opacity="0.8" id="imagebot_40"/>
 </g>
 <g>
  <title>Layer 3</title>
  <path d="M 440 2.5016 C 345.713 2.5016 164.35 7.9661 157.28 11.5016 C 150.209 15.0371 136.092 32.7206 136.092 32.7206 L 136.092 110.502 L 146.904 115.815 S 291.634 110.502 337.594 110.502 L 542.404 110.502 C 588.366 110.502 733.094 115.815 733.094 115.815 L 743.906 110.502 L 743.906 32.7206 S 729.79 15.0376 722.718 11.5016 C 715.658 7.9661 534.298 2.5016 440.008 2.5016 L 440 2.5016 Z" fill-opacity="0.03922" id="imagebot_39"/>
 </g>
 <g>
  <title>Layer 4</title>
  <path filter="url(#imagebot_38)" clip-path="url(#imagebot_37)" fill-opacity="0.09412" d="M 122.28 1088.6 C 138.599 1111.67 164.629 1133.02 211.249 1138.76 C 287.06 1142.98 290.727 1151.51 439.999 1151.51 S 594.259 1147.55 668.749 1138.76 C 715.369 1133.02 741.399 1111.67 757.718 1088.6 C 733.008 1099.3 659.168 1116.6 439.998 1116.6 S 146.988 1099.31 122.278 1088.69 L 122.28 1088.6 Z" id="imagebot_36"/>
 </g>
 <g>
  <title>Layer 5</title>
  <path d="M 440 2.5016 C 345.71 2.5016 164.35 7.9661 157.28 11.5016 C 150.802 14.7406 138.905 29.2726 136.874 31.7826 C 165.478 26.4496 241.374 18.5016 439.994 18.5016 C 638.624 18.5016 714.514 26.4496 743.114 31.7826 C 741.084 29.2726 729.194 14.7406 722.714 11.5016 C 715.644 7.9661 534.284 2.5016 439.994 2.5016 L 440 2.5016 Z" fill="none" stroke="#000" opacity="0.3" id="imagebot_35"/>
 </g>
 <g>
  <title>Layer 6</title>
  <path fill-opacity="0.32159" d="M 440 100.502 C 251.54 100.502 170.77 104.544 136.09 107.94 L 136.09 110.502 L 146.902 115.815 S 291.632 110.502 337.592 110.502 L 542.402 110.502 C 588.364 110.502 733.092 115.815 733.092 115.815 L 743.904 110.502 L 743.904 110.44 C 709.234 105.91 628.474 100.499 440.004 100.499 L 440 100.502 Z" id="imagebot_34"/>
 </g>
 <g>
  <title>Layer 7</title>
  <path fill="url(#imagebot_32)" filter="url(#imagebot_33)" clip-path="url(#imagebot_31)" d="M 10 309.502 S 202 329.502 440 329.502 S 870 309.502 870 309.502 L 870 121.502 L 0 121.502 L 10 309.502 Z" opacity="0.5" id="imagebot_30"/>
 </g>
 <g>
  <title>Layer 8</title>
  <path filter="url(#imagebot_29)" clip-path="url(#imagebot_28)" d="M 446 106.752 L 446 108.033 L 705 115.002 S 692 159.002 697 174.002 S 794 277.192 794 367.502 L 794 933.502 S 778.25 1008.75 764.5 1040 S 732 1128.75 650.75 1138.75 C 574.939 1142.98 571.272 1151.5 422 1151.5 C 418.259 1151.5 415 1151.51 411.438 1151.5 C 555.268 1151.29 559.888 1142.93 634.748 1138.75 C 715.998 1128.75 734.748 1071.25 748.498 1040 C 762.248 1008.8 777.998 933.602 777.998 933.602 L 777.998 367.602 C 777.998 277.29 685.998 189.102 680.998 174.102 S 688.998 115.102 688.998 115.102 L 429.998 108.133 L 429.998 107.289 L 445.998 106.852 L 446 106.752 Z M 398 106.752 L 414 107.19 L 406 107.408 L 398 107.19 L 398 106.752 Z" opacity="0.4" id="imagebot_27"/>
 </g>
 <g>
  <title>Layer 9</title>
  <path filter="url(#imagebot_26)" clip-path="url(#imagebot_25)" d="M 247.75 112.502 L 155 115.002 S 168 159.002 163 174.002 S 66 277.192 66 367.502 L 66 933.502 S 81.75 1008.75 95.5 1040 S 128 1128.75 209.25 1138.75 C 285.061 1142.98 288.728 1151.5 438 1151.5 C 458.193 1151.5 475.559 1151.43 491 1151.28 C 379.4 1149.91 369.81 1142.57 301.25 1138.75 C 220 1128.75 201.25 1071.25 187.5 1040 C 173.75 1008.6 158 933.402 158 933.402 L 158 367.402 C 158 277.09 250 188.902 255 173.902 S 247 114.902 247 114.902 L 247.75 112.402 L 247.75 112.502 Z" opacity="0.24" id="imagebot_24"/>
 </g>
 <g>
  <title>Layer 10</title>
  <path filter="url(#imagebot_23)" clip-path="url(#imagebot_22)" d="M 440 16.0016 C 241.3 16.0016 165.35 23.9166 136.41 29.3136 L 137.348 34.2506 C 165.598 28.9806 241.438 21.0006 439.997 21.0006 S 714.397 28.9816 742.657 34.2506 L 743.595 29.3136 C 714.645 23.9236 638.695 16.0036 439.995 16.0036 L 440 16.0016 Z" opacity="0.75" id="imagebot_21"/>
 </g>
 <g>
  <title>Layer 11</title>
  <path filter="url(#imagebot_20)" clip-path="url(#imagebot_19)" d="M 440 0.00160217 C 392.808 0.00160217 323.88 1.3803 265.84 3.1891 C 236.824 4.09351 210.559 5.0843 191.059 6.0953 C 181.309 6.6008 173.24 7.1035 167.371 7.5953 C 164.437 7.8412 162.058 8.1013 160.246 8.3453 S 157.492 8.58141 156.152 9.2515 L 158.402 13.7515 C 157.946 13.9797 159.235 13.5073 160.902 13.2828 C 162.57 13.0583 164.923 12.8372 167.808 12.5953 C 173.58 12.1115 181.588 11.5993 191.308 11.0953 C 210.748 10.0873 237.008 9.0923 265.998 8.1893 C 323.988 6.3813 392.898 5.0013 439.998 5.0013 C 487.093 5.0013 556.008 6.3814 613.998 8.1888 C 642.992 9.0925 669.245 10.0871 688.686 11.095 C 698.407 11.599 706.414 12.1113 712.186 12.595 C 715.072 12.8369 717.425 13.058 719.093 13.2825 S 722.049 13.9794 721.593 13.7512 L 723.843 9.25121 C 722.502 8.5812 721.561 8.58891 719.749 8.345 S 715.558 7.8409 712.624 7.595 C 706.756 7.1032 698.686 6.6005 688.936 6.095 C 669.426 5.083 643.156 4.092 614.146 3.188 C 556.106 1.37901 487.176 0 439.986 0 L 440 0.00160217 Z" opacity="0.25" id="imagebot_18"/>
 </g>
 <g>
  <title>Layer 12</title>
  <path fill="none" stroke-width="10" stroke="#000" filter="url(#imagebot_16)" clip-path="url(#imagebot_76)" d="M 157.28 11.5016 C 150.209 15.0371 136.092 32.7206 136.092 32.7206 L 136.092 110.502 L 146.904 115.814" opacity="0.5" id="imagebot_17"/>
 </g>
 <g>
  <title>Layer 13</title>
  <path fill="none" stroke-width="10" stroke="#000" filter="url(#imagebot_16)" clip-path="url(#imagebot_15)" d="M 273.28 96.0016 C 266.209 99.5371 252.092 117.221 252.092 117.221 L 252.092 195.002 L 262.904 200.314" opacity="0.5" id="imagebot_14"/>
 </g>
 <g id="imagebot_11">
  <path transform="translate(66 2.0016) matrix(1 0 0 1 -116 -84.5)" d="M 186.06 134.34 C 180.854 135.241 178.31 136.351 178.31 140.184 C 178.31 144.017 179.3 145.138 185.997 143.996 C 186.029 143.993 186.06 143.999 186.091 143.996 L 186.091 134.34 C 186.081 134.341 186.07 134.339 186.06 134.34 L 186.06 134.34 Z M 793.9 134.34 L 793.9 143.996 C 793.931 143.999 793.963 143.993 793.994 143.996 C 800.691 145.138 801.681 144.017 801.681 140.184 C 801.681 136.35 799.138 135.24 793.931 134.34 C 793.921 134.339 793.91 134.341 793.9 134.34 Z" opacity="0.35897" id="imagebot_13"/>
  <path transform="translate(66 2.0016) matrix(1 0 0 1 -116 -84.5)" d="M 490 125 C 388.06 125 292.08 125.038 186.06 134.344 C 180.854 135.244 178.31 136.354 178.31 140.188 C 178.31 144.021 179.3 145.142 185.997 144 C 288.697 135.144 388.168 135 489.997 135 S 691.297 135.144 793.997 144 C 800.695 145.142 801.685 144.021 801.685 140.188 C 801.685 136.354 799.141 135.244 793.935 134.344 C 687.915 125.044 591.935 125.004 489.995 125.004 L 490 125 Z M 490 126.5 C 591.92 126.5 687.85 126.548 793.78 135.844 C 793.791 135.845 793.801 135.843 793.811 135.844 C 796.258 136.277 798.028 136.793 798.936 137.406 C 799.866 138.035 800.186 138.603 800.186 140.188 C 800.186 141.081 800.115 141.757 799.999 142.125 C 799.883 142.493 799.834 142.537 799.624 142.656 C 799.204 142.895 797.505 143.086 794.249 142.531 L 794.186 142.5 L 794.124 142.5 C 691.344 133.637 591.834 133.5 490.004 133.5 S 288.664 133.637 185.884 142.5 L 185.821 142.5 L 185.759 142.531 C 182.502 143.086 180.803 142.895 180.384 142.656 C 180.174 142.537 180.125 142.493 180.009 142.125 S 179.821 141.081 179.821 140.188 C 179.821 138.603 180.141 138.035 181.071 137.406 C 181.98 136.793 183.75 136.277 186.196 135.844 C 186.21 135.842 186.214 135.846 186.227 135.844 C 292.167 126.564 388.097 126.514 490.017 126.514 Z" clip-path="url(#imagebot_4)" filter="url(#imagebot_5)" id="imagebot_12"/>
  <title>imagebot_11</title>
 </g>
 <g>
  <title>Layer 14</title>
  <path filter="url(#imagebot_9)" mask="url(#imagebot_10)" clip-path="url(#imagebot_8)" d="M 436 106.752 L 436 108.033 L 177 115.003 S 190 159.003 185 174.003 S 88 277.193 88 367.503 L 88 933.502 S 103.75 1008.75 117.5 1040 S 150 1128.75 231.25 1138.75 C 307.061 1142.98 310.728 1151.5 460 1151.5 C 463.741 1151.5 467 1151.51 470.562 1151.5 C 326.732 1151.29 322.112 1142.93 247.252 1138.75 C 166.002 1128.75 147.252 1071.25 133.502 1040 C 119.752 1008.8 104.002 933.602 104.002 933.602 L 104.002 367.603 C 104.002 277.291 196.002 189.103 201.002 174.103 S 193.002 115.103 193.002 115.103 L 452.002 108.134 L 452.002 107.291 L 436.002 106.853 L 436 106.752 Z M 484 106.752 L 468 107.19 L 476 107.408 L 484 107.19 L 484 106.752 Z" opacity="0.75" id="imagebot_7"/>
 </g>
 <g id="imagebot_2">
  <path transform="translate(66 2.0016) matrix(1 0 0 1 -116 -56.5)" d="M 186.06 134.34 C 180.854 135.241 178.31 136.351 178.31 140.184 C 178.31 144.017 179.3 145.138 185.997 143.996 C 186.029 143.993 186.06 143.999 186.091 143.996 L 186.091 134.34 C 186.081 134.341 186.07 134.339 186.06 134.34 L 186.06 134.34 Z M 793.9 134.34 L 793.9 143.996 C 793.931 143.999 793.963 143.993 793.994 143.996 C 800.691 145.138 801.681 144.017 801.681 140.184 C 801.681 136.35 799.138 135.24 793.931 134.34 C 793.921 134.339 793.91 134.341 793.9 134.34 Z" opacity="0.35897" id="imagebot_6"/>
  <path transform="translate(66 2.0016) matrix(1 0 0 1 -116 -56.5)" d="M 490 125 C 388.06 125 292.08 125.038 186.06 134.344 C 180.854 135.244 178.31 136.354 178.31 140.188 C 178.31 144.021 179.3 145.142 185.997 144 C 288.697 135.144 388.168 135 489.997 135 S 691.297 135.144 793.997 144 C 800.695 145.142 801.685 144.021 801.685 140.188 C 801.685 136.354 799.141 135.244 793.935 134.344 C 687.915 125.044 591.935 125.004 489.995 125.004 L 490 125 Z M 490 126.5 C 591.92 126.5 687.85 126.548 793.78 135.844 C 793.791 135.845 793.801 135.843 793.811 135.844 C 796.258 136.277 798.028 136.793 798.936 137.406 C 799.866 138.035 800.186 138.603 800.186 140.188 C 800.186 141.081 800.115 141.757 799.999 142.125 C 799.883 142.493 799.834 142.537 799.624 142.656 C 799.204 142.895 797.505 143.086 794.249 142.531 L 794.186 142.5 L 794.124 142.5 C 691.344 133.637 591.834 133.5 490.004 133.5 S 288.664 133.637 185.884 142.5 L 185.821 142.5 L 185.759 142.531 C 182.502 143.086 180.803 142.895 180.384 142.656 C 180.174 142.537 180.125 142.493 180.009 142.125 S 179.821 141.081 179.821 140.188 C 179.821 138.603 180.141 138.035 181.071 137.406 C 181.98 136.793 183.75 136.277 186.196 135.844 C 186.21 135.842 186.214 135.846 186.227 135.844 C 292.167 126.564 388.097 126.514 490.017 126.514 Z" clip-path="url(#imagebot_4)" filter="url(#imagebot_5)" id="imagebot_3"/>
  <title>imagebot_2</title>
 </g>
 <metadata>image/svg+xmlOpenclipartEmpty glass jar2013-04-22T07:44:41jar, glass, empty jar, glass jar,https://openclipart.org/detail/177364/empty-glass-jar-by-mirek2-177364Mirek2empty jarglassglass jarjar</metadata>
</svg>