<!--?xml version="1.0" standalone="yes"?-->
<svg xmlns="http://www.w3.org/2000/svg" version="1.1" width="222" height="222" viewBox="0 0 222 222" shape-rendering="crispEdges"><rect x="0" y="0" width="222" height="222" fill="#ffffff"></rect><path fill="#000000" d="M24 24h6v6H24V24M30 24h6v6H30V24M36 24h6v6H36V24M42 24h6v6H42V24M48 24h6v6H48V24M54 24h6v6H54V24M60 24h6v6H60V24M78 24h6v6H78V24M84 24h6v6H84V24M96 24h6v6H96V24M102 24h6v6H102V24M114 24h6v6H114V24M120 24h6v6H120V24M132 24h6v6H132V24M138 24h6v6H138V24M144 24h6v6H144V24M156 24h6v6H156V24M162 24h6v6H162V24M168 24h6v6H168V24M174 24h6v6H174V24M180 24h6v6H180V24M186 24h6v6H186V24M192 24h6v6H192V24M24 30h6v6H24V30M60 30h6v6H60V30M108 30h6v6H108V30M114 30h6v6H114V30M120 30h6v6H120V30M126 30h6v6H126V30M144 30h6v6H144V30M156 30h6v6H156V30M192 30h6v6H192V30M24 36h6v6H24V36M36 36h6v6H36V36M42 36h6v6H42V36M48 36h6v6H48V36M60 36h6v6H60V36M84 36h6v6H84V36M90 36h6v6H90V36M96 36h6v6H96V36M102 36h6v6H102V36M138 36h6v6H138V36M144 36h6v6H144V36M156 36h6v6H156V36M168 36h6v6H168V36M174 36h6v6H174V36M180 36h6v6H180V36M192 36h6v6H192V36M24 42h6v6H24V42M36 42h6v6H36V42M42 42h6v6H42V42M48 42h6v6H48V42M60 42h6v6H60V42M126 42h6v6H126V42M138 42h6v6H138V42M144 42h6v6H144V42M156 42h6v6H156V42M168 42h6v6H168V42M174 42h6v6H174V42M180 42h6v6H180V42M192 42h6v6H192V42M24 48h6v6H24V48M36 48h6v6H36V48M42 48h6v6H42V48M48 48h6v6H48V48M60 48h6v6H60V48M72 48h6v6H72V48M78 48h6v6H78V48M84 48h6v6H84V48M90 48h6v6H90V48M102 48h6v6H102V48M120 48h6v6H120V48M138 48h6v6H138V48M156 48h6v6H156V48M168 48h6v6H168V48M174 48h6v6H174V48M180 48h6v6H180V48M192 48h6v6H192V48M24 54h6v6H24V54M60 54h6v6H60V54M78 54h6v6H78V54M96 54h6v6H96V54M120 54h6v6H120V54M132 54h6v6H132V54M138 54h6v6H138V54M144 54h6v6H144V54M156 54h6v6H156V54M192 54h6v6H192V54M24 60h6v6H24V60M30 60h6v6H30V60M36 60h6v6H36V60M42 60h6v6H42V60M48 60h6v6H48V60M54 60h6v6H54V60M60 60h6v6H60V60M72 60h6v6H72V60M84 60h6v6H84V60M96 60h6v6H96V60M108 60h6v6H108V60M120 60h6v6H120V60M132 60h6v6H132V60M144 60h6v6H144V60M156 60h6v6H156V60M162 60h6v6H162V60M168 60h6v6H168V60M174 60h6v6H174V60M180 60h6v6H180V60M186 60h6v6H186V60M192 60h6v6H192V60M72 66h6v6H72V66M96 66h6v6H96V66M108 66h6v6H108V66M120 66h6v6H120V66M126 66h6v6H126V66M138 66h6v6H138V66M36 72h6v6H36V72M42 72h6v6H42V72M60 72h6v6H60V72M66 72h6v6H66V72M72 72h6v6H72V72M78 72h6v6H78V72M108 72h6v6H108V72M114 72h6v6H114V72M120 72h6v6H120V72M150 72h6v6H150V72M156 72h6v6H156V72M168 72h6v6H168V72M24 78h6v6H24V78M36 78h6v6H36V78M54 78h6v6H54V78M72 78h6v6H72V78M108 78h6v6H108V78M120 78h6v6H120V78M132 78h6v6H132V78M138 78h6v6H138V78M144 78h6v6H144V78M150 78h6v6H150V78M156 78h6v6H156V78M162 78h6v6H162V78M168 78h6v6H168V78M180 78h6v6H180V78M186 78h6v6H186V78M192 78h6v6H192V78M30 84h6v6H30V84M36 84h6v6H36V84M42 84h6v6H42V84M48 84h6v6H48V84M54 84h6v6H54V84M60 84h6v6H60V84M66 84h6v6H66V84M78 84h6v6H78V84M90 84h6v6H90V84M96 84h6v6H96V84M108 84h6v6H108V84M126 84h6v6H126V84M150 84h6v6H150V84M174 84h6v6H174V84M180 84h6v6H180V84M186 84h6v6H186V84M24 90h6v6H24V90M42 90h6v6H42V90M54 90h6v6H54V90M72 90h6v6H72V90M90 90h6v6H90V90M108 90h6v6H108V90M126 90h6v6H126V90M138 90h6v6H138V90M144 90h6v6H144V90M156 90h6v6H156V90M192 90h6v6H192V90M24 96h6v6H24V96M60 96h6v6H60V96M72 96h6v6H72V96M78 96h6v6H78V96M84 96h6v6H84V96M90 96h6v6H90V96M96 96h6v6H96V96M102 96h6v6H102V96M108 96h6v6H108V96M132 96h6v6H132V96M162 96h6v6H162V96M180 96h6v6H180V96M24 102h6v6H24V102M36 102h6v6H36V102M42 102h6v6H42V102M48 102h6v6H48V102M66 102h6v6H66V102M72 102h6v6H72V102M102 102h6v6H102V102M120 102h6v6H120V102M132 102h6v6H132V102M138 102h6v6H138V102M144 102h6v6H144V102M156 102h6v6H156V102M180 102h6v6H180V102M192 102h6v6H192V102M36 108h6v6H36V108M42 108h6v6H42V108M48 108h6v6H48V108M54 108h6v6H54V108M60 108h6v6H60V108M72 108h6v6H72V108M78 108h6v6H78V108M90 108h6v6H90V108M102 108h6v6H102V108M108 108h6v6H108V108M120 108h6v6H120V108M126 108h6v6H126V108M132 108h6v6H132V108M138 108h6v6H138V108M156 108h6v6H156V108M168 108h6v6H168V108M186 108h6v6H186V108M192 108h6v6H192V108M24 114h6v6H24V114M30 114h6v6H30V114M36 114h6v6H36V114M54 114h6v6H54V114M84 114h6v6H84V114M96 114h6v6H96V114M126 114h6v6H126V114M144 114h6v6H144V114M150 114h6v6H150V114M156 114h6v6H156V114M174 114h6v6H174V114M24 120h6v6H24V120M36 120h6v6H36V120M48 120h6v6H48V120M54 120h6v6H54V120M60 120h6v6H60V120M66 120h6v6H66V120M84 120h6v6H84V120M114 120h6v6H114V120M126 120h6v6H126V120M132 120h6v6H132V120M144 120h6v6H144V120M150 120h6v6H150V120M162 120h6v6H162V120M168 120h6v6H168V120M174 120h6v6H174V120M36 126h6v6H36V126M54 126h6v6H54V126M66 126h6v6H66V126M72 126h6v6H72V126M78 126h6v6H78V126M84 126h6v6H84V126M102 126h6v6H102V126M108 126h6v6H108V126M120 126h6v6H120V126M132 126h6v6H132V126M144 126h6v6H144V126M162 126h6v6H162V126M180 126h6v6H180V126M24 132h6v6H24V132M54 132h6v6H54V132M60 132h6v6H60V132M72 132h6v6H72V132M84 132h6v6H84V132M96 132h6v6H96V132M108 132h6v6H108V132M114 132h6v6H114V132M132 132h6v6H132V132M168 132h6v6H168V132M180 132h6v6H180V132M42 138h6v6H42V138M48 138h6v6H48V138M66 138h6v6H66V138M78 138h6v6H78V138M84 138h6v6H84V138M96 138h6v6H96V138M108 138h6v6H108V138M126 138h6v6H126V138M132 138h6v6H132V138M150 138h6v6H150V138M162 138h6v6H162V138M180 138h6v6H180V138M30 144h6v6H30V144M42 144h6v6H42V144M48 144h6v6H48V144M60 144h6v6H60V144M72 144h6v6H72V144M78 144h6v6H78V144M84 144h6v6H84V144M102 144h6v6H102V144M108 144h6v6H108V144M126 144h6v6H126V144M132 144h6v6H132V144M138 144h6v6H138V144M144 144h6v6H144V144M150 144h6v6H150V144M156 144h6v6H156V144M162 144h6v6H162V144M168 144h6v6H168V144M174 144h6v6H174V144M180 144h6v6H180V144M72 150h6v6H72V150M84 150h6v6H84V150M102 150h6v6H102V150M114 150h6v6H114V150M120 150h6v6H120V150M126 150h6v6H126V150M138 150h6v6H138V150M144 150h6v6H144V150M168 150h6v6H168V150M174 150h6v6H174V150M186 150h6v6H186V150M192 150h6v6H192V150M24 156h6v6H24V156M30 156h6v6H30V156M36 156h6v6H36V156M42 156h6v6H42V156M48 156h6v6H48V156M54 156h6v6H54V156M60 156h6v6H60V156M72 156h6v6H72V156M78 156h6v6H78V156M90 156h6v6H90V156M96 156h6v6H96V156M108 156h6v6H108V156M120 156h6v6H120V156M132 156h6v6H132V156M138 156h6v6H138V156M144 156h6v6H144V156M156 156h6v6H156V156M168 156h6v6H168V156M180 156h6v6H180V156M186 156h6v6H186V156M24 162h6v6H24V162M60 162h6v6H60V162M84 162h6v6H84V162M90 162h6v6H90V162M102 162h6v6H102V162M120 162h6v6H120V162M144 162h6v6H144V162M168 162h6v6H168V162M192 162h6v6H192V162M24 168h6v6H24V168M36 168h6v6H36V168M42 168h6v6H42V168M48 168h6v6H48V168M60 168h6v6H60V168M84 168h6v6H84V168M90 168h6v6H90V168M102 168h6v6H102V168M144 168h6v6H144V168M150 168h6v6H150V168M156 168h6v6H156V168M162 168h6v6H162V168M168 168h6v6H168V168M180 168h6v6H180V168M192 168h6v6H192V168M24 174h6v6H24V174M36 174h6v6H36V174M42 174h6v6H42V174M48 174h6v6H48V174M60 174h6v6H60V174M72 174h6v6H72V174M84 174h6v6H84V174M96 174h6v6H96V174M108 174h6v6H108V174M114 174h6v6H114V174M120 174h6v6H120V174M126 174h6v6H126V174M144 174h6v6H144V174M150 174h6v6H150V174M168 174h6v6H168V174M174 174h6v6H174V174M186 174h6v6H186V174M24 180h6v6H24V180M36 180h6v6H36V180M42 180h6v6H42V180M48 180h6v6H48V180M60 180h6v6H60V180M72 180h6v6H72V180M84 180h6v6H84V180M90 180h6v6H90V180M96 180h6v6H96V180M102 180h6v6H102V180M120 180h6v6H120V180M126 180h6v6H126V180M138 180h6v6H138V180M144 180h6v6H144V180M150 180h6v6H150V180M174 180h6v6H174V180M192 180h6v6H192V180M24 186h6v6H24V186M60 186h6v6H60V186M78 186h6v6H78V186M84 186h6v6H84V186M90 186h6v6H90V186M96 186h6v6H96V186M108 186h6v6H108V186M126 186h6v6H126V186M132 186h6v6H132V186M138 186h6v6H138V186M144 186h6v6H144V186M150 186h6v6H150V186M156 186h6v6H156V186M162 186h6v6H162V186M168 186h6v6H168V186M174 186h6v6H174V186M186 186h6v6H186V186M24 192h6v6H24V192M30 192h6v6H30V192M36 192h6v6H36V192M42 192h6v6H42V192M48 192h6v6H48V192M54 192h6v6H54V192M60 192h6v6H60V192M78 192h6v6H78V192M102 192h6v6H102V192M108 192h6v6H108V192M114 192h6v6H114V192M126 192h6v6H126V192M132 192h6v6H132V192M138 192h6v6H138V192M144 192h6v6H144V192M150 192h6v6H150V192M162 192h6v6H162V192M174 192h6v6H174V192M180 192h6v6H180V192M186 192h6v6H186V192"></path></svg>
