<?xml version="1.0" encoding="UTF-8" standalone="no"?>
<!-- Generator: Adobe Illustrator 16.0.0, SVG Export Plug-In . SVG Version: 6.00 Build 0)  -->

<svg
   xmlns:dc="http://purl.org/dc/elements/1.1/"
   xmlns:cc="http://creativecommons.org/ns#"
   xmlns:rdf="http://www.w3.org/1999/02/22-rdf-syntax-ns#"
   xmlns:svg="http://www.w3.org/2000/svg"
   xmlns="http://www.w3.org/2000/svg"
   xmlns:sodipodi="http://sodipodi.sourceforge.net/DTD/sodipodi-0.dtd"
   xmlns:inkscape="http://www.inkscape.org/namespaces/inkscape"
   version="1.1"
   id="salt_shaker"
   x="0px"
   y="0px"
   width="297px"
   height="309px"
   viewBox="0 0 297 309"
   enable-background="new 0 0 297 309"
   xml:space="preserve"
   inkscape:version="0.91 r13725"
   sodipodi:docname="salt-shaker.svg"><metadata
     id="metadata50"><rdf:RDF><cc:Work
         rdf:about=""><dc:format>image/svg+xml</dc:format><dc:type
           rdf:resource="http://purl.org/dc/dcmitype/StillImage" /></cc:Work></rdf:RDF></metadata><defs
     id="defs48" /><sodipodi:namedview
     pagecolor="#ffffff"
     bordercolor="#666666"
     borderopacity="1"
     objecttolerance="10"
     gridtolerance="10"
     guidetolerance="10"
     inkscape:pageopacity="0"
     inkscape:pageshadow="2"
     inkscape:window-width="1440"
     inkscape:window-height="851"
     id="namedview46"
     showgrid="false"
     inkscape:zoom="2.2944984"
     inkscape:cx="148.5"
     inkscape:cy="154.5"
     inkscape:window-x="0"
     inkscape:window-y="1"
     inkscape:window-maximized="1"
     inkscape:current-layer="salt_shaker" /><g
     id="shaker_parts"><path
       fill="#8DD9FF"
       d="M38.327,223.182c3.762,0,6.818,3.057,6.818,6.818s-3.056,6.818-6.818,6.818s-6.818-3.057-6.818-6.818   S34.564,223.182,38.327,223.182"
       id="path4" /><path
       fill="#8DD9FF"
       d="M38.327,250.455c3.762,0,6.818,3.056,6.818,6.817c0,3.763-3.056,6.818-6.818,6.818   s-6.818-3.056-6.818-6.818C31.509,253.511,34.564,250.455,38.327,250.455"
       id="path6" /><path
       fill="#8DD9FF"
       d="M65.6,236.818c3.762,0,6.818,3.056,6.818,6.818c0,3.762-3.056,6.818-6.818,6.818   c-3.762,0-6.818-3.057-6.818-6.818C58.781,239.874,61.837,236.818,65.6,236.818"
       id="path8" /><path
       fill="#8DD9FF"
       d="M86.054,230c3.762,0,6.818,3.057,6.818,6.818s-3.056,6.818-6.818,6.818c-3.762,0-6.818-3.057-6.818-6.818   S82.292,230,86.054,230"
       id="path10" /><path
       fill="#8DD9FF"
       d="M65.6,209.545c3.762,0,6.818,3.057,6.818,6.818c0,3.763-3.056,6.818-6.818,6.818   c-3.762,0-6.818-3.056-6.818-6.818C58.781,212.602,61.837,209.545,65.6,209.545"
       id="path12" /><path
       fill="#8DD9FF"
       d="M86.054,257.272c3.762,0,6.818,3.057,6.818,6.818s-3.056,6.818-6.818,6.818   c-3.762,0-6.818-3.057-6.818-6.818S82.292,257.272,86.054,257.272"
       id="path14" /><path
       fill="#8DD9FF"
       d="M58.781,264.091c3.762,0,6.818,3.057,6.818,6.818s-3.057,6.818-6.818,6.818s-6.818-3.057-6.818-6.818   S55.02,264.091,58.781,264.091"
       id="path16" /><path
       fill="#8DD9FF"
       d="M11.054,243.637c3.762,0,6.818,3.056,6.818,6.818c0,3.762-3.056,6.817-6.818,6.817   c-3.762,0-6.818-3.056-6.818-6.817C4.236,246.692,7.292,243.637,11.054,243.637"
       id="path18" /><path
       fill="#8DD9FF"
       d="M65.6,291.363c3.762,0,6.818,3.057,6.818,6.818S69.361,305,65.6,305c-3.762,0-6.818-3.057-6.818-6.818   S61.837,291.363,65.6,291.363"
       id="path20" /><path
       fill="#8DD9FF"
       d="M24.69,270.909c3.762,0,6.818,3.056,6.818,6.818c0,3.762-3.057,6.817-6.818,6.817   c-3.762,0-6.818-3.056-6.818-6.817C17.872,273.965,20.928,270.909,24.69,270.909"
       id="path22" /><path
       fill="#C2DBFF"
       d="M148.782,187.726l113.865-63.407c2.044-1.365,4.088-2.73,6.133-4.774c5.46-5.453,8.183-12.271,8.183-19.772   V69.09l-50.45-50.454h-30.682c-7.504,0-14.322,2.727-19.775,8.18c-2.045,2.047-3.409,4.091-4.774,6.136l-63.408,113.865   L148.782,187.726z"
       id="path24" /><path
       fill="#FFFFFF"
       d="M182.194,44.544c-3.409-2.044-7.504-0.682-9.548,2.727l-25.229,45.001c-2.044,3.409-0.682,7.5,2.73,9.545   c1.365,0.682,2.044,0.682,3.409,0.682c2.724,0,4.774-1.365,6.133-3.409l25.229-45.001   C186.962,49.997,185.604,45.909,182.194,44.544"
       id="path26" /><g
       id="g28"><path
         fill="#B0C4D8"
         d="M256.509,48.636v30.682c0,7.501-2.73,14.319-8.184,19.772c-2.044,2.047-4.088,3.409-6.132,4.774    l-42.858,23.866h56.485l-106.009,59.422l112.836-62.834c2.044-1.365,4.088-2.727,6.133-4.774    c5.453-5.453,8.183-12.271,8.183-19.772V69.09L256.509,48.636z"
         id="path30" /><polygon
         fill="#9FDFFF"
         points="128.328,167.271 199.335,127.73 118.78,127.73 107.87,146.82 108.55,147.5 148.78,187.73     149.812,187.152 148.782,187.726   "
         id="polygon32" /><polygon
         fill="#81CDEA"
         points="199.335,127.73 128.328,167.271 148.782,187.726 149.812,187.152 255.82,127.73   "
         id="polygon34" /></g><path
       fill="#B0C4D8"
       d="M81.962,175.455c-1.365,1.364-1.365,3.408-1.365,4.773c2.729,8.184,7.5,15.681,12.957,21.134   c6.136,6.139,13.636,10.228,21.134,12.957c1.365,0.68,3.409,0,4.774-1.364l17.728-17.725l-37.5-37.5L81.962,175.455z"
       id="path36" /><path
       fill="#014463"
       d="M288.56,61.59L234.01,7.04C232.64,5.68,231.28,5,229.24,5h-33.42c-10.9,0-21.811,4.09-29.311,12.27   c-2.729,2.73-4.779,6.14-6.819,9.55L94.24,144.77l-21.82,21.14c-4.78,4.77-6.82,12.27-4.09,19.09c0.44,1.32,0.91,2.61,1.42,3.88   c0.3-0.06,0.61-0.09,0.92-0.09c2.79,0,5.07,2.28,5.07,5.07c0,1.52-0.67,2.89-1.74,3.81c1.65,2.87,3.5,5.6,5.57,8.19   c0.73-0.4,1.57-0.63,2.46-0.63c2.8,0,5.07,2.27,5.07,5.06c0,1.04-0.31,2-0.84,2.81c2.55,2.4,5.24,4.57,8.09,6.511   c0.91-0.931,2.19-1.5,3.59-1.5c2.8,0,5.07,2.279,5.07,5.069c0,0.46-0.06,0.91-0.19,1.34c2.71,1.32,5.53,2.461,8.46,3.44   c2.05,0.67,4.09,0.67,6.14,0.67c4.77,0,9.54-2.04,12.95-5.45l21.82-21.819l117.949-65.45c3.41-2.05,6.82-4.09,9.551-6.82   c8.18-8.18,12.27-18.41,12.27-29.32V66.36C290.6,64.32,289.92,62.95,288.56,61.59z M120.15,213.63c-1.37,1.37-3.41,1.37-4.78,1.37   c-8.18-2.73-15-7.5-21.13-12.96c-6.14-6.13-10.23-12.95-12.96-21.13c-0.68-1.37,0-3.41,1.37-4.78l17.72-17.72l38.19,38.18   L120.15,213.63z M276.96,99.77c0,7.5-2.729,14.32-8.18,19.77c-2.04,2.05-4.09,3.41-6.13,4.78L148.78,187.73l-40.23-40.23   l63.41-113.87c1.37-2.04,2.73-4.08,4.771-6.13c4.779-6.14,11.6-8.86,19.09-8.86h30.689l50.45,50.45V99.77z"
       id="path38" /><path
       fill="#6D90A8"
       d="M129.007,187.047l-17.045,17.045c-1.365,1.365-3.409,1.365-4.774,1.365   c-6.818-2.044-13.636-6.139-19.089-10.913c2.044,2.73,4.091,5.46,6.136,7.504c6.136,6.133,13.636,10.228,21.137,12.951   c1.365,0.686,3.409,0,4.774-1.358l18.725-17.231L129.007,187.047z"
       id="path40" /></g></svg>