<?xml version="1.0" encoding="UTF-8" standalone="no"?>
<!-- Created with Inkscape (http://www.inkscape.org/) -->
<svg xmlns:dc="http://purl.org/dc/elements/1.1/" xmlns:cc="http://creativecommons.org/ns#" xmlns:rdf="http://www.w3.org/1999/02/22-rdf-syntax-ns#" xmlns:svg="http://www.w3.org/2000/svg" xmlns="http://www.w3.org/2000/svg" xmlns:sodipodi="http://sodipodi.sourceforge.net/DTD/sodipodi-0.dtd" xmlns:inkscape="http://www.inkscape.org/namespaces/inkscape" viewBox="0 0 99.758718 112.80069" id="svg2" version="1.1" inkscape:version="0.91 r13725" sodipodi:docname="puppe-lineart.svg">
  <title id="title4252">doll - lineart</title>
  <defs id="defs4"/>
  <sodipodi:namedview id="base" pagecolor="#ffffff" bordercolor="#666666" borderopacity="1.0" inkscape:pageopacity="0.0" inkscape:pageshadow="2" inkscape:zoom="1.979899" inkscape:cx="66.905723" inkscape:cy="58.887669" inkscape:document-units="mm" inkscape:current-layer="layer1" showgrid="false" inkscape:window-width="2560" inkscape:window-height="1420" inkscape:window-x="-2" inkscape:window-y="-3" inkscape:window-maximized="1" inkscape:snap-global="false" fit-margin-top="1" fit-margin-right="1" fit-margin-bottom="1" fit-margin-left="1"/>
  <metadata id="metadata7">
    <rdf:RDF>
      <cc:Work rdf:about="">
        <dc:format>image/svg+xml</dc:format>
        <dc:type rdf:resource="http://purl.org/dc/dcmitype/StillImage"/>
        <dc:title>doll - lineart</dc:title>
        <cc:license rdf:resource="http://creativecommons.org/publicdomain/zero/1.0/"/>
        <dc:date>2015-02-03</dc:date>
        <dc:creator>
          <cc:Agent>
            <dc:title>Frank Tremmel</dc:title>
          </cc:Agent>
        </dc:creator>
        <dc:subject>
          <rdf:Bag>
            <rdf:li>doll</rdf:li>
            <rdf:li>toy. child</rdf:li>
            <rdf:li>lineart</rdf:li>
            <rdf:li>puppe</rdf:li>
            <rdf:li>spielzeug</rdf:li>
            <rdf:li>kinder</rdf:li>
          </rdf:Bag>
        </dc:subject>
        <dc:description>a drawn doll</dc:description>
      </cc:Work>
      <cc:License rdf:about="http://creativecommons.org/publicdomain/zero/1.0/">
        <cc:permits rdf:resource="http://creativecommons.org/ns#Reproduction"/>
        <cc:permits rdf:resource="http://creativecommons.org/ns#Distribution"/>
        <cc:permits rdf:resource="http://creativecommons.org/ns#DerivativeWorks"/>
      </cc:License>
    </rdf:RDF>
  </metadata>
  <g inkscape:label="Ebene 1" inkscape:groupmode="layer" id="layer1" transform="translate(-74.182661,-207.13018)">
    <path style="fill:#000000;fill-rule:evenodd;stroke:none;stroke-width:1px;stroke-linecap:butt;stroke-linejoin:miter;stroke-opacity:1" d="m 95,301.29077 c 5.69603,2.84108 14.53617,3.32407 13.21429,11.42858 2.66483,-1.8315 5.59357,-3.92691 6.42857,-3.92858 L 127.5,307.3622 c 5.47619,-3.05303 10.95238,-1.20896 16.42857,0.35715 L 163.21429,304.14792 152.5,287.3622 Z" id="path4250" inkscape:connector-curvature="0" sodipodi:nodetypes="cccccccc"/>
    <path style="fill:#ffffff;fill-opacity:1;fill-rule:evenodd;stroke:#000000;stroke-width:1.77165353;stroke-linecap:butt;stroke-linejoin:miter;stroke-miterlimit:4;stroke-dasharray:none;stroke-opacity:1" d="m 112.41071,306.20149 c 2.35379,5.79579 5.85439,4.74186 9.54723,6.52048 l -2.8508,-12.0562 -1.96428,-0.80357 c -2.20234,1.61313 -4.8078,2.90377 -4.73215,6.33929 z" id="path4218" inkscape:connector-curvature="0" sodipodi:nodetypes="ccccc"/>
    <path style="fill:#ffffff;fill-opacity:1;fill-rule:evenodd;stroke:#9c9c9c;stroke-width:1.77165353;stroke-linecap:butt;stroke-linejoin:miter;stroke-miterlimit:4;stroke-dasharray:none;stroke-opacity:1" d="m 100.08929,242.18363 10.26785,20.71429 23.03572,-4.64286 -5.17857,-18.03571 z" id="path4224" inkscape:connector-curvature="0" sodipodi:nodetypes="ccccc"/>
    <path style="fill:#ffffff;fill-opacity:1;fill-rule:evenodd;stroke:#000000;stroke-width:1.77165353;stroke-linecap:butt;stroke-linejoin:miter;stroke-miterlimit:4;stroke-dasharray:none;stroke-opacity:1" d="m 112.23214,251.64792 c 3.1602,-0.66448 5.75724,2.644 8.39286,-5.26786 1.66536,1.64995 2.16294,4.73719 6.69643,2.85714 l 0.0893,7.41072 -14.55357,2.58928 z" id="path4226" inkscape:connector-curvature="0" sodipodi:nodetypes="cccccc"/>
    <path style="color:#000000;display:inline;overflow:visible;visibility:visible;opacity:1;fill:#ffffff;fill-opacity:1;fill-rule:nonzero;stroke:#000000;stroke-width:1.77165353;stroke-linecap:round;stroke-linejoin:bevel;stroke-miterlimit:4;stroke-dasharray:none;stroke-dashoffset:0;stroke-opacity:1;marker:none;enable-background:accumulate" d="m 130.71429,233.16577 c 0,8.13634 -4.83402,13.48215 -13.66072,13.48215 -3.89742,0 -7.92161,-1.9761 -11.20075,-4.38501 -4.1473,-3.04669 -7.102824,-7.0534 -7.102821,-11.59714 5e-6,-8.13634 8.137591,-12.5 16.964281,-12.5 8.8267,0 15.00001,6.86366 15.00001,15 z" id="path4168" inkscape:connector-curvature="0" sodipodi:nodetypes="ssssss"/>
    <path style="fill:#ffffff;fill-opacity:1;fill-rule:evenodd;stroke:#000000;stroke-width:1.77165353;stroke-linecap:butt;stroke-linejoin:miter;stroke-miterlimit:4;stroke-dasharray:none;stroke-opacity:1" d="m 100.71429,241.29077 c -0.38427,1.05611 0.79693,1.85131 1.78571,2.67858 -0.1315,0.55573 -0.57047,1.04051 -3.75,0.89285 -1.678645,-0.23201 -2.661656,-1.68139 -3.392857,-3.57143 -1.085176,-0.71493 -1.647548,-1.72861 -1.071429,-3.39285 -0.992866,-1.93758 -1.782932,-4.40667 1.339286,-5.44643 -1.865803,1.39807 -3.098237,-2.53345 -2.232143,-4.91072 -2.180371,-2.43239 -0.213174,-5.21041 0.178572,-7.85714 2.146355,-3.05845 4.0441,-4.50093 5.714285,-4.46428 3.482716,-3.16718 6.438526,-3.37819 9.464286,-3.03572 5.05344,-1.30458 5.77655,-0.19697 8.75,0 1.68498,-0.91787 3.27393,-0.23515 5.17857,0.89286 5.81434,0.41322 6.29154,2.53433 6.25,4.82143 4.15192,2.57125 3.74662,3.8644 2.14286,4.82143 7.9906,6.24546 1.76898,16.88105 1.07143,15.71428 0.31172,-3.39834 0.28176,-5.9425 -0.35715,-6.96428 -1.25218,-4.82716 -2.90113,-5.23918 -4.28571,-9.73215 l 0,2.76786 c -2.36002,-0.94012 -1.83869,-2.2404 -2.5,-3.39286 -1.02904,-0.16809 -0.30506,1.63598 0.53571,3.57143 -3.38654,-0.60592 -5.35225,-2.35623 -5.71429,-3.57143 0.21888,1.18897 0.44353,2.38434 -1.42856,1.25 -0.47619,1.36905 -0.2381,2.7381 0.71428,4.10715 -5.85441,-0.22054 -7.38988,-3.55072 -7.32143,-8.03572 0.10599,2.94113 0.55635,5.96172 -2.32142,8.21429 0.25175,-1.05308 0.0444,-1.92254 -0.89286,-2.5 -0.0366,4.26435 -0.32082,6.33038 -1.78572,8.21428 -0.12899,-1.62948 -0.85302,-2.10695 -1.42857,-1.78571 0.4359,3.30265 0.68668,6.32764 0.17857,8.21428 -3.39116,-2.1319 -2.98615,-4.40439 -4.46428,-6.60714 -1.169165,4.36067 0.0392,7.42449 4.10714,8.92857 -0.12398,0.2665 2.22223,-0.14069 -2.67857,1.42857 z" id="path4166" inkscape:connector-curvature="0" sodipodi:nodetypes="ccccccccccccccccccccccccccccccccc"/>
    <path style="fill:none;fill-rule:evenodd;stroke:#000000;stroke-width:1.0629921;stroke-linecap:round;stroke-linejoin:round;stroke-miterlimit:4;stroke-dasharray:none;stroke-opacity:1" d="m 118.66071,235.97696 c 0.65476,0.21492 1.30953,0.9642 1.96429,0.0893 0.35169,-0.25235 0.29183,-1.01914 1.51786,-0.17857 0.61928,0.13738 1.01756,-0.16725 1.16071,-0.98214" id="path4173" inkscape:connector-curvature="0" sodipodi:nodetypes="cccc"/>
    <path style="fill:#000000;fill-opacity:1;fill-rule:evenodd;stroke:#000000;stroke-width:0.99921262;stroke-linecap:butt;stroke-linejoin:miter;stroke-miterlimit:4;stroke-dasharray:none;stroke-opacity:1" d="m 122.14285,239.41577 c -1.20106,-1.04652 -1.9869,-0.64802 -2.49999,-0.0893 -0.47523,0.80357 -0.19383,1.96428 0.98214,2.23214 1.9249,-0.15155 2.65097,-0.42565 3.75,-1.25 0.5237,-0.71028 0.50026,-1.56556 0.35714,-2.05357 -0.71429,-0.37664 -1.875,-0.0568 -2.58929,1.16071 z" id="path4175" inkscape:connector-curvature="0" sodipodi:nodetypes="ccccccc"/>
    <ellipse style="color:#000000;display:inline;overflow:visible;visibility:visible;opacity:1;fill:#000000;fill-opacity:1;fill-rule:nonzero;stroke:#000000;stroke-width:0.99921262;stroke-linecap:round;stroke-linejoin:round;stroke-miterlimit:4;stroke-dasharray:none;stroke-dashoffset:0;stroke-opacity:1;marker:none;enable-background:accumulate" id="path4177" cx="45.930275" cy="254.68082" rx="2.2321429" ry="1.6071428" transform="matrix(0.96176091,-0.2738904,0.2738904,0.96176091,0,0)"/>
    <ellipse style="color:#000000;display:inline;overflow:visible;visibility:visible;opacity:1;fill:#000000;fill-opacity:1;fill-rule:nonzero;stroke:#000000;stroke-width:0.99921262;stroke-linecap:round;stroke-linejoin:round;stroke-miterlimit:4;stroke-dasharray:none;stroke-dashoffset:0;stroke-opacity:1;marker:none;enable-background:accumulate" id="path4177-6" cx="56.846214" cy="255.46858" rx="2.2321429" ry="1.6071428" transform="matrix(0.96176091,-0.2738904,0.2738904,0.96176091,0,0)"/>
    <path style="fill:#ffffff;fill-opacity:1;fill-rule:evenodd;stroke:#000000;stroke-width:1.77165353;stroke-linecap:butt;stroke-linejoin:miter;stroke-miterlimit:4;stroke-dasharray:none;stroke-opacity:1" d="m 139.10714,242.09435 c 0,0 9.76378,7.07473 13.39286,11.78571 3.16781,4.1122 6.96429,13.92857 6.96429,13.92857 0.13883,1.38388 1.77454,3.33241 -1.42858,2.76786 -7.72099,0.68251 -5.90679,3.31287 -8.75,5.26785 -0.98073,2.04044 -7.52986,-19.70197 -17.94642,-14.19642 l -1.51786,-18.57143 z" id="path4202" inkscape:connector-curvature="0" sodipodi:nodetypes="cscccccc"/>
    <path style="fill:#ffffff;fill-opacity:1;fill-rule:evenodd;stroke:#000000;stroke-width:1.77165353;stroke-linecap:butt;stroke-linejoin:miter;stroke-miterlimit:4;stroke-dasharray:none;stroke-opacity:1" d="m 100.26786,244.68363 c -1.907198,1.15749 -1.58739,2.53769 -1.160717,3.92857 l 5.714287,5.17857 c 0.36053,3.80783 1.37697,7.28771 0.89286,11.51786 -0.54076,1.89044 0.30415,2.81091 2.14285,3.03572 7.74464,-0.1881 15.32673,0.59913 23.92857,-4.73215 1.25967,-0.33334 1.41471,-2.83472 1.60714,-5.35714 0.0228,-4.93697 -0.25374,-9.86414 -1.69642,-14.19643 -0.44973,-1.35051 -0.70485,-2.13505 -1.51786,-2.85714 -1.6193,-0.24146 -2.57694,0.50957 -2.76785,2.41071 0,0 0.0437,3.29833 0.17857,5.53572 0.0808,1.33982 -0.26786,4.01785 -0.26786,4.01785 -0.1393,2.08945 -1.28692,2.28451 -2.85714,2.5 -3.23209,0.95822 -6.08613,1.16035 -9.10715,1.69643 -1.06323,0.3272 -2.14997,0.70613 -2.05357,-1.51785 -2.00792,-3.87088 -0.78611,-8.11443 -8.39286,-11.33929 -1.36999,-0.20692 -2.38906,-0.94022 -4.64285,0.17857 z" id="path4194" inkscape:connector-curvature="0" sodipodi:nodetypes="cccccccsccssccccc"/>
    <path style="fill:#ffffff;fill-opacity:1;fill-rule:evenodd;stroke:#000000;stroke-width:1.77165353;stroke-linecap:butt;stroke-linejoin:miter;stroke-miterlimit:4;stroke-dasharray:none;stroke-opacity:1" d="m 94.375,249.8622 c -4.714592,-0.33451 -14.70851,27.35304 -14.374999,29.91071 0.376001,2.88354 -0.604926,4.48115 1.785714,5.08929 5.488712,-1.68412 9.794499,-0.18893 11.160714,1.875 1.541397,0.39178 3.190945,-1.69769 3.482143,-3.39285 1.545769,-8.99842 6.435538,-12.2222 10.892858,-16.875 -2.1326,-12.42016 -5.59814,-16.1199 -12.94643,-16.60715 z" id="path4200" inkscape:connector-curvature="0" sodipodi:nodetypes="csccscc"/>
    <path style="fill:#ffffff;fill-opacity:1;fill-rule:evenodd;stroke:#000000;stroke-width:1.77165353;stroke-linecap:butt;stroke-linejoin:round;stroke-miterlimit:4;stroke-dasharray:none;stroke-opacity:1" d="m 140.17858,304.05864 c 1.74338,0.76417 3.59904,1.34118 4.36864,3.72832 6.84088,-5.052 8.51732,-8.97189 6.70278,-10.69261 l -4.82143,-1.25 z" id="path4232" inkscape:connector-curvature="0" sodipodi:nodetypes="ccccc"/>
    <path style="fill:#ffffff;fill-opacity:1;fill-rule:evenodd;stroke:#000000;stroke-width:1.77165353;stroke-linecap:butt;stroke-linejoin:miter;stroke-miterlimit:4;stroke-dasharray:none;stroke-opacity:1" d="m 105.53571,267.89792 c 0,0 -4.69557,4.89715 -6.249996,7.94642 -1.145822,2.24772 -3.125,7.85715 -3.125,7.85715 -0.405678,1.75596 -2.550444,3.51191 -3.839285,5.26786 -1.319461,4.27745 -0.304959,8.1659 -0.357143,12.23214 0.03933,5.45413 3.962346,4.4126 4.642857,4.64286 L 103.75,305.57649 c 1.53225,0.29555 2.12508,1.37394 2.23214,2.85714 l 0.0893,4.10714 c 1.0119,1.3048 2.02381,0.51898 3.03571,-0.26785 2.05392,-4.61642 6.03095,-11.89489 8.75,-12.23215 4.7386,-2.00089 6.41397,-0.98301 9.46429,0.625 2.2496,3.32819 5.55072,4.55333 9.46428,4.55358 l 3.83929,-0.35715 c 5.14198,-5.15677 9.01511,-8.54494 13.66071,-10.625 l 5.71429,-1.51785 c 3.04439,-0.004 3.32679,2.00151 3.83929,3.83928 l -1.60715,6.875 c 1.89731,1.57237 2.66458,-0.62202 3.92857,-1.16071 2.33564,-1.79322 0.75988,-3.97759 0.98215,-5.98215 3.06014,-1.66892 3.10015,-3.21201 0.44643,-4.64285 -2.13893,-1.06068 -3.80615,-1.85181 -4.28572,-1.96429 -1.98148,1.74473 -2.79951,-0.46105 -4.375,-2.67857 -0.81257,-1.02463 -1.03056,-2.67384 -3.30357,-3.83929 l -6.33929,-5.17857 c 0,0 -3.73605,-9.092 -6.875,-12.76785 -4.98343,-5.83582 -9.19642,-4.10714 -9.19642,-4.10714 -0.0209,0.59523 1.32209,2.35119 -0.80357,2.5 0,0 -1.14563,0.721 -2.14286,1.16071 -4.99478,2.20237 -10.54282,3.11105 -15.98215,3.57143 -2.91006,0.2463 -8.75001,-0.44643 -8.75001,-0.44643 z" id="path4204" inkscape:connector-curvature="0" sodipodi:nodetypes="cscccccccccccccccccccccccsccssc"/>
    <path style="fill:#ffffff;fill-opacity:1;fill-rule:evenodd;stroke:#000000;stroke-width:1.8695811;stroke-linecap:butt;stroke-linejoin:miter;stroke-miterlimit:4;stroke-dasharray:none;stroke-opacity:1" d="m 130.85316,242.25956 c 2.78077,0.009 2.84509,-0.49994 4.15938,-2.00629 l 2.21243,-3.31038 c 1.38646,-3.57802 2.77292,-4.46381 4.15938,-0.30095 0.73275,4.39845 -0.50565,4.70058 -1.06197,6.42015 2.75702,0.4323 4.73958,4.06367 -0.0995,5.37287 2.06532,3.77367 0.97534,4.17412 -1.12648,3.35451 -0.807,-0.1463 -2.45653,2.99108 -0.1894,3.64851 2.48852,0.49158 3.63208,1.75081 0.70744,4.37666 -0.74906,0.48259 0.37641,4.57745 -2.47793,1.00315 -1.9442,0.23578 -3.038,-0.0944 -3.80459,-1.99442 0.5546,-7.55683 -1.29864,-12.61623 -2.47873,-16.56381 z" id="path4198" inkscape:connector-curvature="0" sodipodi:nodetypes="ccccccccccccc"/>
    <path style="fill:#ffffff;fill-opacity:1;fill-rule:evenodd;stroke:#000000;stroke-width:1.77165353;stroke-linecap:butt;stroke-linejoin:miter;stroke-miterlimit:4;stroke-dasharray:none;stroke-opacity:1" d="m 100.44643,248.16578 c -1.734399,-1.88198 -2.589228,-1.11313 -3.839287,-1.69643 -1.533955,-1.16315 -2.169658,-0.5298 -3.035714,-0.35715 -2.5382,-0.11105 -2.625712,0.69691 -3.392857,1.25 -1.082155,0.74871 -2.424181,2.92318 0.625,3.66072 l 2.232143,-1.60715 c 0.86717,1.66006 2.157775,1.69164 3.571428,1.25 1.547932,0.20387 1.198584,0.43869 -0.295867,2.84183 -1.828312,2.33991 -0.285512,2.8533 2.170867,2.33675 4.410597,-0.67256 0.458073,1.88941 -0.09301,3.69769 -2.660333,4.17458 5.866257,-0.91136 4.561787,2.61358 -1.06448,1.43267 -1.27471,3.1847 1.16705,3.68238 -0.21413,3.10875 -2.10885,5.72647 2.60647,2.41443 4.5984,2.47984 -0.14282,-8.97746 -0.92085,-13.39022 -0.43943,-2.4923 -3.10709,-4.32298 -5.35714,-6.69643 z" id="path4196" inkscape:connector-curvature="0" sodipodi:nodetypes="cccccccccccccscc"/>
    <path style="fill:#ffffff;fill-opacity:1;fill-rule:evenodd;stroke:#000000;stroke-width:1.77165353;stroke-linecap:butt;stroke-linejoin:miter;stroke-miterlimit:4;stroke-dasharray:none;stroke-opacity:1" d="m 81.160714,283.25506 c -1.691767,1.34084 -2.234295,3.06476 -1.071428,5.35714 1.982551,-1.53655 8.670117,-1.70651 12.678571,0.17857 0.80598,-1.40919 1.411233,-2.85488 -0.357142,-4.73214 -5.351205,-1.64032 -7.505229,-0.5402 -11.250001,-0.80357 z" id="path4206" inkscape:connector-curvature="0" sodipodi:nodetypes="ccccc"/>
    <path style="fill:#ffffff;fill-opacity:1;fill-rule:evenodd;stroke:#000000;stroke-width:1.77165353;stroke-linecap:butt;stroke-linejoin:miter;stroke-miterlimit:4;stroke-dasharray:none;stroke-opacity:1" d="m 149.64286,274.32649 c 1.9068,-2.14184 2.33845,-5.02125 9.64285,-4.46429 1.14021,0.63975 2.97249,0.37982 1.875,3.92857 -4.05054,-1.84116 -9.375,4.46429 -9.375,4.46429 -1.29595,1.29595 -3.25238,-2.87218 -2.14285,-3.92857 z" id="path4208" inkscape:connector-curvature="0" sodipodi:nodetypes="ccccc"/>
    <path style="fill:#ffffff;fill-opacity:1;fill-rule:evenodd;stroke:#000000;stroke-width:1.77165353;stroke-linecap:butt;stroke-linejoin:miter;stroke-miterlimit:4;stroke-dasharray:none;stroke-opacity:1" d="m 81.071429,287.98721 c -2.472835,0 -3.921503,14.66758 -0.178572,16.87499 3.221441,1.89986 5.962274,-0.57878 5.892858,-2.05357 -0.509872,-1.90224 -1.278144,-6.68468 0.184916,-4.86027 0.603765,3.42887 1.325172,5.67446 2.887781,5.18863 2.021024,-0.94869 1.918805,-3.55872 2.127538,-4.11534 1.91333,-4.83856 0.185316,-8.63969 -0.378808,-11.03445 -3.897871,-1.12315 -6.582324,-0.99841 -10.535713,1e-5 z" id="path4210" inkscape:connector-curvature="0" sodipodi:nodetypes="cscccccc"/>
    <path style="fill:#ffffff;fill-opacity:1;fill-rule:evenodd;stroke:#000000;stroke-width:1.77165353;stroke-linecap:butt;stroke-linejoin:miter;stroke-miterlimit:4;stroke-dasharray:none;stroke-opacity:1" d="m 152.41071,277.3622 c -1.19327,1.78385 -2.17469,2.33989 -2.14285,6.25 -1.18518,3.12054 2.28234,3.30175 3.03571,1.60715 l 1.51786,-2.5 c 1.27043,-2.10525 1.85488,-0.45583 1.60714,0.71428 l 0.0893,3.83929 c 1.45008,5.054 5.75792,0.64906 6.875,-1.33929 2.86856,-7.15883 -0.94218,-11.11343 -3.2143,-11.96428 -2.96335,-1.99306 -7.26085,2.26755 -7.76786,3.39285 z" id="path4212" inkscape:connector-curvature="0" sodipodi:nodetypes="ccccccccc"/>
    <ellipse style="color:#000000;display:inline;overflow:visible;visibility:visible;opacity:1;fill:#000000;fill-opacity:1;fill-rule:nonzero;stroke:#000000;stroke-width:1.39764047;stroke-linecap:round;stroke-linejoin:round;stroke-miterlimit:4;stroke-dasharray:none;stroke-dashoffset:0;stroke-opacity:1;marker:none;enable-background:accumulate" id="path4228" cx="121.11607" cy="252.78035" rx="1.3030779" ry="1.4087329"/>
    <path style="fill:#ffffff;fill-opacity:1;fill-rule:evenodd;stroke:#000000;stroke-width:1.77165353;stroke-linecap:butt;stroke-linejoin:miter;stroke-miterlimit:4;stroke-dasharray:none;stroke-opacity:1" d="m 153.39286,293.79077 c -0.0396,7.73416 -7.57113,8.29424 -7.99873,14.46429 2.23129,1.19133 3.63064,3.08832 6.57015,3.57143 -0.73737,-1.8264 0.18429,-3.74461 1.15561,-5.55351 0.30175,-4.68749 3.14156,-9.95991 6.96939,-13.37506 -0.76959,-0.30183 -5.99518,-2.12981 -6.69642,0.89285 z" id="path4230" inkscape:connector-curvature="0" sodipodi:nodetypes="cccccc"/>
    <path style="fill:none;fill-rule:evenodd;stroke:#000000;stroke-width:1.0629921;stroke-linecap:round;stroke-linejoin:round;stroke-miterlimit:4;stroke-dasharray:none;stroke-opacity:1" d="m 98.035715,296.64792 c 5.723165,3.26005 12.787745,-0.89199 18.303575,-5 0.57678,0.86309 1.54101,1.72619 2.58928,2.58928 1.19048,0.89285 2.5,0.71429 3.92857,-0.53571 2.56743,-2.14774 3.27561,0.35264 4.91072,0.53571 4.20139,5.57914 5.57371,1.57454 6.60714,1.07143" id="path4234" inkscape:connector-curvature="0" sodipodi:nodetypes="cccccc"/>
    <path style="fill:none;fill-rule:evenodd;stroke:#000000;stroke-width:1px;stroke-linecap:round;stroke-linejoin:round;stroke-opacity:1" d="m 115.84056,278.47248 c 0.0334,-3.24585 -0.48157,-6.21755 -1.875,-8.75 -1.62691,3.58464 -1.58551,6.89123 -0.35715,10" id="path4236" inkscape:connector-curvature="0" sodipodi:nodetypes="ccc"/>
    <path style="fill:none;fill-rule:evenodd;stroke:#000000;stroke-width:1.0629921;stroke-linecap:round;stroke-linejoin:round;stroke-miterlimit:4;stroke-dasharray:none;stroke-opacity:1" d="m 120.92984,277.42719 0.0893,-3.03571 -1.33929,0.71429 c 0.67052,-1.24125 1.44377,-2.03732 1.42857,-6.25 2.08232,3.98295 2.69671,9.14025 3.66072,14.01785" id="path4238" inkscape:connector-curvature="0" sodipodi:nodetypes="ccccc"/>
    <path style="fill:none;fill-rule:evenodd;stroke:#000000;stroke-width:0.99921262;stroke-linecap:round;stroke-linejoin:round;stroke-miterlimit:4;stroke-dasharray:none;stroke-opacity:1" d="m 126.51786,271.82649 c -0.0113,3.63708 1.81,5.67071 3.66071,7.67857 1.04167,-0.0647 2.08333,-0.29433 3.125,1.25 1.40036,1.17369 1.01004,2.09157 0.80357,3.03571 -3.77504,3.65404 -4.35475,4.71126 -4.375,5.71429 3.56403,-0.98516 5.35876,0.15282 7.85715,0.44643" id="path4240" inkscape:connector-curvature="0" sodipodi:nodetypes="cccccc"/>
    <path style="fill:none;fill-rule:evenodd;stroke:#000000;stroke-width:1.16929138;stroke-linecap:round;stroke-linejoin:round;stroke-miterlimit:4;stroke-dasharray:none;stroke-opacity:1" d="m 130.35714,267.27292 c 2.27277,2.97863 2.8253,1.53376 3.48215,0.35714 -0.85311,2.55065 1.10227,2.60486 2.23214,3.39286 l -3.125,-1.25 c -1.63244,0.95669 -0.86106,2.63454 -0.17857,4.28571 2.42776,1.60816 4.9233,3.13159 6.42857,5.89286 1.9029,2.38979 -0.41295,2.31863 -1.07143,3.21428 -1.14273,1.04959 -2.96374,2.17454 0,2.76786 3.57965,1.57241 2.60606,2.42589 1.78571,3.30357 -2.75578,0.31351 -1.12499,0.99256 -1.33928,1.51786 1.46465,0.11273 0.91121,2.24355 0.53571,4.19643 0.0576,2.04701 -1.8839,2.4281 -3.125,3.39286 4.51962,-0.50582 6.51177,-6.90906 9.73215,-10.44643" id="path4242" inkscape:connector-curvature="0" sodipodi:nodetypes="ccccccccccccc"/>
    <path style="fill:none;fill-rule:evenodd;stroke:#000000;stroke-width:1.0629921;stroke-linecap:round;stroke-linejoin:round;stroke-miterlimit:4;stroke-dasharray:none;stroke-opacity:1" d="m 107.32143,271.29077 c 0.91184,4.78819 -1.04936,4.92103 0.80357,7.67858" id="path4244" inkscape:connector-curvature="0" sodipodi:nodetypes="cc"/>
    <path style="fill:none;fill-rule:evenodd;stroke:#000000;stroke-width:1.0629921;stroke-linecap:round;stroke-linejoin:round;stroke-miterlimit:4;stroke-dasharray:none;stroke-opacity:1" d="m 104.55357,275.84435 c -0.70872,3.24683 -3.1323,5.63623 -5.714284,7.94642 0.807567,-0.72568 2.273774,-2.13671 2.410714,0.71429" id="path4246" inkscape:connector-curvature="0" sodipodi:nodetypes="ccc"/>
    <path style="fill:none;fill-rule:evenodd;stroke:#000000;stroke-width:1.0629921;stroke-linecap:round;stroke-linejoin:round;stroke-miterlimit:4;stroke-dasharray:none;stroke-opacity:1" d="m 98.70853,286.46935 c -1.553621,1.29468 -3.149296,10.18194 -2.142857,8.75 0.577096,-0.82108 -2.20607,-2.70464 -2.410714,-2.5" id="path4248" inkscape:connector-curvature="0" sodipodi:nodetypes="csc"/>
    <path style="fill:#ffffff;fill-opacity:1;fill-rule:evenodd;stroke:#000000;stroke-width:1.77165353;stroke-linecap:butt;stroke-linejoin:miter;stroke-miterlimit:4;stroke-dasharray:none;stroke-opacity:1" d="m 153.92857,307.09435 c -1.33596,0.28441 -1.83738,2.16576 -2.05357,4.01785 0.88334,1.43563 1.9146,1.83588 3.03571,1.60715 2.88484,-0.49511 4.03874,-2.24937 4.10715,-3.39286 0,0 0.80357,-2.23215 0.35713,-2.14286 -3.02382,-0.17939 -3.03809,-0.25324 -5.44642,-0.0893 z" id="path4222" inkscape:connector-curvature="0" sodipodi:nodetypes="cccccc"/>
    <path style="fill:#ffffff;fill-opacity:1;fill-rule:evenodd;stroke:#000000;stroke-width:1.77165353;stroke-linecap:butt;stroke-linejoin:miter;stroke-miterlimit:4;stroke-dasharray:none;stroke-opacity:1" d="m 160.98214,293.6122 c -5.40023,-0.0836 -6.91151,6.21812 -7.14285,8.03572 l -0.62501,4.91072 6.51785,0.35713 c 2.15811,-2.19221 2.36324,-5.68642 3.21429,-8.75 0.10828,-1.94177 0.0351,-3.78274 -1.96428,-4.55357 z" id="path4220" inkscape:connector-curvature="0" sodipodi:nodetypes="cscccc"/>
    <path style="fill:#ffffff;fill-opacity:1;fill-rule:evenodd;stroke:#000000;stroke-width:1.77165353;stroke-linecap:butt;stroke-linejoin:miter;stroke-miterlimit:4;stroke-dasharray:none;stroke-opacity:1" d="m 119.01786,300.66577 c -2.28694,3.99646 -0.56145,11.61268 5.09563,12.90945 l 5.15056,-5.69262 c -0.12779,-1.64285 -2.00415,-4.53324 -3.19262,-6.68111 -2.04779,-1.79671 -4.29475,-2.53116 -7.05357,-0.53572 z" id="path4214" inkscape:connector-curvature="0" sodipodi:nodetypes="ccccc"/>
    <path style="fill:#ffffff;fill-opacity:1;fill-rule:evenodd;stroke:#000000;stroke-width:1.77165353;stroke-linecap:butt;stroke-linejoin:miter;stroke-miterlimit:4;stroke-dasharray:none;stroke-opacity:1" d="m 129.82143,308.70149 -4.88905,5.34183 c 0,0 2.95957,2.75467 5.69262,0.7296 3.33477,-2.47093 -0.80357,-6.07143 -0.80357,-6.07143 z" id="path4216" inkscape:connector-curvature="0" sodipodi:nodetypes="ccsc"/>
  </g>
</svg>
