<?xml version="1.0" encoding="UTF-8" standalone="no"?>
<svg
   width="180"
   height="179"
   version="1.1"
   id="svg270"
   sodipodi:docname="doggie_and_kitie.svg"
   inkscape:version="1.1.1 (3bf5ae0d25, 2021-09-20)"
   xmlns:inkscape="http://www.inkscape.org/namespaces/inkscape"
   xmlns:sodipodi="http://sodipodi.sourceforge.net/DTD/sodipodi-0.dtd"
   xmlns="http://www.w3.org/2000/svg"
   xmlns:svg="http://www.w3.org/2000/svg">
  <defs
     id="defs274" />
  <sodipodi:namedview
     id="namedview272"
     pagecolor="#ffffff"
     bordercolor="#666666"
     borderopacity="1.0"
     inkscape:pageshadow="2"
     inkscape:pageopacity="0.0"
     inkscape:pagecheckerboard="0"
     showgrid="false"
     width="200px"
     inkscape:zoom="3.5496536"
     inkscape:cx="123.39232"
     inkscape:cy="96.34743"
     inkscape:window-width="1920"
     inkscape:window-height="1080"
     inkscape:window-x="0"
     inkscape:window-y="0"
     inkscape:window-maximized="1"
     inkscape:current-layer="svg270" />
  <path
     style="fill:#ffffff;stroke:none"
     d="M 0,0 V 179 H 433 V 0 Z"
     id="path2" />
  <path
     style="fill:#715f45;stroke:none;stroke-width:0.625225"
     d="m 40.016989,63.93342 0.44683,0.19422 z"
     id="path4" />
  <path
     style="fill:#432905;stroke:none;stroke-width:0.625225"
     d="m 21.454762,73.061566 c 0.719892,13.64916 16.412613,6.460279 21.688024,15.149303 3.759141,6.190163 2.08051,13.908321 4.852734,20.392201 2.114726,4.94429 6.929218,8.64101 9.471319,13.40089 3.204964,6.00244 2.924522,14.49685 2.113385,20.97532 -0.573634,4.58252 -6.048978,7.09489 -6.645422,11.00679 -0.506541,3.324 6.267696,2.27931 8.004697,1.26492 2.095271,-1.22413 2.035558,-3.49296 3.145253,-5.27995 4.762161,-7.66879 1.009058,-19.85721 3.256625,-28.54972 0.844684,-3.26838 4.935929,-5.99952 5.125127,-9.32236 0.244884,-4.30362 -8.445488,-5.06146 -6.230124,-9.87128 1.543106,-3.351156 14.976853,-5.361232 18.955385,-7.608154 0.0054,6.720844 -0.619257,19.328114 5.510905,24.329554 3.902715,3.18424 10.46225,-0.5968 14.61657,-1.82117 2.49312,-0.73484 10.22407,-0.15773 12.62395,0.86586 2.66153,1.13529 4.02282,4.36561 6.22409,6.06986 5.41093,4.19039 12.47432,6.34968 15.58068,12.50652 2.85876,5.66509 -4.3945,17.50798 5.83898,18.89352 1.74504,0.23655 3.60884,-0.13344 5.35457,-0.24879 0.75142,-5.16575 2.62932,-14.29584 0.46093,-19.22738 -1.17746,-2.67726 -4.5817,-4.65593 -6.46965,-6.99177 -3.57061,-4.41821 -5.50017,-11.62289 -4.05501,-16.89677 h 1.34183 c 2.50587,7.97294 6.05165,22.81414 17.44381,23.88854 -1.18351,-4.98862 -7.46528,-9.93647 -9.79269,-15.14883 C 144.7758,109.42611 150.11762,96.401961 134.16861,90.140888 123.1495,85.815255 110.77581,87.749704 99.281008,88.187445 90.41686,88.525091 80.790556,87.074591 72.444364,84.397091 60.011622,80.408694 58.540304,64.871583 44.265899,63.848896 c -7.190877,-0.5152 -7.920162,4.124877 -12.757464,7.165305 -2.802416,1.761286 -6.708487,1.987412 -10.053673,2.047365 z"
     id="path6" />
  <path
     style="fill:#a19583;stroke:none;stroke-width:0.625225"
     d="m 45.607731,63.739206 v 0.582649 h 2.012747 z"
     id="path8" />
  <path
     style="fill:#d1c9c1;stroke:none;stroke-width:0.625225"
     d="m 48.738894,64.516069 0.446831,0.194218 z"
     id="path10" />
  <path
     style="fill:#715f45;stroke:none;stroke-width:0.625225"
     d="m 35.096492,67.040878 0.224086,0.388409 z"
     id="path12" />
  <path
     style="fill:#ada191;stroke:none;stroke-width:0.625225"
     d="m 52.987805,66.652445 0.670915,0.582647 z"
     id="path14" />
  <path
     style="fill:#958773;stroke:none;stroke-width:0.625225"
     d="m 54.329636,67.817741 0.670916,0.582645 z"
     id="path16" />
  <path
     style="fill:#a19583;stroke:none;stroke-width:0.625225"
     d="m 34.202162,68.400386 0.670914,0.582649 z"
     id="path18" />
  <path
     style="fill:#ada191;stroke:none;stroke-width:0.625225"
     d="m 57.013299,70.730977 0.670916,0.582647 z"
     id="path20" />
  <path
     style="fill:#a19583;stroke:none;stroke-width:0.625225"
     d="m 30.847583,71.313624 0.670915,0.582648 z"
     id="path22" />
  <path
     style="fill:#ada191;stroke:none;stroke-width:0.625225"
     d="m 28.61142,72.090469 0.446829,0.194254 z"
     id="path24" />
  <path
     style="fill:#d1c9c1;stroke:none;stroke-width:0.625225"
     d="m 21.902262,72.673116 0.446831,0.194255 z"
     id="path26" />
  <path
     style="fill:#a19583;stroke:none;stroke-width:0.625225"
     d="m 22.796593,72.47892 v 0.582646 h 3.35458 l -3.35458,-0.582646 m 35.558538,0 0.670915,0.582646 z"
     id="path28" />
  <path
     style="fill:#b9afa1;stroke:none;stroke-width:0.625225"
     d="m 20.783845,73.061566 v 1.747943 h 0.670917 z"
     id="path30" />
  <path
     style="fill:#a19583;stroke:none;stroke-width:0.625225"
     d="m 59.696963,74.226862 0.670915,0.582647 z"
     id="path32" />
  <path
     style="fill:#c5bdb1;stroke:none;stroke-width:0.625225"
     d="m 21.678176,76.363255 0.224086,0.388393 z"
     id="path34" />
  <path
     style="fill:#ada191;stroke:none;stroke-width:0.625225"
     d="m 61.038795,75.974804 0.670914,0.582647 z"
     id="path36" />
  <path
     style="fill:#a19583;stroke:none;stroke-width:0.625225"
     d="m 22.125677,77.722747 0.670916,0.582648 -0.670916,-0.582648 m 40.254949,0 0.670915,0.582648 z"
     id="path38" />
  <path
     style="fill:#ada191;stroke:none;stroke-width:0.625225"
     d="m 22.796593,78.888043 0.670914,0.582646 z"
     id="path40" />
  <path
     style="fill:#a19583;stroke:none;stroke-width:0.625225"
     d="m 25.480256,81.218632 0.670917,0.582648 -0.670917,-0.582648 m 6.485744,2.524787 0.446829,0.194255 z"
     id="path42" />
  <path
     style="fill:#715f45;stroke:none;stroke-width:0.625225"
     d="m 33.30783,83.743419 0.446832,0.194255 z"
     id="path44" />
  <path
     style="fill:#d1c9c1;stroke:none;stroke-width:0.625225"
     d="m 36.885825,83.549222 v 0.582648 h 2.012748 z"
     id="path46" />
  <path
     style="fill:#b9afa1;stroke:none;stroke-width:0.625225"
     d="m 72.220949,84.326067 0.44683,0.194254 z"
     id="path48" />
  <path
     style="fill:#d1c9c1;stroke:none;stroke-width:0.625225"
     d="m 74.904613,84.908714 0.446829,0.194254 z"
     id="path50" />
  <path
     style="fill:#a19583;stroke:none;stroke-width:0.625225"
     d="m 76.917359,85.491362 0.446831,0.194255 z"
     id="path52" />
  <path
     style="fill:#ada191;stroke:none;stroke-width:0.625225"
     d="m 79.824439,85.879812 v 0.582648 h 2.012746 z"
     id="path54" />
  <path
     style="fill:#b9afa1;stroke:none;stroke-width:0.625225"
     d="m 83.626517,86.656657 0.446831,0.194254 z"
     id="path56" />
  <path
     style="fill:#a19583;stroke:none;stroke-width:0.625225"
     d="m 108.67383,86.46246 v 0.582647 h 4.69639 z"
     id="path58" />
  <path
     style="fill:#ada191;stroke:none;stroke-width:0.625225"
     d="m 86.310182,87.239304 0.446829,0.194255 z"
     id="path60" />
  <path
     style="fill:#d1c9c1;stroke:none;stroke-width:0.625225"
     d="m 104.42491,87.239304 0.44683,0.194255 z"
     id="path62" />
  <path
     style="fill:#958773;stroke:none;stroke-width:0.625225"
     d="m 105.76674,87.239304 0.44683,0.194255 z"
     id="path64" />
  <path
     style="fill:#b9afa1;stroke:none;stroke-width:0.625225"
     d="m 114.48864,87.239304 0.44683,0.194255 z"
     id="path66" />
  <path
     style="fill:#c5bdb1;stroke:none;stroke-width:0.625225"
     d="m 43.147481,88.016206 0.224087,0.388393 z"
     id="path68" />
  <path
     style="fill:#a19583;stroke:none;stroke-width:0.625225"
     d="m 88.993846,87.821953 0.44683,0.194253 z"
     id="path70" />
  <path
     style="fill:#d1c9c1;stroke:none;stroke-width:0.625225"
     d="m 89.888176,87.627755 v 0.582648 h 2.012743 l -2.012743,-0.582648 m 6.709152,0 v 0.582648 h 2.68368 z"
     id="path72" />
  <path
     style="fill:#a19583;stroke:none;stroke-width:0.625225"
     d="m 99.281008,87.627755 v 0.582648 h 2.012732 z"
     id="path74" />
  <path
     style="fill:#715f45;stroke:none;stroke-width:0.625225"
     d="m 101.74125,87.821953 0.44683,0.194253 -0.44683,-0.194253 m 15.43105,0 0.44684,0.194253 -0.44684,-0.194253 m 7.38008,0 0.44683,0.194253 z"
     id="path76" />
  <path
     style="fill:#c5bdb1;stroke:none;stroke-width:0.625225"
     d="m 125.89421,87.821953 0.44683,0.194253 z"
     id="path78" />
  <path
     style="fill:#b9afa1;stroke:none;stroke-width:0.625225"
     d="m 128.57787,88.404599 0.44683,0.194255 z"
     id="path80" />
  <path
     style="fill:#c5bdb1;stroke:none;stroke-width:0.625225"
     d="m 43.818399,89.764149 0.224084,0.388393 z"
     id="path82" />
  <path
     style="fill:#a19583;stroke:none;stroke-width:0.625225"
     d="m 135.51045,90.540993 0.67091,0.582648 z"
     id="path84" />
  <path
     style="fill:#958773;stroke:none;stroke-width:0.625225"
     d="M 44.489314,91.512091 44.7134,91.900484 Z"
     id="path86" />
  <path
     style="fill:#d1c9c1;stroke:none;stroke-width:0.625225"
     d="M 44.489314,92.677386 44.7134,93.065779 Z"
     id="path88" />
  <path
     style="fill:#ada191;stroke:none;stroke-width:0.625225"
     d="m 139.53594,92.871583 0.67092,0.582648 z"
     id="path90" />
  <path
     style="fill:#958773;stroke:none;stroke-width:0.625225"
     d="m 44.936815,94.619526 v 1.747941 h 0.670916 z"
     id="path92" />
  <path
     style="fill:#997349;stroke:none;stroke-width:0.625225"
     d="m 64.393374,152.88429 c 6.56424,11.82774 13.188863,-7.152 18.177123,-7.70844 3.347869,-0.37346 6.420663,4.5499 7.988591,6.54314 -1.283462,0.24239 -13.497482,0.40259 -8.313987,4.06221 2.516606,1.77708 9.895338,0.59897 13.010396,0.59897 h 24.823883 c 3.71219,0 8.55485,-0.69043 12.06576,0.52089 5.04595,1.74037 0.48977,4.35354 2.52666,6.84261 2.77289,3.38985 9.69206,-4.47939 4.76484,-8.28467 -3.56255,-2.75126 -10.83126,-2.84739 -15.33176,-2.47567 -2.48238,0.20511 -6.25293,1.28241 -8.32674,-0.45038 -4.01207,-3.35371 -2.69373,-13.14162 -4.73465,-17.71074 -3.26534,-7.31339 -9.89936,-9.59912 -15.787993,-14.56619 -10.628644,-0.17014 -10.063732,-19.35503 -10.063732,-25.636494 -4.348877,1.670275 -8.008052,3.726322 -12.747401,4.720086 -1.770547,0.371262 -4.706475,0.232302 -5.633681,1.874258 -2.774907,4.91481 4.297888,6.48948 5.179471,10.3029 0.86481,3.73821 -4.98893,8.86685 -4.909762,13.40043 0.09325,5.37025 4.830594,8.06209 6.589734,12.81824 2.206644,5.96633 -3.97182,12.41682 -9.276752,15.14885 z"
     id="path94" />
  <path
     style="fill:#a19583;stroke:none;stroke-width:0.625225"
     d="m 141.54868,94.619526 0.67093,0.582647 z"
     id="path96" />
  <path
     style="fill:#d1c9c1;stroke:none;stroke-width:0.625225"
     d="m 45.160229,96.75592 0.224086,0.388393 z"
     id="path98" />
  <path
     style="fill:#958773;stroke:none;stroke-width:0.625225"
     d="m 142.89053,96.367467 0.6709,0.582649 z"
     id="path100" />
  <path
     style="fill:#715f45;stroke:none;stroke-width:0.625225"
     d="m 45.831146,99.08651 0.224085,0.388391 z"
     id="path102" />
  <path
     style="fill:#a19583;stroke:none;stroke-width:0.625225"
     d="m 45.831146,100.2518 0.224085,0.3884 z"
     id="path104" />
  <path
     style="fill:#6d4f27;stroke:none;stroke-width:0.625225"
     d="m 85.191765,99.863353 v 3.495887 h 0.670915 z"
     id="path106" />
  <path
     style="fill:#d1c9c1;stroke:none;stroke-width:0.625225"
     d="m 45.831146,101.4171 0.224085,0.38839 z"
     id="path108" />
  <path
     style="fill:#6d4f27;stroke:none;stroke-width:0.625225"
     d="m 65.735207,101.6113 v 4.66118 h 0.670915 z"
     id="path110" />
  <path
     style="fill:#897b63;stroke:none;stroke-width:0.625225"
     d="m 146.46852,102.5824 0.22409,0.38839 z"
     id="path112" />
  <path
     style="fill:#a19583;stroke:none;stroke-width:0.625225"
     d="m 46.278646,103.35924 v 1.74794 h 0.670916 z"
     id="path114" />
  <path
     style="fill:#b9afa1;stroke:none;stroke-width:0.625225"
     d="m 47.172977,106.66092 0.224085,0.3884 -0.224085,-0.3884 m 100.637373,0 0.22408,0.3884 z"
     id="path116" />
  <path
     style="fill:#715f45;stroke:none;stroke-width:0.625225"
     d="m 147.58693,107.43777 v 5.24383 h 0.67091 z"
     id="path118" />
  <path
     style="fill:#a19583;stroke:none;stroke-width:0.625225"
     d="m 49.633226,111.5163 0.670915,0.58266 z"
     id="path120" />
  <path
     style="fill:#d1c9c1;stroke:none;stroke-width:0.625225"
     d="m 140.20686,112.6816 v 5.82647 h 0.67092 z"
     id="path122" />
  <path
     style="fill:#a19583;stroke:none;stroke-width:0.625225"
     d="m 50.975056,113.26424 0.670917,0.58266 z"
     id="path124" />
  <path
     style="fill:#c5bdb1;stroke:none;stroke-width:0.625225"
     d="m 143.11394,114.818 0.22408,0.38839 z"
     id="path126" />
  <path
     style="fill:#ada191;stroke:none;stroke-width:0.625225"
     d="m 52.316888,115.0122 0.670917,0.58263 z"
     id="path128" />
  <path
     style="fill:#c5bdb1;stroke:none;stroke-width:0.625225"
     d="m 148.25784,116.17748 v 1.74795 h 0.67093 z"
     id="path130" />
  <path
     style="fill:#958773;stroke:none;stroke-width:0.625225"
     d="m 110.01566,116.76013 0.6709,0.58265 -0.6709,-0.58265 m -55.686024,0.58265 0.670916,0.58265 z"
     id="path132" />
  <path
     style="fill:#a19583;stroke:none;stroke-width:0.625225"
     d="m 115.38297,117.34278 v 0.58265 h 2.01274 z"
     id="path134" />
  <path
     style="fill:#c5bdb1;stroke:none;stroke-width:0.625225"
     d="m 144.45577,118.31388 0.22408,0.38839 z"
     id="path136" />
  <path
     style="fill:#a19583;stroke:none;stroke-width:0.625225"
     d="m 55.671469,119.09072 0.670914,0.58265 z"
     id="path138" />
  <path
     style="fill:#715f45;stroke:none;stroke-width:0.625225"
     d="m 149.15218,119.47918 0.22409,0.38821 z"
     id="path140" />
  <path
     style="fill:#ada191;stroke:none;stroke-width:0.625225"
     d="m 120.07938,119.67337 0.67092,0.58265 z"
     id="path142" />
  <path
     style="fill:#c5bdb1;stroke:none;stroke-width:0.625225"
     d="m 145.12668,120.06199 0.22409,0.38805 z"
     id="path144" />
  <path
     style="fill:#958773;stroke:none;stroke-width:0.625225"
     d="m 121.42122,121.42132 0.67091,0.58264 z"
     id="path146" />
  <path
     style="fill:#a19583;stroke:none;stroke-width:0.625225"
     d="m 141.54868,121.42132 v 2.33059 h 0.67093 z"
     id="path148" />
  <path
     style="fill:#c5bdb1;stroke:none;stroke-width:0.625225"
     d="m 145.79761,121.80995 0.22407,0.38804 z"
     id="path150" />
  <path
     style="fill:#715f45;stroke:none;stroke-width:0.625225"
     d="m 150.49401,122.39259 0.22408,0.38805 z"
     id="path152" />
  <path
     style="fill:#958773;stroke:none;stroke-width:0.625225"
     d="m 146.2451,123.16927 0.67092,0.58264 z"
     id="path154" />
  <path
     style="fill:#b9afa1;stroke:none;stroke-width:0.625225"
     d="m 58.355131,124.33456 v 1.74793 h 0.670915 z"
     id="path156" />
  <path
     style="fill:#958773;stroke:none;stroke-width:0.625225"
     d="m 124.7758,124.33456 0.67091,0.58264 z"
     id="path158" />
  <path
     style="fill:#7d6d53;stroke:none;stroke-width:0.625225"
     d="m 142.44302,125.30583 0.22409,0.38805 z"
     id="path160" />
  <path
     style="fill:#897b63;stroke:none;stroke-width:0.625225"
     d="m 151.83585,125.30583 0.22408,0.38805 z"
     id="path162" />
  <path
     style="fill:#ada191;stroke:none;stroke-width:0.625225"
     d="m 127.45946,126.08249 0.6709,0.58266 z"
     id="path164" />
  <path
     style="fill:#958773;stroke:none;stroke-width:0.625225"
     d="m 147.58693,126.08249 0.67091,0.58266 z"
     id="path166" />
  <path
     style="fill:#a19583;stroke:none;stroke-width:0.625225"
     d="m 142.89053,126.66515 0.6709,0.58263 z"
     id="path168" />
  <path
     style="fill:#715f45;stroke:none;stroke-width:0.625225"
     d="m 59.249461,127.63642 0.224087,0.38804 z"
     id="path170" />
  <path
     style="fill:#958773;stroke:none;stroke-width:0.625225"
     d="m 130.81403,127.83045 0.67092,0.58264 z"
     id="path172" />
  <path
     style="fill:#a19583;stroke:none;stroke-width:0.625225"
     d="m 59.026046,128.41309 v 2.33059 h 0.670917 z"
     id="path174" />
  <path
     style="fill:#958773;stroke:none;stroke-width:0.625225"
     d="m 66.406122,128.99573 0.670915,0.58265 z"
     id="path176" />
  <path
     style="fill:#ada191;stroke:none;stroke-width:0.625225"
     d="m 133.49769,129.57838 0.67092,0.58265 -0.67092,-0.58265 m 12.0765,0.58265 0.67091,0.58265 z"
     id="path178" />
  <path
     style="fill:#d1c9c1;stroke:none;stroke-width:0.625225"
     d="m 59.026046,130.74368 v 3.49589 h 0.670917 l -0.670917,-3.49589 m 6.709161,1.1653 v 4.07852 h 0.670915 z"
     id="path180" />
  <path
     style="fill:#ada191;stroke:none;stroke-width:0.625225"
     d="m 156.97976,131.90898 0.67091,0.58264 -0.67091,-0.58264 m -19.45656,1.16529 0.67091,0.58265 z"
     id="path182" />
  <path
     style="fill:#958773;stroke:none;stroke-width:0.625225"
     d="m 158.9925,133.65692 0.67092,0.58265 -0.67092,-0.58265 m -4.69641,0.58265 0.67092,0.58264 z"
     id="path184" />
  <path
     style="fill:#d1c9c1;stroke:none;stroke-width:0.625225"
     d="m 139.08844,135.21084 0.22409,0.38803 z"
     id="path186" />
  <path
     style="fill:#715f45;stroke:none;stroke-width:0.625225"
     d="m 159.88684,135.21084 0.22408,0.38803 z"
     id="path188" />
  <path
     style="fill:#a19583;stroke:none;stroke-width:0.625225"
     d="m 65.735207,135.9875 v 5.24383 h 0.670915 z"
     id="path190" />
  <path
     style="fill:#d1c9c1;stroke:none;stroke-width:0.625225"
     d="m 159.44,136.18153 0.44684,0.19461 z"
     id="path192" />
  <path
     style="fill:#a19583;stroke:none;stroke-width:0.625225"
     d="m 151.61243,136.57015 v 2.33059 h 0.67091 z"
     id="path194" />
  <path
     style="fill:#cbb9a5;stroke:none;stroke-width:0.625225"
     d="m 112.02839,137.73544 v 1.74795 h 0.67092 z"
     id="path196" />
  <path
     style="fill:#a19583;stroke:none;stroke-width:0.625225"
     d="m 140.43028,138.12407 0.22408,0.38804 z"
     id="path198" />
  <path
     style="fill:#b39777;stroke:none;stroke-width:0.625225"
     d="m 73.786196,138.3181 v 2.33059 h 0.670915 z"
     id="path200" />
  <path
     style="fill:#d1c9c1;stroke:none;stroke-width:0.625225"
     d="m 59.026046,138.90074 v 2.91325 h 0.670917 l -0.670917,-2.91325 m 92.586384,0 v 11.0703 h 0.67091 z"
     id="path202" />
  <path
     style="fill:#a19583;stroke:none;stroke-width:0.625225"
     d="m 140.87778,140.64869 v 2.91324 h 0.6709 z"
     id="path204" />
  <path
     style="fill:#715f45;stroke:none;stroke-width:0.625225"
     d="m 65.735207,141.23133 v 5.24383 h 0.670915 z"
     id="path206" />
  <path
     style="fill:#d3c3af;stroke:none;stroke-width:0.625225"
     d="m 73.115279,141.23133 v 1.74795 h 0.670917 z"
     id="path208" />
  <path
     style="fill:#a19583;stroke:none;stroke-width:0.625225"
     d="m 59.026046,141.81399 v 1.74794 h 0.670917 z"
     id="path210" />
  <path
     style="fill:#715f45;stroke:none;stroke-width:0.625225"
     d="m 59.249461,143.95054 0.224087,0.38806 z"
     id="path212" />
  <path
     style="fill:#cbb9a5;stroke:none;stroke-width:0.625225"
     d="m 113.37022,143.56193 v 3.49587 h 0.67093 z"
     id="path214" />
  <path
     style="fill:#d1c9c1;stroke:none;stroke-width:0.625225"
     d="m 140.87778,143.56193 v 2.33059 h 0.6709 z"
     id="path216" />
  <path
     style="fill:#a19583;stroke:none;stroke-width:0.625225"
     d="m 58.578546,146.28114 0.224087,0.38804 z"
     id="path218" />
  <path
     style="fill:#ada191;stroke:none;stroke-width:0.625225"
     d="m 138.86502,147.0578 0.67092,0.58265 z"
     id="path220" />
  <path
     style="fill:#d1c9c1;stroke:none;stroke-width:0.625225"
     d="m 138.19411,147.64045 v 1.74795 h 0.67091 z"
     id="path222" />
  <path
     style="fill:#d9cbbb;stroke:none;stroke-width:0.625225"
     d="m 114.04115,148.2231 v 1.74794 h 0.67091 z"
     id="path224" />
  <path
     style="fill:#d1c9c1;stroke:none;stroke-width:0.625225"
     d="m 63.051541,149.97104 v 3.49589 h 0.670918 z"
     id="path226" />
  <path
     style="fill:#d3c3af;stroke:none;stroke-width:0.625225"
     d="m 83.179017,151.13634 v 0.58265 h 2.012748 z"
     id="path228" />
  <path
     style="fill:#a19583;stroke:none;stroke-width:0.625225"
     d="m 139.53594,151.13634 0.67092,0.58265 z"
     id="path230" />
  <path
     style="fill:#cbb9a5;stroke:none;stroke-width:0.625225"
     d="m 85.86268,151.71899 v 0.58266 h 4.025496 z"
     id="path232" />
  <path
     style="fill:#bfa98f;stroke:none;stroke-width:0.625225"
     d="m 114.93547,152.10762 0.22409,0.38804 z"
     id="path234" />
  <path
     style="fill:#b39777;stroke:none;stroke-width:0.625225"
     d="m 115.38297,152.88429 v 0.58264 h 7.38008 z"
     id="path236" />
  <path
     style="fill:#cbb9a5;stroke:none;stroke-width:0.625225"
     d="m 130.81403,152.88429 v 0.58264 h 2.68366 z"
     id="path238" />
  <path
     style="fill:#715f45;stroke:none;stroke-width:0.625225"
     d="m 151.16493,153.27292 0.22409,0.38805 z"
     id="path240" />
  <path
     style="fill:#cbb9a5;stroke:none;stroke-width:0.625225"
     d="m 80.495353,153.46693 v 1.74795 h 0.670917 z"
     id="path242" />
  <path
     style="fill:#ada191;stroke:none;stroke-width:0.625225"
     d="m 151.16493,154.4382 0.22409,0.38804 z"
     id="path244" />
  <path
     style="fill:#958773;stroke:none;stroke-width:0.625225"
     d="m 61.709709,154.63223 0.670917,0.58265 z"
     id="path246" />
  <path
     style="fill:#d1c9c1;stroke:none;stroke-width:0.625225"
     d="m 52.540303,155.6035 0.224086,0.38804 z"
     id="path248" />
  <path
     style="fill:#ada191;stroke:none;stroke-width:0.625225"
     d="m 61.038795,155.21488 0.670914,0.58263 z"
     id="path250" />
  <path
     style="fill:#715f45;stroke:none;stroke-width:0.625225"
     d="m 144.67985,155.4089 0.44683,0.1946 -0.44683,-0.1946 m 2.90708,-0.19402 v 0.58263 h 2.68367 l -2.68367,-0.58263 m -94.151624,0.77666 0.446829,0.19461 z"
     id="path252" />
  <path
     style="fill:#897b63;stroke:none;stroke-width:0.625225"
     d="m 58.355131,155.79751 v 0.58266 h 2.012747 z"
     id="path254" />
  <path
     style="fill:#e5ddd1;stroke:none;stroke-width:0.625225"
     d="m 87.875428,156.38017 v 0.58265 h 16.101982 z"
     id="path256" />
  <path
     style="fill:#cbb9a5;stroke:none;stroke-width:0.625225"
     d="m 103.97741,156.38017 v 0.58265 h 11.40556 z"
     id="path258" />
  <path
     style="fill:#e5ddd1;stroke:none;stroke-width:0.625225"
     d="m 115.38297,156.38017 v 0.58265 h 10.73466 z"
     id="path260" />
  <path
     style="fill:#cbb9a5;stroke:none;stroke-width:0.625225"
     d="m 141.54868,158.12811 v 2.91325 h 0.67093 z"
     id="path262" />
  <path
     style="fill:#c5b199;stroke:none;stroke-width:0.625225"
     d="m 135.73386,159.68204 0.22409,0.38803 z"
     id="path264" />
  <path
     style="fill:#ada191;stroke:none;stroke-width:0.625225"
     d="m 151.38902,165.31391 0.44683,0.1946 z"
     id="path266" />
  <path
     style="fill:#a19583;stroke:none;stroke-width:0.625225"
     d="m 165.03074,165.11987 v 0.58266 h 2.01275 z"
     id="path268" />
</svg>
