<?xml version="1.0" encoding="UTF-8" standalone="no"?>
<!-- Created with Inkscape (http://www.inkscape.org/) -->

<svg
   xmlns:dc="http://purl.org/dc/elements/1.1/"
   xmlns:cc="http://creativecommons.org/ns#"
   xmlns:rdf="http://www.w3.org/1999/02/22-rdf-syntax-ns#"
   xmlns:svg="http://www.w3.org/2000/svg"
   xmlns="http://www.w3.org/2000/svg"
   xmlns:xlink="http://www.w3.org/1999/xlink"
   xmlns:sodipodi="http://sodipodi.sourceforge.net/DTD/sodipodi-0.dtd"
   xmlns:inkscape="http://www.inkscape.org/namespaces/inkscape"
   width="30mm"
   height="32mm"
   viewBox="0 0 106.29921 113.38582"
   id="svg2"
   version="1.1"
   inkscape:version="0.91 r13725"
   sodipodi:docname="Gans-lineart.svg">
  <title
     id="title4136">goose - lineart</title>
  <defs
     id="defs4">
    <pattern
       inkscape:collect="always"
       xlink:href="#Polkadots-large"
       id="pattern5834"
       patternTransform="matrix(0.88716126,0,0,0.99322736,3.9445406,-1.0275665)" />
    <pattern
       inkscape:collect="always"
       xlink:href="#Polkadots-large"
       id="pattern5740"
       patternTransform="matrix(0.8252895,0,0,0.86948367,3.9445406,-1.0275665)" />
    <pattern
       inkscape:stockid="Polka dots, large"
       id="Polkadots-large"
       patternTransform="translate(0,0) scale(10,10)"
       height="10"
       width="10"
       patternUnits="userSpaceOnUse"
       inkscape:collect="always">
      <circle
         id="circle5429"
         r="0.45"
         cy="0.810"
         cx="2.567"
         style="fill:black;stroke:none" />
      <circle
         id="circle5431"
         r="0.45"
         cy="2.33"
         cx="3.048"
         style="fill:black;stroke:none" />
      <circle
         id="circle5433"
         r="0.45"
         cy="2.415"
         cx="4.418"
         style="fill:black;stroke:none" />
      <circle
         id="circle5435"
         r="0.45"
         cy="3.029"
         cx="1.844"
         style="fill:black;stroke:none" />
      <circle
         id="circle5437"
         r="0.45"
         cy="1.363"
         cx="6.08"
         style="fill:black;stroke:none" />
      <circle
         id="circle5439"
         r="0.45"
         cy="4.413"
         cx="5.819"
         style="fill:black;stroke:none" />
      <circle
         id="circle5441"
         r="0.45"
         cy="4.048"
         cx="4.305"
         style="fill:black;stroke:none" />
      <circle
         id="circle5443"
         r="0.45"
         cy="3.045"
         cx="5.541"
         style="fill:black;stroke:none" />
      <circle
         id="circle5445"
         r="0.45"
         cy="5.527"
         cx="4.785"
         style="fill:black;stroke:none" />
      <circle
         id="circle5447"
         r="0.45"
         cy="5.184"
         cx="2.667"
         style="fill:black;stroke:none" />
      <circle
         id="circle5449"
         r="0.45"
         cy="1.448"
         cx="7.965"
         style="fill:black;stroke:none" />
      <circle
         id="circle5451"
         r="0.45"
         cy="5.049"
         cx="7.047"
         style="fill:black;stroke:none" />
      <circle
         id="circle5453"
         r="0.45"
         cy="0.895"
         cx="4.340"
         style="fill:black;stroke:none" />
      <circle
         id="circle5455"
         r="0.45"
         cy="0.340"
         cx="7.125"
         style="fill:black;stroke:none" />
      <circle
         id="circle5457"
         r="0.45"
         cy="1.049"
         cx="9.553"
         style="fill:black;stroke:none" />
      <circle
         id="circle5459"
         r="0.45"
         cy="2.689"
         cx="7.006"
         style="fill:black;stroke:none" />
      <circle
         id="circle5461"
         r="0.45"
         cy="2.689"
         cx="8.909"
         style="fill:black;stroke:none" />
      <circle
         id="circle5463"
         r="0.45"
         cy="4.407"
         cx="9.315"
         style="fill:black;stroke:none" />
      <circle
         id="circle5465"
         r="0.45"
         cy="3.870"
         cx="7.820"
         style="fill:black;stroke:none" />
      <circle
         id="circle5467"
         r="0.45"
         cy="5.948"
         cx="8.270"
         style="fill:black;stroke:none" />
      <circle
         id="circle5469"
         r="0.45"
         cy="7.428"
         cx="7.973"
         style="fill:black;stroke:none" />
      <circle
         id="circle5471"
         r="0.45"
         cy="8.072"
         cx="9.342"
         style="fill:black;stroke:none" />
      <circle
         id="circle5473"
         r="0.45"
         cy="9.315"
         cx="8.206"
         style="fill:black;stroke:none" />
      <circle
         id="circle5475"
         r="0.45"
         cy="9.475"
         cx="9.682"
         style="fill:black;stroke:none" />
      <circle
         id="circle5477"
         r="0.45"
         cy="6.186"
         cx="9.688"
         style="fill:black;stroke:none" />
      <circle
         id="circle5479"
         r="0.45"
         cy="6.296"
         cx="3.379"
         style="fill:black;stroke:none" />
      <circle
         id="circle5481"
         r="0.45"
         cy="8.204"
         cx="2.871"
         style="fill:black;stroke:none" />
      <circle
         id="circle5483"
         r="0.45"
         cy="8.719"
         cx="4.59"
         style="fill:black;stroke:none" />
      <circle
         id="circle5485"
         r="0.45"
         cy="9.671"
         cx="3.181"
         style="fill:black;stroke:none" />
      <circle
         id="circle5487"
         r="0.45"
         cy="7.315"
         cx="5.734"
         style="fill:black;stroke:none" />
      <circle
         id="circle5489"
         r="0.45"
         cy="6.513"
         cx="6.707"
         style="fill:black;stroke:none" />
      <circle
         id="circle5491"
         r="0.45"
         cy="9.670"
         cx="5.730"
         style="fill:black;stroke:none" />
      <circle
         id="circle5493"
         r="0.45"
         cy="8.373"
         cx="6.535"
         style="fill:black;stroke:none" />
      <circle
         id="circle5495"
         r="0.45"
         cy="7.154"
         cx="4.37"
         style="fill:black;stroke:none" />
      <circle
         id="circle5497"
         r="0.45"
         cy="7.25"
         cx="0.622"
         style="fill:black;stroke:none" />
      <circle
         id="circle5499"
         r="0.45"
         cy="5.679"
         cx="0.831"
         style="fill:black;stroke:none" />
      <circle
         id="circle5501"
         r="0.45"
         cy="8.519"
         cx="1.257"
         style="fill:black;stroke:none" />
      <circle
         id="circle5503"
         r="0.45"
         cy="6.877"
         cx="1.989"
         style="fill:black;stroke:none" />
      <circle
         id="circle5505"
         r="0.45"
         cy="3.181"
         cx="0.374"
         style="fill:black;stroke:none" />
      <circle
         id="circle5507"
         r="0.45"
         cy="1.664"
         cx="1.166"
         style="fill:black;stroke:none" />
      <circle
         id="circle5509"
         r="0.45"
         cy="0.093"
         cx="1.151"
         style="fill:black;stroke:none" />
      <circle
         id="circle5511"
         r="0.45"
         cy="10.093"
         cx="1.151"
         style="fill:black;stroke:none" />
      <circle
         id="circle5513"
         r="0.45"
         cy="4.451"
         cx="1.302"
         style="fill:black;stroke:none" />
      <circle
         id="circle5515"
         r="0.45"
         cy="3.763"
         cx="3.047"
         style="fill:black;stroke:none" />
    </pattern>
  </defs>
  <sodipodi:namedview
     id="base"
     pagecolor="#ffffff"
     bordercolor="#666666"
     borderopacity="1.0"
     inkscape:pageopacity="0.0"
     inkscape:pageshadow="2"
     inkscape:zoom="1.4142136"
     inkscape:cx="55.512125"
     inkscape:cy="88.386579"
     inkscape:document-units="mm"
     inkscape:current-layer="layer2"
     showgrid="false"
     inkscape:window-width="1752"
     inkscape:window-height="1180"
     inkscape:window-x="547"
     inkscape:window-y="0"
     inkscape:window-maximized="0"
     borderlayer="true"
     inkscape:snap-global="false"
     fit-margin-left="1"
     fit-margin-top="1"
     fit-margin-right="1"
     fit-margin-bottom="1" />
  <metadata
     id="metadata7">
    <rdf:RDF>
      <cc:Work
         rdf:about="">
        <dc:format>image/svg+xml</dc:format>
        <dc:type
           rdf:resource="http://purl.org/dc/dcmitype/StillImage" />
        <dc:title>goose - lineart</dc:title>
        <dc:date>2016-05-05</dc:date>
        <dc:creator>
          <cc:Agent>
            <dc:title>Frank Tremmel</dc:title>
          </cc:Agent>
        </dc:creator>
        <dc:subject>
          <rdf:Bag>
            <rdf:li>animal</rdf:li>
            <rdf:li>goose</rdf:li>
            <rdf:li>farm</rdf:li>
            <rdf:li>school</rdf:li>
            <rdf:li>education</rdf:li>
            <rdf:li>teaching</rdf:li>
            <rdf:li>outline</rdf:li>
            <rdf:li>line art</rdf:li>
            <rdf:li>schule</rdf:li>
            <rdf:li>unterricht</rdf:li>
            <rdf:li>gans</rdf:li>
            <rdf:li>tier</rdf:li>
            <rdf:li>bauernhof</rdf:li>
            <rdf:li></rdf:li>
          </rdf:Bag>
        </dc:subject>
        <dc:description>line art goose</dc:description>
        <cc:license
           rdf:resource="http://creativecommons.org/publicdomain/zero/1.0/" />
      </cc:Work>
      <cc:License
         rdf:about="http://creativecommons.org/publicdomain/zero/1.0/">
        <cc:permits
           rdf:resource="http://creativecommons.org/ns#Reproduction" />
        <cc:permits
           rdf:resource="http://creativecommons.org/ns#Distribution" />
        <cc:permits
           rdf:resource="http://creativecommons.org/ns#DerivativeWorks" />
      </cc:License>
    </rdf:RDF>
  </metadata>
  <g
     inkscape:groupmode="layer"
     id="layer2"
     inkscape:label="Ebene 2"
     transform="translate(1.3452022,3.6388906)">
    <path
       style="fill:#ffffff;fill-rule:evenodd;stroke:#ff00ff;stroke-width:0.29055119;stroke-linecap:butt;stroke-linejoin:miter;stroke-miterlimit:4;stroke-dasharray:none;stroke-opacity:1"
       d="m 50.039064,85.826206 c -0.535398,2.247891 -1.033652,4.755786 -1.679378,6.231379 -0.570051,0.107849 -1.160148,0.282523 -2.077126,1.546796 l -0.265165,1.016466 c 0.707107,0.08517 1.414213,-0.287256 2.12132,-0.53033 -0.654589,1.239233 -0.858674,1.937862 -0.928078,2.474873 -0.759829,0.664523 -1.367578,1.340745 -0.618718,2.121321 0.86813,1.097702 1.535427,0.789572 2.298097,1.149052 2.358373,0.447337 4.69675,0.814697 6.938485,0.795487 1.384751,-0.17535 2.769502,0.30713 4.154253,-0.928077 l -0.0442,-0.7071 -3.71231,-1.23744 -3.800699,-2.519068 c 0.50708,-0.798201 0.472644,-2.00254 0.53033,-3.137786 -0.556602,-1.581758 -0.288405,-3.823355 -0.309359,-5.833631 z"
       id="path4232"
       inkscape:connector-curvature="0"
       sodipodi:nodetypes="cccccccccccccccc" />
    <g
       id="g4220"
       transform="translate(4.0329292,-1.1159549)"
       style="fill:#000000">
      <path
         sodipodi:nodetypes="ccccccccccccscscccccccccccccccccc"
         inkscape:connector-curvature="0"
         id="path4211"
         d="m 48.074962,91.800929 c 0.144308,0.936918 0.256824,1.675937 0.242767,2.647844 0.04898,0.710225 -0.214992,1.587272 -0.485688,2.23091 1.319904,0.488434 2.371741,1.476439 3.493183,2.294124 1.161268,1.048783 2.605337,0.69754 3.991633,1.542403 0.255626,0.55643 -5.086172,0.52563 -7.85406,0.23167 -0.818533,-0.0725 -1.612042,-0.28496 -2.425429,-0.40115 -0.593222,0.23902 -1.750442,-0.665204 -2.127,-1.12283 -0.42701,-0.638573 0.480002,-1.116862 0.961445,-1.461158 -0.337965,-0.832692 0.269352,-1.928416 0.754036,-2.818014 -0.696669,-0.330661 -1.720505,0.46022 -2.076783,0.462958 -0.332288,-0.838473 1.413126,-1.344102 2.197074,-1.87251 0.374624,-1.113947 0.793494,-2.125459 0.898489,-3.293518 0.09851,-1.095923 0.914363,-3.411328 0.295533,-3.28777 -0.561378,0.41331 -0.724331,2.288802 -1.070081,3.182443 l -0.983929,2.543109 c -0.788243,0.589049 -2.089648,2.134396 -2.375601,3.162361 0.423834,0.392745 1.480698,0.181768 2.190633,-0.236762 -0.629719,0.792821 -0.8719,1.288958 -0.910336,1.813014 -0.357137,0.27052 -0.613665,0.785177 -0.814812,1.080512 -0.374567,0.92443 -0.09188,1.290008 0.422091,1.912235 0.649197,0.53101 1.30509,0.8957 2.572293,0.94286 0.441169,0.24808 2.269103,0.62178 2.518396,0.68694 2.674241,0.34112 3.916091,0.43699 6.57721,0.0822 0.945565,-0.10624 1.569834,-0.57991 2.46413,-0.99562 0.871189,-0.52621 -0.05061,-1.386429 -0.732874,-1.458774 -0.394437,-0.263778 -0.306187,-0.303831 -0.805004,-0.360199 -1.179832,-0.152852 -2.40914,-0.449654 -3.289694,-1.304557 -0.858992,-0.658776 -1.609829,-1.486142 -2.57832,-1.978979 0.423617,-1.301722 0.499569,-1.964981 0.299019,-3.299978 -0.06263,-0.265696 -0.438672,-2.138054 -0.382604,-2.680823 0.01965,-1.090169 -0.08776,-3.153869 -0.623679,-2.907013 -0.101292,0.333781 -0.571757,3.091002 -0.342038,4.664072 z"
         style="color:#000000;font-style:normal;font-variant:normal;font-weight:normal;font-stretch:normal;font-size:medium;line-height:normal;font-family:sans-serif;text-indent:0;text-align:start;text-decoration:none;text-decoration-line:none;text-decoration-style:solid;text-decoration-color:#000000;letter-spacing:normal;word-spacing:normal;text-transform:none;direction:ltr;block-progression:tb;writing-mode:lr-tb;baseline-shift:baseline;text-anchor:start;white-space:normal;clip-rule:nonzero;display:inline;overflow:visible;visibility:visible;opacity:1;isolation:auto;mix-blend-mode:normal;color-interpolation:sRGB;color-interpolation-filters:linearRGB;solid-color:#000000;solid-opacity:1;fill:#000000;fill-opacity:1;fill-rule:evenodd;stroke:none;stroke-width:1px;stroke-linecap:butt;stroke-linejoin:miter;stroke-miterlimit:4;stroke-dasharray:none;stroke-dashoffset:0;stroke-opacity:1;color-rendering:auto;image-rendering:auto;shape-rendering:auto;text-rendering:auto;enable-background:accumulate" />
      <path
         sodipodi:nodetypes="sczcszs"
         inkscape:connector-curvature="0"
         id="path4216"
         d="m 46.373467,97.751915 c 0.117892,0.125058 0.327746,0.499411 0.993795,1.001442 0.666048,0.502031 2.217007,0.697347 2.331346,0.452521 0.114339,-0.244825 -1.271635,-0.49672 -1.875585,-0.972971 -0.603949,-0.476252 -0.823557,-1.128811 -1.18913,-1.236652 -0.817608,-0.241187 -1.751071,0.131186 -1.768871,0.290317 -0.0178,0.159131 1.27276,0.215332 1.508445,0.465343 z"
         style="color:#000000;font-style:normal;font-variant:normal;font-weight:normal;font-stretch:normal;font-size:medium;line-height:normal;font-family:sans-serif;text-indent:0;text-align:start;text-decoration:none;text-decoration-line:none;text-decoration-style:solid;text-decoration-color:#000000;letter-spacing:normal;word-spacing:normal;text-transform:none;direction:ltr;block-progression:tb;writing-mode:lr-tb;baseline-shift:baseline;text-anchor:start;white-space:normal;clip-rule:nonzero;display:inline;overflow:visible;visibility:visible;opacity:1;isolation:auto;mix-blend-mode:normal;color-interpolation:sRGB;color-interpolation-filters:linearRGB;solid-color:#000000;solid-opacity:1;fill:#000000;fill-opacity:1;fill-rule:evenodd;stroke:none;stroke-width:1.41732287;stroke-linecap:butt;stroke-linejoin:miter;stroke-miterlimit:4;stroke-dasharray:none;stroke-dashoffset:0;stroke-opacity:1;color-rendering:auto;image-rendering:auto;shape-rendering:auto;text-rendering:auto;enable-background:accumulate" />
    </g>
    <path
       style="fill:#ffffff;fill-rule:evenodd;stroke:#ff00ff;stroke-width:0.29055119;stroke-linecap:butt;stroke-linejoin:miter;stroke-miterlimit:4;stroke-dasharray:none;stroke-opacity:1"
       d="m 53.221045,85.605235 c 1.123098,1.928407 1.450852,4.174952 2.032932,6.319767 l 0.309359,9.236578 c 0.711537,1.08054 2.604595,1.57032 4.198447,2.20971 1.929148,0.28388 3.876359,0.45939 5.922019,0.0442 1.604863,-0.77984 3.472546,0.45567 5.303301,1.37002 0.176777,-0.7513 -1.06066,-2.69584 -1.06066,-2.69584 l 3.579728,0.61872 c -0.395993,-0.67764 -0.94588,-1.35529 -1.811961,-2.03293 -1.823131,-0.844217 -3.597934,-1.350147 -5.303301,-1.370017 -1.307401,0.122 -2.632076,0.23321 -4.861359,-0.22097 L 59.982753,96.432818 C 59.008219,95.44638 59.021498,94.168796 58.480152,93.074061 l -0.795496,-3.668117 1.149049,-2.298097 -4.198447,-1.546796 z"
       id="path4234"
       inkscape:connector-curvature="0"
       sodipodi:nodetypes="ccccccccccccccccc" />
    <path
       style="color:#000000;font-style:normal;font-variant:normal;font-weight:normal;font-stretch:normal;font-size:medium;line-height:normal;font-family:sans-serif;text-indent:0;text-align:start;text-decoration:none;text-decoration-line:none;text-decoration-style:solid;text-decoration-color:#000000;letter-spacing:normal;word-spacing:normal;text-transform:none;direction:ltr;block-progression:tb;writing-mode:lr-tb;baseline-shift:baseline;text-anchor:start;white-space:normal;clip-rule:nonzero;display:inline;overflow:visible;visibility:visible;opacity:1;isolation:auto;mix-blend-mode:normal;color-interpolation:sRGB;color-interpolation-filters:linearRGB;solid-color:#000000;solid-opacity:1;fill:#000000;fill-opacity:1;fill-rule:evenodd;stroke:none;stroke-width:1px;stroke-linecap:butt;stroke-linejoin:miter;stroke-miterlimit:4;stroke-dasharray:none;stroke-dashoffset:0;stroke-opacity:1;color-rendering:auto;image-rendering:auto;shape-rendering:auto;text-rendering:auto;enable-background:accumulate"
       d="m 52.835166,86.296652 c 1.245853,2.590142 1.83344,4.424323 1.839844,6.923828 l 0.01493,5.827513 c -0.139366,0.70251 -0.101518,2.152007 0.557323,2.967407 0.62548,0.7741 2.493765,1.44788 3.464844,1.45118 2.112864,1.11054 4.321082,0.8086 5.578695,0.77326 1.257613,-0.0353 1.650642,-0.1924 1.890055,-0.24781 0.239407,-0.0554 0.708752,-0.3012 1.350303,-0.17647 0.64155,0.12474 1.063191,0.23044 1.377095,0.38155 0.760936,0.3663 0.898074,0.41167 1.389795,0.6977 l 0.693359,0.28125 c 0.1949,-0.0599 0.336104,-0.13687 0.300781,-0.95704 -0.01931,-0.44827 -0.521631,-1.20899 -0.611328,-1.62891 l 1.57338,0.38822 c 0.850514,0.0417 1.422735,0.63292 1.836778,0.0727 0.05424,-0.36136 -0.530829,-1.2076 -0.726562,-1.4629 -0.195734,-0.25529 -0.35617,-0.73423 -1.628807,-1.45185 -1.272638,-0.717607 -3.357257,-1.372267 -5.632915,-1.399757 -1.550758,-0.193336 -3.993536,0.78096 -4.945312,-0.947264 -0.03803,-0.852977 -0.383057,-1.209974 -0.619141,-1.669922 -0.264958,-0.5162 -0.613489,-0.82587 -0.957031,-1.210937 -0.696667,-1.52365 -1.061415,-3.053428 -1.398579,-4.360053 -0.337165,-1.306625 0.927182,-2.402443 1.377064,-3.46612 L 58.6379,86.691183 c -0.395342,0.934725 -1.944002,2.366628 -1.333984,3.875 0.267196,1.579179 0.636683,3.183013 1.252221,4.285966 0.615539,1.102953 0.907367,1.3612 1.09348,1.723793 0.186113,0.362592 0.315246,0.894151 0.313873,1.629692 0.71062,2.837396 3.957446,1.678629 6.028597,1.891786 2.071152,0.21316 4.02132,0.50803 5.956358,1.49219 0.288368,0.24454 0.510611,0.46077 0.51383,0.55455 0.0032,0.0938 -1.406443,-0.27185 -1.67984,-0.28105 -2.204905,-0.50358 -3.621242,-0.93163 -5.542158,-0.90779 -0.419483,0.005 -1.456265,0.15754 -0.140863,0.30673 1.799998,0.20415 2.936449,0.21286 4.31388,1.17332 0.522812,0.36455 1.331212,1.70837 1.1366,1.75104 -0.119961,-0.0245 -1.336741,-0.76722 -1.650277,-0.93074 -0.9419,-0.49123 -1.301596,-0.59839 -1.751953,-0.71289 -1.009033,-0.25652 -1.669533,-0.0958 -2.474609,0.31836 -1.917003,-0.21283 -3.651961,-0.15358 -5.093984,-0.67569 -1.442023,-0.52212 -2.238306,-0.70592 -2.679454,-1.25189 -0.441147,-0.54597 -0.687781,-1.419027 -0.557757,-2.107948 l -0.471119,-6.44374 c -0.08894,-1.216447 -0.755353,-5.058577 -1.429644,-6.460571 z"
       id="path4224"
       inkscape:connector-curvature="0"
       sodipodi:nodetypes="cscsccsssccscccccccsccccccscccccssscssccscscc" />
    <path
       style="fill:#ffffff;fill-opacity:1;fill-rule:evenodd;stroke:#ff00ff;stroke-width:0.29055119;stroke-linecap:butt;stroke-linejoin:miter;stroke-miterlimit:4;stroke-dasharray:none;stroke-opacity:1"
       d="M 84.112772,3.5366548 C 82.580707,2.2992176 81.048643,1.5921114 79.516578,1.4153344 76.388267,1.7225205 73.838907,2.7327181 72.357122,5.0392567 70.065672,8.6248152 68.859286,12.5063 67.849316,16.441353 c -0.805523,7.365944 1.087767,11.493314 1.856156,16.970563 1.10903,4.993469 -0.495327,8.242619 -2.651651,11.136932 -5.355659,4.422835 -11.152882,5.644329 -16.970562,6.717514 -5.899433,0.696065 -11.927806,1.875655 -18.296388,4.331029 l -10.253049,4.861359 -6.894291,0.08839 c -3.288915,1.399058 -6.6417387,2.791015 -7.8665633,4.419417 l 6.1871843,0.707107 7.866563,1.944543 c 2.599286,1.101273 4.748206,2.437296 6.98268,4.772971 0.872955,3.3199 2.90839,6.192691 5.303301,8.927223 0.664637,0.664637 8.459612,3.099547 9.369165,3.270369 2.094658,0.393396 13.058032,1.342518 12.28598,0.618719 0.646909,1.301661 2.286192,1.752718 3.712311,2.386485 L 60.424695,85.1191 c 0.04915,0.752907 0.393236,1.309192 1.149049,1.590991 2.390639,-0.371811 3.571586,-1.146852 4.949747,-1.856156 2.447284,-1.616707 4.905981,-3.210587 6.894291,-5.745242 l 9.590137,-10.253049 6.938484,-6.717514 c 2.048211,-3.365708 3.574719,-6.866673 2.474874,-11.048544 L 84.731491,40.041043 c -3.802212,-4.804562 -5.266526,-10.523551 -6.496544,-16.263456 -0.490139,-2.412883 -0.280471,-4.625821 0.0442,-6.805903 0.356958,-1.045805 0.236116,-1.648463 1.590989,-3.137786 1.519191,-0.333871 3.220354,-0.182481 4.419419,-1.37002 -0.102552,-0.987029 -1.496023,-1.887748 -2.121321,-3.0935915 0.500867,-0.5309019 1.001735,-0.7098329 1.502602,-1.7677667 -0.681111,-0.846498 -0.4665,-1.5650357 -0.353554,-2.2980971 z"
       id="path4228"
       inkscape:connector-curvature="0"
       sodipodi:nodetypes="cccccccccccccccscccccccccccccccccc" />
    <path
       style="fill:url(#pattern5740);fill-opacity:1;fill-rule:evenodd;stroke:none;stroke-width:0.29055119;stroke-linecap:butt;stroke-linejoin:miter;stroke-miterlimit:4;stroke-dasharray:none;stroke-opacity:1"
       d="m 16.863735,66.625196 c 1.458334,-0.986725 2.430531,-0.623606 4.021447,-0.676776 2.868718,0.153327 4.809359,0.685013 7.059359,1.698223 l 6.125,5.625 c 5.090761,0.7625 10.172146,1.59688 15.75,-1.375 -0.856631,1.553898 -1.666742,2.593263 -1.877723,3.733605 6.473549,-1.075263 22.444247,-8.476763 22.473943,-7.981879 -1.833911,2.559737 -5.110074,4.950615 -10.951875,6.933644 -5.467142,1.855848 -13.663754,3.643704 -14.955305,3.688161 0.298353,-0.919803 2.101916,-3.357162 1.700576,-3.140565 -2.983014,1.60989 -8.997895,1.25814 -9.126679,0.449979 -0.06084,0.662017 -0.621618,1.303444 -1.512937,2.067055 -1.500593,1.285588 2.5,5.375 2.5,5.375 -2.434688,0.111584 -4.808159,-1.429714 -7.125,-4.5 l -5.375,-8 c -2.116459,-1.608389 -5.075498,-2.831902 -8.705806,-3.896447 z"
       id="path4258"
       inkscape:connector-curvature="0"
       sodipodi:nodetypes="cccccccscccscccc" />
    <path
       style="opacity:1;fill:#ffffff;fill-opacity:1;stroke:none;stroke-width:0.29055119;stroke-linecap:round;stroke-linejoin:round;stroke-miterlimit:4;stroke-dasharray:none;stroke-dashoffset:0;stroke-opacity:1"
       d="m 81.457364,5.6465515 c -0.55934,0.5149021 -1.429646,0.4809132 -1.947126,-0.076043 -0.51748,-0.5569559 -0.48751,-1.42741 0.06705,-1.9474561 0.55456,-0.5200461 1.425143,-0.4940968 1.956425,0.067401 0.520995,0.5710553 0.48299,1.4411953 -0.07635,1.9560984 z"
       id="path4236"
       inkscape:connector-curvature="0"
       sodipodi:nodetypes="ssscs" />
    <path
       style="color:#000000;font-style:normal;font-variant:normal;font-weight:normal;font-stretch:normal;font-size:medium;line-height:normal;font-family:sans-serif;text-indent:0;text-align:start;text-decoration:none;text-decoration-line:none;text-decoration-style:solid;text-decoration-color:#000000;letter-spacing:normal;word-spacing:normal;text-transform:none;direction:ltr;block-progression:tb;writing-mode:lr-tb;baseline-shift:baseline;text-anchor:start;white-space:normal;clip-rule:nonzero;display:inline;overflow:visible;visibility:visible;opacity:1;isolation:auto;mix-blend-mode:normal;color-interpolation:sRGB;color-interpolation-filters:linearRGB;solid-color:#000000;solid-opacity:1;fill:#000000;fill-opacity:1;fill-rule:evenodd;stroke:none;stroke-width:2.83464575;stroke-linecap:butt;stroke-linejoin:miter;stroke-miterlimit:4;stroke-dasharray:none;stroke-dashoffset:0;stroke-opacity:1;color-rendering:auto;image-rendering:auto;shape-rendering:auto;text-rendering:auto;enable-background:accumulate"
       d="m 79.188682,0.93532405 c -1.198226,-0.034652 -2.938397,0.19615025 -4.246094,0.85156255 -1.827523,0.9159467 -2.661007,2.1908156 -3.785156,3.6210938 -0.961864,1.2238005 -1.844477,3.4070182 -2.3125,4.5742191 -1.23739,3.0859095 -1.640726,5.6003325 -1.875,8.7734365 -0.340979,4.618357 1.105823,9.13659 1.580078,13.470703 0.379555,3.468707 0.09862,6.775211 -1.06836,9.371094 -0.869712,1.934615 -1.873201,2.855529 -3.83789,3.884766 -8.341053,4.369607 -18.671001,4.605248 -28.28711,7.904296 -2.932242,1.005981 -5.943064,1.987284 -8.685547,3.546876 -2.0518,1.166815 -3.674905,2.478988 -5.785156,2.638671 -1.35998,0.10291 -2.758565,-0.151451 -3.99414,0.01367 -1.454869,0.194428 -2.632753,0.479135 -4.37074,1.189276 -0.868994,0.35507 -2.483063,1.16259 -3.117542,1.545099 -0.7384285,0.445177 -3.0211162,1.861387 -3.2608795,2.523794 0.039687,0.857761 2.3267898,0.882556 3.1163482,0.872693 1.3762473,-0.01719 3.7997233,0.910222 5.0366013,1.063539 1.095668,0.135813 2.514539,0.394429 3.888215,0.793198 1.901247,0.551916 2.124349,0.676339 3.516996,1.406021 1.399994,0.733531 1.951658,0.971441 3.218344,2.12396 0.827011,0.752473 1.853226,2.270508 2.568182,3.207261 1.705523,2.234611 2.624024,5.950171 5.568817,8.060723 3.273737,2.346308 5.921742,1.949607 8.847531,2.956397 1.498972,0.515809 4.378374,0.349468 5.609994,0.650988 0.61944,0.151648 2.061655,0.351969 3.339932,0.638406 1.187252,0.03304 2.008548,-0.148636 3.531987,-0.688226 0.496964,0.446888 3.278477,2.147496 4.230263,2.266701 1.042642,-0.624013 1.10628,-1.079243 1.901077,-1.792004 0.512944,0.7493 0.834271,1.160138 2.917842,0.508344 2.219203,-0.694221 4.707384,-1.874523 6.488282,-3.09375 3.129899,-2.142771 4.904061,-5.237227 7.111328,-7.466797 3.543191,-3.578993 7.537963,-7.457872 11.177734,-10.96289 3.26826,-3.147261 6.397076,-8.61234 5.173828,-13.826172 -1.192285,-5.081859 -3.346772,-5.593991 -7.18164,-11.142578 -1.249795,-1.808302 -3.399186,-5.43393 -4.152344,-7.570313 -1.442247,-4.091033 -2.982045,-8.721371 -3.351563,-11.773437 -0.127462,-1.052788 -0.17886,-3.290645 0.320313,-4.873047 0.332989,-1.055585 0.60859,-1.306585 0.971928,-1.917204 0.831871,0.04164 1.915992,-0.08456 2.556641,-0.271484 0.507534,-0.148091 1.418136,-0.32559 1.851562,-0.666016 0.652032,-0.512126 0.973812,-1.179301 0.912838,-1.942171 -0.809766,-0.162465 -1.355925,0.0044 -1.548829,-0.652344 0.08947,-0.530462 -0.434308,-0.9223505 -0.917968,-1.2890615 0.188023,-0.255523 0.793688,-0.7598095 1.126953,-1.1601568 0.389237,-0.4675863 0.552894,-1.7167233 0.421875,-2.1855468 L 84.059775,4.9138397 C 83.938013,4.4711602 84.285815,4.2896749 84.899619,4.2556366 84.747763,3.630382 84.602529,2.9838512 83.620322,2.4040741 81.832663,1.3488553 81.062971,0.98952755 79.188682,0.93532405 Z M 79.33126,2.4372773 c 0.17499,-0.00316 1.691376,0.034532 2.193359,0.2636718 0.638382,0.2914018 1.681828,0.625747 1.935547,1.3710938 -0.298477,0.4441243 -0.72065,0.8708062 -0.712891,1.4863281 0.189848,0.6568845 0.232371,1.8666149 0.402344,2.4648437 -0.673612,0.463531 -1.849192,0.3306004 -1.949219,1.2890628 -0.05483,0.525408 0.679425,1.0537505 1.03711,1.5214835 0.185684,0.242813 1.58189,0.885088 1.830078,1.042969 -0.782442,0.63562 -2.253818,0.67662 -2.664063,0.681641 -0.896668,0.01097 -1.892062,0.124273 -2.720703,0.08789 -1.504312,-0.06605 -2.941871,-0.549319 -3.957031,-1.251953 -0.483516,-0.334662 -1.318347,-1.035374 -1.826172,-1.5644525 -0.184228,0.4298645 0.05862,1.6057915 0.759766,2.2129275 0.701141,0.607136 1.4209,1.158536 2.286381,1.516353 1.125279,0.465226 2.181275,0.56379 3.253907,0.617187 -0.210201,0.217436 -0.827577,0.587231 -1.255132,1.942594 -0.527115,1.670974 -0.781853,3.552137 -0.753906,5.201172 0.04547,2.682803 1.394645,8.507814 2.802734,12.501953 0.93425,2.650063 2.837909,5.190568 4.054688,7.326172 2.467437,4.33067 5.938041,7.056458 6.855468,10.966797 0.890534,3.795711 -1.815484,9.159303 -4.349609,11.59961 -3.645584,3.510615 -7.470434,7.891366 -11.042969,11.5 -2.547362,2.573099 -4.897175,5.633635 -7.34375,7.308593 -1.208796,0.827559 -3.218181,2.127798 -5.332031,2.789063 -0.596398,0.186569 -1.128839,0.43746 -1.611328,0.285156 -0.215325,-0.651105 0.613588,-1.954855 0.724609,-2.160156 0.537792,-0.994492 1.641592,-2.956064 1.445313,-3.292969 -0.28554,-0.490117 -1.379133,0.567538 -2.25,1.851563 -0.442135,0.651893 -1.106179,1.843244 -1.522524,2.40706 -0.921063,1.24731 -1.264521,1.639915 -1.590757,2.132864 -0.815486,0.212475 -1.311347,-0.518643 -1.882584,-1.064402 -0.437128,-0.408939 -1.060175,-0.785469 -1.060175,-0.785469 -0.551613,-1.255943 -0.222997,-3.075435 0.04745,-4.285882 0.232996,-1.042829 0.664865,-1.780597 0.446721,-1.981066 -0.218144,-0.200469 -1.195209,0.709082 -1.495142,2.155934 -0.437975,2.112757 -0.605067,3.116496 -0.0041,4.351194 -0.368867,-0.08265 -4.819188,-0.146808 -5.794538,-0.536299 -1.516465,-0.605575 -3.948253,-0.407878 -5.15356,-0.822635 -3.586977,-1.234312 -6.316496,-1.466145 -8.640991,-3.132126 -2.016969,-1.445574 -4.25671,-5.221905 -5.92105,-8.182946 -1.500277,-2.669156 -6.968309,-5.621069 -10.498741,-5.782532 0.463109,-0.62711 5.886949,0.413751 6.995761,0.174966 -1.857684,-0.926062 -5.698918,-1.530099 -7.014079,-1.281846 -1.025021,-0.197853 -2.211034,0.446283 -3.317862,-0.02076 -1.251748,-0.528192 -3.305252,-0.729562 -6.7614622,-0.687095 0.7152647,-0.80172 4.5065242,-2.118753 5.5715242,-2.556283 1.271693,-0.522444 3.041038,-0.650606 3.851968,-0.798421 0.275174,-0.05016 1.779443,-0.230198 2.47301,-0.190128 2.282583,0.184529 2.784316,-0.05944 4.702491,-0.77439 1.805192,-0.672838 3.054372,-1.709006 4.13313,-2.248821 2.65909,-1.330622 5.010905,-2.079913 7.875368,-3.06264 9.039673,-3.101287 19.246633,-2.247395 28.376548,-7.030262 2.296983,-1.203315 4.004482,-2.780963 5.107422,-5.234375 1.612138,-3.586087 0.964551,-7.421857 0.59375,-10.810547 -0.484676,-4.429362 -2.09329,-8.81088 -1.785156,-12.984374 0.223062,-3.021247 0.603468,-5.371682 1.677734,-8.050782 0.470732,-1.1739525 1.356548,-3.282675 1.835937,-4.121093 0.88943,-1.5555505 2.160843,-2.9892518 3.269532,-3.5449219 0.979673,-0.4910081 2.44695,-0.7884587 3.671875,-0.8105468 z"
       id="path4169"
       inkscape:connector-curvature="0"
       sodipodi:nodetypes="sssssssssssssscsssssssssccccsssssssssccscccscccsscscccsscssscsscssssssssscsssscccszscsssscccscsscsssssssssscc" />
    <path
       style="fill:#ffffff;fill-rule:evenodd;stroke:#ff0000;stroke-width:0.29055119;stroke-linecap:butt;stroke-linejoin:miter;stroke-miterlimit:4;stroke-dasharray:none;stroke-opacity:1"
       d="m 84.333743,3.2272955 -0.883883,2.6074563 0.132582,2.2097087 -1.546796,1.193242 c 0.644561,1.4087155 1.954321,3.2559435 3.314563,3.0935925 l 5.259107,-0.486136 3.226175,0.309359 c 0.397747,-0.141993 0.795495,-0.10139 1.193242,-0.795495 l 0.972272,0 C 96.773064,11.25674 96.282998,10.561417 96.133588,9.7680325 95.594058,8.6803547 94.51284,8.3149291 93.658714,7.6467129 L 89.858015,6.2324993 87.383141,4.4205382 Z"
       id="path4230"
       inkscape:connector-curvature="0"
       sodipodi:nodetypes="cccccccccccccc" />
    <path
       style="color:#000000;font-style:normal;font-variant:normal;font-weight:normal;font-stretch:normal;font-size:medium;line-height:normal;font-family:sans-serif;text-indent:0;text-align:start;text-decoration:none;text-decoration-line:none;text-decoration-style:solid;text-decoration-color:#000000;letter-spacing:normal;word-spacing:normal;text-transform:none;direction:ltr;block-progression:tb;writing-mode:lr-tb;baseline-shift:baseline;text-anchor:start;white-space:normal;clip-rule:nonzero;display:inline;overflow:visible;visibility:visible;opacity:1;isolation:auto;mix-blend-mode:normal;color-interpolation:sRGB;color-interpolation-filters:linearRGB;solid-color:#000000;solid-opacity:1;fill:#000000;fill-opacity:1;fill-rule:evenodd;stroke:none;stroke-width:2.83464575;stroke-linecap:butt;stroke-linejoin:miter;stroke-miterlimit:4;stroke-dasharray:none;stroke-dashoffset:0;stroke-opacity:1;color-rendering:auto;image-rendering:auto;shape-rendering:auto;text-rendering:auto;enable-background:accumulate"
       d="m 68.785601,55.22048 c -2.086893,0.27961 -4.502996,2.135445 -4.254481,2.460667 0.248515,0.325221 2.695111,-0.793456 3.579953,-0.982396 2.384403,-0.509141 6.359961,1.700023 6.827597,4.438099 0.468663,2.744095 -3.247546,4.151322 -5.490289,4.830572 -2.524191,0.764491 -4.398357,2.743095 -6.891707,3.642228 -3.881909,1.399865 -9.197853,3.792224 -13.288449,4.271289 0.528457,-0.894603 3.323958,-2.892874 2.193029,-3.398106 -5.29309,1.404805 -10.072086,3.112109 -15.548156,1.92497 -3.727021,-0.807969 -5.083939,-3.984773 -7.78849,-6.322571 -1.453391,-1.256303 -8.586965,-3.221552 -10.090491,-2.853974 1.558994,-0.795387 3.172716,-1.971892 3.895448,-2.597172 -1.579098,-0.251265 -1.707989,-0.700451 -3.077907,0.0069 0.576806,1.125743 -4.496269,2.962313 -4.093798,3.263276 2.246681,0.674803 4.641666,0.442832 6.905882,0.974552 2.028442,0.476351 3.998317,1.628626 5.400385,3.156871 2.345075,2.556118 4.259011,6.069798 7.952342,6.762066 4.047661,0.758684 9.657618,0.02645 13.195352,-1.734883 -0.02687,1.449006 -2.079004,2.38536 -1.954354,2.911154 0.236711,0.998487 5.276979,-0.243287 6.744408,-0.605619 5.51902,-1.362736 11.512136,-2.987474 16.085484,-6.431315 2.654792,-1.268521 5.807927,-1.500969 7.321033,-4.410966 1.191959,-2.292369 1.099484,-5.605401 -0.984197,-7.2665 -2.092107,-1.667816 -4.035821,-2.387867 -6.638594,-2.039142 z"
       id="path4179"
       inkscape:connector-curvature="0"
       sodipodi:nodetypes="szssssccssccccssscsscsss" />
    <path
       style="color:#000000;font-style:normal;font-variant:normal;font-weight:normal;font-stretch:normal;font-size:medium;line-height:normal;font-family:sans-serif;text-indent:0;text-align:start;text-decoration:none;text-decoration-line:none;text-decoration-style:solid;text-decoration-color:#000000;letter-spacing:normal;word-spacing:normal;text-transform:none;direction:ltr;block-progression:tb;writing-mode:lr-tb;baseline-shift:baseline;text-anchor:start;white-space:normal;clip-rule:nonzero;display:inline;overflow:visible;visibility:visible;opacity:1;isolation:auto;mix-blend-mode:normal;color-interpolation:sRGB;color-interpolation-filters:linearRGB;solid-color:#000000;solid-opacity:1;fill:#000000;fill-opacity:1;fill-rule:evenodd;stroke:none;stroke-width:1.77165353;stroke-linecap:butt;stroke-linejoin:miter;stroke-miterlimit:4;stroke-dasharray:none;stroke-dashoffset:0;stroke-opacity:1;color-rendering:auto;image-rendering:auto;shape-rendering:auto;text-rendering:auto;enable-background:accumulate"
       d="m 83.889853,2.6013397 c -0.592919,0.4183518 -0.06226,1.1452858 -0.49483,1.7195155 -0.432569,0.5742297 -0.522167,1.3279964 -0.445083,2.0883506 0.07708,0.7603542 0.266767,1.0611984 0.28757,1.3776431 -0.801857,0.1524514 -2.206276,0.5257538 -2.22461,1.5840226 0.319425,0.9627895 0.713841,0.9577405 1.421875,1.6074205 0.623303,0.78407 1.221064,1.83521 2.123047,2.125 1.969319,0.126999 3.575074,-0.244195 5.265625,-0.548828 1.422197,-0.256277 3.205046,0.04856 4.15625,0.0098 0.273576,0.105169 1.48351,-0.280986 1.714844,-0.751953 0.803795,0.199317 1.400693,-0.0865 1.673865,-0.451402 0.234844,-0.313701 -0.02209,-0.773956 -0.06181,-1.094745 C 97.213168,9.5115465 96.597194,8.8608765 96.096885,8.3415741 95.077648,7.2836421 92.230661,6.3539303 91.026572,5.7048554 90.085564,5.1975965 88.59598,4.215793 87.139853,3.5310273 c -0.495711,-0.2331156 -3.25,-0.9296875 -3.25,-0.9296876 z m 3.335938,2.6660157 c 0.907103,0.4104664 1.515878,0.8009444 2.810547,1.6269531 0.684772,0.43689 2.860943,1.1354853 3.451707,1.3656944 0.528159,0.2058124 2.982545,1.6857296 2.35919,2.5287831 -0.400105,0.541119 -1.991975,-0.452043 -3.045272,-0.7909615 -1.175433,-0.37822 -2.581942,-0.785035 -3.642578,-0.890625 -1.301203,-0.12954 -2.446369,0.311356 -3.429688,0.261718 -0.687752,-0.03471 -1.776696,-0.268534 -2.441406,-0.4179684 0.464548,-0.3907928 0.960806,-0.9405929 1.167969,-1.5019531 0.200314,-1.3137938 -0.540976,-2.5588576 -0.04663,-2.9889991 0.494344,-0.4301414 2.283696,0.5664155 2.816164,0.8073585 z m -3.482422,4.8769526 c 0.637896,0.129645 1.373368,0.258832 1.933594,0.287109 1.289299,0.06508 2.413838,-0.36346 3.376953,-0.267578 0.874397,0.08705 2.716678,0.299811 3.863817,0.668926 0.21144,0.06804 1.248589,0.552676 1.439566,0.616996 -0.972676,0.06055 -3.748505,-0.347689 -4.509686,-0.268804 l -2.826556,0.292932 c -0.496255,0.05143 -2.426861,0.133957 -2.775467,-0.196003 -0.801919,-0.290305 -0.786727,-0.786095 -0.502221,-1.133578 z"
       id="path4195"
       inkscape:connector-curvature="0"
       sodipodi:nodetypes="cssccccsccssssscssssssscccscssscsscc" />
    <path
       style="color:#000000;font-style:normal;font-variant:normal;font-weight:normal;font-stretch:normal;font-size:medium;line-height:normal;font-family:sans-serif;text-indent:0;text-align:start;text-decoration:none;text-decoration-line:none;text-decoration-style:solid;text-decoration-color:#000000;letter-spacing:normal;word-spacing:normal;text-transform:none;direction:ltr;block-progression:tb;writing-mode:lr-tb;baseline-shift:baseline;text-anchor:start;white-space:normal;clip-rule:nonzero;display:inline;overflow:visible;visibility:visible;opacity:1;isolation:auto;mix-blend-mode:normal;color-interpolation:sRGB;color-interpolation-filters:linearRGB;solid-color:#000000;solid-opacity:1;fill:#000000;fill-opacity:1;fill-rule:evenodd;stroke:none;stroke-width:1px;stroke-linecap:butt;stroke-linejoin:miter;stroke-miterlimit:4;stroke-dasharray:none;stroke-dashoffset:0;stroke-opacity:1;color-rendering:auto;image-rendering:auto;shape-rendering:auto;text-rendering:auto;enable-background:accumulate"
       d="m 86.963229,6.8513013 c 0.03194,0.3926948 0.203408,0.8673856 1.199304,1.1780844 0.571932,0.1784311 0.748898,-0.2196031 0.321508,-0.710397 -0.338719,-0.388967 -1.124187,-0.2047311 -1.520812,-0.4676874 z"
       id="path4204"
       inkscape:connector-curvature="0"
       sodipodi:nodetypes="cssc" />
    <path
       style="opacity:1;fill:#000000;fill-opacity:1;stroke:none;stroke-width:0.35433072;stroke-linecap:round;stroke-linejoin:round;stroke-miterlimit:4;stroke-dasharray:none;stroke-dashoffset:0;stroke-opacity:1"
       d="M 81.70709,4.8806227 C 81.592232,5.4163322 81.117344,5.8063303 80.556696,5.8253832 79.996048,5.8444362 79.4945,5.4876217 79.341707,4.9610081 79.188914,4.4343944 79.424367,3.8740512 79.91206,3.6035902 c 0.487703,-0.2704614 1.101653,-0.1811578 1.487278,0.2163359 -0.672365,0.1472586 -1.123674,0.452414 -1.241739,0.9956013 0.49419,-0.1567547 0.978966,-0.3888271 1.549491,0.065095 z"
       id="path4208"
       inkscape:connector-curvature="0"
       sodipodi:nodetypes="csssccc" />
    <path
       style="fill:url(#pattern5834);fill-opacity:1;fill-rule:evenodd;stroke:none;stroke-width:0.29055119;stroke-linecap:butt;stroke-linejoin:miter;stroke-miterlimit:4;stroke-dasharray:none;stroke-opacity:1"
       d="M 80.782821,13.12993 C 78.969349,12.459435 75.577448,11.437227 74.045384,10.023013 73.006089,9.0636655 72.682185,7.7911668 72.205472,5.3532805 71.652483,5.1689509 67.015173,16.466714 67.849317,20.507218 c 0.989124,4.791207 1.672535,10.225613 1.856155,15.114407 0.220068,5.859223 -4.33103,12.109203 -4.33103,12.109203 2.92766,-1.231247 6.864829,-5.332764 7.247845,-9.987883 0.337314,-4.099662 -2.91296,-12.501198 -2.740038,-18.561553 0.0941,-3.298095 3.005203,-6.860281 3.005203,-6.860281 0.561135,0.551158 1.450504,1.594449 2.612954,1.844949 1.91925,0.413585 4.488164,-0.55808 5.282415,-1.03613 z"
       id="path5742"
       inkscape:connector-curvature="0"
       sodipodi:nodetypes="cscsscsscsc" />
  </g>
</svg>
