<?xml version="1.0" encoding="UTF-8" standalone="no"?>
<!-- Generator: Adobe Illustrator 16.0.0, SVG Export Plug-In . SVG Version: 6.00 Build 0)  -->

<svg
   xmlns:dc="http://purl.org/dc/elements/1.1/"
   xmlns:cc="http://creativecommons.org/ns#"
   xmlns:rdf="http://www.w3.org/1999/02/22-rdf-syntax-ns#"
   xmlns:svg="http://www.w3.org/2000/svg"
   xmlns="http://www.w3.org/2000/svg"
   xmlns:sodipodi="http://sodipodi.sourceforge.net/DTD/sodipodi-0.dtd"
   xmlns:inkscape="http://www.inkscape.org/namespaces/inkscape"
   version="1.1"
   id="salt_shaker"
   x="0px"
   y="0px"
   width="297px"
   height="309px"
   viewBox="0 0 297 309"
   enable-background="new 0 0 297 309"
   xml:space="preserve"
   inkscape:version="0.91 r13725"
   sodipodi:docname="pepe-creolo.svg"><metadata
     id="metadata50"><rdf:RDF><cc:Work
         rdf:about=""><dc:format>image/svg+xml</dc:format><dc:type
           rdf:resource="http://purl.org/dc/dcmitype/StillImage" /></cc:Work></rdf:RDF></metadata><defs
     id="defs48" /><sodipodi:namedview
     pagecolor="#ffffff"
     bordercolor="#666666"
     borderopacity="1"
     objecttolerance="10"
     gridtolerance="10"
     guidetolerance="10"
     inkscape:pageopacity="0"
     inkscape:pageshadow="2"
     inkscape:window-width="1440"
     inkscape:window-height="851"
     id="namedview46"
     showgrid="false"
     inkscape:zoom="2.1035599"
     inkscape:cx="148.5"
     inkscape:cy="154.5"
     inkscape:window-x="0"
     inkscape:window-y="1"
     inkscape:window-maximized="1"
     inkscape:current-layer="salt_shaker" /><path
     style="fill:#6c5353;fill-opacity:1"
     inkscape:connector-curvature="0"
     id="path4"
     d="m 38.327,223.182 c 3.762,0 6.818,3.057 6.818,6.818 0,3.761 -3.056,6.818 -6.818,6.818 -3.762,0 -6.818,-3.057 -6.818,-6.818 0,-3.761 3.055,-6.818 6.818,-6.818" /><path
     style="fill:#ff2a7f;fill-opacity:1"
     inkscape:connector-curvature="0"
     id="path6"
     d="m 38.327,250.455 c 3.762,0 6.818,3.056 6.818,6.817 0,3.763 -3.056,6.818 -6.818,6.818 -3.762,0 -6.818,-3.056 -6.818,-6.818 0,-3.761 3.055,-6.817 6.818,-6.817" /><path
     style="fill:#ffe680;fill-opacity:1"
     inkscape:connector-curvature="0"
     id="path8"
     d="m 65.6,236.818 c 3.762,0 6.818,3.056 6.818,6.818 0,3.762 -3.056,6.818 -6.818,6.818 -3.762,0 -6.818,-3.057 -6.818,-6.818 -10e-4,-3.762 3.055,-6.818 6.818,-6.818" /><path
     style="fill:#ff2a7f;fill-opacity:1"
     inkscape:connector-curvature="0"
     id="path10"
     d="m 86.054,230 c 3.762,0 6.818,3.057 6.818,6.818 0,3.761 -3.056,6.818 -6.818,6.818 -3.762,0 -6.818,-3.057 -6.818,-6.818 0,-3.761 3.056,-6.818 6.818,-6.818" /><path
     style="fill:#808000;fill-opacity:1"
     inkscape:connector-curvature="0"
     id="path12"
     d="m 65.6,209.545 c 3.762,0 6.818,3.057 6.818,6.818 0,3.763 -3.056,6.818 -6.818,6.818 -3.762,0 -6.818,-3.056 -6.818,-6.818 -10e-4,-3.761 3.055,-6.818 6.818,-6.818" /><path
     style="fill:#808000;fill-opacity:1"
     inkscape:connector-curvature="0"
     id="path14"
     d="m 86.054,257.272 c 3.762,0 6.818,3.057 6.818,6.818 0,3.761 -3.056,6.818 -6.818,6.818 -3.762,0 -6.818,-3.057 -6.818,-6.818 0,-3.761 3.056,-6.818 6.818,-6.818" /><path
     style="fill:#483737;fill-opacity:1"
     inkscape:connector-curvature="0"
     id="path16"
     d="m 58.781,264.091 c 3.762,0 6.818,3.057 6.818,6.818 0,3.761 -3.057,6.818 -6.818,6.818 -3.761,0 -6.818,-3.057 -6.818,-6.818 0,-3.761 3.057,-6.818 6.818,-6.818" /><path
     style="fill:#808000;fill-opacity:1"
     inkscape:connector-curvature="0"
     id="path18"
     d="m 11.054,243.637 c 3.762,0 6.818,3.056 6.818,6.818 0,3.762 -3.056,6.817 -6.818,6.817 -3.762,0 -6.818,-3.056 -6.818,-6.817 0,-3.763 3.056,-6.818 6.818,-6.818" /><path
     style="fill:#ff2a7f;fill-opacity:1"
     inkscape:connector-curvature="0"
     id="path20"
     d="m 65.6,291.363 c 3.762,0 6.818,3.057 6.818,6.818 0,3.761 -3.057,6.819 -6.818,6.819 -3.762,0 -6.818,-3.057 -6.818,-6.818 0,-3.761 3.055,-6.819 6.818,-6.819" /><path
     style="fill:#ffe680;fill-opacity:1"
     inkscape:connector-curvature="0"
     id="path22"
     d="m 24.69,270.909 c 3.762,0 6.818,3.056 6.818,6.818 0,3.762 -3.057,6.817 -6.818,6.817 -3.762,0 -6.818,-3.056 -6.818,-6.817 0,-3.762 3.056,-6.818 6.818,-6.818" /><path
     style="fill:#c2dbff"
     inkscape:connector-curvature="0"
     id="path24"
     d="m 148.782,187.726 113.865,-63.407 c 2.044,-1.365 4.088,-2.73 6.133,-4.774 5.46,-5.453 8.183,-12.271 8.183,-19.772 l 0,-30.683 -50.45,-50.454 -30.682,0 c -7.504,0 -14.322,2.727 -19.775,8.18 -2.045,2.047 -3.409,4.091 -4.774,6.136 l -63.408,113.865 40.908,40.909 z" /><path
     style="fill:#ffffff"
     inkscape:connector-curvature="0"
     id="path26"
     d="m 182.194,44.544 c -3.409,-2.044 -7.504,-0.682 -9.548,2.727 l -25.229,45.001 c -2.044,3.409 -0.682,7.5 2.73,9.545 1.365,0.682 2.044,0.682 3.409,0.682 2.724,0 4.774,-1.365 6.133,-3.409 l 25.229,-45.001 c 2.044,-4.092 0.686,-8.18 -2.724,-9.545" /><path
     d="m 256.509,48.636 0,30.682 c 0,7.501 -2.73,14.319 -8.184,19.772 -2.044,2.047 -4.088,3.409 -6.132,4.774 l -42.858,23.866 56.485,0 -106.009,59.422 112.836,-62.834 c 2.044,-1.365 4.088,-2.727 6.133,-4.774 5.453,-5.453 8.183,-12.271 8.183,-19.772 l 0,-30.682 -20.454,-20.454 z"
     id="path30"
     inkscape:connector-curvature="0"
     style="fill:#b0c4d8" /><polygon
     points="108.55,147.5 148.78,187.73 149.812,187.152 148.782,187.726 128.328,167.271 199.335,127.73 118.78,127.73 107.87,146.82 "
     id="polygon32"
     style="fill:#c2dbff;fill-opacity:1;stroke:none" /><polygon
     points="255.82,127.73 199.335,127.73 128.328,167.271 148.782,187.726 149.812,187.152 "
     id="polygon34"
     style="fill:#b0c4d8;fill-opacity:1;stroke:none" /><path
     style="fill:#b0c4d8"
     inkscape:connector-curvature="0"
     id="path36"
     d="m 81.962,175.455 c -1.365,1.364 -1.365,3.408 -1.365,4.773 2.729,8.184 7.5,15.681 12.957,21.134 6.136,6.139 13.636,10.228 21.134,12.957 1.365,0.68 3.409,0 4.774,-1.364 l 17.728,-17.725 -37.5,-37.5 -17.728,17.725 z" /><path
     style="fill:#6d90a8"
     inkscape:connector-curvature="0"
     id="path40"
     d="m 129.007,187.047 -17.045,17.045 c -1.365,1.365 -3.409,1.365 -4.774,1.365 -6.818,-2.044 -13.636,-6.139 -19.089,-10.913 2.044,2.73 4.091,5.46 6.136,7.504 6.136,6.133 13.636,10.228 21.137,12.951 1.365,0.686 3.409,0 4.774,-1.358 l 18.725,-17.231 -9.864,-9.363 z" /><path
     d="m 153.84546,155.202 c 3.762,0 6.818,3.057 6.818,6.818 0,3.761 -3.056,6.818 -6.818,6.818 -3.762,0 -6.818,-3.057 -6.818,-6.818 0,-3.761 3.055,-6.818 6.818,-6.818"
     id="path3728"
     inkscape:connector-curvature="0"
     style="fill:#6c5353;fill-opacity:1" /><path
     d="m 148.61623,165.36115 c 3.762,0 6.818,3.056 6.818,6.817 0,3.763 -3.056,6.818 -6.818,6.818 -3.762,0 -6.818,-3.056 -6.818,-6.818 0,-3.761 3.055,-6.817 6.818,-6.817"
     id="path3730"
     inkscape:connector-curvature="0"
     style="fill:#ff2a7f;fill-opacity:1" /><path
     d="m 164.48,151.72415 c 3.762,0 6.818,3.056 6.818,6.818 0,3.762 -3.056,6.818 -6.818,6.818 -3.762,0 -6.818,-3.057 -6.818,-6.818 -0.001,-3.762 3.055,-6.818 6.818,-6.818"
     id="path3732"
     inkscape:connector-curvature="0"
     style="fill:#ffe680;fill-opacity:1" /><path
     d="m 173.52477,143.95538 c 3.762,0 6.818,3.057 6.818,6.818 0,3.761 -3.056,6.818 -6.818,6.818 -3.762,0 -6.818,-3.057 -6.818,-6.818 0,-3.761 3.056,-6.818 6.818,-6.818"
     id="path3734"
     inkscape:connector-curvature="0"
     style="fill:#ff2a7f;fill-opacity:1" /><path
     d="m 182.54462,139.66346 c 3.762,0 6.818,3.057 6.818,6.818 0,3.763 -3.056,6.818 -6.818,6.818 -3.762,0 -6.818,-3.056 -6.818,-6.818 -0.001,-3.761 3.055,-6.818 6.818,-6.818"
     id="path3736"
     inkscape:connector-curvature="0"
     style="fill:#808000;fill-opacity:1" /><path
     d="m 178.754,155.0643 c 3.762,0 6.818,3.057 6.818,6.818 0,3.761 -3.056,6.818 -6.818,6.818 -3.762,0 -6.818,-3.057 -6.818,-6.818 0,-3.761 3.056,-6.818 6.818,-6.818"
     id="path3738"
     inkscape:connector-curvature="0"
     style="fill:#808000;fill-opacity:1" /><path
     d="m 140.35862,160.92007 c 3.762,0 6.818,3.056 6.818,6.818 0,3.762 -3.056,6.817 -6.818,6.817 -3.762,0 -6.818,-3.056 -6.818,-6.817 0,-3.763 3.056,-6.818 6.818,-6.818"
     id="path3742"
     inkscape:connector-curvature="0"
     style="fill:#808000;fill-opacity:1" /><path
     d="m 160.67693,164.4353 c 3.762,0 6.818,3.057 6.818,6.818 0,3.761 -3.057,6.819 -6.818,6.819 -3.762,0 -6.818,-3.057 -6.818,-6.818 0,-3.761 3.055,-6.819 6.818,-6.819"
     id="path3744"
     inkscape:connector-curvature="0"
     style="fill:#ff2a7f;fill-opacity:1" /><path
     d="m 170.021,161.40792 c 3.762,0 6.818,3.057 6.818,6.818 0,3.761 -3.057,6.818 -6.818,6.818 -3.761,0 -6.818,-3.057 -6.818,-6.818 0,-3.761 3.057,-6.818 6.818,-6.818"
     id="path3740"
     inkscape:connector-curvature="0"
     style="fill:#483737;fill-opacity:1" /><path
     d="m 151.14232,171.55361 c 3.762,0 6.818,3.056 6.818,6.818 0,3.762 -3.057,6.817 -6.818,6.817 -3.762,0 -6.818,-3.056 -6.818,-6.817 0,-3.762 3.056,-6.818 6.818,-6.818"
     id="path3746"
     inkscape:connector-curvature="0"
     style="fill:#ffe680;fill-opacity:1" /><path
     style="fill:#6c5353;fill-opacity:1"
     inkscape:connector-curvature="0"
     id="path3748"
     d="m 201.84546,129.202 c 3.762,0 6.818,3.057 6.818,6.818 0,3.761 -3.056,6.818 -6.818,6.818 -3.762,0 -6.818,-3.057 -6.818,-6.818 0,-3.761 3.055,-6.818 6.818,-6.818" /><path
     style="fill:#ff2a7f;fill-opacity:1"
     inkscape:connector-curvature="0"
     id="path3750"
     d="m 196.61623,139.36115 c 3.762,0 6.818,3.056 6.818,6.817 0,3.763 -3.056,6.818 -6.818,6.818 -3.762,0 -6.818,-3.056 -6.818,-6.818 0,-3.761 3.055,-6.817 6.818,-6.817" /><path
     style="fill:#ffe680;fill-opacity:1"
     inkscape:connector-curvature="0"
     id="path3752"
     d="m 212.48,125.72415 c 3.762,0 6.818,3.056 6.818,6.818 0,3.762 -3.056,6.818 -6.818,6.818 -3.762,0 -6.818,-3.057 -6.818,-6.818 -0.001,-3.762 3.055,-6.818 6.818,-6.818" /><path
     style="fill:#ff2a7f;fill-opacity:1"
     inkscape:connector-curvature="0"
     id="path3754"
     d="m 235.78631,125.08615 c 3.762,0 6.818,3.057 6.818,6.818 0,3.761 -3.056,6.818 -6.818,6.818 -3.762,0 -6.818,-3.057 -6.818,-6.818 0,-3.761 3.056,-6.818 6.818,-6.818" /><path
     style="fill:#808000;fill-opacity:1"
     inkscape:connector-curvature="0"
     id="path3758"
     d="m 226.754,129.0643 c 3.762,0 6.818,3.057 6.818,6.818 0,3.761 -3.056,6.818 -6.818,6.818 -3.762,0 -6.818,-3.057 -6.818,-6.818 0,-3.761 3.056,-6.818 6.818,-6.818" /><path
     style="fill:#808000;fill-opacity:1"
     inkscape:connector-curvature="0"
     id="path3760"
     d="m 188.35862,134.92007 c 3.762,0 6.818,3.056 6.818,6.818 0,3.762 -3.056,6.817 -6.818,6.817 -3.762,0 -6.818,-3.056 -6.818,-6.817 0,-3.763 3.056,-6.818 6.818,-6.818" /><path
     style="fill:#ff2a7f;fill-opacity:1"
     inkscape:connector-curvature="0"
     id="path3762"
     d="m 208.67693,138.4353 c 3.762,0 6.818,3.057 6.818,6.818 0,3.761 -3.057,6.819 -6.818,6.819 -3.762,0 -6.818,-3.057 -6.818,-6.818 0,-3.761 3.055,-6.819 6.818,-6.819" /><path
     style="fill:#483737;fill-opacity:1"
     inkscape:connector-curvature="0"
     id="path3764"
     d="m 218.021,135.40792 c 3.762,0 6.818,3.057 6.818,6.818 0,3.761 -3.057,6.818 -6.818,6.818 -3.761,0 -6.818,-3.057 -6.818,-6.818 0,-3.761 3.057,-6.818 6.818,-6.818" /><path
     style="fill:#ffe680;fill-opacity:1"
     inkscape:connector-curvature="0"
     id="path3766"
     d="m 199.14232,145.55361 c 3.762,0 6.818,3.056 6.818,6.818 0,3.762 -3.057,6.817 -6.818,6.817 -3.762,0 -6.818,-3.056 -6.818,-6.817 0,-3.762 3.056,-6.818 6.818,-6.818" /><path
     d="m 188.07177,150.62023 c 3.762,0 6.818,3.057 6.818,6.818 0,3.761 -3.057,6.818 -6.818,6.818 -3.761,0 -6.818,-3.057 -6.818,-6.818 0,-3.761 3.057,-6.818 6.818,-6.818"
     id="path3768"
     inkscape:connector-curvature="0"
     style="fill:#483737;fill-opacity:1" /><path
     style="fill:#6c5353;fill-opacity:1"
     inkscape:connector-curvature="0"
     id="path3770"
     d="m 129.12546,128.58046 c 3.762,0 6.818,3.057 6.818,6.818 0,3.761 -3.056,6.818 -6.818,6.818 -3.762,0 -6.818,-3.057 -6.818,-6.818 0,-3.761 3.055,-6.818 6.818,-6.818" /><path
     style="fill:#ff2a7f;fill-opacity:1"
     inkscape:connector-curvature="0"
     id="path3772"
     d="m 140.53469,143.49346 c 3.762,0 6.818,3.056 6.818,6.817 0,3.763 -3.056,6.818 -6.818,6.818 -3.762,0 -6.818,-3.056 -6.818,-6.818 0,-3.761 3.055,-6.817 6.818,-6.817" /><path
     style="fill:#ffe680;fill-opacity:1"
     inkscape:connector-curvature="0"
     id="path3774"
     d="m 134.53077,134.6103 c 3.762,0 6.818,3.056 6.818,6.818 0,3.762 -3.056,6.818 -6.818,6.818 -3.762,0 -6.818,-3.057 -6.818,-6.818 -0.001,-3.762 3.055,-6.818 6.818,-6.818" /><path
     style="fill:#014463"
     inkscape:connector-curvature="0"
     id="path38"
     d="M 288.56,61.59 234.01,7.04 C 232.64,5.68 231.28,5 229.24,5 l -33.42,0 c -10.9,0 -21.811,4.09 -29.311,12.27 -2.729,2.73 -4.779,6.14 -6.819,9.55 L 94.24,144.77 72.42,165.91 c -4.78,4.77 -6.82,12.27 -4.09,19.09 0.44,1.32 0.91,2.61 1.42,3.88 0.3,-0.06 0.61,-0.09 0.92,-0.09 2.79,0 5.07,2.28 5.07,5.07 0,1.52 -0.67,2.89 -1.74,3.81 1.65,2.87 3.5,5.6 5.57,8.19 0.73,-0.4 1.57,-0.63 2.46,-0.63 2.8,0 5.07,2.27 5.07,5.06 0,1.04 -0.31,2 -0.84,2.81 2.55,2.4 5.24,4.57 8.09,6.511 0.91,-0.931 2.19,-1.5 3.59,-1.5 2.8,0 5.07,2.279 5.07,5.069 0,0.46 -0.06,0.91 -0.19,1.34 2.71,1.32 5.53,2.461 8.46,3.44 2.05,0.67 4.09,0.67 6.14,0.67 4.77,0 9.54,-2.04 12.95,-5.45 l 21.82,-21.819 117.949,-65.45 c 3.41,-2.05 6.82,-4.09 9.551,-6.82 8.18,-8.18 12.27,-18.41 12.27,-29.32 l 0,-33.411 c -1.36,-2.04 -2.04,-3.41 -3.4,-4.77 z M 120.15,213.63 c -1.37,1.37 -3.41,1.37 -4.78,1.37 -8.18,-2.73 -15,-7.5 -21.13,-12.96 -6.14,-6.13 -10.23,-12.95 -12.96,-21.13 -0.68,-1.37 0,-3.41 1.37,-4.78 l 17.72,-17.72 38.19,38.18 -18.41,17.04 z M 276.96,99.77 c 0,7.5 -2.729,14.32 -8.18,19.77 -2.04,2.05 -4.09,3.41 -6.13,4.78 L 148.78,187.73 108.55,147.5 171.96,33.63 c 1.37,-2.04 2.73,-4.08 4.771,-6.13 4.779,-6.14 11.6,-8.86 19.09,-8.86 l 30.689,0 50.45,50.45 0,30.68 z" /><path
     style="fill:#ff2a7f;fill-opacity:1"
     inkscape:connector-curvature="0"
     id="path3776"
     d="m 181.60631,126.84153 c 3.762,0 6.818,3.057 6.818,6.818 0,3.761 -3.056,6.818 -6.818,6.818 -3.762,0 -6.818,-3.057 -6.818,-6.818 0,-3.761 3.056,-6.818 6.818,-6.818" /><path
     style="fill:#808000;fill-opacity:1"
     inkscape:connector-curvature="0"
     id="path3780"
     d="m 158.78784,133.67199 c 3.762,0 6.818,3.057 6.818,6.818 0,3.761 -3.056,6.818 -6.818,6.818 -3.762,0 -6.818,-3.057 -6.818,-6.818 0,-3.761 3.056,-6.818 6.818,-6.818" /><path
     style="fill:#808000;fill-opacity:1"
     inkscape:connector-curvature="0"
     id="path3782"
     d="m 121.81862,132.39699 c 3.762,0 6.818,3.056 6.818,6.818 0,3.762 -3.056,6.817 -6.818,6.817 -3.762,0 -6.818,-3.056 -6.818,-6.817 0,-3.763 3.056,-6.818 6.818,-6.818" /><path
     style="fill:#ff2a7f;fill-opacity:1"
     inkscape:connector-curvature="0"
     id="path3784"
     d="m 124.5477,144.94453 c 3.762,0 6.818,3.057 6.818,6.818 0,3.761 -3.057,6.819 -6.818,6.819 -3.762,0 -6.818,-3.057 -6.818,-6.818 0,-3.761 3.055,-6.819 6.818,-6.819" /><path
     style="fill:#483737;fill-opacity:1"
     inkscape:connector-curvature="0"
     id="path3786"
     d="m 131.15189,151.13479 c 3.762,0 6.818,3.057 6.818,6.818 0,3.761 -3.057,6.818 -6.818,6.818 -3.761,0 -6.818,-3.057 -6.818,-6.818 0,-3.761 3.057,-6.818 6.818,-6.818" /><path
     style="fill:#ffe680;fill-opacity:1"
     inkscape:connector-curvature="0"
     id="path3788"
     d="m 118.81616,139.70284 c 3.762,0 6.818,3.056 6.818,6.818 0,3.762 -3.057,6.817 -6.818,6.817 -3.762,0 -6.818,-3.056 -6.818,-6.817 0,-3.762 3.056,-6.818 6.818,-6.818" /><path
     d="m 155.73315,128.62423 c 3.762,0 6.818,3.056 6.818,6.817 0,3.763 -3.056,6.818 -6.818,6.818 -3.762,0 -6.818,-3.056 -6.818,-6.818 0,-3.761 3.055,-6.817 6.818,-6.817"
     id="path3790"
     inkscape:connector-curvature="0"
     style="fill:#ff2a7f;fill-opacity:1" /><path
     d="m 143.19708,128.74007 c 3.762,0 6.818,3.056 6.818,6.818 0,3.762 -3.056,6.817 -6.818,6.817 -3.762,0 -6.818,-3.056 -6.818,-6.817 0,-3.763 3.056,-6.818 6.818,-6.818"
     id="path3792"
     inkscape:connector-curvature="0"
     style="fill:#808000;fill-opacity:1" /><path
     d="m 170.61924,128.91515 c 3.762,0 6.818,3.056 6.818,6.818 0,3.762 -3.057,6.817 -6.818,6.817 -3.762,0 -6.818,-3.056 -6.818,-6.817 0,-3.762 3.056,-6.818 6.818,-6.818"
     id="path3794"
     inkscape:connector-curvature="0"
     style="fill:#ffe680;fill-opacity:1" /><path
     style="fill:#483737;fill-opacity:1"
     inkscape:connector-curvature="0"
     id="path3796"
     d="m 150.99177,138.73561 c 3.762,0 6.818,3.057 6.818,6.818 0,3.761 -3.057,6.818 -6.818,6.818 -3.761,0 -6.818,-3.057 -6.818,-6.818 0,-3.761 3.057,-6.818 6.818,-6.818" /><polygon
     style="fill:#c2dbff;fill-opacity:1;stroke:none;opacity:0.66"
     id="polygon4598"
     points="108.55,147.5 148.78,187.73 149.812,187.152 148.782,187.726 128.328,167.271 199.335,127.73 118.78,127.73 107.87,146.82 " /></svg>