<?xml version="1.0" encoding="UTF-8" standalone="no"?>
<!-- Generator: Adobe Illustrator 13.0.2, SVG Export Plug-In . SVG Version: 6.00 Build 14948)  -->

<svg
   xmlns:dc="http://purl.org/dc/elements/1.1/"
   xmlns:cc="http://creativecommons.org/ns#"
   xmlns:rdf="http://www.w3.org/1999/02/22-rdf-syntax-ns#"
   xmlns:svg="http://www.w3.org/2000/svg"
   xmlns="http://www.w3.org/2000/svg"
   xmlns:sodipodi="http://sodipodi.sourceforge.net/DTD/sodipodi-0.dtd"
   xmlns:inkscape="http://www.inkscape.org/namespaces/inkscape"
   id="Layer_1"
   xml:space="preserve"
   viewBox="0 0 306.80705 196.35547"
   version="1.1"
   y="0px"
   x="0px"
   inkscape:version="0.91 r13725"
   sodipodi:docname="hot breakfast.svg"
   width="306.80704"
   height="196.35547"><defs
     id="defs6195" /><sodipodi:namedview
     pagecolor="#ffffff"
     bordercolor="#666666"
     borderopacity="1"
     objecttolerance="10"
     gridtolerance="10"
     guidetolerance="10"
     inkscape:pageopacity="0"
     inkscape:pageshadow="2"
     inkscape:window-width="1078"
     inkscape:window-height="1899"
     id="namedview6193"
     showgrid="false"
     inkscape:zoom="1.6979334"
     inkscape:cx="95.702176"
     inkscape:cy="90.168102"
     inkscape:window-x="0"
     inkscape:window-y="19"
     inkscape:window-maximized="0"
     inkscape:current-layer="Layer_1"
     fit-margin-top="5"
     fit-margin-left="5"
     fit-margin-right="5"
     fit-margin-bottom="5" /><g
     id="g6870"><path
       inkscape:connector-curvature="0"
       id="path6823"
       d="m 146.67526,90.451169 c -1.3425,0.0427 -2.75884,0.30166 -3.40234,0.47266 -0.023,3.992 6.7282,2.82475 5.6582,6.71875 -3.45271,-0.17868 -6.84705,-3.42921 -9.17968,-6.70117 -0.61365,0.35469 -2.005,0.19354 -2.8418,-0.0156 -1.87,-0.195 -4.63976,0.36008 -7.42773,0.70508 -1.70401,0.213 -3.16271,0.139 -4.59571,0 -0.561,-0.052 -1.56909,0.9475 -2.12109,1.0625 -1.16,0.242 -2.50566,-0.27348 -4.59766,0.35352 -0.99,0.297 -0.91606,-0.106 -1.41406,0 -5.37,1.14 -11.46517,1.68459 -17.326168,3.18359 -3.851,0.985 -7.16336,3.66262 -11.31836,3.890621 -1.321,1.332 -3.308734,1.5511 -5.302734,2.1211 -0.947,0.27 -1.567125,1.48209 -2.828125,2.12109 -0.288,0.147 -1.123063,-0.126 -1.414063,0 -3.934,1.686 -10.259359,8.77549 -11.318359,12.02149 -0.86,2.644 0.804469,4.58517 0.355469,7.07422 13.568,3.58798 31.956294,4.67823 46.32421,6.36523 2.371,-0.55 2.64072,-0.136 3.88672,0 5.099,0.544 12.97258,-0.0849 16.26758,1.41211 14.621,-0.213 31.5192,0.1145 44.9082,-1.0625 3.831,-0.334 8.24494,-0.0786 10.96094,-0.34961 4.308,-0.432 9.12352,-0.097 12.72852,-0.70899 1.407,-0.24198 2.65814,-1.25201 4.24414,-1.41601 3.838,-0.395 8.30447,-1.10759 12.73047,-1.05859 4.176,-1.528 5.36497,-1.44605 11.66797,-2.12305 1.478,-1.289 2.35709,-1.33258 3.53711,-1.76758 1.04499,-2.774 3.5196,-5.44231 2.4746,-9.19531 -3.053,-3.022 -7.56084,-3.80877 -10.96484,-6.00977 -1.778,-1.152 -2.57423,-2.93862 -4.24023,-3.89062 -1.338,-0.763 -4.66722,-1.62453 -4.94922,-1.76953 -2.674,-1.358 -3.91927,-2.801641 -7.07227,-3.181641 -1.273,-0.152 -2.7857,-0.98207 -4.5957,-1.41407 -2.113,-0.506 -4.40275,0.0665 -6.71875,-0.35351 -2.473,-0.452 -4.94069,-1.68805 -7.42969,-2.12305 -1.462,-0.253 -2.93023,-0.55008 -4.24023,-0.70508 -1.543,-0.188 -3.5672,0.373 -4.95117,0 -1.06801,-0.291 -1.68708,-1.23801 -2.83008,-1.41601 -6.15,-0.959 -8.69957,-0.30203 -14.85157,-0.70703 -6.429,-0.423 -12.08356,-1.68408 -14.85156,-0.70508 -0.3495,-0.696 -1.61844,-0.87088 -2.96094,-0.82813 z m 94.44336,18.611331 c -1.34209,0.0507 -2.62515,0.37616 -3.77734,0.95899 2.693,3.90999 8.30495,3.97418 12.37695,4.24218 l 0,-0.006 c -0.03,-0.62 0.0696,-1.10015 0.34961,-1.41015 -2.75962,-2.68607 -5.9966,-3.89669 -8.94922,-3.78516 z m -177.755852,3.77734 c -4.218,0.39 -6.692859,0.60993 -10.255859,1.41993 -2.063,8 11.291859,2.84298 10.255859,-1.41602 l 0,-0.004 z m 186.701172,5.31055 c -10.23,7.879 -22.55194,9.73688 -35.71094,11.67188 -8.655,1.269 -15.83,1.34661 -26.875,2.47461 -22.739,2.32 -41.42289,1.57946 -62.58789,0.35546 -2.898,-0.17 -5.84185,-0.0845 -8.83985,-0.35546 -12.82292,-1.157 -25.205445,-0.93711 -38.189445,-4.24415 -2.475,0.79802 -11.021062,-2.61812 -13.789062,-2.82812 l 0.002,0.01 c -2.014,1.33 -9.04775,2.99007 -8.84375,8.83007 0.181,5.18 6.505922,9.34996 9.544922,12.37696 6.138,6.112 14.423281,11.24957 20.863281,14.14258 -0.017,-0.66202 0.273984,-0.74852 0.708984,-0.35352 1.068,-0.247 1.644625,1.34401 1.765625,1.41602 3.643,2.187 9.632453,3.26468 13.439455,5.30468 0.864,0.463 2.03912,0.0685 2.82812,0.35352 1.117,0.404 1.67008,1.46558 2.83008,1.76758 1.543,0.403 3.36422,-0.15049 4.94922,0.35351 0.881,0.279 1.48461,1.21606 2.47461,1.41406 2.092,0.418 5.40123,0.004 6.36523,0 14.734,-0.06 33.69153,1.73249 53.39453,-0.35351 4.598,0.753 10.95005,0.3505 14.49805,-1.0625 1.83,-0.729 2.76166,-0.36403 4.59766,-0.70703 3.839,-0.717 8.54592,-3.0716 9.54492,-3.1836 1.316,-0.143 5.4547,-1.64011 6.7207,-1.41211 1.577,-2.579 7.39939,-2.69759 9.90039,-3.18359 11.314,-7.566 29.50424,-18.03087 31.11524,-36.42187 0.213,-2.423 -0.26103,-4.99324 -0.70703,-6.36524 z m 11.875,16.96875 c -3.73231,-0.0453 -7.55591,1.21678 -12.22266,1.76953 -3.255,4.645 -6.51438,9.27999 -10.60937,13.08399 l 0,2.12109 c -1.79902,1.261 -4.02822,-0.51142 -4.94922,1.76758 0.778,0.521 1.42757,1.16705 1.76757,2.12305 -0.769,0.29 -0.78657,1.33306 -1.76757,1.41406 -0.389,-0.908 -1.3621,-1.23453 -2.1211,-1.76953 0.014,0.757 -1.56403,1.68909 -0.70703,2.12109 0.225,-0.863 1.65258,-0.0525 1.76758,0.35547 0.265,1.796 -0.35206,2.71059 -1.41406,3.18359 -0.332,-0.85 -1.4225,-0.93956 -1.0625,-2.47656 -1.097,0.081 -1.10302,1.25209 -1.41602,2.12109 2.769,0.021 -0.131,3.54463 2.125,3.89063 0.38,-1.037 0.97561,-1.85353 2.47461,-1.76953 0.406,1.246 0.77758,2.52459 1.76758,3.18359 3.183,-0.647 6.87687,-0.23909 9.54687,-2.12109 -0.821,-0.112 -1.35762,0.0575 -1.76562,0.35351 -1.033,-1.105 -0.29199,-2.84062 -0.70899,-3.89062 -1.113,-0.406 -0.86001,0.55598 -1.41601,0.70898 -0.038,-0.667 -1.16761,-0.2485 -1.05859,-1.0625 -0.16702,-1.462 0.83506,-1.75761 1.41406,-2.47461 0.49083,1.03954 2.03522,1.02432 1.41601,3.16993 1.0614,0.0977 2.70733,-0.37879 2.82617,0.7207 0.34002,1.192 -1.085,2.41264 0,3.18164 0.90602,-0.405 2.30811,-0.259 3.53711,0 0.369,-1.448 -0.26992,-2.07164 0.70508,-3.18164 3.186,1.528 5.27175,2.72512 6.71875,0.70312 -0.533,-0.947 -1.55562,-0.32014 -1.76562,-2.11914 0.308,-1.648 2.15164,-0.976 3.18164,0 0.336,1.517 -0.99155,1.36761 -1.06055,2.47461 3.393,0.309 4.99835,-1.43508 7.77735,-0.70508 0.057,-0.417 -0.0615,-1.0045 0.35351,-1.0625 0.213,0.883 3.50814,-0.2255 4.24414,-1.0625 7.821,-0.947 17.98899,-4.81335 25.45899,-9.19336 0.895,-0.872 2.00212,-3.01907 2.82812,-2.83007 -0.049,-1.202 0.27697,-3.84614 -0.70703,-2.11914 0.046,-3.109 -3.85767,-2.27169 -3.88867,-5.30469 -2.127,0.616 -2.93563,-2.32103 -3.89063,-0.70703 l 0,-1.41407 c -7.128,-1.34398 -14.43939,-3.73704 -22.27539,-2.12304 -1.73,-0.75 -3.40701,-1.03997 -5.10351,-1.06055 z m -232.875,2.125 c -7.105,1.577 -14.624281,4.04829 -20.8632812,9.90235 l 0,3.88867 c 3.9590002,4.408 10.4895782,6.24984 16.2675782,8.83984 l 0,-0.0137 c 9.007,1.39 15.738438,4.39976 22.273438,4.25976 4.256,0.97 13.840173,3.0591 19.451171,2.1211 0.233,-0.944 0.146032,-2.21108 0.707032,-2.83008 0.219,1.85 0.476062,-0.74552 1.414062,-0.35352 0.999,0.414 1.174016,1.65713 1.416016,2.82813 1.732,-0.153 5.144328,-1.16858 6.361328,-1.76758 0.379,-1.911 -1.056094,-2.00861 -2.121094,-2.47461 0.083,1.496 -0.734578,2.09161 -1.767578,2.47461 -0.144,-0.682 -1.371547,-0.27901 -1.060547,-1.41601 -0.299,-1.475 0.958016,-1.39714 1.416016,-2.11914 -2.668,-2.32202 -5.051219,-2.74121 -7.074219,-5.65821 -0.99,0.186 -1.838125,0.51803 -2.828125,0.70703 -1.099,-1.143 -0.414,-2.47762 0,-3.89062 -2.676,-1.83 -4.500234,-4.17977 -6.365234,-6.00977 -1.66,-1.629 -2.496235,-4.5592 -4.240235,-5.6582 -0.711,-0.447 -4.303703,-1.34958 -6.720703,-1.76758 -2.248,-0.391 -4.39025,-0.028 -5.65625,0 -3.193,0.066 -7.312375,-0.9205 -10.609375,-1.0625 z m 214.71484,30.32031 c -2.32755,0.0599 -4.84039,0.61899 -7.15039,0.80274 -0.472,0.037 -2.13161,0.85203 -2.47461,0.70703 -2.227,-0.918 -5.19481,0.7315 -8.13281,1.0625 -3.902,0.438 -9.56197,0.40551 -11.66797,0.35351 -11.646,1.94003 -22.08769,1.85961 -32.17969,2.47461 -4.294,0.261 -9.00051,0.49947 -14.85351,0.35547 -3.723,0.765 -5.51293,0.688 -9.54493,0 -9.755,1.249 -36.31939,0.26702 -49.15039,-0.70898 -0.043,-0.003 -0.0296,0.72298 -0.35156,0.70898 -4.19798,-0.191 -14.097183,-1.43448 -18.742183,-1.77148 -4.56,0.026 -8.120953,-0.23508 -12.376953,-0.70508 0.196,0 0.403,-0.2875 0,-0.35352 -8.16,1.00802 -16.988906,-3.93897 -22.628906,0 2.303,4.88702 9.7685,4.61186 13.4375,8.13086 2.874,0.645 4.022734,-0.0969 5.302734,1.41407 11.813,2.04 21.317172,3.73272 31.826168,6.01172 5.453,-1.079 10.12414,2.00503 16.61914,0.70703 12.788,2.624 29.33523,1.04201 43.49023,1.41601 3.92203,-0.797 9.68507,-0.91753 15.91407,-1.76953 5.393,-0.737 10.93456,-1.22455 14.85156,-1.06055 4.553,-2.584 10.59966,-2.06564 16.97266,-3.18164 9.033,-2.239 16.5869,-4.7322 24.7539,-5.6582 3.131,-2.881 9.10192,-2.92133 9.54492,-8.48633 l -0.01,-0.006 c -0.7725,-0.2675 -1.60123,-0.39726 -2.46485,-0.43554 -0.32383,-0.0144 -0.65186,-0.0162 -0.98437,-0.008 z"
       style="clip-rule:evenodd;fill:#ffffff;fill-rule:evenodd" /><path
       id="path6821"
       d="M 141.15625 5 C 141.11625 9.506 144.48633 13.629469 143.98633 17.730469 C 143.63733 20.573469 141.19069 20.789188 140.80469 23.742188 C 148.78969 23.586187 145.27823 8.833 141.86523 5 L 141.1582 5 L 141.15625 5 z M 137.55469 26.224609 C 134.19044 26.049359 131.61486 27.460683 132.31836 32.929688 C 137.18636 36.016688 142.65434 34.400078 145.40234 30.455078 C 148.08634 33.709078 151.80558 36.673062 151.76758 43.539062 C 151.15158 45.053063 149.20605 46.289766 149.99805 48.134766 L 150.00391 48.130859 C 158.29391 44.320859 151.08344 32.711016 147.52344 29.041016 C 145.07194 28.161008 140.91894 26.399859 137.55469 26.224609 z M 137.03711 28.486328 C 138.78996 28.580518 140.69999 29.313127 142.57031 29.398438 C 141.80831 32.022437 137.90097 32.687047 134.79297 31.873047 C 134.57697 31.024047 134.2825 30.258922 134.4375 29.044922 L 134.43945 29.048828 C 135.02445 28.695076 135.64765 28.531953 136.29688 28.488281 C 136.54032 28.471901 136.78671 28.472918 137.03711 28.486328 z M 142.95898 48.166016 C 140.75453 48.148916 138.37539 48.351641 135.49414 48.494141 C 132.57014 51.011141 125.77577 54.289109 127.00977 60.162109 C 127.40777 62.053109 129.06391 63.296781 131.25391 64.050781 C 131.52691 63.969781 131.94998 64.040276 131.95898 63.697266 C 131.19298 63.757266 131.80041 62.441687 131.60742 61.929688 C 130.58541 61.413688 129.42986 61.040641 129.13086 59.806641 C 128.91486 54.991641 132.69902 54.179828 134.79102 51.673828 C 138.17502 50.018828 143.95055 51.122281 146.81055 50.613281 C 154.20855 52.973281 161.10256 58.465891 160.60156 67.587891 C 160.10656 76.591891 151.47998 78.138974 146.45898 82.083984 L 146.45117 82.087891 C 150.07118 82.847891 149.73031 81.298906 152.82031 81.378906 C 154.04931 80.486906 154.56589 78.879297 156.71289 78.904297 C 168.86489 68.447297 159.85755 50.833141 146.81055 48.494141 C 145.54268 48.266521 144.28164 48.176286 142.95898 48.166016 z M 137.39648 53.421875 C 135.26131 53.388775 132.58532 55.17938 131.96094 56.625 C 131.79394 62.355 136.31567 63.42175 139.38867 63.34375 L 139.39258 63.347656 C 137.93258 65.617656 133.36133 63.148203 131.61133 64.408203 C 133.78333 68.575203 140.8853 66.781744 143.2793 64.052734 C 142.8643 63.522744 142.25875 63.186203 142.21875 62.283203 C 145.22575 61.080203 146.77698 59.676109 148.58398 60.162109 C 148.72498 59.126109 149.74309 58.965016 149.99609 58.041016 C 145.89309 55.687016 141.53306 61.707609 136.91406 61.224609 C 133.24206 59.511609 133.98755 56.116406 136.56055 55.566406 C 137.88655 55.281406 139.0857 57.188922 140.0957 55.919922 C 139.76345 54.117672 138.67758 53.441755 137.39648 53.421875 z M 154.7207 59.095703 C 154.58073 59.090703 154.42141 59.093469 154.23828 59.105469 L 154.23047 59.097656 C 153.18047 61.027656 155.63938 61.408672 156.35938 62.638672 C 156.01137 63.432672 156.95286 65.873297 156.00586 66.529297 C 156.16086 66.422297 155.73034 65.661266 155.65234 65.822266 C 153.46534 70.386266 149.49991 72.966125 145.04492 73.953125 C 139.58591 75.168125 133.87939 74.370359 130.90039 80.318359 C 131.61739 80.546359 131.13494 81.972891 131.96094 82.087891 C 131.96094 81.889891 132.24845 81.685891 132.31445 82.087891 C 134.45545 79.059891 138.04883 75.935156 142.92383 76.785156 C 149.33183 74.752156 159.64291 73.220563 158.12891 61.226562 C 157.11891 61.053562 157.11289 59.882469 156.71289 59.105469 C 155.75302 59.510589 155.70048 59.131303 154.7207 59.095703 z M 145.75586 82.447266 C 142.47186 82.605266 141.02117 83.438594 140.45117 88.808594 C 129.54017 88.825594 126.67725 89.487719 116.40625 91.636719 C 115.83325 91.576719 115.96672 90.972641 114.63672 90.931641 C 108.51972 91.907641 97.294297 94.934359 91.654297 96.943359 C 88.840297 97.945359 86.028953 99.211952 83.876953 100.12695 C 81.223953 101.25195 78.584219 101.91255 76.449219 103.31055 C 74.547219 103.33655 73.022484 104.36866 71.146484 104.72266 C 69.384483 105.05366 67.640797 104.46666 65.841797 104.72266 C 63.059797 105.11966 61.292047 106.55478 59.123047 107.55078 C 57.669047 108.21778 55.71286 108.4888 54.880859 108.9668 C 48.869861 112.4008 47.37311 121.04756 48.162109 129.47656 C 45.74511 130.47856 45.667859 131.42367 42.505859 130.88867 C 39.046859 131.98867 34.438813 133.94277 28.007812 133.00977 C 27.849812 133.91277 27.509312 134.63581 26.945312 135.13281 C 26.064312 135.42881 25.050719 135.59533 23.761719 135.48633 C 20.135719 137.26833 15.171781 139.40806 12.800781 140.78906 C 10.541781 142.10406 4.5854375 145.25437 5.0234375 149.98438 C 5.3344375 153.37637 10.308781 156.29072 12.800781 157.76172 C 17.497781 160.53872 23.062828 161.36394 27.298828 162.71094 C 33.312828 167.54594 40.562016 170.97131 46.041016 173.32031 C 49.230016 174.68431 53.605469 176.69302 57.355469 177.91602 C 66.163469 180.79102 75.410063 182.47925 85.289062 184.28125 C 87.128062 184.61725 89.000312 185.76083 90.945312 186.04883 C 99.351313 187.29483 101.52498 187.71788 110.04297 188.17188 C 115.63497 189.89388 133.4587 190.66697 142.2207 190.29297 C 142.6667 191.61097 143.4268 189.70647 144.3418 191.35547 C 144.9978 188.82847 148.64556 190.972 150.35156 191 C 152.37756 191.032 154.89078 190.63747 157.42578 190.64648 C 160.50478 190.65548 164.15914 190.32545 166.61914 189.93945 C 169.42414 189.49945 172.24247 190.45397 175.10547 190.29297 C 176.07847 190.23797 176.90959 189.39747 177.93359 189.23047 C 182.16659 188.53947 187.67464 187.86789 192.43164 187.46289 C 197.77364 187.00789 199.47711 185.9608 203.03711 185.3418 C 205.63011 184.8888 208.54487 185.4303 211.17188 184.98828 C 218.85288 183.68428 226.39273 180.69156 233.80273 178.97656 C 239.25873 177.71256 241.2517 177.04345 245.4707 175.43945 C 250.3077 173.60145 254.69925 171.48372 258.90625 170.13672 C 259.38925 169.32172 260.4633 169.09719 261.0293 168.36719 C 264.9343 167.73919 266.92022 164.51697 270.57422 162.70898 C 274.75822 160.64597 280.1457 160.68831 284.7207 158.82031 C 285.8417 158.36031 286.7593 157.09327 287.9043 156.69727 C 291.9013 155.31227 294.59073 153.88653 297.80273 151.39453 C 298.93373 150.51953 300.45684 149.65697 301.33984 148.91797 C 301.92542 146.08757 302.47936 142.15238 299.56641 140.07031 C 286.02879 126.69069 270.03247 131.0504 263.14453 127.33789 C 259.27085 125.25003 255.42622 125.94336 253.94922 127.69336 C 253.13722 126.97336 253.8237 124.75717 253.5957 123.45117 C 255.12265 121.71486 253.74951 115.54792 253.94922 114.96484 C 250.50386 105.95954 250.48254 106.52159 241.57227 104 C 234.7769 102.63818 229.51679 102.39178 224.60742 102.24414 L 224.60547 102.23828 C 220.0632 100.97476 218.66523 98.650925 214.70703 97.296875 C 206.56852 93.507335 202.84974 95.113272 197.02734 93.757812 C 190.55801 92.166602 187.21973 91.706457 183.5918 91.992188 C 183.3358 92.058188 180.27214 90.708125 178.99414 90.578125 C 162.51714 88.892125 155.89125 89.076031 143.28125 88.457031 C 142.68825 85.036031 145.62386 85.143266 145.75586 82.447266 z M 146.68359 90.447266 C 148.02609 90.404366 149.29503 90.578891 149.64453 91.275391 C 152.41253 90.296391 158.06709 91.557469 164.49609 91.980469 C 170.64909 92.385469 173.19866 91.730453 179.34766 92.689453 C 180.48966 92.867453 181.10973 93.814469 182.17773 94.105469 C 183.56173 94.478469 185.58591 93.917469 187.12891 94.105469 C 188.43791 94.260469 189.90714 94.555594 191.36914 94.808594 C 193.85914 95.243594 196.32583 96.479641 198.79883 96.931641 C 201.11583 97.351641 203.40558 96.781109 205.51758 97.287109 C 207.32758 97.719109 208.84128 98.547219 210.11328 98.699219 C 213.26628 99.079219 214.51155 100.52581 217.18555 101.88281 C 217.46755 102.02781 220.79677 102.88739 222.13477 103.65039 C 223.80077 104.60339 224.59895 106.39002 226.37695 107.54102 C 229.78095 109.74202 234.28684 110.53174 237.33984 113.55273 C 238.38484 117.30574 235.91023 119.97209 234.86523 122.74609 C 233.68523 123.18109 232.80713 123.22467 231.32812 124.51367 C 225.02513 125.19067 223.83616 125.10872 219.66016 126.63672 C 215.23516 126.58872 210.76869 127.30227 206.92969 127.69727 C 205.34369 127.86127 204.09255 128.87128 202.68555 129.11328 C 199.07955 129.72528 194.26503 129.38831 189.95703 129.82031 C 187.24103 130.09131 182.82709 129.83791 178.99609 130.17188 C 165.60709 131.34787 148.70889 131.02038 134.08789 131.23438 C 130.79289 129.73737 122.91931 130.36431 117.82031 129.82031 C 116.57431 129.68431 116.30459 129.27031 113.93359 129.82031 C 99.565592 128.13431 81.177375 127.04308 67.609375 123.45508 C 68.058375 120.96608 66.39586 119.02781 67.255859 116.38281 C 68.314861 113.13681 74.638266 106.04638 78.572266 104.35938 C 78.863266 104.23337 79.698328 104.50637 79.986328 104.35938 C 81.247328 103.72038 81.867453 102.51123 82.814453 102.24023 C 84.808453 101.67024 86.796188 101.45114 88.117188 100.11914 C 92.272188 99.89114 95.584547 97.212516 99.435547 96.228516 C 105.29754 94.729516 111.39172 94.184922 116.76172 93.044922 C 117.25972 92.938922 117.18578 93.341922 118.17578 93.044922 C 120.26878 92.417922 121.61344 92.932406 122.77344 92.691406 C 123.32644 92.576406 124.33353 91.576906 124.89453 91.628906 C 126.32753 91.767906 127.78623 91.841906 129.49023 91.628906 C 132.26355 91.285716 135.01718 90.735725 136.88672 90.921875 L 136.88867 90.921875 C 137.69622 91.121018 139.08593 91.278926 139.73828 90.923828 C 139.74228 90.929828 139.74725 90.935406 139.75195 90.941406 C 139.75355 90.940606 139.75544 90.938556 139.75781 90.9375 C 142.09148 94.2112 145.48597 97.459957 148.93945 97.638672 C 150.00945 93.744672 143.25825 94.913875 143.28125 90.921875 C 143.92475 90.750875 145.34109 90.490136 146.68359 90.447266 z M 139.74609 90.921875 C 139.74929 90.926371 139.75266 90.931051 139.75586 90.935547 L 139.74023 90.923828 C 139.74192 90.922907 139.74442 90.922803 139.74609 90.921875 z M 241.10742 109.05859 C 244.06003 108.94706 247.29896 110.15769 250.05859 112.84375 L 250.05664 112.84961 C 249.78664 113.16961 249.68703 113.64977 249.70703 114.25977 C 245.63503 113.99277 240.02308 113.92562 237.33008 110.01562 C 238.48227 109.43281 239.76532 109.10929 241.10742 109.05859 z M 63.363281 112.84766 C 64.399111 117.10596 51.049833 122.26193 53.107422 114.26758 C 56.670422 113.45758 59.145281 113.23766 63.363281 112.84766 z M 250.06445 118.15039 C 250.51045 119.52239 250.98644 122.09262 250.77344 124.51562 C 249.16244 142.90663 230.9722 153.3725 219.6582 160.9375 C 217.1572 161.4245 211.33286 161.54309 209.75586 164.12109 C 208.48986 163.89309 204.35211 165.3892 203.03711 165.5332 C 202.03811 165.6462 197.33119 167.9998 193.49219 168.7168 C 191.65619 169.0598 190.72258 168.6948 188.89258 169.42383 C 185.34458 170.83783 178.99448 171.24033 174.39648 170.48633 C 154.69248 172.57233 135.73495 170.77984 121.00195 170.83984 C 120.03795 170.84384 116.72872 171.25784 114.63672 170.83984 C 113.64672 170.64184 113.04016 169.70478 112.16016 169.42578 C 110.57416 168.92278 108.75294 169.47528 107.21094 169.07227 C 106.05094 168.77027 105.49981 167.70769 104.38281 167.30469 C 103.59381 167.01869 102.41573 167.41417 101.55273 166.95117 C 97.745735 164.91117 91.758234 163.83347 88.115234 161.64648 C 87.994234 161.57448 87.415656 159.98347 86.347656 160.23047 C 85.912656 159.83547 85.622625 159.92197 85.640625 160.58398 C 79.199625 157.69097 70.915344 152.55241 64.777344 146.44141 C 61.738344 143.41441 55.413422 139.24445 55.232422 134.06445 L 55.226562 134.06445 C 55.019562 128.21445 62.051266 126.55461 64.072266 125.22461 C 66.841266 125.43461 75.388281 128.85075 77.863281 128.05273 C 90.847281 131.35973 103.22973 131.13988 116.05273 132.29688 C 119.05073 132.56787 121.99458 132.48234 124.89258 132.65234 C 146.05758 133.87534 164.74147 134.61587 187.48047 132.29688 C 198.52547 131.16888 205.69852 131.09127 214.35352 129.82227 C 227.51252 127.88727 239.83545 126.02939 250.06445 118.15039 z M 261.93359 135.12109 C 263.63009 135.14169 265.30711 135.43164 267.03711 136.18164 C 274.87311 134.56764 282.1845 136.96069 289.3125 138.30469 L 289.3125 139.71875 C 290.2675 138.10475 291.07612 141.04178 293.20312 140.42578 C 293.23512 143.45878 297.1378 142.62247 297.0918 145.73047 C 298.0758 144.00347 297.75178 146.64956 297.80078 147.85156 C 296.97478 147.66156 295.8667 149.80769 294.9707 150.67969 C 287.5007 155.05969 277.33469 158.92605 269.51367 159.87305 C 268.77768 160.71005 265.48253 161.81955 265.26953 160.93555 C 264.85453 160.99355 264.97402 161.58105 264.91602 161.99805 C 262.13702 161.26705 260.53072 163.01213 257.13672 162.70312 C 257.20572 161.59512 258.53522 161.74552 258.19922 160.22852 C 257.16822 159.25252 255.32362 158.58052 255.01562 160.22852 C 255.22563 162.02752 256.2512 161.40066 256.7832 162.34766 C 255.3352 164.37066 253.2485 163.17253 250.0625 161.64453 C 249.0875 162.75553 249.7264 163.37917 249.35742 164.82617 C 248.12941 164.56717 246.72827 164.42117 245.82227 164.82617 C 244.73727 164.05717 246.16227 162.83553 245.82227 161.64453 L 245.85352 161.64648 C 245.77352 160.54648 244.09219 161.0475 242.99219 160.9375 C 242.9926 160.93608 242.99177 160.93501 242.99219 160.93359 L 242.99805 160.93555 C 242.99905 160.93055 242.99848 160.92657 243 160.92188 C 242.99881 160.92176 242.99736 160.92192 242.99609 160.92188 C 243.61336 158.77783 242.06877 158.79303 241.57812 157.75391 C 240.99912 158.47091 239.99902 158.76652 240.16602 160.22852 C 240.05702 161.04252 241.18761 160.62302 241.22461 161.29102 C 241.78061 161.13802 241.52763 160.17603 242.64062 160.58203 C 243.05763 161.63203 242.31466 163.36866 243.34766 164.47266 C 243.75666 164.17666 244.29523 164.00714 245.11523 164.11914 C 242.44523 166.00114 238.74941 165.59324 235.56641 166.24023 C 234.57541 165.58024 234.20578 164.30264 233.80078 163.05664 C 232.30178 162.97264 231.70422 163.79017 231.32422 164.82617 C 229.06822 164.48017 231.97018 160.95655 229.20117 160.93555 C 229.51418 160.06655 229.52019 158.89545 230.61719 158.81445 C 230.25719 160.35245 231.34869 160.44102 231.67969 161.29102 C 232.74069 160.81802 233.3568 159.90342 233.0918 158.10742 C 232.9758 157.69842 231.54922 156.88895 231.32422 157.75195 C 230.46722 157.31995 232.0472 156.38786 232.0332 155.63086 C 232.7922 156.16686 233.76334 156.49339 234.15234 157.40039 C 235.13434 157.31939 235.15287 156.27633 235.92188 155.98633 C 235.58187 155.03033 234.92934 154.38428 234.15234 153.86328 C 235.07334 151.58328 237.30452 153.3567 239.10352 152.0957 L 239.10352 149.97461 C 243.19752 146.17061 246.45789 141.53562 249.71289 136.89062 C 254.37964 136.33787 258.20128 135.07582 261.93359 135.12109 z M 29.0625 137.24805 C 32.3595 137.39005 36.477875 138.37655 39.671875 138.31055 C 40.937875 138.28255 43.082078 137.91955 45.330078 138.31055 C 47.747078 138.72855 51.337828 139.63212 52.048828 140.07812 C 53.791828 141.17613 54.631016 144.10537 56.291016 145.73438 C 58.156016 147.56438 59.978297 149.91609 62.654297 151.74609 C 62.240297 153.15909 61.555297 154.49372 62.654297 155.63672 C 63.644297 155.44772 64.494375 155.11669 65.484375 154.92969 C 67.507375 157.84669 69.888641 158.26394 72.556641 160.58594 C 72.098641 161.30794 70.841625 161.23103 71.140625 162.70703 C 70.829625 163.84403 72.059125 163.44105 72.203125 164.12305 C 73.236125 163.74005 74.053703 163.14444 73.970703 161.64844 C 75.035703 162.11444 76.471797 162.21305 76.091797 164.12305 C 74.875797 164.72205 71.460516 165.73667 69.728516 165.88867 C 69.486516 164.71767 69.3115 163.4765 68.3125 163.0625 C 67.3745 162.6715 67.119391 165.26702 66.900391 163.41602 C 66.339391 164.03502 66.424406 165.30014 66.191406 166.24414 C 60.579406 167.18214 50.998187 165.09305 46.742188 164.12305 L 46.742188 164.11719 C 40.207188 164.26719 33.473797 161.25695 24.466797 159.87695 C 18.688797 157.28695 12.158219 155.44511 8.1992188 151.03711 L 8.1992188 147.15039 C 14.438219 141.29739 21.9575 138.82505 29.0625 137.24805 z M 45.685547 146.79492 L 45.685547 146.79883 L 45.685547 146.80078 C 45.74842 147.01759 45.752531 147.17749 45.734375 147.3125 C 45.731764 147.33058 45.734136 147.35407 45.730469 147.37109 C 45.652605 147.73258 45.348921 147.86975 45.314453 148.28125 C 45.31439 148.28194 45.314515 148.28251 45.314453 148.2832 C 45.307867 148.36372 45.31233 148.45333 45.330078 148.55859 C 45.330204 148.55934 45.329951 148.5598 45.330078 148.56055 L 45.330078 148.56445 C 46.545741 150.14831 46.724631 149.51158 47.455078 150.50195 C 47.455431 150.50243 47.454725 150.50343 47.455078 150.50391 C 47.559554 150.64568 47.674891 150.82152 47.806641 151.04102 C 47.961089 150.80664 48.076211 150.57001 48.158203 150.33398 C 48.239815 150.09984 48.287273 149.86725 48.302734 149.63867 C 48.302779 149.63801 48.30269 149.63738 48.302734 149.63672 C 48.318022 149.40822 48.301555 149.18445 48.255859 148.96875 C 48.255731 148.96815 48.255988 148.9674 48.255859 148.9668 C 48.164157 148.53562 47.95314 148.13754 47.648438 147.80078 C 47.188921 147.29293 46.512696 146.92382 45.685547 146.79492 z M 40.21875 148.18945 C 40.050084 148.18135 39.869453 148.18608 39.673828 148.20508 C 39.663828 148.31008 39.652248 148.41419 39.630859 148.50977 C 39.566692 148.7965 39.415594 149.00375 38.964844 148.90625 L 38.964844 148.91406 C 38.960844 149.50806 39.082719 149.97461 39.277344 150.36914 C 39.277602 150.36966 39.277085 150.37057 39.277344 150.37109 C 39.471906 150.76492 39.739715 151.08656 40.027344 151.38867 C 40.335344 150.36167 40.556453 150.99216 41.439453 151.03516 C 41.461328 150.68766 41.437846 150.29606 41.601562 150.0918 C 41.699792 149.96924 41.865687 149.91394 42.148438 149.97656 C 42.148308 149.97591 42.148568 149.97526 42.148438 149.97461 C 42.096708 149.71659 42.024256 149.47899 41.925781 149.26758 C 41.876852 149.16243 41.820056 149.06447 41.757812 148.97266 C 41.757526 148.97223 41.7581 148.97113 41.757812 148.9707 C 41.695187 148.8785 41.626085 148.79434 41.548828 148.7168 C 41.239801 148.40612 40.809081 148.2176 40.21875 148.18945 z M 55.232422 151.03516 L 55.232422 151.03906 C 55.231741 151.03878 55.231151 151.03934 55.230469 151.03906 C 55.154469 151.61406 55.191325 152.07472 55.283203 152.48242 C 55.283672 152.4845 55.284685 152.4862 55.285156 152.48828 C 55.285289 152.48888 55.285023 152.48964 55.285156 152.49023 C 55.468296 153.30814 55.865907 153.90944 55.998047 154.77734 C 56.030387 154.99293 56.048742 155.22454 56.041016 155.48047 C 56.040955 155.48259 56.04108 155.48421 56.041016 155.48633 C 56.032932 155.74367 56.000821 156.02501 55.9375 156.33789 C 55.937357 156.3386 55.937643 156.33914 55.9375 156.33984 L 55.9375 156.34375 C 57.263317 156.77143 58.684002 156.6619 59.539062 155.9043 C 59.823595 155.6522 60.047313 155.32992 60.181641 154.92969 C 60.180986 154.9296 60.180342 154.92978 60.179688 154.92969 C 60.180174 154.92825 60.181156 154.92722 60.181641 154.92578 C 58.420641 154.68078 57.160031 153.94167 57.707031 151.38867 C 56.371031 151.05667 56.046422 151.36817 55.232422 151.03516 z M 240.16016 151.39258 C 239.97016 151.77008 239.86799 152.16458 239.85156 152.54297 C 239.83371 152.91997 239.90154 153.28121 240.05273 153.5918 C 240.05313 153.59262 240.05429 153.59293 240.05469 153.59375 C 240.05495 153.5943 240.05442 153.59516 240.05469 153.5957 C 240.12999 153.74948 240.22597 153.89083 240.3418 154.01562 C 240.45843 154.14233 240.59488 154.2514 240.75195 154.33984 C 240.75278 154.34031 240.75308 154.34133 240.75391 154.3418 C 241.06748 154.51768 241.46164 154.60953 241.93164 154.58203 L 241.92969 154.57812 C 241.9318 154.57801 241.93343 154.57825 241.93555 154.57812 C 241.76255 153.46113 242.57306 153.32952 242.28906 152.10352 C 242.2864 152.10238 242.28391 152.10074 242.28125 152.09961 C 241.95269 151.95965 241.6305 151.81362 241.28906 151.6875 C 241.2866 151.68659 241.28371 151.68645 241.28125 151.68555 C 241.11157 151.62307 240.93686 151.56494 240.75391 151.51562 C 240.75141 151.51495 240.7486 151.51434 240.74609 151.51367 C 240.56274 151.46456 240.37137 151.42395 240.16797 151.39453 C 240.1652 151.39413 240.16293 151.39297 240.16016 151.39258 z M 49.285156 152.07812 C 48.767672 152.07422 48.31041 152.13028 47.988281 152.32422 C 47.923729 152.36213 47.857023 152.39719 47.804688 152.44727 C 47.804715 152.44871 47.804659 152.44973 47.804688 152.45117 L 47.804688 152.45508 C 47.809855 152.71382 47.824375 152.9455 47.849609 153.15234 C 47.87492 153.36215 47.911019 153.54631 47.957031 153.70898 C 48.233336 154.68582 48.883766 154.87034 49.925781 154.92969 C 50.233366 154.18517 50.309344 153.52099 50.154297 152.81641 C 50.151247 152.80242 50.143857 152.78746 50.140625 152.77344 C 50.089735 152.55458 50.021103 152.33206 49.925781 152.10156 C 49.92528 152.10034 49.926284 152.09887 49.925781 152.09766 C 49.780227 152.09098 49.639624 152.08893 49.498047 152.08594 C 49.427581 152.08387 49.353967 152.07879 49.285156 152.07812 z M 249.35547 152.45117 C 249.35547 153.15117 248.38453 152.90133 248.64453 153.86133 L 248.64844 153.86523 C 248.64882 153.95462 248.66466 154.02878 248.69141 154.0918 C 248.77013 154.27731 248.94397 154.36805 249.09961 154.47656 C 249.10036 154.47708 249.10081 154.47799 249.10156 154.47852 C 249.15286 154.51439 249.20097 154.55172 249.24414 154.5957 C 249.24479 154.59636 249.24545 154.597 249.24609 154.59766 C 249.28911 154.64184 249.3269 154.6914 249.35352 154.75195 C 249.40752 154.87481 249.41972 155.04025 249.35547 155.28125 L 249.35742 155.28125 C 249.35722 155.282 249.35762 155.28245 249.35742 155.2832 L 251.12695 155.2832 C 250.95695 154.1702 252.21098 154.48311 251.83398 153.16211 C 251.83195 153.16143 251.83211 153.16083 251.83008 153.16016 C 251.34787 152.99959 251.05239 152.92124 250.85352 152.88086 C 250.25352 152.75904 250.54664 152.99418 249.35547 152.45117 z M 244.66992 153.80664 C 244.55453 153.81057 244.45639 153.83298 244.36914 153.86523 C 244.36801 153.86565 244.36636 153.86481 244.36523 153.86523 C 243.9388 154.01824 243.78792 154.44682 243.34766 154.58594 C 243.34677 154.58622 243.34659 154.58761 243.3457 154.58789 C 243.16911 154.641 242.94703 154.64784 242.64258 154.57227 C 242.64247 154.57367 242.64268 154.57476 242.64258 154.57617 C 242.64112 154.57582 242.64013 154.57653 242.63867 154.57617 C 242.54466 155.84853 243.2907 156.27892 243.3457 157.4043 L 245.11328 157.4043 C 245.11352 157.40375 245.11304 157.40289 245.11328 157.40234 L 245.11719 157.40234 C 245.57519 156.37534 245.57519 154.89223 245.11719 153.86523 L 245.12305 153.86328 C 244.9468 153.81958 244.7983 153.80224 244.66992 153.80664 z M 242.63867 154.57617 L 242.63867 154.57422 L 242.63281 154.57617 C 242.63481 154.57673 242.63667 154.57562 242.63867 154.57617 z M 35.757812 154.15234 C 35.662622 154.15934 35.554812 154.17844 35.429688 154.21484 L 35.429688 154.21875 C 35.104894 154.72734 34.962062 155.00306 34.927734 155.32617 C 34.910934 155.48431 34.91837 155.65333 34.945312 155.86719 C 34.945601 155.86949 34.94502 155.87074 34.945312 155.87305 C 34.972704 156.08911 35.01985 156.34934 35.074219 156.68945 L 35.074219 156.69531 C 36.047873 156.34308 35.976663 157.02782 36.314453 157.30859 C 36.363143 157.34906 36.420188 157.38307 36.490234 157.40234 C 36.6852 156.85945 37.050628 156.4874 37.210938 155.9082 C 37.242662 155.7946 37.2663 155.67335 37.279297 155.54102 C 37.279468 155.53923 37.27913 155.53695 37.279297 155.53516 C 37.291985 155.40223 37.293217 155.25717 37.28125 155.09961 C 37.281114 155.09787 37.28139 155.0955 37.28125 155.09375 C 37.268882 154.93544 37.242246 154.76314 37.199219 154.57422 C 37.198745 154.57214 37.199696 154.57044 37.199219 154.56836 C 36.453719 154.69349 36.424166 154.10627 35.757812 154.15234 z M 238.54883 154.93359 C 237.38024 154.93875 236.57156 155.96727 236.97656 157.75977 L 236.97852 157.75391 C 236.97854 157.75401 236.98045 157.7538 236.98047 157.75391 C 236.98092 157.75592 236.98001 157.75775 236.98047 157.75977 C 238.91824 158.55526 239.94303 157.48723 239.80859 155.28906 C 239.80803 155.28876 239.80721 155.28937 239.80664 155.28906 C 239.80643 155.28558 239.80686 155.28278 239.80664 155.2793 C 239.36914 155.0443 238.93836 154.93159 238.54883 154.93359 z M 239.80859 155.28906 L 239.81055 155.28906 L 239.80859 155.28516 C 239.80867 155.28616 239.8085 155.28806 239.80859 155.28906 z M 44.376953 155.87695 C 44.246408 155.88955 44.095141 155.92324 43.916016 155.98438 C 43.916212 155.98578 43.915821 155.98687 43.916016 155.98828 C 43.915296 155.98853 43.914783 155.98804 43.914062 155.98828 C 43.941642 156.18086 43.949882 156.35561 43.947266 156.51953 C 43.947131 156.52797 43.949428 156.5385 43.949219 156.54688 C 43.949203 156.54747 43.949235 156.54824 43.949219 156.54883 C 43.944843 156.71893 43.925134 156.87444 43.892578 157.01758 C 43.859889 157.1613 43.81408 157.29315 43.757812 157.41406 C 43.757564 157.4146 43.758062 157.41548 43.757812 157.41602 C 43.701698 157.53632 43.635222 157.64599 43.560547 157.74805 C 43.560224 157.74849 43.56087 157.74956 43.560547 157.75 L 43.560547 157.75391 C 44.051797 157.66128 44.259739 157.85028 44.371094 158.13672 C 44.407533 158.23134 44.434915 158.3364 44.457031 158.44531 C 44.457292 158.44659 44.456771 158.44794 44.457031 158.44922 C 44.501351 158.66852 44.531809 158.90372 44.599609 159.09961 C 44.66774 159.29819 44.773914 159.45712 44.976562 159.52148 C 44.976773 159.52016 44.97635 159.5189 44.976562 159.51758 C 44.998725 159.3794 45.032016 159.25301 45.072266 159.13281 C 45.274877 158.52887 45.668145 158.11474 45.884766 157.52344 C 45.885971 157.52015 45.887478 157.51697 45.888672 157.51367 C 45.931484 157.39606 45.966375 157.27131 45.992188 157.13672 C 46.018566 156.99917 46.036535 156.85081 46.039062 156.68945 C 45.160562 156.74285 45.290768 155.78874 44.376953 155.87695 z M 249.85547 156.29883 C 249.33844 156.31053 248.95789 156.46477 248.65039 156.69727 C 248.65037 156.69795 248.65041 156.69853 248.65039 156.69922 C 248.6497 156.69972 248.64912 156.70067 248.64844 156.70117 C 248.6402 157.06265 248.6754 157.37977 248.74023 157.66797 C 248.80507 157.95616 248.89953 158.21618 249.00781 158.46094 C 249.2242 158.95041 249.49809 159.38298 249.71094 159.87695 C 249.71129 159.87777 249.71254 159.87809 249.71289 159.87891 C 251.08389 160.07391 250.54247 158.35333 251.48047 158.11133 C 251.27447 157.84633 251.01772 157.63021 250.80859 157.36719 C 250.80805 157.3665 250.80718 157.36592 250.80664 157.36523 C 250.70286 157.23441 250.61209 157.09133 250.54297 156.92578 C 250.47367 156.75924 250.42797 156.569 250.41797 156.34375 L 250.42188 156.33594 C 250.21687 156.30594 250.02782 156.29493 249.85547 156.29883 z M 248.64844 156.70117 C 248.64849 156.69917 248.64839 156.69731 248.64844 156.69531 L 248.64453 156.70312 C 248.64553 156.70212 248.64744 156.70201 248.64844 156.70117 z M 52.222656 156.60938 C 52.074779 156.61011 51.900687 156.63701 51.695312 156.69531 L 51.695312 156.69727 C 51.489959 157.18931 51.387815 157.64862 51.388672 158.10938 C 51.387527 158.57077 51.489674 159.03071 51.695312 159.52344 L 51.695312 159.52539 L 54.171875 159.52539 C 54.177032 159.72617 54.189267 159.91942 54.210938 160.10352 C 54.232666 160.28882 54.262589 160.46408 54.304688 160.62891 C 54.346685 160.79324 54.40091 160.94558 54.466797 161.08594 C 54.467046 161.08647 54.466548 161.08736 54.466797 161.08789 C 54.598489 161.36855 54.780167 161.59648 55.029297 161.75977 C 55.029709 161.76004 55.030837 161.7595 55.03125 161.75977 C 55.404848 162.00401 55.927394 162.10195 56.646484 162.00195 C 56.646313 162.00123 56.646655 162.00072 56.646484 162 C 56.614656 161.86548 56.599123 161.74866 56.597656 161.64453 C 56.597647 161.64381 56.597664 161.6433 56.597656 161.64258 C 56.596323 161.53803 56.608335 161.44785 56.628906 161.36523 C 56.670204 161.19938 56.745786 161.07008 56.822266 160.93945 C 56.898165 160.80982 56.974374 160.67995 57.015625 160.51562 C 57.015767 160.51505 57.015484 160.51424 57.015625 160.51367 C 57.036054 160.43163 57.048019 160.33997 57.046875 160.23633 C 57.046868 160.23577 57.046883 160.23494 57.046875 160.23438 C 57.045549 160.13039 57.031641 160.01324 57 159.87891 C 56.999829 159.87818 57.000172 159.87768 57 159.87695 C 56.1855 159.86645 55.57073 159.65472 55.158203 159.24219 C 55.055071 159.13906 54.964706 159.02472 54.886719 158.89648 C 54.808443 158.76777 54.744342 158.62665 54.691406 158.47266 C 54.638573 158.31932 54.597983 158.15498 54.570312 157.97656 C 54.542642 157.79814 54.527891 157.6078 54.525391 157.4043 C 54.525382 157.40361 54.525399 157.40303 54.525391 157.40234 C 54.345359 157.45331 54.189825 157.48027 54.054688 157.48633 C 53.108727 157.52875 53.128403 156.60489 52.222656 156.60938 z M 59.638672 157.375 C 59.122797 157.3875 58.66961 157.46524 58.412109 157.74023 L 58.412109 157.75391 L 58.412109 157.75781 L 58.412109 159.52148 L 58.412109 159.52539 C 59.667109 160.00539 59.111156 160.10237 60.535156 160.23438 C 60.534829 160.2328 60.535479 160.23203 60.535156 160.23047 C 60.50501 160.08428 60.491923 159.96614 60.496094 159.87109 C 60.499809 159.77629 60.520366 159.70503 60.550781 159.65234 C 60.737732 159.33623 61.349703 159.71691 61.595703 159.87891 C 61.596034 159.87748 61.595375 159.87642 61.595703 159.875 C 61.630832 159.72376 61.648641 159.59057 61.654297 159.46875 C 61.654394 159.4666 61.654208 159.46503 61.654297 159.46289 C 61.655203 159.44211 61.65021 159.42631 61.650391 159.40625 C 61.651068 159.30765 61.648783 159.21284 61.634766 159.12891 C 61.634654 159.12824 61.634878 159.12762 61.634766 159.12695 C 61.624418 159.06445 61.596355 159.01948 61.580078 158.96289 C 61.543648 158.83686 61.509163 158.70804 61.458984 158.5957 C 61.387332 158.43601 61.313278 158.27948 61.265625 158.0957 C 61.242009 158.0034 61.224705 157.90487 61.21875 157.79492 C 61.218674 157.79353 61.218822 157.79241 61.21875 157.79102 C 61.212996 157.6794 61.219809 157.55574 61.240234 157.41797 C 61.239615 157.41799 61.238901 157.41794 61.238281 157.41797 C 61.239226 157.41151 61.239223 157.40692 61.240234 157.40039 C 60.732234 157.41539 60.154547 157.3625 59.638672 157.375 z M 64.777344 157.40234 C 64.777226 157.40304 64.777461 157.4036 64.777344 157.4043 L 64.777344 157.4082 C 64.735463 157.65702 64.709673 157.88629 64.703125 158.09961 C 64.703106 158.1002 64.703144 158.10097 64.703125 158.10156 C 64.696782 158.31164 64.707279 158.50708 64.732422 158.68555 C 64.883701 159.77426 65.593553 160.30242 66.546875 160.58789 C 67.108382 160.18648 67.241319 159.57083 67.119141 158.98047 C 67.108915 158.93106 67.109605 158.88093 67.095703 158.83203 C 67.058875 158.70165 67.002197 158.57622 66.941406 158.45312 C 66.928536 158.42706 66.922059 158.39864 66.908203 158.37305 C 66.907513 158.37178 66.906942 158.37041 66.90625 158.36914 C 66.667309 157.92984 66.28632 157.56429 65.839844 157.40234 C 65.839725 157.40305 65.839964 157.40359 65.839844 157.4043 C 65.828273 157.47194 65.807113 157.52704 65.779297 157.57031 C 65.582559 157.87638 65.026719 157.61584 64.777344 157.40234 z M 234.85742 158.81445 L 234.86133 158.82227 C 234.54466 159.33279 234.56965 160.17423 233.44336 159.86523 L 233.44727 159.875 C 233.44499 159.87437 233.44369 159.87369 233.44141 159.87305 C 233.33366 161.16345 233.59269 162.08754 234.35156 162.50977 C 234.50129 162.59307 234.66961 162.65598 234.85938 162.69922 C 235.24444 162.788 235.71369 162.79313 236.27734 162.70312 C 236.58534 161.60112 237.63834 159.95792 236.27734 159.16992 C 236.27701 159.17097 236.27573 159.17083 236.27539 159.17188 C 236.27361 159.17084 236.27327 159.169 236.27148 159.16797 C 236.14214 159.57281 235.9428 159.65258 235.73242 159.58398 C 235.73192 159.58381 235.73097 159.58416 235.73047 159.58398 C 235.66188 159.56132 235.59233 159.52072 235.52344 159.47266 C 235.24092 159.27353 234.97428 158.91441 234.86328 158.81641 C 234.86253 158.8176 234.86207 158.81912 234.86133 158.82031 C 234.86032 158.81941 234.8584 158.81532 234.85742 158.81445 z M 63.009766 159.87109 C 62.788769 160.26264 62.58029 160.72873 62.462891 161.20703 C 62.424375 161.36395 62.394624 161.52214 62.378906 161.67969 C 62.378714 161.68158 62.379095 161.68365 62.378906 161.68555 C 62.36352 161.84299 62.35984 161.99863 62.373047 162.15234 C 62.412129 162.62143 62.597068 163.06401 63.009766 163.41797 L 63.009766 163.41406 C 63.565838 162.8361 64.285698 162.93344 64.728516 162.51172 C 64.816741 162.42795 64.894296 162.32374 64.957031 162.18945 C 64.957257 162.18897 64.956806 162.18798 64.957031 162.1875 C 65.019677 162.05291 65.06754 161.8877 65.097656 161.68359 C 65.097735 161.68306 65.097578 161.68218 65.097656 161.68164 C 65.127672 161.47706 65.140471 161.23267 65.130859 160.93945 C 65.130834 160.93868 65.130885 160.93827 65.130859 160.9375 C 64.21286 160.7965 64.065766 159.881 63.009766 159.875 L 63.009766 159.87109 z M 238.9082 161.68359 C 238.70572 161.66672 238.51741 161.6983 238.34961 161.76758 C 237.76132 162.00844 237.41284 162.70624 237.47852 163.37891 C 237.47858 163.37956 237.47845 163.38021 237.47852 163.38086 C 237.51564 163.76552 237.68889 164.14109 238.03125 164.41602 C 238.03199 164.41661 238.03246 164.41737 238.0332 164.41797 C 238.29056 164.62495 238.64387 164.77567 239.10547 164.83203 C 239.71847 164.26403 240.39297 163.76247 240.16797 162.35547 L 240.16602 162.35352 C 240.16421 162.35178 240.16196 162.35134 240.16016 162.34961 C 240.15994 162.34821 240.16038 162.3471 240.16016 162.3457 C 239.93582 162.12975 239.71624 161.9744 239.50781 161.86719 C 239.40217 161.81285 239.2995 161.77015 239.19922 161.74023 C 239.11828 161.71609 239.04178 161.70298 238.96484 161.69336 C 238.94634 161.69105 238.92646 161.68511 238.9082 161.68359 z M 51.951172 161.79883 C 51.634688 161.78413 51.303281 161.85083 50.988281 161.99609 C 50.988077 161.99884 50.988481 162.00116 50.988281 162.00391 C 50.987703 162.00417 50.986906 162.00364 50.986328 162.00391 C 50.882328 163.40191 51.418828 164.16403 52.048828 164.83203 C 52.047029 164.82662 52.048598 164.82369 52.046875 164.81836 C 52.048467 164.82005 52.049188 164.82253 52.050781 164.82422 C 52.006453 164.69208 51.983985 164.58345 51.982422 164.49414 C 51.980858 164.40483 51.999836 164.33566 52.033203 164.28125 C 52.166672 164.06363 52.548721 164.09301 52.927734 164.11719 C 53.117506 164.13056 53.306141 164.14305 53.462891 164.12305 C 53.463224 164.12098 53.462561 164.11925 53.462891 164.11719 C 53.493024 163.93092 53.506101 163.75746 53.505859 163.59375 C 53.505851 163.59167 53.505872 163.58997 53.505859 163.58789 C 53.505303 163.42538 53.490058 163.27308 53.462891 163.13281 C 53.296648 162.2745 52.665248 161.8319 51.951172 161.79883 z M 57.707031 161.99414 C 57.706657 161.99446 57.707405 161.99577 57.707031 161.99609 C 57.596094 162.09172 57.500179 162.18697 57.417969 162.2832 C 57.335855 162.37941 57.266664 162.474 57.210938 162.57031 C 57.210688 162.57074 57.211187 162.57184 57.210938 162.57227 C 57.155664 162.66804 57.11155 162.764 57.080078 162.85938 C 57.0799 162.85991 57.080256 162.86079 57.080078 162.86133 C 57.073415 162.88161 57.072055 162.90162 57.066406 162.92188 C 56.991563 163.1884 57.000185 163.45175 57.074219 163.70703 C 57.074399 163.70765 57.074038 163.70836 57.074219 163.70898 C 57.180967 164.07552 57.416686 164.42418 57.705078 164.74023 C 58.138554 165.21529 58.692416 165.6165 59.119141 165.88672 L 59.119141 165.88477 C 59.119055 165.88399 59.119224 165.88359 59.119141 165.88281 C 59.1031 165.73459 59.113183 165.61438 59.144531 165.51367 C 59.144713 165.51309 59.144348 165.5123 59.144531 165.51172 C 59.176077 165.41128 59.229297 165.3319 59.294922 165.26562 C 59.361024 165.19915 59.440192 165.14699 59.527344 165.10156 C 59.528084 165.10118 59.528555 165.09999 59.529297 165.09961 C 59.790373 164.96408 60.115442 164.89327 60.324219 164.70508 C 60.324882 164.70448 60.325511 164.70373 60.326172 164.70312 C 60.395506 164.64061 60.451197 164.56553 60.488281 164.4707 C 60.488483 164.47018 60.488081 164.46927 60.488281 164.46875 C 60.525153 164.37368 60.543823 164.25788 60.535156 164.11719 C 60.534875 164.11675 60.535437 164.11567 60.535156 164.11523 C 60.454812 163.9898 60.362198 163.87472 60.263672 163.76758 C 59.571233 163.01456 58.482667 162.6621 57.707031 161.99414 z M 243.78125 167.58203 C 244.11387 167.57303 244.44171 167.57489 244.76562 167.58789 C 245.62938 167.62349 246.45797 167.74727 247.23047 168.00977 C 246.78747 173.57477 240.81655 173.61509 237.68555 176.49609 C 229.51855 177.42209 221.96464 179.9153 212.93164 182.1543 C 206.55864 183.2713 200.51394 182.75194 195.96094 185.33594 C 192.04394 185.17194 186.50041 185.66048 181.10742 186.39648 C 174.87841 187.24847 169.11731 187.36902 165.19531 188.16602 C 151.04031 187.79202 134.49113 189.374 121.70312 186.75 C 115.20913 188.048 110.53894 184.96397 105.08594 186.04297 C 94.575943 183.76297 85.070813 182.07125 73.257812 180.03125 C 71.977812 178.52025 70.830078 179.26319 67.955078 178.61719 C 64.286078 175.09819 56.821531 175.37333 54.519531 170.48633 C 60.159531 166.54733 68.987438 171.49433 77.148438 170.48633 C 77.551438 170.55333 77.344437 170.83984 77.148438 170.83984 C 81.404438 171.30984 84.962438 171.57092 89.523438 171.54492 C 94.167438 171.88192 104.06763 173.12641 108.26562 173.31641 C 108.58763 173.33041 108.57419 172.60442 108.61719 172.60742 C 121.44819 173.58342 148.01453 174.56541 157.76953 173.31641 C 161.80053 174.00441 163.59045 174.08141 167.31445 173.31641 C 173.16745 173.46041 177.87202 173.22291 182.16602 172.96094 C 192.25802 172.34494 202.6997 172.42533 214.3457 170.48633 C 216.4527 170.53733 222.11363 170.57083 226.01562 170.13281 C 228.95462 169.80181 231.91948 168.15231 234.14648 169.07031 C 234.48948 169.21531 236.14909 168.40028 236.62109 168.36328 L 236.62109 168.38086 C 238.93765 168.20367 241.45294 167.64668 243.78125 167.58203 z "
       style="clip-rule:evenodd;fill:#000000;fill-rule:evenodd" /></g><metadata
     id="metadata6191"><rdf:RDF><cc:Work><dc:format>image/svg+xml</dc:format><dc:type
           rdf:resource="http://purl.org/dc/dcmitype/StillImage" /><cc:license
           rdf:resource="http://creativecommons.org/publicdomain/zero/1.0/" /><dc:publisher><cc:Agent
             rdf:about="http://openclipart.org/"><dc:title>Openclipart</dc:title></cc:Agent></dc:publisher><dc:title></dc:title><dc:date>2007-11-13T15:15:24</dc:date><dc:description>Ready-To-Use Food And Drink Spot Illustrations by Susan Gaber 1982\n\nBook as a whole is under copyright but contents are copyright-free\n\nFrom archive.org</dc:description><dc:source>https://openclipart.org/detail/8202/oatmeal-by-johnny_automatic-8202</dc:source><dc:creator><cc:Agent><dc:title>johnny_automatic</dc:title></cc:Agent></dc:creator><dc:subject><rdf:Bag><rdf:li>breakfast</rdf:li><rdf:li>cereal</rdf:li><rdf:li>externalsource</rdf:li><rdf:li>food</rdf:li><rdf:li>oatmeal</rdf:li></rdf:Bag></dc:subject></cc:Work><cc:License
         rdf:about="http://creativecommons.org/publicdomain/zero/1.0/"><cc:permits
           rdf:resource="http://creativecommons.org/ns#Reproduction" /><cc:permits
           rdf:resource="http://creativecommons.org/ns#Distribution" /><cc:permits
           rdf:resource="http://creativecommons.org/ns#DerivativeWorks" /></cc:License></rdf:RDF></metadata></svg>